<svg id="Grupo_184656" data-name="Grupo 184656" xmlns="http://www.w3.org/2000/svg" width="154.351" height="197.74" viewBox="0 0 154.351 197.74">
  <g id="Grupo_184635" data-name="Grupo 184635" transform="translate(6.95 0.124)">
    <path id="Trazado_181734" data-name="Trazado 181734" d="M1834-885.944c4.951-9.9,3.66-23.462,3.66-23.462a54.532,54.532,0,0,0-28.352,6.148,44.62,44.62,0,0,0-24.385-7.655,46.855,46.855,0,0,0-26.643,8.556h0s-9.09-8.339-28.677-5.971c0,0-2.434,11.386,9.223,32.061l.005-.007a47.95,47.95,0,0,0-2.339,14.763c0,26.927,22.753,48.109,48.431,48.109S1834-832,1834-858.93a49.859,49.859,0,0,0-3.627-18.417h0v0l-.121-.3C1830.417-878.359,1831.219-880.386,1834-885.944Z" transform="translate(-1729.389 910.913)" fill="#ecdac5"/>
  </g>
  <g id="Grupo_184636" data-name="Grupo 184636" transform="translate(89.38 3.853)">
    <path id="Trazado_181735" data-name="Trazado 181735" d="M1872.5-878.419s-5.9-15.721-18.217-22.243c0,0,7.51-6.119,23.944-4.243C1878.231-904.905,1878.492-888.959,1872.5-878.419Z" transform="translate(-1854.287 905.263)" fill="#a9690f"/>
  </g>
  <g id="Grupo_184637" data-name="Grupo 184637" transform="translate(98.147 135.448)">
    <ellipse id="Elipse_3655" data-name="Elipse 3655" cx="27.283" cy="7.749" rx="27.283" ry="7.749" transform="translate(0 21.868) rotate(-23.625)" fill="#e8ba81"/>
  </g>
  <g id="Grupo_184638" data-name="Grupo 184638" transform="translate(0 76.462)">
    <path id="Trazado_181736" data-name="Trazado 181736" d="M1847.114-730.286c0-20.664-21.956-63.068-21.956-63.068s-15.5,21.17-40.9,21.525c-30.781.431-43.266-20.449-43.266-20.449s-23.893,35.947-20.879,61.993c3.5,30.232,33.711,55.1,64.145,55.105C1821.069-675.18,1847.114-699.852,1847.114-730.286Z" transform="translate(-1719.197 794.603)" fill="#e21989"/>
    <path id="Trazado_181737" data-name="Trazado 181737" d="M1783.925-675.165h0c-14.8,0-30.325-5.968-42.6-16.372-12.62-10.7-20.5-24.659-22.2-39.316-1.574-13.606,4.224-29.867,9.365-41.114a173.2,173.2,0,0,1,11.62-21.32l.579-.87.537.9c.122.2,12.422,20.134,41.775,20.134.3,0,.607,0,.915-.006,24.765-.347,40.221-21.047,40.375-21.255l.629-.859.49.944c.055.107,5.564,10.777,11,23.836,7.319,17.577,11.029,30.88,11.029,39.537a52.5,52.5,0,0,1-17.843,39.456C1817.874-680.956,1801.655-675.165,1783.925-675.165Zm-43.262-116.549a176.184,176.184,0,0,0-10.984,20.314c-5.067,11.088-10.784,27.1-9.246,40.4,1.657,14.322,9.379,27.981,21.743,38.46,12.041,10.206,27.256,16.059,41.746,16.059,17.406,0,33.312-5.671,44.79-15.97a51.2,51.2,0,0,0,17.4-38.474c0-18.6-18.247-55.572-21.417-61.851-3.23,3.947-18.225,20.653-40.768,20.968-16.09.224-27.138-5.419-33.578-10.193A43.521,43.521,0,0,1,1740.663-791.714Z" transform="translate(-1718.859 795.246)" fill="#f79610"/>
  </g>
  <g id="Grupo_184639" data-name="Grupo 184639" transform="translate(18.246 121.622)">
    <path id="Trazado_181738" data-name="Trazado 181738" d="M1746.505-726.82v59.087h29.059V-726.82" transform="translate(-1746.505 726.82)" fill="#ecdac5"/>
  </g>
  <g id="Grupo_184640" data-name="Grupo 184640" transform="translate(81.53 121.622)">
    <path id="Trazado_181739" data-name="Trazado 181739" d="M1842.393-726.82v59.087h29.059V-726.82" transform="translate(-1842.393 726.82)" fill="#ecdac5"/>
  </g>
  <g id="Grupo_184641" data-name="Grupo 184641" transform="translate(13.323 175.77)">
    <ellipse id="Elipse_3656" data-name="Elipse 3656" cx="18.888" cy="10.332" rx="18.888" ry="10.332" transform="translate(0.33 0.33)" fill="#f8c328"/>
    <path id="Trazado_181740" data-name="Trazado 181740" d="M1758.264-623.451c-10.6,0-19.219-4.783-19.219-10.661s8.621-10.663,19.219-10.663,19.219,4.784,19.219,10.663S1768.861-623.451,1758.264-623.451Zm0-20.664c-10.233,0-18.559,4.487-18.559,10s8.326,10,18.559,10,18.559-4.487,18.559-10S1768.5-644.115,1758.264-644.115Z" transform="translate(-1739.045 644.775)" fill="#f5c07f"/>
  </g>
  <g id="Grupo_184642" data-name="Grupo 184642" transform="translate(76.637 176.416)">
    <ellipse id="Elipse_3657" data-name="Elipse 3657" cx="18.888" cy="10.332" rx="18.888" ry="10.332" transform="translate(0.33 0.33)" fill="#f8c328"/>
    <path id="Trazado_181741" data-name="Trazado 181741" d="M1854.2-622.472c-10.6,0-19.219-4.783-19.219-10.663S1843.6-643.8,1854.2-643.8s19.218,4.782,19.218,10.661S1864.794-622.472,1854.2-622.472Zm0-20.664c-10.234,0-18.559,4.487-18.559,10s8.325,10,18.559,10,18.558-4.487,18.558-10S1864.431-643.136,1854.2-643.136Z" transform="translate(-1834.979 643.796)" fill="#f5c07f"/>
  </g>
  <g id="Grupo_184643" data-name="Grupo 184643" transform="translate(56.537 40.884)">
    <path id="Trazado_181742" data-name="Trazado 181742" d="M1804.524-844.577s3.369,5.451,8.142,5.128,7.356-5.128,7.356-5.128a8.9,8.9,0,0,0-7.1-4.558C1807.88-849.494,1804.524-844.577,1804.524-844.577Z" transform="translate(-1804.524 849.154)" fill="#e97ebd"/>
  </g>
  <g id="Grupo_184644" data-name="Grupo 184644" transform="translate(9.368 4.102)">
    <path id="Trazado_181743" data-name="Trazado 181743" d="M1740.29-875.982s5.2-15.579,17.463-23.116c0,0-7.98-8.04-24.7-5.168C1733.053-904.266,1733.6-886.75,1740.29-875.982Z" transform="translate(-1733.053 904.886)" fill="#a9690f"/>
  </g>
  <g id="Grupo_184645" data-name="Grupo 184645" transform="translate(0.656 78.787)">
    <path id="Trazado_181744" data-name="Trazado 181744" d="M1740.995-791.724s-14.573,20.46-21.142,45.979l17.591,14.52,28.59,7.48,6.208,6.717-5.739,39.651a53.368,53.368,0,0,0,24.216,2.751c13.642-1.6,16.909-3.644,16.909-3.644l-11.464-38.758-25.537-43.236L1751.972-780.7S1742.326-786.166,1740.995-791.724Z" transform="translate(-1719.852 791.724)" fill="#eda8cc"/>
  </g>
  <g id="Grupo_184646" data-name="Grupo 184646" transform="translate(38.963 78.072)">
    <path id="Trazado_181745" data-name="Trazado 181745" d="M1844.528-792.807s14.573,20.46,21.142,45.979l-17.591,14.52-28.59,7.48-6.208,6.717,5.739,39.651a53.36,53.36,0,0,1-24.216,2.751c-13.643-1.6-16.909-3.644-16.909-3.644l11.464-38.758,25.537-43.236,18.654-20.432S1843.2-787.249,1844.528-792.807Z" transform="translate(-1777.895 792.807)" fill="#eda8cc"/>
  </g>
  <g id="Grupo_184647" data-name="Grupo 184647" transform="translate(30.863 25.253)">
    <path id="Trazado_181746" data-name="Trazado 181746" d="M1793.66-860c0,5.5-6.017,7.116-13.439,7.116s-14.1-9.537-14.1-15.036,6.677-4.307,14.1-4.307S1793.66-865.5,1793.66-860Z" transform="translate(-1765.792 872.669)" fill="#fff"/>
    <path id="Trazado_181747" data-name="Trazado 181747" d="M1780.051-852.727c-7.441,0-14.429-9.586-14.429-15.366a4.13,4.13,0,0,1,1.15-3.128c1.818-1.772,5.554-1.677,9.878-1.567,1.1.028,2.241.057,3.4.057,7.627,0,13.769,6.869,13.769,12.557C1793.82-855.232,1789.187-852.727,1780.051-852.727Zm-6.365-19.452c-2.877,0-5.231.24-6.453,1.431a3.511,3.511,0,0,0-.951,2.655c0,5.532,6.669,14.706,13.769,14.706,8.7,0,13.109-2.284,13.109-6.787,0-5.389-5.848-11.9-13.109-11.9-1.165,0-2.312-.029-3.417-.057C1775.61-872.153,1774.621-872.179,1773.686-872.179Z" transform="translate(-1765.622 872.839)"/>
  </g>
  <g id="Grupo_184648" data-name="Grupo 184648" transform="translate(40.346 29.672)">
    <circle id="Elipse_3658" data-name="Elipse 3658" cx="5.276" cy="5.276" r="5.276" transform="translate(0.33 0.33)"/>
    <path id="Trazado_181748" data-name="Trazado 181748" d="M1785.6-854.93a5.612,5.612,0,0,1-5.606-5.606,5.612,5.612,0,0,1,5.606-5.606,5.612,5.612,0,0,1,5.605,5.606A5.612,5.612,0,0,1,1785.6-854.93Zm0-10.552a4.952,4.952,0,0,0-4.946,4.946,4.952,4.952,0,0,0,4.946,4.946,4.951,4.951,0,0,0,4.945-4.946A4.951,4.951,0,0,0,1785.6-865.482Z" transform="translate(-1779.991 866.142)" fill="#fff"/>
  </g>
  <g id="Grupo_184649" data-name="Grupo 184649" transform="translate(68.193 24.687)">
    <path id="Trazado_181749" data-name="Trazado 181749" d="M1850.222-868.214c0,5.5-6.677,14.944-14.1,14.944s-13.439-2.186-13.439-7.684,6.016-12.227,13.439-12.227S1850.222-873.712,1850.222-868.214Z" transform="translate(-1822.354 873.525)" fill="#fff"/>
    <path id="Trazado_181750" data-name="Trazado 181750" d="M1835.953-853.11c-8.75,0-13.769-2.921-13.769-8.014,0-5.688,6.142-12.557,13.769-12.557q.914,0,1.808-.007c5-.03,9.323-.055,11.39,2a4.41,4.41,0,0,1,1.231,3.3C1850.382-862.639,1843.393-853.11,1835.953-853.11Zm3.551-19.925c-.568,0-1.148,0-1.739.007s-1.2.007-1.812.007c-7.261,0-13.109,6.508-13.109,11.9,0,6.637,9.167,7.354,13.109,7.354,7.1,0,13.769-9.117,13.769-14.614a3.787,3.787,0,0,0-1.036-2.836C1847.041-872.856,1843.6-873.035,1839.5-873.035Z" transform="translate(-1822.184 873.696)"/>
  </g>
  <g id="Grupo_184650" data-name="Grupo 184650" transform="translate(77.016 29.672)">
    <circle id="Elipse_3659" data-name="Elipse 3659" cx="5.276" cy="5.276" r="5.276" transform="translate(0.33 0.33)"/>
    <path id="Trazado_181751" data-name="Trazado 181751" d="M1841.158-854.93a5.612,5.612,0,0,1-5.605-5.606,5.612,5.612,0,0,1,5.605-5.606,5.612,5.612,0,0,1,5.606,5.606A5.612,5.612,0,0,1,1841.158-854.93Zm0-10.552a4.951,4.951,0,0,0-4.945,4.946,4.951,4.951,0,0,0,4.945,4.946,4.952,4.952,0,0,0,4.946-4.946A4.952,4.952,0,0,0,1841.158-865.482Z" transform="translate(-1835.553 866.142)" fill="#fff"/>
  </g>
  <g id="Grupo_184651" data-name="Grupo 184651" transform="translate(41.325 52.275)">
    <path id="Trazado_181752" data-name="Trazado 181752" d="M1783.766-821.142l14.9-9.6,6.737,2.359,5.307-2.359,13.269,9.6-15.718,5h-9.594Z" transform="translate(-1782.254 831.504)" fill="#fa0f0c"/>
    <path id="Trazado_181753" data-name="Trazado 181753" d="M1807.586-815.869h-9.805l-16.305-5.475,16.327-10.523,6.794,2.38,5.416-2.408,14.636,10.594Zm-9.589-1.32h9.384l14.374-4.576-11.9-8.615-5.2,2.311-6.68-2.339-13.476,8.686Z" transform="translate(-1781.475 831.894)" fill="#f79610"/>
  </g>
  <g id="Grupo_184652" data-name="Grupo 184652" transform="translate(13.796)">
    <path id="Trazado_181754" data-name="Trazado 181754" d="M1753.932-890.392s-14.805,43.484,4.811,39.627c0,0-5.137,15.737-15.094,7.3,0,0-11.012-22.55,4.035-44.97s41.96-30.211,67.662-14.216,24.7,51.622,18.327,61.671-17.7-6.957-15.943-12.677c0,0,15.432,5.671,9.589-19.359s-32.425-32.744-37.067-24.072c0,0-15.316-13.952-13.059,0C1777.193-897.085,1760.532-906.892,1753.932-890.392Z" transform="translate(-1739.762 911.101)" fill="#e4e714"/>
  </g>
  <g id="Grupo_184655" data-name="Grupo 184655" transform="translate(22.132 12.455)">
    <g id="Grupo_184653" data-name="Grupo 184653" transform="translate(0 2.667)">
      <path id="Trazado_181755" data-name="Trazado 181755" d="M1752.393-888.189s29.919,2.9,40.039,10.552c0,0,7.479-7.638,39.6-10.552" transform="translate(-1752.393 888.189)" fill="#fff"/>
    </g>
    <g id="Grupo_184654" data-name="Grupo 184654">
      <path id="Trazado_181756" data-name="Trazado 181756" d="M1752.393-889.563a37.6,37.6,0,0,1,5.45-1.382c1.819-.348,3.634-.577,5.456-.758a66.7,66.7,0,0,1,10.935-.118,58.872,58.872,0,0,1,11.031,1.791,44.136,44.136,0,0,1,5.641,1.906,28.032,28.032,0,0,1,5.906,3.324l-9.566.71.26-.252.205-.187.261-.222.263-.218.219-.169c.274-.2.585-.446.833-.608.515-.345,1.036-.694,1.515-.958l.739-.419.717-.367c.476-.231.96-.5,1.427-.686.945-.406,1.881-.812,2.811-1.119.936-.345,1.858-.634,2.786-.888a54.573,54.573,0,0,1,11.036-1.893c1.829-.14,3.653-.156,5.474-.149,1.82.071,3.635.145,5.444.351,1.812.234,3.613.463,5.413.849a45.4,45.4,0,0,1,5.382,1.466,50.209,50.209,0,0,1-4.918,2.541c-1.63.774-3.245,1.508-4.856,2.184s-3.19,1.379-4.779,1.991l-2.347.972c-.779.312-1.567.6-2.328.928-3.081,1.238-6.073,2.466-8.883,3.723-.7.323-1.4.62-2.049.959-.325.168-.674.318-.988.482l-.934.5c-.323.162-.585.329-.878.491l-.424.242-.373.243c-.273.16-.464.3-.665.437-.114.073-.134.108-.208.158-.012.009-.042.029-.038.028l.017-.01.014-.013.085-.079.143-.141-9.566.71a21.446,21.446,0,0,0-3.124-1.872c-1.256-.646-2.644-1.265-4.077-1.89-2.88-1.239-5.965-2.436-9.1-3.695s-6.342-2.56-9.574-3.992c-1.615-.729-3.242-1.462-4.871-2.272S1754.04-888.581,1752.393-889.563Z" transform="translate(-1752.393 892.23)"/>
    </g>
  </g>
</svg>
