<svg xmlns="http://www.w3.org/2000/svg" xmlns:xlink="http://www.w3.org/1999/xlink" width="267.477" height="423.78" viewBox="0 0 267.477 423.78">
  <defs>
    <linearGradient id="linear-gradient" x1="0.5" y1="-90.307" x2="0.5" y2="-89.309" gradientUnits="objectBoundingBox">
      <stop offset="0.006" stop-color="#f7f719"/>
      <stop offset="0.197" stop-color="#fbd215"/>
      <stop offset="0.399" stop-color="#f9a61f"/>
      <stop offset="0.596" stop-color="#f8c317"/>
      <stop offset="0.813" stop-color="#f7dc17"/>
      <stop offset="0.944" stop-color="#f8e618"/>
    </linearGradient>
    <linearGradient id="linear-gradient-2" x1="0.5" y1="-37.104" x2="0.5" y2="-36.057" gradientUnits="objectBoundingBox">
      <stop offset="0.005" stop-color="#ec1681"/>
      <stop offset="0.035" stop-color="#ea247f"/>
      <stop offset="0.079" stop-color="#ed3b6d"/>
      <stop offset="0.128" stop-color="#eb4b5b"/>
      <stop offset="0.182" stop-color="#eb5c49"/>
      <stop offset="0.24" stop-color="#e96839"/>
      <stop offset="0.306" stop-color="#e9732a"/>
      <stop offset="0.382" stop-color="#e97a20"/>
      <stop offset="0.476" stop-color="#e7801a"/>
      <stop offset="0.605" stop-color="#e78317"/>
      <stop offset="0.94" stop-color="#e78417"/>
    </linearGradient>
    <linearGradient id="linear-gradient-3" x1="0" y1="-141.524" x2="1" y2="-141.524" xlink:href="#linear-gradient"/>
    <linearGradient id="linear-gradient-4" x1="-0.004" y1="-110.175" x2="0.999" y2="-110.175" gradientUnits="objectBoundingBox">
      <stop offset="0.018"/>
      <stop offset="0.221" stop-color="#e0e0e0"/>
      <stop offset="0.544" stop-color="#fff"/>
      <stop offset="0.994" stop-color="#ecf354"/>
    </linearGradient>
    <linearGradient id="linear-gradient-5" x1="-0.001" y1="-103.158" x2="1.001" y2="-103.158" xlink:href="#linear-gradient-4"/>
    <linearGradient id="linear-gradient-6" x1="0.001" y1="-93.74" x2="0.996" y2="-93.74" xlink:href="#linear-gradient-4"/>
    <linearGradient id="linear-gradient-7" x1="-0.001" y1="-99.945" x2="1.001" y2="-99.945" xlink:href="#linear-gradient-4"/>
    <linearGradient id="linear-gradient-9" x1="-0.001" y1="-107.014" x2="1.001" y2="-107.014" xlink:href="#linear-gradient-4"/>
    <linearGradient id="linear-gradient-10" x1="-0.004" y1="-93.74" x2="0.999" y2="-93.74" xlink:href="#linear-gradient-4"/>
    <linearGradient id="linear-gradient-11" x1="-0.001" y1="-93.74" x2="1.001" y2="-93.74" xlink:href="#linear-gradient-4"/>
    <linearGradient id="linear-gradient-12" x1="0.003" y1="-110.931" x2="1.006" y2="-110.931" xlink:href="#linear-gradient-4"/>
    <linearGradient id="linear-gradient-14" x1="0.001" y1="-99.814" x2="0.996" y2="-99.814" xlink:href="#linear-gradient-4"/>
    <linearGradient id="linear-gradient-15" x1="-0.004" y1="-92.743" x2="0.999" y2="-92.743" xlink:href="#linear-gradient-4"/>
    <linearGradient id="linear-gradient-16" x1="-0.001" y1="-92.743" x2="1.001" y2="-92.743" xlink:href="#linear-gradient-4"/>
    <linearGradient id="linear-gradient-17" x1="0.001" y1="-92.743" x2="0.996" y2="-92.743" xlink:href="#linear-gradient-4"/>
    <linearGradient id="linear-gradient-18" x1="-0.001" y1="-98.882" x2="1.001" y2="-98.882" xlink:href="#linear-gradient-4"/>
    <linearGradient id="linear-gradient-20" x1="-0.001" y1="-105.878" x2="1.001" y2="-105.878" xlink:href="#linear-gradient-4"/>
    <linearGradient id="linear-gradient-22" x1="-0.001" y1="-92.743" x2="1.001" y2="-92.743" xlink:href="#linear-gradient-4"/>
    <linearGradient id="linear-gradient-23" x1="0.003" y1="-109.754" x2="1.006" y2="-109.754" xlink:href="#linear-gradient-4"/>
    <linearGradient id="linear-gradient-25" x1="0.001" y1="-92.743" x2="1" y2="-92.743" xlink:href="#linear-gradient-4"/>
    <linearGradient id="linear-gradient-26" y1="-53.083" x2="1" y2="-53.083" gradientUnits="objectBoundingBox">
      <stop offset="0.025" stop-color="#f7eb55"/>
      <stop offset="0.548" stop-color="#e8340a"/>
      <stop offset="1" stop-color="#6a3e0b"/>
    </linearGradient>
    <linearGradient id="linear-gradient-27" x1="-0.004" y1="-52.673" x2="0.999" y2="-52.673" gradientUnits="objectBoundingBox">
      <stop offset="0.018"/>
      <stop offset="0.548" stop-color="#e8340a"/>
      <stop offset="1" stop-color="#6a3e0b"/>
    </linearGradient>
  </defs>
  <g id="Grupo_184245" data-name="Grupo 184245" transform="translate(-2314.704 -1671.332)">
    <g id="Capa_2" data-name="Capa 2" transform="translate(2314.704 1751.2)">
      <g id="Grupo_184237" data-name="Grupo 184237">
        <g id="Grupo_184172" data-name="Grupo 184172" transform="translate(169.665 235.506)">
          <ellipse id="Elipse_3622" data-name="Elipse 3622" cx="47.481" cy="13.486" rx="47.481" ry="13.486" transform="translate(0 38.056) rotate(-23.625)"/>
          <path id="Trazado_181041" data-name="Trazado 181041" d="M2477.215,1999.507c-5.691,0-9.342-1.366-10.5-4-3.16-7.224,13.705-21.34,38.393-32.139s46.5-13.6,49.662-6.377h0c1.556,3.556-1.669,8.877-9.081,14.983-7.235,5.96-17.646,12.053-29.312,17.156s-23.208,8.612-32.5,9.88A49.827,49.827,0,0,1,2477.215,1999.507Zm67.24-45.375c-9.147,0-23.751,3.665-38.882,10.284-23.294,10.189-40.605,24.215-37.8,30.628,1.312,3,7.128,4.027,15.959,2.824,9.185-1.253,20.618-4.732,32.191-9.794s21.886-11.1,29.041-16.991c6.879-5.666,10.071-10.637,8.759-13.637h0C2552.739,1955.2,2549.39,1954.132,2544.454,1954.132Z" transform="translate(-2461.841 -1944.861)" fill="#444"/>
        </g>
        <g id="Grupo_184173" data-name="Grupo 184173" transform="translate(10.953)">
          <path id="Trazado_181042" data-name="Trazado 181042" d="M2506.291,1784.323c8.615-17.231,6.368-40.832,6.368-40.832-28.844-1.5-49.342,10.7-49.342,10.7-12.756-8.367-27.37-13.323-42.436-13.323a81.546,81.546,0,0,0-46.368,14.89l0,0s-15.819-14.513-49.909-10.392c0,0-4.236,19.816,16.05,55.8l.01-.014a83.443,83.443,0,0,0-4.073,25.692c0,46.86,39.6,83.725,84.287,83.725s85.41-32.369,85.41-79.229a86.771,86.771,0,0,0-6.311-32.051h0l0,0-.211-.525C2500.061,1797.522,2501.455,1793.995,2506.291,1784.323Z" transform="translate(-2324.24 -1740.869)"/>
        </g>
        <g id="Grupo_184174" data-name="Grupo 184174" transform="translate(0 135.024)">
          <path id="Trazado_181043" data-name="Trazado 181043" d="M2536.178,1968.186c0-35.962-38.21-109.758-38.21-109.758s-26.969,36.841-71.176,37.46c-53.568.749-75.3-35.588-75.3-35.588s-41.581,62.559-36.336,107.886c6.087,52.613,58.668,95.9,111.631,95.9C2490.851,2064.087,2536.178,2021.15,2536.178,1968.186Z" transform="translate(-2314.704 -1858.428)"/>
        </g>
        <g id="Grupo_184175" data-name="Grupo 184175" transform="translate(63.792 77.712)">
          <path id="Trazado_181044" data-name="Trazado 181044" d="M2461.676,1832.664a24.174,24.174,0,0,0-.943-7.9c-.995-3.265-4.4-5.883-8.917-7.976-10.453-5.786-34.594-7.758-34.594-7.758s-.358.025-1,.078c-.644-.053-1-.078-1-.078s-24.142,1.972-34.6,7.758c-4.522,2.093-7.923,4.71-8.917,7.976a24.207,24.207,0,0,0-.943,7.9c-.054,2.335.035,5.051.064,8.4.091,10.808,12.924,14.61,21.915,13.306,3.9-.565,18.192-13.854,21.135-15.995,5.2-2.738-2.867-17.765,2.343-18.069,5.209.3-2.856,15.331,2.342,18.069,2.943,2.141,17.234,15.43,21.136,15.995,8.99,1.3,21.823-2.5,21.913-13.306C2461.64,1837.715,2461.73,1835,2461.676,1832.664Z" transform="translate(-2370.17 -1808.454)"/>
          <path id="Trazado_181045" data-name="Trazado 181045" d="M2389.355,1855.259c-4.969,0-10.718-1.359-14.633-4.718a12.055,12.055,0,0,1-4.395-9.4c-.01-1.142-.026-2.21-.042-3.215-.031-1.962-.057-3.656-.021-5.2a24.452,24.452,0,0,1,.967-8.049c.955-3.137,4.058-5.938,9.225-8.328,10.4-5.762,33.8-7.73,34.789-7.81a8.225,8.225,0,0,1,1.1.078c.554-.054.916-.079.916-.079,1.076.082,24.47,2.049,34.911,7.83,5.13,2.372,8.234,5.173,9.188,8.31a24.561,24.561,0,0,1,.968,8.067c.036,1.548.009,3.241-.022,5.2-.016,1-.033,2.065-.043,3.2a12.053,12.053,0,0,1-4.395,9.4c-4.895,4.2-12.657,5.273-18.176,4.473-2.78-.4-9.615-6.1-16.974-12.411-2.034-1.745-3.64-3.122-4.417-3.688a4.186,4.186,0,0,1-2.011-3.562,4.272,4.272,0,0,1-2.069,3.606c-.707.521-2.314,1.9-4.347,3.643-7.359,6.311-14.194,12.008-16.972,12.411A24.747,24.747,0,0,1,2389.355,1855.259Zm25.9-45.576c-.154.02-24.052,2.027-34.277,7.688-4.894,2.265-7.791,4.83-8.645,7.639a23.387,23.387,0,0,0-.919,7.706c-.036,1.562-.009,3.246.022,5.195.016,1.007.032,2.078.042,3.223a10.952,10.952,0,0,0,3.994,8.535c4.622,3.965,12,4.97,17.264,4.208,2.679-.389,11.261-7.749,16.39-12.147,2.054-1.761,3.674-3.152,4.49-3.744,2.349-1.244,1.579-5.693.9-9.618-.584-3.379-1.09-6.3.047-7.731a2.233,2.233,0,0,1,1.7-.829,2.262,2.262,0,0,1,1.767.829c1.137,1.435.633,4.352.047,7.73-.68,3.926-1.449,8.375.829,9.576.886.636,2.506,2.027,4.56,3.788,5.128,4.4,13.71,11.758,16.39,12.147,5.265.762,12.642-.242,17.264-4.208a10.951,10.951,0,0,0,3.994-8.535c.009-1.14.026-2.205.042-3.208.031-1.956.058-3.643.022-5.174v-.036a23.4,23.4,0,0,0-.919-7.706c-.855-2.809-3.751-5.374-8.609-7.621-10.172-5.63-33.734-7.652-34.388-7.707,0,.005-.349.03-.919.078Zm1.008,11.271a1.074,1.074,0,0,0-.8.4c-.819,1.032-.309,3.975.184,6.821.26,1.5.531,3.064.647,4.538.121-1.473.392-3.04.652-4.538.493-2.846,1-5.79.185-6.821A1.107,1.107,0,0,0,2416.26,1820.953Z" transform="translate(-2370.244 -1808.529)" fill="#444"/>
        </g>
        <g id="Grupo_184176" data-name="Grupo 184176" transform="translate(95.671 110.837)">
          <path id="Trazado_181046" data-name="Trazado 181046" d="M2398.6,1845.836s5.864,9.486,14.17,8.923,12.8-8.923,12.8-8.923a15.485,15.485,0,0,0-12.362-7.933C2404.437,1837.279,2398.6,1845.836,2398.6,1845.836Z" transform="translate(-2397.911 -1837.295)"/>
          <path id="Trazado_181047" data-name="Trazado 181047" d="M2412.133,1855.434c-8.141,0-13.7-8.834-13.937-9.222l-.2-.317.211-.308c.245-.361,6.127-8.831,15.125-8.182a15.923,15.923,0,0,1,12.836,8.252l.13.265-.14.261c-.19.353-4.744,8.647-13.268,9.224Q2412.509,1855.433,2412.133,1855.434Zm-12.749-9.507c1.1,1.62,6.432,8.821,13.432,8.334,7.065-.478,11.339-6.96,12.18-8.359a15.021,15.021,0,0,0-11.743-7.352C2405.852,1838.037,2400.519,1844.434,2399.384,1845.927Z" transform="translate(-2398 -1837.369)" fill="#444"/>
        </g>
        <g id="Grupo_184177" data-name="Grupo 184177" transform="translate(97.251 70.934)">
          <path id="Trazado_181048" data-name="Trazado 181048" d="M2399.375,1810.593s5.864,9.486,14.17,8.924,12.8-8.924,12.8-8.924a15.49,15.49,0,0,0-12.362-7.933C2405.215,1802.037,2399.375,1810.593,2399.375,1810.593Z" transform="translate(-2399.375 -1802.628)" fill="#e97ebd"/>
        </g>
        <g id="Grupo_184178" data-name="Grupo 184178" transform="translate(125.773 49.105)">
          <path id="Trazado_181049" data-name="Trazado 181049" d="M2463.968,1783.622c.646,3.145,5.425,13.768-11.961,23.465-11.6,6.47-24.293,4.206-26.49-1.43-3.285-8.429-1.77-4.586,20.983-12.7C2452.876,1790.685,2463.968,1783.622,2463.968,1783.622Z" transform="translate(-2424.208 -1783.622)" fill="#fff"/>
        </g>
        <g id="Grupo_184179" data-name="Grupo 184179" transform="translate(49.197 50.931)">
          <path id="Trazado_181050" data-name="Trazado 181050" d="M2358.6,1785.212c-.7,3.132-5.241,12.631,11.97,22.635,11.482,6.673,24.138,4.6,26.511-.961,3.72-8.719,1.851-4.554-20.755-13.068C2369.989,1791.43,2358.6,1785.212,2358.6,1785.212Z" transform="translate(-2357.537 -1785.212)" fill="#fff"/>
        </g>
        <g id="Grupo_184180" data-name="Grupo 184180" transform="translate(57.09 56.604)">
          <path id="Trazado_181051" data-name="Trazado 181051" d="M2376.736,1793.128c6.025,1.939,11.4,3.635,8.368,9.747-2.757,5.55-9.836,7.373-15.254,4.367s-6.612-9.479-4.367-15.254C2367,1788.089,2371.17,1791.337,2376.736,1793.128Z" transform="translate(-2364.409 -1790.151)"/>
        </g>
        <g id="Grupo_184181" data-name="Grupo 184181" transform="translate(135.716 55.676)">
          <path id="Trazado_181052" data-name="Trazado 181052" d="M2442.925,1792.353c6.037-2.353,10.616-5.066,12.334-.659a11.732,11.732,0,0,1-21.862,8.521C2431.046,1794.179,2436.888,1794.707,2442.925,1792.353Z" transform="translate(-2432.865 -1789.343)"/>
        </g>
        <g id="Grupo_184182" data-name="Grupo 184182" transform="translate(15.359 10.965)">
          <path id="Trazado_181053" data-name="Trazado 181053" d="M2342.6,1791.465s7.97-22.526,28.763-34.247c0,0-14.424-10.724-43.29-5.241C2328.076,1751.977,2330.236,1776.763,2342.6,1791.465Z" transform="translate(-2328.076 -1750.416)" fill="#560553"/>
        </g>
        <g id="Grupo_184183" data-name="Grupo 184183" transform="translate(158.239 10.613)">
          <path id="Trazado_181054" data-name="Trazado 181054" d="M2478.69,1791.959s-8.307-24.669-26.216-35.193c0,0,11.133-9.314,35.172-5.907C2487.646,1750.859,2487.689,1775.712,2478.69,1791.959Z" transform="translate(-2452.474 -1750.11)" fill="#560553"/>
        </g>
        <g id="Grupo_184185" data-name="Grupo 184185" transform="translate(99.293 5.394)">
          <g id="Grupo_184184" data-name="Grupo 184184">
            <path id="Trazado_181055" data-name="Trazado 181055" d="M2402.036,1748.722a37.017,37.017,0,0,1,18.488-1c.9.178,1.29-1.206.383-1.385a38.594,38.594,0,0,0-19.253,1c-.879.274-.5,1.661.383,1.384Z" transform="translate(-2401.154 -1745.566)"/>
          </g>
        </g>
        <g id="Grupo_184187" data-name="Grupo 184187" transform="translate(94.741 0.268)">
          <g id="Grupo_184186" data-name="Grupo 184186">
            <path id="Trazado_181056" data-name="Trazado 181056" d="M2398.083,1744.2a52.607,52.607,0,0,1,23.841-.588c.9.184,1.288-1.2.381-1.384a54.433,54.433,0,0,0-24.6.588.718.718,0,0,0,.383,1.384Z" transform="translate(-2397.19 -1741.103)"/>
          </g>
        </g>
        <g id="Grupo_184196" data-name="Grupo 184196" transform="translate(181.663 8.004)">
          <g id="Grupo_184189" data-name="Grupo 184189" transform="translate(0 7.51)">
            <g id="Grupo_184188" data-name="Grupo 184188">
              <path id="Trazado_181057" data-name="Trazado 181057" d="M2474.166,1755.062a13.051,13.051,0,0,1-1.212,7.516c-.421.82.818,1.548,1.239.725a14.358,14.358,0,0,0,1.408-8.241c-.1-.908-1.534-.919-1.436,0Z" transform="translate(-2472.868 -1754.376)"/>
            </g>
          </g>
          <g id="Grupo_184191" data-name="Grupo 184191" transform="translate(0.91 5.835)">
            <g id="Grupo_184190" data-name="Grupo 184190">
              <path id="Trazado_181058" data-name="Trazado 181058" d="M2476.666,1753.818a19.739,19.739,0,0,1-2.88,14.418c-.521.766.722,1.486,1.239.725,3.156-4.647,3.859-10.048,3.024-15.524-.139-.911-1.523-.524-1.384.381Z" transform="translate(-2473.661 -1752.917)"/>
            </g>
          </g>
          <g id="Grupo_184193" data-name="Grupo 184193" transform="translate(0.962 2.346)">
            <g id="Grupo_184192" data-name="Grupo 184192">
              <path id="Trazado_181059" data-name="Trazado 181059" d="M2480.024,1750.78c1.557,8.712.079,17.472-6.121,24.1l1.016,1.015.874-.943c.627-.678-.386-1.7-1.015-1.015l-.874.943c-.627.677.381,1.692,1.016,1.015,6.55-7,8.141-16.257,6.49-25.492-.163-.908-1.547-.524-1.385.381Z" transform="translate(-2473.705 -1749.88)"/>
            </g>
          </g>
          <g id="Grupo_184195" data-name="Grupo 184195" transform="translate(2.981)">
            <g id="Grupo_184194" data-name="Grupo 184194">
              <path id="Trazado_181060" data-name="Trazado 181060" d="M2482.925,1748.736a39.977,39.977,0,0,1-2.4,23.08c-1.208,2.935-3.215,5.549-4.395,8.439-.383.94-.9,1.113-.549,2.111a.73.73,0,0,0,.883.5l.271-.089a.726.726,0,0,0,.43-1.055l-.129-.2c-.5-.774-1.742-.055-1.239.725.452.7,5.381-8.281,5.681-8.97a46.223,46.223,0,0,0,2.626-7.761,40.757,40.757,0,0,0,.206-17.165c-.171-.906-1.555-.523-1.384.381Z" transform="translate(-2475.464 -1747.837)"/>
            </g>
          </g>
        </g>
        <g id="Grupo_184205" data-name="Grupo 184205" transform="translate(17.498 8.152)">
          <g id="Grupo_184198" data-name="Grupo 184198" transform="translate(9.798 7.512)">
            <g id="Grupo_184197" data-name="Grupo 184197">
              <path id="Trazado_181061" data-name="Trazado 181061" d="M2338.569,1755.192a14.355,14.355,0,0,0,1.408,8.241c.422.822,1.661.1,1.24-.725a13.062,13.062,0,0,1-1.212-7.516c.1-.917-1.337-.91-1.436,0Z" transform="translate(-2338.469 -1754.507)"/>
            </g>
          </g>
          <g id="Grupo_184200" data-name="Grupo 184200" transform="translate(7.009 5.835)">
            <g id="Grupo_184199" data-name="Grupo 184199">
              <path id="Trazado_181062" data-name="Trazado 181062" d="M2336.364,1753.567c-.835,5.476-.132,10.877,3.024,15.524.516.76,1.761.042,1.239-.725a19.724,19.724,0,0,1-2.879-14.418c.137-.9-1.245-1.293-1.384-.382Z" transform="translate(-2336.04 -1753.047)"/>
            </g>
          </g>
          <g id="Grupo_184202" data-name="Grupo 184202" transform="translate(3.361 2.347)">
            <g id="Grupo_184201" data-name="Grupo 184201">
              <path id="Trazado_181063" data-name="Trazado 181063" d="M2333.469,1750.529c-1.65,9.233-.06,18.494,6.491,25.492.633.677,1.642-.338,1.015-1.015l-.874-.943c-.629-.68-1.644.338-1.015,1.015l.874.943,1.015-1.015c-6.187-6.611-7.678-15.386-6.121-24.1.161-.9-1.222-1.291-1.385-.381Z" transform="translate(-2332.865 -1750.01)"/>
            </g>
          </g>
          <g id="Grupo_184204" data-name="Grupo 184204">
            <g id="Grupo_184203" data-name="Grupo 184203">
              <path id="Trazado_181064" data-name="Trazado 181064" d="M2330.743,1748.485a41.076,41.076,0,0,0,.206,17.166,44.841,44.841,0,0,0,2.274,6.951c.385.928,5.573,10.49,6.032,9.78.5-.779-.74-1.5-1.24-.725l-.128.2a.726.726,0,0,0,.429,1.054l.271.088a.732.732,0,0,0,.884-.5c.239-.678,0-.742-.087-1.383-.143-1.015-2.156-3.534-2.659-4.47a50.1,50.1,0,0,1-2.2-4.7,40.034,40.034,0,0,1-2.4-23.081c.171-.9-1.213-1.29-1.384-.381Z" transform="translate(-2329.938 -1747.967)"/>
            </g>
          </g>
        </g>
        <g id="Grupo_184207" data-name="Grupo 184207" transform="translate(104.546 11.892)">
          <g id="Grupo_184206" data-name="Grupo 184206">
            <path id="Trazado_181065" data-name="Trazado 181065" d="M2406.625,1753.046a19.82,19.82,0,0,1,7.35-.112c.9.155,1.291-1.228.381-1.385a21.822,21.822,0,0,0-8.112.111c-.905.184-.522,1.568.381,1.385Z" transform="translate(-2405.727 -1751.223)"/>
          </g>
        </g>
        <g id="Grupo_184209" data-name="Grupo 184209" transform="translate(239.224 256.317)">
          <g id="Grupo_184208" data-name="Grupo 184208">
            <path id="Trazado_181066" data-name="Trazado 181066" d="M2523.884,1973.854c6.119-.992,11.982-5.012,17-8.457.757-.519.04-1.764-.725-1.239-4.884,3.35-10.73,7.351-16.658,8.312-.91.148-.524,1.531.381,1.384Z" transform="translate(-2522.984 -1964.031)"/>
          </g>
        </g>
        <g id="Grupo_184210" data-name="Grupo 184210" transform="translate(23.075 147.866)">
          <path id="Trazado_181067" data-name="Trazado 181067" d="M2343.369,1870.53s16.326,24.723,35.441,38.958c0,0-37.434-15.525-43.435-26.306Z" transform="translate(-2334.708 -1869.471)" fill="#fff"/>
          <path id="Trazado_181068" data-name="Trazado 181068" d="M2382.951,1911.929l-4.274-1.773c-1.536-.638-37.688-15.727-43.718-26.557l-.166-.3,8.651-13.693.49.742c.162.247,16.491,24.805,35.305,38.815Zm-46.818-28.6c5.063,8.359,29.179,19.684,38.906,24-15.64-12.873-28.882-31.687-31.567-35.614Z" transform="translate(-2334.794 -1869.608)"/>
        </g>
        <g id="Grupo_184211" data-name="Grupo 184211" transform="translate(6.658 174.328)">
          <path id="Trazado_181069" data-name="Trazado 181069" d="M2329.781,1895.643s-6.62,15.848-8.687,23.018c0,0,18.265,9.947,29.693,3.2C2350.786,1921.866,2328.064,1920.367,2329.781,1895.643Z" transform="translate(-2320.413 -1892.203)" fill="#fff"/>
          <path id="Trazado_181070" data-name="Trazado 181070" d="M2341.235,1925.249c-9.825,0-19.768-5.333-20.328-5.637l-.406-.221.128-.443c2.053-7.12,8.642-22.923,8.708-23.082l1.345-3.218-.241,3.48c-.522,7.5,1.19,13.558,5.086,18.019,6.023,6.9,15.292,7.584,15.384,7.591l1.857.122-1.6.945A19.324,19.324,0,0,1,2341.235,1925.249Zm-19.37-6.433c2.6,1.32,17.023,8.186,27.105,3.819-3.142-.56-9.588-2.327-14.309-7.733-3.534-4.047-5.364-9.316-5.457-15.692C2327.258,1903.987,2323.456,1913.5,2321.865,1918.816Z" transform="translate(-2320.501 -1892.648)"/>
        </g>
        <g id="Grupo_184212" data-name="Grupo 184212" transform="translate(0.617 218.69)">
          <path id="Trazado_181071" data-name="Trazado 181071" d="M2316.872,1934.069s-1.93,15.4-.742,22.88c0,0,14.168,5.73,22.162-.674C2338.292,1956.274,2321.681,1954.229,2316.872,1934.069Z" transform="translate(-2315.166 -1930.855)" fill="#fff"/>
          <path id="Trazado_181072" data-name="Trazado 181072" d="M2328.3,1960.316a36.662,36.662,0,0,1-12.313-2.419l-.3-.122-.051-.321c-1.187-7.47.658-22.41.738-23.042l.394-3.142.735,3.081c4.662,19.545,20.77,21.749,20.932,21.769l1.353.167-1.064.852A16.409,16.409,0,0,1,2328.3,1960.316Zm-11.58-3.369c1.974.728,13.125,4.516,20.235.042-3.868-.953-15.086-4.922-19.767-19.487C2316.713,1942.234,2315.954,1951.544,2316.723,1956.947Z" transform="translate(-2315.241 -1931.271)"/>
        </g>
        <g id="Grupo_184213" data-name="Grupo 184213" transform="translate(2.396 255.77)">
          <path id="Trazado_181073" data-name="Trazado 181073" d="M2318.7,1966.942l7.491,18.539s5.919-.523,12.789-9.27C2338.977,1976.211,2327.269,1978.407,2318.7,1966.942Z" transform="translate(-2316.507 -1963.052)" fill="#fff"/>
          <path id="Trazado_181074" data-name="Trazado 181074" d="M2326.1,1986.593l-9.308-23.038,2.649,3.546c8.246,11.026,19.6,9.07,19.715,9.05l1.5-.277-.937,1.2c-6.945,8.842-12.939,9.464-13.192,9.487Zm-5.264-16.094,6,14.839c1.354-.3,5.889-1.708,11.119-7.92A22.38,22.38,0,0,1,2320.834,1970.5Z" transform="translate(-2316.79 -1963.555)"/>
        </g>
        <g id="Grupo_184214" data-name="Grupo 184214" transform="translate(32.338 118.353)">
          <path id="Trazado_181075" data-name="Trazado 181075" d="M2343.314,1844.148s6.664,14.534,15.294,21.49c0,0-4.962-18.452,8.459-20.366C2367.067,1845.271,2345.88,1848.956,2343.314,1844.148Z" transform="translate(-2342.791 -1843.878)" fill="#fff"/>
          <path id="Trazado_181076" data-name="Trazado 181076" d="M2359.689,1867.227l-1.374-1.106c-8.636-6.96-15.182-21.1-15.456-21.7l1.029-.509c1.872,3.5,16.217,1.963,22.45.945.234-.045.473-.085.715-.12l.179,1.135c-.151.026-.38.066-.68.115a9.082,9.082,0,0,0-6.12,3.914c-3.794,5.752-1.229,15.524-1.2,15.623ZM2345,1846.154c2.074,4.025,6.9,12.622,12.751,17.964-.6-3.188-1.391-10.122,1.727-14.849a9.754,9.754,0,0,1,2.555-2.644C2356.736,1847.257,2348.918,1847.8,2345,1846.154Z" transform="translate(-2342.859 -1843.913)"/>
        </g>
        <g id="Grupo_184215" data-name="Grupo 184215" transform="translate(25.587 86.163)">
          <path id="Trazado_181077" data-name="Trazado 181077" d="M2339.363,1836.99l-1.811-20.343,26.061,10.195Z" transform="translate(-2336.896 -1815.774)" fill="#fff"/>
          <path id="Trazado_181078" data-name="Trazado 181078" d="M2338.945,1837.936l-1.964-22.049,28.247,11.049Zm-.654-20.3,1.659,18.638,22.217-9.3Z" transform="translate(-2336.981 -1815.887)"/>
        </g>
        <g id="Grupo_184216" data-name="Grupo 184216" transform="translate(51.826 16.569)">
          <path id="Trazado_181079" data-name="Trazado 181079" d="M2360.329,1763.891s.236,18.028,19.579,14.582c0,0-20.832-15.1-11.194-21.044S2360.329,1763.891,2360.329,1763.891Z" transform="translate(-2359.751 -1755.217)" fill="#fff"/>
          <path id="Trazado_181080" data-name="Trazado 181080" d="M2375.34,1779.563a15.033,15.033,0,0,1-9.885-3.2c-5.459-4.512-5.62-12.063-5.625-12.383l0-.308.253-.173c1.826-1.255,4.173-2.888,6.24-4.347a6.142,6.142,0,0,1,2.17-2.131c3-1.848,3.243-2,3.616-1.43.3.462.412.633-4.919,4.381a3.828,3.828,0,0,0-.364,1.524c-.246,6.549,13.362,16.493,13.5,16.593l1.095.794-1.33.237A27.078,27.078,0,0,1,2375.34,1779.563Zm-14.347-15.3c.091,1.418.736,7.536,5.2,11.218,3.018,2.49,7.171,3.4,12.362,2.713-3.35-2.593-13.109-10.684-12.881-16.743.006-.152.017-.3.036-.449C2364.4,1761.908,2362.849,1762.984,2360.993,1764.262Z" transform="translate(-2359.826 -1755.295)"/>
        </g>
        <g id="Grupo_184217" data-name="Grupo 184217" transform="translate(26.061 55.913)">
          <path id="Trazado_181081" data-name="Trazado 181081" d="M2338.081,1804.923l6.011-14.39,15.224,19.583Z" transform="translate(-2337.292 -1789.404)" fill="#fff"/>
          <path id="Trazado_181082" data-name="Trazado 181082" d="M2360.884,1811.211l-23.49-5.743,6.648-15.918Zm-21.912-6.54,18.981,4.641-13.608-17.5Z" transform="translate(-2337.394 -1789.55)"/>
        </g>
        <g id="Grupo_184218" data-name="Grupo 184218" transform="translate(150.803 147.756)">
          <path id="Trazado_181083" data-name="Trazado 181083" d="M2481.046,1870.463s-12.953,21.352-32.07,35.587c0,0,34.063-12.154,40.064-22.934Z" transform="translate(-2445.558 -1869.372)" fill="#fff"/>
          <path id="Trazado_181084" data-name="Trazado 181084" d="M2446,1908.021l3.076-2.29c18.809-14.006,31.793-35.213,31.922-35.425l.48-.792,8.672,13.725-.166.3c-6.037,10.845-38.973,22.7-40.373,23.2Zm35.49-36.341c-2.394,3.747-13.357,20.2-28.718,32.632,8.747-3.4,31-12.693,36.04-21.043Z" transform="translate(-2446 -1869.513)"/>
        </g>
        <g id="Grupo_184219" data-name="Grupo 184219" transform="translate(177.981 176.5)">
          <path id="Trazado_181085" data-name="Trazado 181085" d="M2492.315,1897.533s6.621,15.848,8.688,23.019c0,0-18.266,9.947-29.693,3.2C2471.31,1923.755,2494.031,1922.257,2492.315,1897.533Z" transform="translate(-2469.418 -1894.094)" fill="#fff"/>
          <path id="Trazado_181086" data-name="Trazado 181086" d="M2481.194,1927.138a19.34,19.34,0,0,1-9.931-2.443l-1.6-.943,1.852-.125c.093-.006,9.38-.7,15.393-7.6,3.89-4.46,5.6-10.52,5.078-18.01l-.241-3.479,1.345,3.217c.065.16,6.656,15.96,8.708,23.082l.129.442-.406.22C2500.962,1921.806,2491.017,1927.138,2481.194,1927.138Zm-7.736-2.613c10.083,4.365,24.5-2.5,27.1-3.82-1.591-5.312-5.392-14.829-7.339-19.6-.093,6.376-1.923,11.644-5.457,15.693C2483.046,1922.2,2476.6,1923.964,2473.458,1924.525Z" transform="translate(-2469.663 -1894.539)"/>
        </g>
        <g id="Grupo_184220" data-name="Grupo 184220" transform="translate(193.99 220.859)">
          <path id="Trazado_181087" data-name="Trazado 181087" d="M2506.257,1935.959s1.93,15.4.741,22.879c0,0-14.166,5.73-22.16-.674C2484.837,1958.164,2501.448,1956.119,2506.257,1935.959Z" transform="translate(-2483.417 -1932.744)" fill="#fff"/>
          <path id="Trazado_181088" data-name="Trazado 181088" d="M2495.084,1962.206a16.4,16.4,0,0,1-10.423-3.177l-1.06-.85,1.348-.169c.162-.02,16.278-2.257,20.933-21.77l.734-3.08.394,3.143c.079.632,1.926,15.571.739,23.042l-.051.321-.3.122A36.658,36.658,0,0,1,2495.084,1962.206Zm-8.641-3.318c7.113,4.459,18.246.676,20.221-.051.768-5.4.009-14.714-.47-19.447-2.813,8.753-7.951,13.575-11.959,16.131A25.963,25.963,0,0,1,2486.444,1958.888Z" transform="translate(-2483.601 -1933.16)"/>
        </g>
        <g id="Grupo_184221" data-name="Grupo 184221" transform="translate(196.265 260.189)">
          <path id="Trazado_181089" data-name="Trazado 181089" d="M2507.073,1970.788l-7.49,18.539s-5.92-.521-12.791-9.269C2486.793,1980.058,2498.5,1982.254,2507.073,1970.788Z" transform="translate(-2485.402 -1966.899)" fill="#fff"/>
          <path id="Trazado_181090" data-name="Trazado 181090" d="M2500.135,1990.44l-.423-.038c-.252-.022-6.247-.644-13.191-9.486l-.939-1.2,1.5.277c.112.022,11.47,1.98,19.715-9.048l2.651-3.546Zm-11.851-9.176c5.231,6.214,9.765,7.626,11.119,7.921l6-14.837A22.4,22.4,0,0,1,2488.285,1981.264Z" transform="translate(-2485.582 -1967.402)"/>
        </g>
        <g id="Grupo_184222" data-name="Grupo 184222" transform="translate(160.192 120.523)">
          <path id="Trazado_181091" data-name="Trazado 181091" d="M2478.013,1846.038s-6.664,14.534-15.294,21.49c0,0,4.962-18.452-8.459-20.366C2454.26,1847.161,2475.448,1850.846,2478.013,1846.038Z" transform="translate(-2454.163 -1845.767)" fill="#fff"/>
          <path id="Trazado_181092" data-name="Trazado 181092" d="M2461.72,1869.115l.458-1.7c.026-.1,2.589-9.88-1.2-15.625a9.091,9.091,0,0,0-6.118-3.912c-.3-.048-.531-.088-.68-.114l.179-1.135c.242.035.481.075.715.121,6.232,1.016,20.58,2.559,22.45-.946l1.029.51c-.275.6-6.821,14.737-15.456,21.7Zm-2.341-20.6a9.764,9.764,0,0,1,2.554,2.643c3.118,4.728,2.323,11.661,1.727,14.85,5.854-5.344,10.677-13.94,12.75-17.965C2472.491,1849.69,2464.672,1849.149,2459.379,1848.515Z" transform="translate(-2454.175 -1845.802)"/>
        </g>
        <g id="Grupo_184223" data-name="Grupo 184223" transform="translate(163.07 88.334)">
          <path id="Trazado_181093" data-name="Trazado 181093" d="M2482.264,1838.88l1.812-20.343-26.062,10.195Z" transform="translate(-2456.483 -1817.664)" fill="#fff"/>
          <path id="Trazado_181094" data-name="Trazado 181094" d="M2482.964,1839.826l-26.282-11,28.246-11.05Zm-23.222-10.963,22.217,9.3,1.66-18.638Z" transform="translate(-2456.681 -1817.777)"/>
        </g>
        <g id="Grupo_184224" data-name="Grupo 184224" transform="translate(143.491 18.739)">
          <path id="Trazado_181095" data-name="Trazado 181095" d="M2460.459,1765.781s-.237,18.028-19.58,14.582c0,0,20.832-15.1,11.194-21.044S2460.459,1765.781,2460.459,1765.781Z" transform="translate(-2439.449 -1757.107)" fill="#fff"/>
          <path id="Trazado_181096" data-name="Trazado 181096" d="M2445.708,1781.454a27.072,27.072,0,0,1-4.746-.448l-1.329-.236,1.094-.794c.137-.1,13.745-10.048,13.5-16.593a3.843,3.843,0,0,0-.365-1.525c-5.332-3.747-5.22-3.918-4.919-4.379.371-.57.617-.419,3.616,1.43a6.137,6.137,0,0,1,2.17,2.132c2.066,1.459,4.415,3.091,6.24,4.346l.253.175,0,.307c0,.319-.166,7.871-5.625,12.382A15.033,15.033,0,0,1,2445.708,1781.454Zm-3.216-1.371c5.193.688,9.346-.224,12.362-2.713,4.464-3.682,5.109-9.8,5.2-11.218-1.856-1.278-3.411-2.353-4.716-3.261.019.147.03.3.036.449C2455.6,1769.4,2445.843,1777.488,2442.493,1780.083Z" transform="translate(-2439.634 -1757.184)"/>
        </g>
        <g id="Grupo_184225" data-name="Grupo 184225" transform="translate(167.353 58.084)">
          <path id="Trazado_181097" data-name="Trazado 181097" d="M2482.921,1806.813l-6.01-14.39-15.224,19.583Z" transform="translate(-2460.221 -1791.294)" fill="#fff"/>
          <path id="Trazado_181098" data-name="Trazado 181098" d="M2460.41,1813.1l16.841-21.661,6.648,15.917Zm16.54-19.4-13.608,17.5,18.981-4.641Z" transform="translate(-2460.41 -1791.44)"/>
        </g>
        <g id="Grupo_184226" data-name="Grupo 184226" transform="translate(220.772 248.992)">
          <path id="Trazado_181099" data-name="Trazado 181099" d="M2507.53,1959.736s3.987,13.789,5.484,22.456c0,0,.735-21.344-1.318-23.945Z" transform="translate(-2506.828 -1957.566)" fill="#fff"/>
          <path id="Trazado_181100" data-name="Trazado 181100" d="M2513.487,1987.862l-.948-5.485c-1.476-8.535-5.43-22.256-5.469-22.394l-.15-.518,5.063-1.811.256.324c2.123,2.689,1.518,22.115,1.44,24.321Zm-5.167-27.679c.588,2.067,2.789,9.922,4.33,16.9.092-7.42-.136-15.851-1.115-18.047Z" transform="translate(-2506.919 -1957.654)"/>
        </g>
        <g id="Grupo_184227" data-name="Grupo 184227" transform="translate(229.829 246.402)">
          <path id="Trazado_181101" data-name="Trazado 181101" d="M2515.381,1957.01s3.023,15.819,3.4,23.124c0,0,.375-21.6,0-24.1Z" transform="translate(-2514.719 -1955.304)" fill="#fff"/>
          <path id="Trazado_181102" data-name="Trazado 181102" d="M2518.29,1980.259c-.368-7.182-3.357-22.887-3.389-23.046l-.1-.516,4.531-1.3.1.646c.378,2.519.022,23.309.007,24.193Zm-2.163-22.747c.33,1.766,1.433,7.768,2.284,13.591.055-5.52.082-11.925-.056-14.229Z" transform="translate(-2514.804 -1955.399)"/>
        </g>
        <g id="Grupo_184228" data-name="Grupo 184228" transform="translate(239.225 244.305)">
          <path id="Trazado_181103" data-name="Trazado 181103" d="M2523.6,1954.86s3.695,14.319,3.882,22.373c0,0,1.123-20.723,0-23.1Z" transform="translate(-2522.893 -1953.49)" fill="#fff"/>
          <path id="Trazado_181104" data-name="Trazado 181104" d="M2528.149,1977.347l-1.147-.017c-.184-7.9-3.827-22.1-3.864-22.243l-.152-.595,4.92-.919.19.4C2529.247,1956.409,2528.265,1975.212,2528.149,1977.347Zm-3.748-21.953c.484,1.937,1.988,8.138,2.94,14.163.214-6.339.266-12.749-.158-14.682Z" transform="translate(-2522.985 -1953.573)"/>
        </g>
        <g id="Grupo_184229" data-name="Grupo 184229" transform="translate(247.591 243.604)">
          <path id="Trazado_181105" data-name="Trazado 181105" d="M2530.929,1953.659s3.52,11.8,2.958,18.951c0,0,.5-16.179.061-19.122Z" transform="translate(-2530.171 -1952.885)" fill="#fff"/>
          <path id="Trazado_181106" data-name="Trazado 181106" d="M2534.558,1972.733l-1.146-.062c0-.035.025-.818.056-2.05-.111-6.985-2.959-16.614-2.991-16.72l-.208-.7,4.269-.241.077.519c.347,2.348.121,12.647,0,17.138C2534.628,1971.354,2534.611,1972.063,2534.558,1972.733Zm-2.78-18.463c.375,1.331,1.192,4.379,1.855,7.879.036-3.286.028-6.449-.1-7.979Z" transform="translate(-2530.269 -1952.963)"/>
        </g>
        <g id="Grupo_184230" data-name="Grupo 184230" transform="translate(67.302 12.042)">
          <path id="Trazado_181107" data-name="Trazado 181107" d="M2374.427,1756.643s5.367,14.1,21.647,22.745l18.423-13.62,19.355,13.62s19.067-14.947,17.515-25.816c0,0-9.5,16.157-19.763,14.444s-17.148-15.413-17.148-15.413c-2.226,6-12.208,16.126-18.382,16.042C2389.129,1768.551,2374.427,1756.643,2374.427,1756.643Z" transform="translate(-2373.133 -1751.167)" fill="#fff"/>
          <path id="Trazado_181108" data-name="Trazado 181108" d="M2434.037,1780.289l-19.363-13.627-18.382,13.589-.32-.17a49.091,49.091,0,0,1-21.914-23.047l-.758-1.992,1.655,1.341c.146.118,14.627,11.783,21.294,11.875h.071c5.942,0,15.669-10.015,17.764-15.667l.458-1.237.594,1.178c.067.134,6.88,13.46,16.729,15.1,9.749,1.629,19.081-14.009,19.173-14.169l.832-1.413.232,1.623c1.582,11.071-16.94,25.732-17.729,26.349Zm-57.9-21.53a49.108,49.108,0,0,0,20.06,20.138l18.464-13.651,19.34,13.609c2.359-1.922,16.488-13.81,17.038-23.238-2.735,4.1-10.673,14.6-19.358,13.151-8.845-1.477-15.119-11.354-16.993-14.663-2.956,6.138-12.281,15.3-18.368,15.3h-.081C2390.607,1769.328,2380.372,1761.991,2376.132,1758.759Z" transform="translate(-2373.3 -1751.353)"/>
        </g>
        <g id="Grupo_184231" data-name="Grupo 184231" transform="translate(89.759 1.719)">
          <path id="Trazado_181109" data-name="Trazado 181109" d="M2393.979,1745.44a21.684,21.684,0,0,0,9.774,10.271l8.318-6.151,8.74,6.151s8.61-6.749,7.909-11.657c0,0-4.292,7.295-8.924,6.522s-7.742-6.959-7.742-6.959c-1.005,2.71-5.512,7.282-8.3,7.244C2400.616,1750.816,2393.979,1745.44,2393.979,1745.44Z" transform="translate(-2392.685 -1742.18)" fill="#fff"/>
          <path id="Trazado_181110" data-name="Trazado 181110" d="M2421,1756.612l-8.749-6.157-8.276,6.119-.321-.17a22.068,22.068,0,0,1-10.041-10.573l-.758-1.992,1.655,1.34c1.8,1.461,7.013,5.259,9.421,5.291h.027c2.359,0,6.739-4.2,7.727-6.868l.458-1.236.594,1.177c.03.059,3.037,5.936,7.324,6.651,4.2.7,8.293-6.177,8.333-6.247l.832-1.414.232,1.624c.74,5.177-7.76,11.907-8.123,12.191Zm-25.14-8.971a22.048,22.048,0,0,0,8.016,7.577l8.358-6.179,8.722,6.138c1.283-1.065,5.928-5.105,7.12-8.737-1.687,2.207-4.808,5.456-8.2,4.888-3.744-.625-6.482-4.439-7.6-6.283-1.609,2.854-5.572,6.574-8.311,6.574h-.04C2401.732,1751.59,2398.128,1749.271,2395.857,1747.64Z" transform="translate(-2392.852 -1742.366)"/>
        </g>
        <g id="Grupo_184232" data-name="Grupo 184232" transform="translate(41.703 203.709)">
          <path id="Trazado_181111" data-name="Trazado 181111" d="M2499.9,2017.893c0-34.626-36.664-99.165-79.926-99.165s-68.459,62.268-68.459,107.031c0,0,27.444,27.16,70.707,27.16S2499.9,2031.981,2499.9,2017.893Z" transform="translate(-2350.938 -1918.154)" fill="#fff"/>
          <path id="Trazado_181112" data-name="Trazado 181112" d="M2422.294,2053.568c-43,0-70.834-27.052-71.11-27.325l-.171-.169v-.239c0-23.734,6.759-50.119,18.078-70.582,13.208-23.876,31.3-37.025,50.955-37.025,11.361,0,33.827,4.786,56.655,36.839,14.484,20.339,23.845,45.03,23.845,62.9C2500.546,2031.972,2466.944,2053.568,2422.294,2053.568Zm-70.133-27.979c2.389,2.257,29.365,26.83,70.133,26.83,19.623,0,39.087-4.322,54.805-12.17,13.754-6.866,22.3-15.4,22.3-22.282,0-33.315-35.926-98.591-79.351-98.591-19.215,0-36.953,12.939-49.95,36.434C2358.906,1976.039,2352.208,2002.105,2352.161,2025.589Z" transform="translate(-2351.013 -1918.228)"/>
        </g>
        <g id="Grupo_184233" data-name="Grupo 184233" transform="translate(30.038 211.443)">
          <path id="Trazado_181113" data-name="Trazado 181113" d="M2341.357,1924.962v102.829h50.572V1924.962" transform="translate(-2340.782 -1924.962)"/>
          <path id="Trazado_181114" data-name="Trazado 181114" d="M2392.577,2028.366h-51.72v-103.4h1.148v102.255h49.424V1924.962h1.148Z" transform="translate(-2340.857 -1924.962)" fill="#444"/>
        </g>
        <g id="Grupo_184234" data-name="Grupo 184234" transform="translate(140.172 211.443)">
          <path id="Trazado_181115" data-name="Trazado 181115" d="M2437.245,1924.962v102.829h50.572V1924.962" transform="translate(-2436.671 -1924.962)"/>
          <path id="Trazado_181116" data-name="Trazado 181116" d="M2488.465,2028.366h-51.721v-103.4h1.149v102.255h49.423V1924.962h1.149Z" transform="translate(-2436.745 -1924.962)" fill="#444"/>
        </g>
        <g id="Grupo_184235" data-name="Grupo 184235" transform="translate(22.045 305.678)">
          <ellipse id="Elipse_3623" data-name="Elipse 3623" cx="32.872" cy="17.981" rx="32.872" ry="17.981" transform="translate(0.574 0.575)"/>
          <path id="Trazado_181117" data-name="Trazado 181117" d="M2367.342,2044.117c-18.441,0-33.445-8.324-33.445-18.554s15-18.556,33.445-18.556,33.446,8.324,33.446,18.556S2385.785,2044.117,2367.342,2044.117Zm0-35.962c-17.808,0-32.3,7.809-32.3,17.408s14.488,17.406,32.3,17.406,32.3-7.808,32.3-17.406S2385.152,2008.155,2367.342,2008.155Z" transform="translate(-2333.897 -2007.007)" fill="#444"/>
        </g>
        <g id="Grupo_184236" data-name="Grupo 184236" transform="translate(132.23 306.802)">
          <ellipse id="Elipse_3624" data-name="Elipse 3624" cx="32.872" cy="17.981" rx="32.872" ry="17.981" transform="translate(0.575 0.574)"/>
          <path id="Trazado_181118" data-name="Trazado 181118" d="M2463.276,2045.1c-18.443,0-33.446-8.323-33.446-18.555s15-18.555,33.446-18.555,33.446,8.323,33.446,18.555S2481.719,2045.1,2463.276,2045.1Zm0-35.961c-17.809,0-32.3,7.808-32.3,17.406s14.489,17.406,32.3,17.406,32.3-7.809,32.3-17.406S2481.085,2009.135,2463.276,2009.135Z" transform="translate(-2429.83 -2007.986)" fill="#444"/>
        </g>
      </g>
    </g>
    <g id="Capa_3" data-name="Capa 3" transform="translate(2326.281 1671.332)">
      <g id="Grupo_184242" data-name="Grupo 184242">
        <g id="Grupo_184238" data-name="Grupo 184238" transform="translate(47.931 60.554)">
          <path id="Trazado_181119" data-name="Trazado 181119" d="M2368.658,1761.108V1726.08h103.574v32.42s-35.089,3.54-47.4,4.006C2410.673,1762.972,2368.658,1761.108,2368.658,1761.108Z" transform="translate(-2366.197 -1723.752)" fill="url(#linear-gradient)"/>
          <path id="Trazado_181120" data-name="Trazado 181120" d="M2368.976,1761.409l-1.385-17.234c-.461-5.869-.769-11.831-1.076-17.794v-1.4l2.461-.093c8.619-.187,17.237-.28,25.855-.373l25.855-.279,12.928-.093h12.927l25.855-.093h3.847v2.328l-.154,16.21c0,5.4-.154,10.807-.308,16.21v1.77l-2.769.28c-8.619.839-17.237,1.49-25.855,2.142-4.31.28-8.618.652-12.927.838-4.309.28-8.772.466-13.236.373-8.772-.093-17.391-.559-26.162-1.026C2386.213,1762.714,2377.6,1762.062,2368.976,1761.409Zm0,0,26.01.094h12.927c4.309,0,8.619,0,12.927-.094s8.465-.465,12.621-.839c4.31-.372,8.464-.744,12.773-1.211l25.547-2.7-2.924,2.049c-.154-5.4-.308-10.806-.308-16.209l-.154-16.21,3.848,2.329-25.855-.093H2433.46l-12.927-.093c-8.619-.093-17.238-.093-25.855-.279-8.618-.094-17.236-.187-25.855-.373l2.463-1.491c-.308,5.683-.615,11.366-1.077,17.235Z" transform="translate(-2366.515 -1724.053)"/>
        </g>
        <ellipse id="Elipse_3625" data-name="Elipse 3625" cx="51.71" cy="2.329" rx="51.71" ry="2.329" transform="translate(50.393 60.088)" fill="#e6ed53" stroke="#000" stroke-miterlimit="10" stroke-width="1"/>
        <g id="Grupo_184239" data-name="Grupo 184239" transform="translate(128.42)">
          <path id="Trazado_181121" data-name="Trazado 181121" d="M2436.592,1758.134s42.476-97.632,44.631-84.869S2453.059,1745.836,2436.592,1758.134Z" transform="translate(-2436.592 -1671.216)"/>
          <path id="Trazado_181122" data-name="Trazado 181122" d="M2436.592,1758.25c2.924-7.36,6-14.72,9.08-21.986,3.231-7.267,6.463-14.626,9.7-21.893s6.772-14.533,10.465-21.8c1.847-3.634,3.694-7.267,5.695-10.807,1.077-1.77,2-3.54,3.232-5.4.616-.932,1.231-1.77,1.847-2.7a6.13,6.13,0,0,1,1.231-1.3,3.251,3.251,0,0,1,1.077-.746,1.04,1.04,0,0,1,.616-.186,4.259,4.259,0,0,1,1.231-.093,2.228,2.228,0,0,1,1.539.745,6.363,6.363,0,0,1,.462.931,1.17,1.17,0,0,0,.154.746,4.838,4.838,0,0,1,0,1.49,17.265,17.265,0,0,1-.308,2.889,38.166,38.166,0,0,1-1.385,5.682,99.457,99.457,0,0,1-4,11.086,213.624,213.624,0,0,1-10.466,21.8c-3.847,7.173-8.156,14.347-12.773,21.333-2.462,3.54-4.925,6.987-7.694,10.341A50.488,50.488,0,0,1,2436.592,1758.25Zm0,0a56.971,56.971,0,0,0,8.926-9.968c2.462-3.447,4.77-6.987,6.925-10.527,4.464-7.081,8.311-14.254,12-21.427,3.539-7.267,7.079-14.44,10-21.8,1.385-3.633,2.771-7.36,3.848-10.993.615-1.863.923-3.726,1.385-5.5a17.287,17.287,0,0,0,.308-2.8v-1.956a.7.7,0,0,0-.154-.372,1.1,1.1,0,0,0,.616.279h.77l-.462.279c-.308.373-.77.745-1.077,1.119l-1.847,2.515c-1.231,1.77-2.155,3.447-3.232,5.31-2,3.54-4,7.173-5.849,10.713-3.694,7.174-7.232,14.44-10.926,21.707-3.54,7.266-7.08,14.533-10.466,21.706Z" transform="translate(-2436.592 -1671.332)" fill="url(#linear-gradient-2)"/>
        </g>
        <g id="Grupo_184241" data-name="Grupo 184241" transform="translate(0 87.08)">
          <ellipse id="Elipse_3626" data-name="Elipse 3626" cx="97.725" cy="11.738" rx="97.725" ry="11.738" transform="translate(3.608 1.235)" fill="url(#linear-gradient-3)"/>
          <g id="Grupo_184240" data-name="Grupo 184240">
            <path id="Trazado_181123" data-name="Trazado 181123" d="M2523.842,1760.121a2.409,2.409,0,0,1-1.077,1.77,14.935,14.935,0,0,1-2.309,1.3,33.267,33.267,0,0,1-5.693,1.863c-4,1.025-8,1.77-12.159,2.422-8.31,1.3-16.775,2.235-25.239,2.887-16.929,1.491-34.165,2.236-51.4,2.516s-34.32.372-51.711-.374c-8.618-.372-17.236-.932-26.008-2.142a105.563,105.563,0,0,1-12.927-2.515,31.215,31.215,0,0,1-6.31-2.422l-1.539-.932a8.9,8.9,0,0,1-1.231-1.118,6.793,6.793,0,0,1-.924-1.3l-.308-.745c0-.279-.154-.465-.154-.745s-.154-.465,0-.744c0-.28.154-.652.154-.931a6.814,6.814,0,0,1,1.078-1.584,9.415,9.415,0,0,1,3.078-1.957,35.054,35.054,0,0,1,6.464-2.142,123.793,123.793,0,0,1,12.773-2.515c8.618-1.3,17.236-1.956,25.854-2.515,17.237-1.025,34.474-1.211,51.711-.932,17.237.372,34.32,1.118,51.4,2.608,8.464.745,16.929,1.677,25.239,2.887a120.592,120.592,0,0,1,12.159,2.422,38.255,38.255,0,0,1,5.693,1.863,10.086,10.086,0,0,1,2.309,1.3A2.584,2.584,0,0,1,2523.842,1760.121Zm0,0a2.407,2.407,0,0,0-1.077-1.77c-.77-.466-1.539-.931-2.309-1.3a43.878,43.878,0,0,0-5.693-1.863c-4-1.025-8.157-1.677-12.313-2.329-8.31-1.21-16.775-1.863-25.393-2.421-17.083-1.026-34.166-1.212-51.248-.839s-34.166,1.118-50.941,2.608c-8.464.745-16.775,1.677-24.777,2.887-4,.652-8,1.4-11.543,2.329a22.328,22.328,0,0,0-4.77,1.677,3.865,3.865,0,0,0-1.231.838c-.154.093-.154.186-.154.186h0v.186c0,.559.616,1.212,1.693,1.863a24.3,24.3,0,0,0,4.462,1.77,92.024,92.024,0,0,0,11.389,2.329c8,1.212,16.467,1.956,24.931,2.515s16.929,1.025,25.394,1.3,17.083.558,25.547.744c17.083.28,34.166.187,51.248-.932,8.464-.558,16.929-1.21,25.393-2.421,4.156-.652,8.311-1.3,12.313-2.329a38.4,38.4,0,0,0,5.693-1.863,10.091,10.091,0,0,0,2.309-1.3C2523.227,1761.425,2523.842,1760.774,2523.842,1760.121Z" transform="translate(-2324.783 -1747.148)"/>
          </g>
        </g>
        <path id="Trazado_181124" data-name="Trazado 181124" d="M2368.658,1758.288c66.639,6.336,103.574-2.609,103.574-2.609v-10.62c-51.095,6.521-103.267,0-103.267,0Z" transform="translate(-2318.265 -1660.378)"/>
      </g>
      <path id="Trazado_181125" data-name="Trazado 181125" d="M2361.283,1863.4l-6.547-2.068-6.432-29.863h12.979Z" transform="translate(-2321.289 -1647.54)" stroke="#000" stroke-miterlimit="10" stroke-width="1" fill="url(#linear-gradient-4)"/>
      <path id="Trazado_181126" data-name="Trazado 181126" d="M2372.583,1865.584,2359.6,1863.4v-31.93h12.979Z" transform="translate(-2319.61 -1647.54)" stroke="#000" stroke-miterlimit="10" stroke-width="1" fill="url(#linear-gradient-5)"/>
      <path id="Trazado_181127" data-name="Trazado 181127" d="M2384,1869.03l-13.094-3.446v-34.112l13.438,11.371Z" transform="translate(-2317.931 -1647.54)" stroke="#000" stroke-miterlimit="10" stroke-width="1" fill="url(#linear-gradient-6)"/>
      <path id="Trazado_181128" data-name="Trazado 181128" d="M2395.583,1868.733H2382.6v-28.944l12.979-6.317Z" transform="translate(-2316.193 -1647.243)" stroke="#000" stroke-miterlimit="10" stroke-width="1" fill="url(#linear-gradient-7)"/>
      <path id="Trazado_181129" data-name="Trazado 181129" d="M2406.583,1868.733H2393.6v-35.261l12.979,1.149Z" transform="translate(-2314.559 -1647.243)" stroke="#000" stroke-miterlimit="10" stroke-width="1" fill="url(#linear-gradient-7)"/>
      <rect id="Rectángulo_173570" data-name="Rectángulo 173570" width="12.979" height="32.964" transform="translate(92.828 188.526)" stroke="#000" stroke-miterlimit="10" stroke-width="1" fill="url(#linear-gradient-9)"/>
      <path id="Trazado_181130" data-name="Trazado 181130" d="M2430.283,1869.03H2417.3v-35.261l12.979-2.3Z" transform="translate(-2311.038 -1647.54)" stroke="#000" stroke-miterlimit="10" stroke-width="1" fill="url(#linear-gradient-10)"/>
      <path id="Trazado_181131" data-name="Trazado 181131" d="M2441.583,1869.03H2428.6v-37.558l12.979,4.594Z" transform="translate(-2309.359 -1647.54)" stroke="#000" stroke-miterlimit="10" stroke-width="1" fill="url(#linear-gradient-11)"/>
      <rect id="Rectángulo_173571" data-name="Rectángulo 173571" width="12.979" height="31.815" transform="translate(132.109 189.674)" stroke="#000" stroke-miterlimit="10" stroke-width="1" fill="url(#linear-gradient-12)"/>
      <path id="Trazado_181132" data-name="Trazado 181132" d="M2463.583,1869.03H2450.6v-30.667l12.979-6.891Z" transform="translate(-2306.091 -1647.54)" stroke="#000" stroke-miterlimit="10" stroke-width="1" fill="url(#linear-gradient-11)"/>
      <path id="Trazado_181133" data-name="Trazado 181133" d="M2467.877,1861.334l-5.973,5.4v-35.261H2475Z" transform="translate(-2304.412 -1647.54)" stroke="#000" stroke-miterlimit="10" stroke-width="1" fill="url(#linear-gradient-14)"/>
      <path id="Trazado_181134" data-name="Trazado 181134" d="M2361.283,1852.73H2350.6l-2.3-37.558h12.979Z" transform="translate(-2321.289 -1649.962)" stroke="#000" stroke-miterlimit="10" stroke-width="1" fill="url(#linear-gradient-15)"/>
      <rect id="Rectángulo_173572" data-name="Rectángulo 173572" width="12.979" height="37.558" transform="translate(39.994 165.21)" stroke="#000" stroke-miterlimit="10" stroke-width="1" fill="url(#linear-gradient-16)"/>
      <path id="Trazado_181135" data-name="Trazado 181135" d="M2384,1852.73H2370.9v-37.558l13.438,11.256Z" transform="translate(-2317.931 -1649.962)" stroke="#000" stroke-miterlimit="10" stroke-width="1" fill="url(#linear-gradient-17)"/>
      <path id="Trazado_181136" data-name="Trazado 181136" d="M2395.583,1852.433H2382.6v-28.944l12.979-6.317Z" transform="translate(-2316.193 -1649.665)" stroke="#000" stroke-miterlimit="10" stroke-width="1" fill="url(#linear-gradient-18)"/>
      <path id="Trazado_181137" data-name="Trazado 181137" d="M2406.583,1852.433H2393.6v-35.261l12.979,1.149Z" transform="translate(-2314.559 -1649.665)" stroke="#000" stroke-miterlimit="10" stroke-width="1" fill="url(#linear-gradient-18)"/>
      <rect id="Rectángulo_173573" data-name="Rectángulo 173573" width="12.979" height="32.964" transform="translate(92.828 169.804)" stroke="#000" stroke-miterlimit="10" stroke-width="1" fill="url(#linear-gradient-20)"/>
      <path id="Trazado_181138" data-name="Trazado 181138" d="M2430.283,1852.73H2417.3v-35.261l12.979-2.3Z" transform="translate(-2311.038 -1649.962)" stroke="#000" stroke-miterlimit="10" stroke-width="1" fill="url(#linear-gradient-15)"/>
      <path id="Trazado_181139" data-name="Trazado 181139" d="M2441.583,1852.73H2428.6v-37.558l12.979,4.594Z" transform="translate(-2309.359 -1649.962)" stroke="#000" stroke-miterlimit="10" stroke-width="1" fill="url(#linear-gradient-22)"/>
      <rect id="Rectángulo_173574" data-name="Rectángulo 173574" width="12.979" height="31.815" transform="translate(132.109 170.952)" stroke="#000" stroke-miterlimit="10" stroke-width="1" fill="url(#linear-gradient-23)"/>
      <path id="Trazado_181140" data-name="Trazado 181140" d="M2463.583,1852.73H2450.6v-30.667l12.979-6.891Z" transform="translate(-2306.091 -1649.962)" stroke="#000" stroke-miterlimit="10" stroke-width="1" fill="url(#linear-gradient-22)"/>
      <path id="Trazado_181141" data-name="Trazado 181141" d="M2471.552,1852.73H2461.9v-37.558h15.62Z" transform="translate(-2304.412 -1649.962)" stroke="#000" stroke-miterlimit="10" stroke-width="1" fill="url(#linear-gradient-25)"/>
      <g id="Grupo_184243" data-name="Grupo 184243" transform="translate(18.286 158.778)">
        <path id="Trazado_181142" data-name="Trazado 181142" d="M2408.355,1810.57s2.3,8.844,14.127,8.959c0,0,2.182,21.478-9.648,20.33s-38.707.8-36.754-10.682-23.775-14.587-24.923-6.547-3.446,24.924,8.384,38.707,111.411,9.074,119.221,3.216,20.1-40.889,13.553-45.024c-6.317-4.02-20.444-2.757-20.674,1.608-.345,7.236,1.148,19.411-11.486,19.3-25.039-.115-35.951,7.351-36.754-20.9,0,0,8.154,0,11.716-8.959,0,0,27.795,16.539,32.389,8.959s27.565-11.371,31.815-5.283,2.872,5.743-6.2,33.653-10.223,24.464-26.3,26.762-109.917-.115-113.708-10.222-17.573-49.388-10.337-52.6c7.236-3.1,31.012-4.02,38.248,7.58C2388.37,1831.13,2408.355,1810.57,2408.355,1810.57Z" transform="translate(-2340.703 -1809.536)" fill="url(#linear-gradient-26)"/>
        <path id="Trazado_181143" data-name="Trazado 181143" d="M2408.355,1810.606a13.1,13.1,0,0,0,2.182,3.9,11.362,11.362,0,0,0,3.331,2.871,18.434,18.434,0,0,0,8.615,2.182h0a40.525,40.525,0,0,1-.8,12.864,12.582,12.582,0,0,1-2.987,5.743,7.2,7.2,0,0,1-5.972,1.952c-8.5-.689-17.229-.345-25.728-1.723a29.289,29.289,0,0,1-6.2-1.723,8.591,8.591,0,0,1-2.757-1.723,6.372,6.372,0,0,1-1.953-2.642,6.523,6.523,0,0,1-.115-3.331,7.2,7.2,0,0,0-.344-3.1,9.22,9.22,0,0,0-4.135-4.479,22.2,22.2,0,0,0-5.973-2.3,23.551,23.551,0,0,0-6.317-.574,10.963,10.963,0,0,0-5.972,1.723,3.537,3.537,0,0,0-1.608,2.412c-.115,1.033-.345,2.067-.459,3.216a59.227,59.227,0,0,0-.345,12.749,41.554,41.554,0,0,0,2.871,12.4,35.908,35.908,0,0,0,6.777,10.682,16.042,16.042,0,0,0,5.513,2.986,48.871,48.871,0,0,0,6.2,1.723,159.2,159.2,0,0,0,25.5,2.986c8.615.459,17.114.574,25.728.459s17.113-.459,25.728-1.034c4.25-.345,8.5-.689,12.864-1.149a93.434,93.434,0,0,0,12.634-2.067,22.7,22.7,0,0,0,2.986-.919,12.5,12.5,0,0,0,1.263-.689c.345-.345.8-.689,1.149-1.034a34.679,34.679,0,0,0,3.676-5.169,97.282,97.282,0,0,0,5.4-11.6,108.933,108.933,0,0,0,3.79-12.29,55.715,55.715,0,0,0,1.033-6.317,16.039,16.039,0,0,0-.344-6.2,2.785,2.785,0,0,0-.689-1.149,3.423,3.423,0,0,0-1.263-.8,29.881,29.881,0,0,0-2.872-1.149,23.005,23.005,0,0,0-6.2-.8,22.433,22.433,0,0,0-6.2.8c-1.952.574-4.135,1.493-3.675,3.675-.115,2.182,0,4.25-.23,6.432a17.955,17.955,0,0,1-1.378,6.432,8.986,8.986,0,0,1-4.594,4.824,14.384,14.384,0,0,1-6.547,1.149c-4.25,0-8.5.23-12.864.459-2.182.115-4.25.23-6.432.345a31.4,31.4,0,0,1-6.547-.46,11.152,11.152,0,0,1-5.973-3.1,14.691,14.691,0,0,1-3.216-5.858,49.381,49.381,0,0,1-1.608-12.864v-.574h.574a9.992,9.992,0,0,0,3.561-.8,11.127,11.127,0,0,0,3.216-1.838,14.176,14.176,0,0,0,4.365-5.972l.229-.574.574.344c3.446,2.068,7.122,3.905,10.8,5.743a68.3,68.3,0,0,0,11.371,4.365,20.587,20.587,0,0,0,5.858.8,5.035,5.035,0,0,0,2.642-.689,3.508,3.508,0,0,0,.918-.919,5.1,5.1,0,0,1,.919-1.264,16.352,16.352,0,0,1,5.168-3.675,32.354,32.354,0,0,1,5.858-2.182,44.468,44.468,0,0,1,12.29-1.493,16.182,16.182,0,0,1,6.087,1.378,6.3,6.3,0,0,1,2.527,2.067,15.8,15.8,0,0,1,1.608,2.756,6.182,6.182,0,0,1,.574,3.216,14.452,14.452,0,0,1-.459,3.1c-.459,2.068-1.148,3.905-1.723,5.858l-3.9,11.6c-2.642,7.7-4.824,15.62-8.155,23.086a28.41,28.41,0,0,1-3.1,5.4,10.4,10.4,0,0,1-5.054,3.79,35.771,35.771,0,0,1-6.087,1.264c-2.067.23-4.02.459-6.088.689a110.327,110.327,0,0,1-12.29.8c-4.135.115-8.155.115-12.29.115-8.155,0-16.31-.229-24.464-.574s-16.31-.8-24.465-1.493-16.31-1.493-24.349-2.871a72.308,72.308,0,0,1-11.945-2.871,31.122,31.122,0,0,1-2.871-1.263,4.7,4.7,0,0,1-2.182-2.3c-.689-1.953-1.378-3.79-2.067-5.743-2.642-7.7-5.168-15.506-7.236-23.431a101.89,101.89,0,0,1-2.527-12.06,56.311,56.311,0,0,1-.459-6.087,9.672,9.672,0,0,1,.459-3.1,3.131,3.131,0,0,1,.689-1.378,2.286,2.286,0,0,1,1.378-.919,28.04,28.04,0,0,1,5.972-1.378,56.414,56.414,0,0,1,6.088-.46,54.134,54.134,0,0,1,12.175,1.263,25.725,25.725,0,0,1,11.027,5.169,12.932,12.932,0,0,1,2.067,2.3,19.023,19.023,0,0,0,1.837,2.412,6.941,6.941,0,0,0,5.513,2.067,17.082,17.082,0,0,0,5.858-1.608,34.463,34.463,0,0,0,5.283-2.986A74.471,74.471,0,0,0,2408.355,1810.606Zm0,0a61.856,61.856,0,0,1-9.418,7.81,48.865,48.865,0,0,1-5.284,3.1,17.088,17.088,0,0,1-5.858,1.608,7.185,7.185,0,0,1-5.628-2.067,19.074,19.074,0,0,1-1.838-2.412,12.3,12.3,0,0,0-2.067-2.182,25.705,25.705,0,0,0-10.911-5.054,48.121,48.121,0,0,0-12.175-1.149,54.236,54.236,0,0,0-6.087.459,33.427,33.427,0,0,0-5.858,1.378,3.037,3.037,0,0,0-1.838,2.067,12.458,12.458,0,0,0-.46,2.986,36.181,36.181,0,0,0,.46,6.088,105.017,105.017,0,0,0,2.527,11.945c2.067,7.925,4.594,15.621,7.351,23.316.689,1.953,1.378,3.791,2.068,5.743.229.919,1.148,1.493,1.953,2.068a20.13,20.13,0,0,0,2.756,1.263,68.389,68.389,0,0,0,11.83,2.871c8.04,1.378,16.195,2.182,24.35,2.871s16.309,1.148,24.464,1.378c8.155.345,16.31.574,24.465.574,4.135,0,8.155,0,12.29-.115a108.356,108.356,0,0,0,12.175-.8c2.067-.23,4.02-.46,6.087-.689a24.078,24.078,0,0,0,5.858-1.148,10.023,10.023,0,0,0,4.594-3.561,29.792,29.792,0,0,0,2.986-5.283c3.216-7.466,5.513-15.276,8.155-23.086l3.905-11.6c.574-1.953,1.263-3.905,1.723-5.858s.8-3.9-.115-5.743a11.256,11.256,0,0,0-1.493-2.527,4.113,4.113,0,0,0-2.182-1.723,16.09,16.09,0,0,0-5.743-1.263,38.336,38.336,0,0,0-11.945,1.493,47.017,47.017,0,0,0-5.628,2.068,14.767,14.767,0,0,0-4.824,3.446,10.06,10.06,0,0,0-.919,1.149,4.408,4.408,0,0,1-1.264,1.263,7.968,7.968,0,0,1-3.216.919,21.872,21.872,0,0,1-6.2-.8,58.107,58.107,0,0,1-11.486-4.479c-3.676-1.723-7.351-3.676-10.911-5.743l.8-.23a14.776,14.776,0,0,1-4.709,6.547,13.41,13.41,0,0,1-3.561,1.953,11.391,11.391,0,0,1-4.02.8l.574-.574a51.485,51.485,0,0,0,1.608,12.634,13.635,13.635,0,0,0,2.872,5.4,10.152,10.152,0,0,0,5.4,2.757,28.757,28.757,0,0,0,6.317.459,60.314,60.314,0,0,0,6.432-.344c4.25-.23,8.615-.459,12.865-.459a13.628,13.628,0,0,0,6.087-1.034,7.914,7.914,0,0,0,4.02-4.364,17.992,17.992,0,0,0,1.263-6.087c.115-2.068.115-4.25.23-6.432v-.8a2.705,2.705,0,0,1,.229-.919,4.747,4.747,0,0,1,1.149-1.493,11.021,11.021,0,0,1,3.1-1.493,27.05,27.05,0,0,1,13.094,0c1.034.344,2.067.689,3.1,1.148a3.909,3.909,0,0,1,1.493,1.034,5.265,5.265,0,0,1,.919,1.493,8.5,8.5,0,0,1,.574,3.331,32.237,32.237,0,0,1-.115,3.331,62.432,62.432,0,0,1-1.034,6.432,91.116,91.116,0,0,1-3.79,12.4,83.4,83.4,0,0,1-5.4,11.716,32.871,32.871,0,0,1-3.79,5.4,6.024,6.024,0,0,1-1.264,1.149,4.767,4.767,0,0,1-1.493.8,15.881,15.881,0,0,1-3.1.919,122.13,122.13,0,0,1-12.749,1.953c-4.25.459-8.614.8-12.864,1.149-8.615.574-17.229.919-25.728,1.033-8.615.115-17.229,0-25.843-.459a159.239,159.239,0,0,1-25.613-3.1,38.494,38.494,0,0,1-6.2-1.838,16.756,16.756,0,0,1-5.743-3.216,35.093,35.093,0,0,1-6.891-10.911,43.02,43.02,0,0,1-2.872-12.634,68.571,68.571,0,0,1,.345-12.864c.115-1.034.229-2.068.459-3.216a4.42,4.42,0,0,1,1.952-2.756,12.146,12.146,0,0,1,6.317-1.723,23.982,23.982,0,0,1,6.432.574,24.524,24.524,0,0,1,6.087,2.3,9.938,9.938,0,0,1,4.365,4.824,8.058,8.058,0,0,1,.344,3.331,5.7,5.7,0,0,0,.115,3.1,7.6,7.6,0,0,0,4.479,4.135,28.256,28.256,0,0,0,6.088,1.723c8.5,1.493,17.114,1.149,25.613,1.953a7.262,7.262,0,0,0,5.858-1.838,12.726,12.726,0,0,0,2.986-5.628,36.653,36.653,0,0,0,.919-12.749h0a17.468,17.468,0,0,1-8.614-2.182,13.348,13.348,0,0,1-3.331-2.871A12.907,12.907,0,0,1,2408.355,1810.606Z" transform="translate(-2340.704 -1809.572)" fill="url(#linear-gradient-27)"/>
      </g>
    </g>
  </g>
</svg>
