<svg xmlns="http://www.w3.org/2000/svg" width="229.903" height="302.487" viewBox="0 0 229.903 302.487">
  <g id="Grupo_184471" data-name="Grupo 184471" transform="translate(-1987.988 -244.549)">
    <g id="Grupo_184421" data-name="Grupo 184421" transform="translate(2141.447 460.837)">
      <path id="Trazado_181347" data-name="Trazado 181347" d="M2217.386,463.734c2.6,5.95-12.27,18.2-33.215,27.362s-40.036,11.767-42.638,5.818,12.269-18.2,33.215-27.362,40.037-11.767,42.639-5.818" transform="translate(-2141.237 -460.542)" fill="#a10001"/>
    </g>
    <g id="Grupo_184422" data-name="Grupo 184422" transform="translate(1998.659 244.549)">
      <path id="Trazado_181348" data-name="Trazado 181348" d="M2157.364,282.435c7.512-15.023,5.552-35.6,5.552-35.6-25.148-1.307-43.019,9.329-43.019,9.329-11.121-7.294-23.863-11.616-37-11.616a71.1,71.1,0,0,0-40.426,12.983l0,0s-13.791-12.653-43.513-9.061c0,0-3.692,17.277,13.994,48.646l.009-.012a72.725,72.725,0,0,0-3.551,22.4c0,40.855,34.522,72.994,73.484,72.994s74.464-28.22,74.464-69.075a75.627,75.627,0,0,0-5.5-27.942h0l0,0c-.06-.153-.122-.305-.184-.458.257-1.075,1.473-4.152,5.689-12.583" transform="translate(-1998.644 -244.549)" fill="#a10001"/>
    </g>
    <g id="Grupo_184423" data-name="Grupo 184423" transform="translate(1989.11 363.103)">
      <path id="Trazado_181349" data-name="Trazado 181349" d="M2182.2,458.635c0-31.354-33.314-95.694-33.314-95.694s-23.512,32.122-62.053,32.661c-46.7.653-65.646-31.026-65.646-31.026s-36.251,54.542-31.68,94.06c5.307,45.87,51.15,83.606,97.326,83.607,55.848,0,95.367-37.432,95.367-83.607" transform="translate(-1989.108 -362.941)" fill="#a10001"/>
    </g>
    <g id="Grupo_184424" data-name="Grupo 184424" transform="translate(2037.446 427.28)">
      <path id="Trazado_181350" data-name="Trazado 181350" d="M2133.8,504.177c0,31.784-21.584,37.955-48.21,37.955s-48.209-6.17-48.209-37.955,21.584-77.146,48.209-77.146,48.21,45.362,48.21,77.146" transform="translate(-2037.378 -427.03)" fill="#c1000c"/>
    </g>
    <g id="Grupo_184425" data-name="Grupo 184425" transform="translate(2045.227 315.603)">
      <path id="Trazado_181351" data-name="Trazado 181351" d="M2124.427,336.106a21.056,21.056,0,0,0-.822-6.883c-.866-2.847-3.832-5.129-7.775-6.954-9.113-5.045-30.16-6.763-30.16-6.763s-.312.02-.874.067c-.562-.047-.873-.067-.873-.067s-21.048,1.718-30.16,6.763c-3.943,1.824-6.907,4.107-7.775,6.954a21.056,21.056,0,0,0-.822,6.883c-.047,2.036.031,4.4.056,7.324.079,9.422,11.267,12.736,19.105,11.6,3.4-.493,6.063-2.28,8.629-4.147,4.533-2.388,7.3-4.71,11.84-4.977,4.542.266,7.307,2.589,11.84,4.977,2.566,1.867,5.228,3.654,8.629,4.147,7.838,1.137,19.026-2.178,19.106-11.6.025-2.92.1-5.288.055-7.324" transform="translate(-2045.149 -315.506)" fill="#c1000c"/>
    </g>
    <g id="Grupo_184426" data-name="Grupo 184426" transform="translate(2044.726 315.103)">
      <path id="Trazado_181352" data-name="Trazado 181352" d="M2061.31,355.741c-4.332,0-9.343-1.185-12.757-4.114a10.5,10.5,0,0,1-3.831-8.192c-.009-1-.023-1.932-.037-2.81-.027-1.707-.05-3.181-.019-4.53a21.339,21.339,0,0,1,.843-7.018c.833-2.734,3.539-5.177,8.044-7.261,9.07-5.024,29.466-6.738,30.329-6.809.059,0,.391.02.956.069.483-.048.8-.069.8-.069.937.071,21.333,1.785,30.436,6.825,4.473,2.068,7.18,4.511,8.012,7.245a21.458,21.458,0,0,1,.843,7.033c.032,1.355.009,2.838-.019,4.554-.014.866-.028,1.787-.036,2.771a10.508,10.508,0,0,1-3.832,8.192c-4.268,3.662-11.036,4.6-15.847,3.9-3.489-.506-6.177-2.292-8.851-4.238-1.016-.529-1.994-1.092-2.919-1.626-2.964-1.708-5.306-3.059-8.656-3.255-3.291.2-5.634,1.547-8.6,3.255-.925.534-1.9,1.1-2.98,1.664-2.612,1.908-5.3,3.694-8.79,4.2A21.6,21.6,0,0,1,2061.31,355.741Zm22.581-39.734c-.135.016-20.971,1.766-29.885,6.7-4.267,1.975-6.792,4.211-7.538,6.661a20.39,20.39,0,0,0-.8,6.717c-.03,1.36-.007,2.826.02,4.522.014.88.028,1.816.037,2.817a9.541,9.541,0,0,0,3.482,7.441c4.029,3.458,10.463,4.332,15.051,3.669,3.262-.473,5.838-2.189,8.406-4.057,1.126-.6,2.093-1.157,3.008-1.684,2.957-1.705,5.51-3.177,9.1-3.388,3.645.21,6.2,1.682,9.156,3.388.915.528,1.883,1.085,2.947,1.645,2.629,1.907,5.205,3.623,8.467,4.1,4.588.665,11.022-.211,15.051-3.669a9.544,9.544,0,0,0,3.483-7.441c.008-.985.022-1.909.037-2.778.027-1.712.05-3.19.018-4.53v-.031a20.429,20.429,0,0,0-.8-6.717c-.745-2.45-3.271-4.685-7.506-6.645-8.87-4.91-29.421-6.671-29.981-6.718,0,0-.3.025-.8.067C2084.2,316.026,2083.894,316.006,2083.891,316.006Z" transform="translate(-2044.648 -315.007)" fill="#26120c"/>
    </g>
    <g id="Grupo_184427" data-name="Grupo 184427" transform="translate(2073.117 347.417)">
      <path id="Trazado_181353" data-name="Trazado 181353" d="M2073,354.221s5.112,8.27,12.354,7.781,11.16-7.781,11.16-7.781a13.5,13.5,0,0,0-10.777-6.916c-7.645-.544-12.737,6.916-12.737,6.916" transform="translate(-2073.001 -347.277)" fill="#c1000c"/>
    </g>
    <g id="Grupo_184428" data-name="Grupo 184428" transform="translate(2033.948 294.297)">
      <path id="Trazado_181354" data-name="Trazado 181354" d="M2033.932,302.621c.469,3.4-.046,12.267,17.145,15.187,11.47,1.949,21.066-5.264,21.066-11.757s-.014-12.514-21.066-11.757c-5.9.211-18.037,1.9-17.145,8.327" transform="translate(-2033.886 -294.229)" fill="#fff"/>
    </g>
    <g id="Grupo_184429" data-name="Grupo 184429" transform="translate(2043.295 296.466)">
      <path id="Trazado_181355" data-name="Trazado 181355" d="M2052.584,296.4a9.782,9.782,0,1,1-9.356,10.191,9.78,9.78,0,0,1,9.356-10.191" transform="translate(-2043.219 -296.395)" fill="#0d0c0d"/>
    </g>
    <g id="Grupo_184430" data-name="Grupo 184430" transform="translate(2042.794 295.966)">
      <path id="Trazado_181356" data-name="Trazado 181356" d="M2053,316.46a10.262,10.262,0,1,1,.445-.009Q2053.218,316.46,2053,316.46Zm.015-19.564c-.135,0-.271,0-.406.009a9.252,9.252,0,1,0,.406-.009Z" transform="translate(-2042.72 -295.896)" fill="#fff"/>
    </g>
    <g id="Grupo_184431" data-name="Grupo 184431" transform="translate(2008.908 255.526)">
      <path id="Trazado_181357" data-name="Trazado 181357" d="M2016.751,294.281s6.859-23.024,23.026-33.313c0,0-8.819-8.328-30.864-4.409,0,0-.979,23.025,7.839,37.722" transform="translate(-2008.88 -255.511)" fill="#c1000c"/>
    </g>
    <g id="Grupo_184432" data-name="Grupo 184432" transform="translate(2124.803 253.299)">
      <path id="Trazado_181358" data-name="Trazado 181358" d="M2149.335,291.907s-8.041-22.639-24.719-32.077c0,0,8.375-8.773,30.594-6,0,0,2.17,22.944-5.875,38.078" transform="translate(-2124.616 -253.287)" fill="#c1000c"/>
    </g>
    <g id="Grupo_184433" data-name="Grupo 184433" transform="translate(2111.369 427.28)">
      <path id="Trazado_181359" data-name="Trazado 181359" d="M2155.741,457.845H2111.65l-.45-30.814h44.541Z" transform="translate(-2111.2 -427.031)" fill="#0d0c0d"/>
    </g>
    <g id="Grupo_184434" data-name="Grupo 184434" transform="translate(2110.861 426.78)">
      <path id="Trazado_181360" data-name="Trazado 181360" d="M2156.242,458.347h-45.084l-.465-31.815h45.549Zm-44.1-1h43.1V427.532h-43.531Z" transform="translate(-2110.693 -426.531)" fill="#f4c07f"/>
    </g>
    <g id="Grupo_184435" data-name="Grupo 184435" transform="translate(2015.575 427.28)">
      <path id="Trazado_181361" data-name="Trazado 181361" d="M2060.077,457.845h-44.09l-.45-30.814h44.54Z" transform="translate(-2015.537 -427.031)" fill="#0d0c0d"/>
    </g>
    <g id="Grupo_184436" data-name="Grupo 184436" transform="translate(2015.067 426.78)">
      <path id="Trazado_181362" data-name="Trazado 181362" d="M2060.578,458.347h-45.083l-.465-31.815h45.548Zm-44.1-1h43.1V427.532h-43.531Z" transform="translate(-2015.03 -426.531)" fill="#f4c07f"/>
    </g>
    <g id="Grupo_184437" data-name="Grupo 184437" transform="translate(2089.979 362.149)">
      <path id="Trazado_181363" data-name="Trazado 181363" d="M2103.736,406.7h-13.9v34.875h13.9v50.68l76.951-40.613-.035-.322c-3.718-32.92-32.924-89.328-32.924-89.328s-16.67,22.767-44.942,30.285l.95,2.27Z" transform="translate(-2089.839 -361.988)"/>
    </g>
    <g id="Grupo_184438" data-name="Grupo 184438" transform="translate(2089.478 361.2)">
      <path id="Trazado_181364" data-name="Trazado 181364" d="M2103.236,493.083v-51.01h-13.9V406.2h13.9V394.646l-1.134-2.708.556-.148c27.779-7.387,44.5-29.871,44.667-30.1l.477-.652.371.718c.293.565,29.291,56.868,32.977,89.5l.072.663Zm-12.9-52.011h13.9v50.351l75.916-40.067c-3.451-30.48-29.156-81.837-32.51-88.436-2.951,3.727-19.028,22.787-44.174,29.689l.768,1.937V407.2h-13.9Z" transform="translate(-2089.339 -361.041)" fill="#fc0606"/>
    </g>
    <g id="Grupo_184439" data-name="Grupo 184439" transform="translate(1988.524 364.737)">
      <path id="Trazado_181365" data-name="Trazado 181365" d="M2065.474,407.144h13.9v34.875h-13.9V492.7l-76.951-40.613.035-.322c.552-37.611,32.63-87.191,32.63-87.191s16.965,20.63,45.237,28.148l-.95,2.27Z" transform="translate(-1988.523 -364.573)"/>
    </g>
    <g id="Grupo_184440" data-name="Grupo 184440" transform="translate(1987.988 363.89)">
      <path id="Trazado_181366" data-name="Trazado 181366" d="M2065.976,493.53l-77.988-41.159.073-.661c.544-37.275,32.385-86.911,32.707-87.407l.373-.576.435.529c.169.205,17.2,20.6,44.978,27.983l.555.147-1.133,2.707v11.552h13.9v35.876h-13.9ZM1989.057,451.8l75.918,40.067V441.519h13.9V407.646h-13.9l.039-12.847.729-1.742c-25.28-6.912-41.631-24.4-44.493-27.645-3.524,5.6-31.678,51.468-32.19,86.36Z" transform="translate(-1987.988 -363.727)" fill="#fc0606"/>
    </g>
    <g id="Grupo_184441" data-name="Grupo 184441" transform="translate(2031.306 451.804)">
      <path id="Trazado_181367" data-name="Trazado 181367" d="M2035.625,451.521l-4.378,31.785c12.241,11.454,26.163,12.466,40.415,15.5V469.79c-12.593-2.6-24.884-8.972-36.037-18.269" transform="translate(-2031.247 -451.521)" fill="#a0652e"/>
    </g>
    <g id="Grupo_184442" data-name="Grupo 184442" transform="translate(2028.65 446.991)">
      <path id="Trazado_181368" data-name="Trazado 181368" d="M2074.169,501.909l-3.025-.644c-2.171-.464-4.377-.886-6.511-1.3-11.9-2.284-24.21-4.646-35.093-14.828l-.946-.885,5.17-37.542,3.468,2.89c10.982,9.156,23.065,15.29,34.941,17.741l2,.412Zm-40.258-19.561c9.587,8.467,20.323,10.526,31.665,12.7,1.178.226,2.378.457,3.586.7V471.8a85.413,85.413,0,0,1-31.654-15.574Z" transform="translate(-2028.594 -446.714)" fill="#4c1f07"/>
    </g>
    <g id="Grupo_184443" data-name="Grupo 184443" transform="translate(2076.621 473.694)">
      <path id="Trazado_181369" data-name="Trazado 181369" d="M2076.5,473.617v20.337c2.68.251,5.367.392,8.057.392,3.941,0,7.79-.2,11.559-.567v-20.4q-5.846.581-11.972.589c-2.552,0-5.1-.127-7.644-.352" transform="translate(-2076.5 -473.381)" fill="#26120c"/>
    </g>
    <g id="Grupo_184444" data-name="Grupo 184444" transform="translate(2010.332 444.136)">
      <path id="Trazado_181370" data-name="Trazado 181370" d="M2010.3,459.69a106.682,106.682,0,0,0,16.736,15.077l4.24-17.174a107.637,107.637,0,0,1-17.07-13.729Z" transform="translate(-2010.301 -443.863)" fill="#a0652e"/>
    </g>
    <g id="Grupo_184445" data-name="Grupo 184445" transform="translate(1992.313 419.017)">
      <path id="Trazado_181371" data-name="Trazado 181371" d="M1995.673,418.779c-1.284,3.931-2.426,7.927-3.365,11.931a93.391,93.391,0,0,0,14.114,24.389l3.8-15.4a97.663,97.663,0,0,1-14.55-20.92" transform="translate(-1992.307 -418.779)" fill="#a0652e"/>
    </g>
    <g id="Grupo_184446" data-name="Grupo 184446" transform="translate(2139.712 445.078)">
      <path id="Trazado_181372" data-name="Trazado 181372" d="M2139.5,459.274l2.326,19.19a86.736,86.736,0,0,0,17.911-15.268l-2.229-18.392a87.663,87.663,0,0,1-18.008,14.47" transform="translate(-2139.505 -444.804)" fill="#a0652e"/>
    </g>
    <g id="Grupo_184447" data-name="Grupo 184447" transform="translate(2162.055 420.239)">
      <path id="Trazado_181373" data-name="Trazado 181373" d="M2177.2,430.945c-1.08-3.6-2.287-7.274-3.573-10.946a79.166,79.166,0,0,1-11.809,19.9l2.193,18.087a78.3,78.3,0,0,0,13.189-27.039" transform="translate(-2161.817 -419.999)" fill="#a0652e"/>
    </g>
    <g id="Grupo_184448" data-name="Grupo 184448" transform="translate(2101.137 451.803)">
      <path id="Trazado_181374" data-name="Trazado 181374" d="M2100.982,469.02v32.792c13.476-3.017,25.7-9.719,36.3-19.306l-2.339-30.985a79.536,79.536,0,0,1-33.961,17.5" transform="translate(-2100.982 -451.52)" fill="#a0652e"/>
    </g>
    <g id="Grupo_184449" data-name="Grupo 184449" transform="translate(2098.633 446.69)">
      <path id="Trazado_181375" data-name="Trazado 181375" d="M2098.482,504.945V467.034l1.943-.448a76.87,76.87,0,0,0,32.894-16.961l3.752-3.211,2.8,37.133-.909.822c-11.221,10.151-23.816,16.845-37.433,19.893Zm5.007-33.951v27.629a77.746,77.746,0,0,0,31.208-17.154l-1.885-24.982A81.046,81.046,0,0,1,2103.489,470.994Z" transform="translate(-2098.482 -446.414)" fill="#4c1f07"/>
    </g>
    <g id="Grupo_184450" data-name="Grupo 184450" transform="translate(2096.238 473.087)">
      <path id="Trazado_181376" data-name="Trazado 181376" d="M2096.09,473.382v20.4c1.648-.159,3.283-.345,4.9-.571V472.775c-1.618.231-3.246.442-4.9.607" transform="translate(-2096.09 -472.775)" fill="#653011"/>
    </g>
    <g id="Grupo_184451" data-name="Grupo 184451" transform="translate(2071.721 473.358)">
      <path id="Trazado_181377" data-name="Trazado 181377" d="M2076.507,473.618q-2.456-.218-4.9-.573v20.31c1.629.242,3.262.448,4.9.6Z" transform="translate(-2071.607 -473.045)" fill="#653011"/>
    </g>
    <g id="Grupo_184452" data-name="Grupo 184452" transform="translate(2157.72 440.137)">
      <path id="Trazado_181378" data-name="Trazado 181378" d="M2159.717,463.2q2.265-2.543,4.3-5.246l-2.193-18.087q-2.059,2.544-4.335,4.941Z" transform="translate(-2157.488 -439.87)" fill="#653011"/>
    </g>
    <g id="Grupo_184453" data-name="Grupo 184453" transform="translate(2135.098 459.548)">
      <path id="Trazado_181379" data-name="Trazado 181379" d="M2139.511,459.254q-2.256,1.371-4.614,2.634l2.34,19.309c1.566-.884,3.107-1.794,4.6-2.753Z" transform="translate(-2134.897 -459.254)" fill="#653011"/>
    </g>
    <g id="Grupo_184454" data-name="Grupo 184454" transform="translate(2006.427 439.937)">
      <path id="Trazado_181380" data-name="Trazado 181380" d="M2014.213,443.869q-2.067-2.044-4.009-4.2l-3.8,15.4q1.879,2.366,3.9,4.624Z" transform="translate(-2006.402 -439.67)" fill="#653011"/>
    </g>
    <g id="Grupo_184455" data-name="Grupo 184455" transform="translate(2027.068 457.865)">
      <path id="Trazado_181381" data-name="Trazado 181381" d="M2031.254,457.573l-4.24,17.174q2.121,1.54,4.311,2.978l4.306-17.445c-1.482-.864-2.938-1.773-4.377-2.708" transform="translate(-2027.014 -457.573)" fill="#653011"/>
    </g>
    <g id="Grupo_184456" data-name="Grupo 184456" transform="translate(2072.253 467.314)">
      <path id="Trazado_181382" data-name="Trazado 181382" d="M2100.49,481.185a14.176,14.176,0,1,1-14.175-14.175,14.176,14.176,0,0,1,14.175,14.175" transform="translate(-2072.138 -467.01)" fill="#0d0c0d"/>
    </g>
    <g id="Grupo_184457" data-name="Grupo 184457" transform="translate(2074.358 469.419)">
      <path id="Trazado_181383" data-name="Trazado 181383" d="M2086.312,469.112a12.07,12.07,0,1,0,12.069,12.071,12.085,12.085,0,0,0-12.069-12.071" transform="translate(-2074.24 -469.112)" fill="#fc0606"/>
    </g>
    <g id="Grupo_184458" data-name="Grupo 184458" transform="translate(2111.492 433.414)">
      <path id="Trazado_181384" data-name="Trazado 181384" d="M2111.323,433.156v89.161h44.091V433.156" transform="translate(-2111.323 -433.156)" fill="#a10001"/>
    </g>
    <g id="Grupo_184459" data-name="Grupo 184459" transform="translate(2111.492 500.497)">
      <rect id="Rect치ngulo_173610" data-name="Rect치ngulo 173610" width="48.01" height="23.515" fill="#0d0c0d"/>
    </g>
    <g id="Grupo_184460" data-name="Grupo 184460" transform="translate(2105.123 515.684)">
      <path id="Trazado_181385" data-name="Trazado 181385" d="M2162.771,530.989c0,8.658-12.941,15.676-28.9,15.676s-28.9-7.019-28.9-15.676,12.941-15.676,28.9-15.676,28.9,7.018,28.9,15.676" transform="translate(-2104.963 -515.313)" fill="#a10001"/>
    </g>
    <g id="Grupo_184461" data-name="Grupo 184461" transform="translate(2015.8 433.192)">
      <path id="Trazado_181386" data-name="Trazado 181386" d="M2015.761,432.934v89.651h44.091V432.934" transform="translate(-2015.761 -432.934)" fill="#a10001"/>
    </g>
    <g id="Grupo_184462" data-name="Grupo 184462" transform="translate(2015.8 500.121)">
      <rect id="Rect치ngulo_173611" data-name="Rect치ngulo 173611" width="48.067" height="23.767" fill="#0d0c0d"/>
    </g>
    <g id="Grupo_184463" data-name="Grupo 184463" transform="translate(2008.829 514.347)">
      <path id="Trazado_181387" data-name="Trazado 181387" d="M2066.12,529.654c0,8.659-12.832,15.677-28.659,15.677s-28.659-7.019-28.659-15.677,12.831-15.676,28.659-15.676,28.659,7.019,28.659,15.676" transform="translate(-2008.801 -513.978)" fill="#a10001"/>
    </g>
    <g id="Grupo_184464" data-name="Grupo 184464" transform="translate(2025.218 262.888)">
      <path id="Trazado_181388" data-name="Trazado 181388" d="M2076.985,307.668a22.592,22.592,0,0,1-.017,2.487,20.706,20.706,0,0,1-.713,4.379c-.3.88-.323,1.752-.536,2.615a27.168,27.168,0,0,1-.938,2.663c-.014.04-.023.08-.033.121-.248,1.049-.451,2.108-.757,3.144-.238.811-.6,1.593-.906,2.389a5.622,5.622,0,0,0-.2.652c-.111.464.043,1.007-.54,1.326-.016.009-.019.037-.025.057-.237.829-.439,1.669-.72,2.487-.3.882-.683,1.743-1.026,2.614a1.011,1.011,0,0,0-.066.237,4.984,4.984,0,0,1-.513,1.692,16.412,16.412,0,0,0-.763,2.7c-.3.955-.661,1.895-1,2.841-.02.06-.044.12-.057.18a32.144,32.144,0,0,1-.749,3.3c-.308.923-.392,1.9-.744,2.775a9.431,9.431,0,0,0-.433,1.69,14.915,14.915,0,0,1-.737,3.22c-.357.78-.194,1.618-.55,2.3-.478.914-.241,1.891-.6,2.746s-.207,1.8-.57,2.576-.3,1.575-.63,2.3a1.426,1.426,0,0,1-1.343.963c-1.212-.006-2.425.01-3.637-.035a2.656,2.656,0,0,1-.846-.349c-.08-.036-.156-.114-.233-.114-1.083,0-1.784-.729-2.621-1.137a12.7,12.7,0,0,1-2.566-1.948c-.986-.844-1.925-1.732-2.866-2.615-.6-.563-1.2-1.132-1.741-1.733-.31-.344-.479-.78-.77-1.14-.518-.639-1.1-1.243-1.619-1.88-.269-.328-.45-.711-.71-1.045-.544-.7-1.13-1.37-1.667-2.07-.29-.378-.508-.8-.783-1.187a2.234,2.234,0,0,0-.587-.65c-.518-.32-.387-.989-1.025-1.275-.3-.137-.423-.588-.631-.894-.456-.671-.881-1.36-1.383-2-.489-.627-1.059-1.207-1.59-1.809-.04-.046-.043-.117-.073-.171-.242-.425-.474-.855-.734-1.271-.384-.611-.772-1.222-1.188-1.816-.477-.681-.988-1.343-1.484-2.014a1.081,1.081,0,0,1-.1-.164,11.7,11.7,0,0,0-1.371-2.665c-.488-.566-.33-1.326-1.047-1.8-.363-.24-.4-.845-.6-1.279-.159-.349-.368-.682-.509-1.035a21.813,21.813,0,0,0-.775-2.051c-.4-.774-.355-1.694-1.042-2.368a.243.243,0,0,1-.044-.117c-.224-.925-.514-1.841-.658-2.776-.277-1.788-.2-3.656-.773-5.362-.623-1.851-.246-3.68-.507-5.5a4.556,4.556,0,0,0-.278-.721,2.183,2.183,0,0,1-.157-.656c-.019-2.468-.066-4.939-.007-7.407.021-.862.359-1.713.466-2.579.088-.719,0-1.455.08-2.175.05-.448.308-.874.4-1.322.1-.486.075-.992.177-1.478.107-.51.3-1.006.455-1.509.013-.039.028-.079.038-.119.246-1.024.444-2.06.753-3.071.232-.76.619-1.485.912-2.232a4.7,4.7,0,0,0,.206-.843c.072-.371-.066-.814.486-1.011a.117.117,0,0,0,.064-.1c-.249-.923.65-1.609.676-2.487a3.078,3.078,0,0,1,.414-.994c.017-.038.058-.067.069-.1.226-.8.438-1.6.682-2.39a5.193,5.193,0,0,1,.366-.762,1.518,1.518,0,0,0,.119-.221c.243-.823.466-1.651.727-2.469a4.212,4.212,0,0,1,.4-.746c.029-.051.111-.085.127-.136.225-.713.395-1.442.678-2.133.277-.674.673-1.31,1.016-1.962.02-.037.058-.07.066-.108a6.488,6.488,0,0,1,1.142-2.162c.329-.495.509-1.064.8-1.58a3.1,3.1,0,0,1,.611-.741,22.762,22.762,0,0,1,2.347-2.027,4.483,4.483,0,0,1,1.891-.645,9.018,9.018,0,0,1,2.554.011,7.8,7.8,0,0,1,2.017.773,13.167,13.167,0,0,1,1.359.842,7.813,7.813,0,0,1,.956.622c.886.767,1.729,1.574,2.622,2.336.707.6,1.521,1.122,2.181,1.759.73.7,1.317,1.52,2.01,2.255.444.472.977.879,1.448,1.334.27.26.488.562.741.837.536.585,1.092,1.156,1.616,1.747.312.352.57.738.869,1.1.52.622,1.066,1.227,1.574,1.855s.961,1.272,1.464,1.9,1.047,1.207,1.539,1.831c.31.394.538.834.833,1.237.151.208.384.368.547.57.538.66,1.069,1.325,1.586,2,.259.335.482.692.718,1.04.583.853,1.191,1.7,1.743,2.565.483.76.879,1.56,1.36,2.32.291.461.7.862,1,1.319.271.416.452.875.7,1.306.342.608.713,1.2,1.054,1.811.223.395.42.8.617,1.206.242.5.481.991.7,1.494.378.855.743,1.714,1.109,2.573.032.076.038.162.063.242a14.3,14.3,0,0,1,.639,5.846m-23.515,3.515a7.9,7.9,0,0,0,1.865-.131c1.608-.515,3.385-.141,4.972-.829a19.282,19.282,0,0,1,2.708-.665,8.718,8.718,0,0,0,1.376-.5c.628-.283,1.23-.613,1.845-.919.369-.184.755-.345,1.1-.554a.346.346,0,0,0,.055-.375,2.943,2.943,0,0,0-.817-.577c-.985-.407-1.994-.768-2.993-1.149-.063-.025-.123-.057-.186-.084a12.288,12.288,0,0,0-1.884-.806c-1.162-.289-2.362-.457-3.546-.679-.092-.017-.177-.064-.269-.08a19.119,19.119,0,0,0-2.194-.348,27.737,27.737,0,0,0-3.568,0c-1.678.131-3.344.388-5.013.6a1.154,1.154,0,0,0-.257.089,7.792,7.792,0,0,1-.912.347c-.841.21-1.692.389-2.539.58a.588.588,0,0,0-.12.061c-.567.293-1.131.591-1.7.878-.422.214-.879.386-1.273.634-.287.18-.1.8.237.963.453.218.9.448,1.345.675a15.758,15.758,0,0,0,1.611.815c.662.249,1.377.388,2.06.6a22.325,22.325,0,0,0,2.9.893c1.717.277,3.472.39,5.192.569" transform="translate(-2025.167 -262.863)"/>
    </g>
    <g id="Grupo_184465" data-name="Grupo 184465" transform="translate(2036.252 302.388)">
      <path id="Trazado_181389" data-name="Trazado 181389" d="M2053.389,312.2c-2.194-.228-4.431-.37-6.621-.724a28.6,28.6,0,0,1-3.7-1.14c-.87-.265-1.782-.442-2.626-.76a20.194,20.194,0,0,1-2.055-1.039c-.569-.29-1.138-.583-1.715-.861-.431-.207-.67-1-.3-1.229.5-.315,1.085-.535,1.623-.808.728-.367,1.447-.746,2.171-1.12a.76.76,0,0,1,.153-.078c1.081-.244,2.166-.472,3.238-.739a9.785,9.785,0,0,0,1.163-.444,1.475,1.475,0,0,1,.329-.114c2.129-.264,4.253-.592,6.393-.759a35.371,35.371,0,0,1,4.55,0,24.263,24.263,0,0,1,2.8.445c.118.019.226.079.344.1,1.509.282,3.041.5,4.522.866a15.546,15.546,0,0,1,2.4,1.026c.08.035.156.076.238.108,1.275.485,2.56.945,3.816,1.464a3.753,3.753,0,0,1,1.042.736.441.441,0,0,1-.07.478c-.445.267-.938.471-1.408.706-.786.391-1.553.811-2.354,1.174a11.28,11.28,0,0,1-1.754.635,24.271,24.271,0,0,0-3.453.847c-2.024.877-4.29.4-6.341,1.058a10.1,10.1,0,0,1-2.379.165" transform="translate(-2036.186 -302.309)" fill="#fff"/>
    </g>
    <g id="Grupo_184466" data-name="Grupo 184466" transform="translate(2090.979 263.677)">
      <path id="Trazado_181390" data-name="Trazado 181390" d="M2090.92,308.456a14.3,14.3,0,0,1,.639-5.847c.025-.079.031-.165.063-.241.367-.858.731-1.718,1.109-2.573.223-.5.462-1,.7-1.494.2-.406.394-.811.616-1.206.343-.609.714-1.2,1.056-1.812.243-.43.424-.889.695-1.3.3-.457.711-.858,1-1.319.48-.76.877-1.56,1.36-2.32.552-.869,1.159-1.711,1.744-2.565.236-.348.458-.7.718-1.041.517-.673,1.048-1.337,1.586-2,.164-.2.4-.361.548-.569.293-.4.523-.843.832-1.237.491-.624,1.04-1.213,1.539-1.831s.96-1.274,1.463-1.895,1.055-1.233,1.575-1.855c.3-.358.558-.746.869-1.1.524-.592,1.081-1.163,1.616-1.747.253-.275.47-.577.741-.837.471-.455,1-.862,1.448-1.334.693-.736,1.28-1.551,2.01-2.255.66-.638,1.473-1.156,2.181-1.759.892-.763,1.735-1.569,2.621-2.336a7.809,7.809,0,0,1,.956-.622,13.185,13.185,0,0,1,1.359-.842,7.789,7.789,0,0,1,2.017-.773,9.059,9.059,0,0,1,2.555-.012,4.5,4.5,0,0,1,1.89.646,22.69,22.69,0,0,1,2.346,2.027,3.106,3.106,0,0,1,.612.74c.291.517.47,1.085.8,1.581a6.46,6.46,0,0,1,1.142,2.162c.008.038.046.07.066.108.343.651.739,1.288,1.016,1.961.284.692.453,1.421.678,2.134.016.05.1.085.127.136a4.229,4.229,0,0,1,.4.746c.261.818.483,1.646.727,2.469a1.409,1.409,0,0,0,.119.221,5.143,5.143,0,0,1,.365.762c.244.793.456,1.593.682,2.39.011.037.052.066.069.1a3.1,3.1,0,0,1,.414.994c.026.879.924,1.565.676,2.488a.118.118,0,0,0,.063.1c.553.2.415.64.487,1.011a4.654,4.654,0,0,0,.206.843c.293.747.68,1.471.912,2.232.309,1.01.507,2.047.753,3.071.009.04.025.079.038.118.154.5.347,1,.455,1.51.1.486.077.991.177,1.478.091.448.35.873.4,1.322.08.72-.008,1.456.08,2.175.106.865.444,1.716.465,2.579.059,2.468.012,4.938-.007,7.407a2.223,2.223,0,0,1-.157.656,4.372,4.372,0,0,0-.278.721c-.26,1.821.116,3.651-.507,5.5-.574,1.705-.5,3.574-.773,5.362-.145.933-.435,1.851-.659,2.776a.214.214,0,0,1-.044.116c-.687.674-.639,1.6-1.042,2.369a21.845,21.845,0,0,0-.776,2.051c-.14.353-.348.686-.508,1.034-.2.435-.24,1.038-.6,1.28-.717.475-.56,1.235-1.047,1.8a11.689,11.689,0,0,0-1.371,2.665,1.114,1.114,0,0,1-.1.163c-.5.672-1.007,1.334-1.484,2.015-.417.595-.8,1.206-1.188,1.817-.26.416-.492.845-.734,1.271-.03.054-.033.124-.073.17-.532.6-1.1,1.183-1.59,1.81-.5.643-.927,1.333-1.383,2-.208.307-.326.758-.631.9-.639.285-.508.954-1.026,1.275a2.251,2.251,0,0,0-.588.649c-.274.389-.491.81-.782,1.187-.538.7-1.125,1.374-1.667,2.071-.26.333-.44.717-.71,1.045-.522.637-1.1,1.241-1.619,1.88-.291.359-.459.8-.77,1.139-.545.6-1.142,1.172-1.741,1.733-.941.883-1.88,1.77-2.866,2.616a12.741,12.741,0,0,1-2.565,1.948c-.836.408-1.538,1.136-2.621,1.137-.077,0-.153.078-.233.113a2.647,2.647,0,0,1-.846.35c-1.212.045-2.426.029-3.637.035a1.425,1.425,0,0,1-1.343-.963c-.333-.726-.268-1.53-.63-2.3s-.206-1.71-.57-2.577-.122-1.831-.6-2.745c-.355-.682-.192-1.52-.55-2.3a14.893,14.893,0,0,1-.737-3.219,9.442,9.442,0,0,0-.433-1.691c-.353-.875-.437-1.851-.744-2.775a31.937,31.937,0,0,1-.749-3.3,1.752,1.752,0,0,0-.057-.18c-.335-.946-.7-1.887-1-2.842a16.262,16.262,0,0,0-.764-2.7,5.009,5.009,0,0,1-.512-1.692,1.033,1.033,0,0,0-.066-.237c-.344-.871-.723-1.732-1.026-2.614-.281-.818-.484-1.658-.72-2.488-.006-.019-.009-.048-.025-.056-.583-.318-.428-.862-.54-1.326a5.436,5.436,0,0,0-.2-.652c-.3-.8-.668-1.578-.906-2.389-.3-1.036-.508-2.095-.756-3.144-.01-.041-.02-.081-.033-.121a27.173,27.173,0,0,1-.939-2.663c-.212-.862-.236-1.734-.535-2.615a20.734,20.734,0,0,1-.713-4.379,22.655,22.655,0,0,1-.017-2.487m23.515,3.514c1.72-.179,3.475-.29,5.192-.568a22.477,22.477,0,0,0,2.9-.893c.683-.208,1.4-.346,2.06-.6a16.071,16.071,0,0,0,1.611-.815c.445-.227.892-.457,1.345-.676.336-.162.524-.782.237-.962-.393-.248-.85-.42-1.273-.634-.57-.287-1.134-.586-1.7-.878a.55.55,0,0,0-.121-.061c-.846-.192-1.7-.37-2.539-.58a7.787,7.787,0,0,1-.912-.347,1.057,1.057,0,0,0-.257-.089c-1.669-.208-3.336-.465-5.013-.6a27.731,27.731,0,0,0-3.568,0,19.106,19.106,0,0,0-2.194.348c-.092.016-.177.063-.27.08-1.183.221-2.385.39-3.546.679a12.3,12.3,0,0,0-1.885.806c-.062.027-.122.059-.186.084-1,.38-2.007.741-2.992,1.148a2.979,2.979,0,0,0-.817.578.345.345,0,0,0,.055.374c.348.21.736.37,1.1.554.616.307,1.218.636,1.846.92a8.692,8.692,0,0,0,1.376.5,19.117,19.117,0,0,1,2.707.665c1.587.687,3.364.314,4.973.829a7.9,7.9,0,0,0,1.865.13" transform="translate(-2090.839 -263.651)"/>
    </g>
    <g id="Grupo_184467" data-name="Grupo 184467" transform="translate(2073.024 309.255)">
      <path id="Trazado_181391" data-name="Trazado 181391" d="M2072.908,316.112s5.113,8.27,12.354,7.78,11.161-7.78,11.161-7.78a13.5,13.5,0,0,0-10.778-6.916c-7.646-.544-12.737,6.916-12.737,6.916" transform="translate(-2072.908 -309.167)" fill="#242021"/>
    </g>
    <g id="Grupo_184468" data-name="Grupo 184468" transform="translate(2097.938 302.408)">
      <path id="Trazado_181392" data-name="Trazado 181392" d="M2113.212,312.143c-1.62,0-3.25.092-4.859-.027a27.287,27.287,0,0,1-4.322-.7,13.121,13.121,0,0,1-2.227-1.017c-.479-.219-.982-.4-1.466-.612-.7-.306-1.407-.6-2.081-.949a.878.878,0,0,1-.469-.545c-.018-.176.206-.416.394-.557a19.439,19.439,0,0,1,1.8-1.242,18.13,18.13,0,0,1,1.674-.785c.9-.414,1.78-.874,2.713-1.222.836-.312,1.737-.488,2.6-.743.4-.118.791-.28,1.183-.426a1.913,1.913,0,0,1,.385-.159c2.787-.411,5.549-1.032,8.417-.762,1.161.11,2.395-.183,3.449.543.222.152.641.083.966.124.709.088,1.494-.073,2.053.515.094.1.336.09.51.126a11.633,11.633,0,0,1,3.423.786c.854.511,2.006.25,2.694,1.1.332.408,1.212.44,1.741.768a11.1,11.1,0,0,1,1.751,1.417c.258.243-.473.969-1.019,1.127-1.251.361-2.489.761-3.731,1.145-.029.009-.057.018-.085.025-1.25.267-2.495.554-3.75.8a36.456,36.456,0,0,0-4.4.818c-2.183.715-4.413.4-6.619.556-.238.018-.48,0-.72,0v-.1" transform="translate(-2097.788 -302.329)" fill="#fff"/>
    </g>
    <g id="Grupo_184469" data-name="Grupo 184469" transform="translate(2051.014 303.422)">
      <circle id="Elipse_3634" data-name="Elipse 3634" cx="2.324" cy="2.324" r="2.324" transform="translate(0.5 0.501)"/>
      <path id="Trazado_181393" data-name="Trazado 181393" d="M2053.752,308.993a2.825,2.825,0,1,1,2.826-2.826A2.828,2.828,0,0,1,2053.752,308.993Zm0-4.649a1.824,1.824,0,1,0,1.825,1.823A1.825,1.825,0,0,0,2053.752,304.343Z" transform="translate(-2050.928 -303.342)" fill="#fff"/>
    </g>
    <g id="Grupo_184470" data-name="Grupo 184470" transform="translate(2113.016 304.507)">
      <circle id="Elipse_3635" data-name="Elipse 3635" cx="2.324" cy="2.324" r="2.324" transform="translate(0.501 0.5)"/>
      <path id="Trazado_181394" data-name="Trazado 181394" d="M2115.67,310.075a2.825,2.825,0,1,1,2.826-2.825A2.829,2.829,0,0,1,2115.67,310.075Zm0-4.648a1.823,1.823,0,1,0,1.825,1.823A1.826,1.826,0,0,0,2115.67,305.426Z" transform="translate(-2112.845 -304.425)" fill="#fff"/>
    </g>
  </g>
</svg>
