<svg id="Grupo_184693" data-name="Grupo 184693" xmlns="http://www.w3.org/2000/svg" width="154.022" height="197.946" viewBox="0 0 154.022 197.946">
  <g id="Grupo_184657" data-name="Grupo 184657" transform="translate(6.273)">
    <path id="Trazado_181757" data-name="Trazado 181757" d="M2380.109-884.51c4.951-9.9,3.66-23.462,3.66-23.462a54.529,54.529,0,0,0-28.352,6.148,44.623,44.623,0,0,0-24.385-7.655,46.855,46.855,0,0,0-26.644,8.556h0s-9.09-8.34-28.677-5.971c0,0-2.435,11.386,9.222,32.061l.005-.007a47.946,47.946,0,0,0-2.34,14.763c0,26.927,22.753,48.109,48.432,48.109s49.077-18.6,49.077-45.526a49.864,49.864,0,0,0-3.626-18.417h0l0,0c-.04-.1-.081-.2-.121-.3C2376.529-876.925,2377.331-878.952,2380.109-884.51Z" transform="translate(-2275.154 909.809)" fill="#7a4510"/>
    <path id="Trazado_181758" data-name="Trazado 181758" d="M2330.853-811.81a49.369,49.369,0,0,1-34.076-14.05,47.7,47.7,0,0,1-14.687-34.388,48.268,48.268,0,0,1,2.309-14.716c-11.509-20.472-9.289-31.7-9.189-32.171l.049-.23.234-.028c10.185-1.23,17.5.472,21.841,2.117a24.794,24.794,0,0,1,6.9,3.767,46.978,46.978,0,0,1,26.619-8.469,44.889,44.889,0,0,1,24.4,7.6,55.818,55.818,0,0,1,28.357-6.092l.284.015.027.284c.013.137,1.243,13.769-3.693,23.641a63.316,63.316,0,0,0-3.7,8.123l.083.2a49.991,49.991,0,0,1,3.65,18.539,43.7,43.7,0,0,1-15.021,33.107A52.441,52.441,0,0,1,2330.853-811.81Zm-45.176-64.973-.6,1.873a47.609,47.609,0,0,0-2.324,14.661,47.048,47.048,0,0,0,14.487,33.916,48.7,48.7,0,0,0,33.615,13.863,51.775,51.775,0,0,0,33.949-12.582,43.051,43.051,0,0,0,14.8-32.614,49.339,49.339,0,0,0-3.6-18.295l-.162-.4.024-.1a62.512,62.512,0,0,1,3.775-8.365c4.461-8.921,3.795-21,3.648-23a54.64,54.64,0,0,0-27.877,6.117l-.177.106-.173-.114a44.286,44.286,0,0,0-24.2-7.6,46.362,46.362,0,0,0-26.456,8.5l-1.858,1.288,1.213-1.516a24.815,24.815,0,0,0-6.69-3.625c-4.232-1.6-11.343-3.249-21.244-2.093-.248,1.7-1.313,12.7,8.978,31.16Z" transform="translate(-2274.975 909.979)"/>
  </g>
  <g id="Grupo_184658" data-name="Grupo 184658" transform="translate(89.051 4.059)">
    <path id="Trazado_181759" data-name="Trazado 181759" d="M2418.616-876.985s-5.9-15.721-18.217-22.243c0,0,7.509-6.119,23.944-4.243C2424.343-903.471,2424.6-887.526,2418.616-876.985Z" transform="translate(-2400.399 903.829)" fill="#a9690f"/>
  </g>
  <g id="Grupo_184659" data-name="Grupo 184659" transform="translate(97.818 135.654)">
    <ellipse id="Elipse_3660" data-name="Elipse 3660" cx="27.283" cy="7.749" rx="27.283" ry="7.749" transform="translate(0 21.868) rotate(-23.625)" fill="#7a4510"/>
    <path id="Trazado_181760" data-name="Trazado 181760" d="M2423.848-670.632c-3.27,0-5.368-.784-6.031-2.3-1.816-4.151,7.875-12.262,22.061-18.468a74.1,74.1,0,0,1,18.672-5.677c5.468-.745,8.97-.032,9.864,2.012h0c1.816,4.151-7.874,12.263-22.06,18.468a74.09,74.09,0,0,1-18.673,5.676A28.622,28.622,0,0,1,2423.848-670.632Zm38.555-26.074a28.1,28.1,0,0,0-3.764.283,73.423,73.423,0,0,0-18.5,5.628c-13.385,5.855-23.332,13.914-21.721,17.6.754,1.723,4.1,2.315,9.171,1.623a73.457,73.457,0,0,0,18.5-5.628c13.385-5.855,23.332-13.914,21.72-17.6C2467.263-696.052,2465.351-696.706,2462.4-696.706Z" transform="translate(-2415.014 702.032)"/>
  </g>
  <g id="Grupo_184660" data-name="Grupo 184660" transform="translate(0 77.292)">
    <path id="Trazado_181761" data-name="Trazado 181761" d="M2393.225-728.852c0-20.664-21.956-63.069-21.956-63.069s-15.5,21.17-40.9,21.525c-30.782.431-43.266-20.449-43.266-20.449s-23.893,35.947-20.88,61.993c3.5,30.232,33.712,55.1,64.146,55.1C2367.18-673.746,2393.225-698.418,2393.225-728.852Z" transform="translate(-2265.638 792.545)" fill="#7a4510"/>
    <path id="Trazado_181762" data-name="Trazado 181762" d="M2330.205-673.738h0c-14.721,0-30.17-5.939-42.386-16.294-12.557-10.642-20.4-24.529-22.086-39.1-2.993-25.867,20.693-61.853,20.932-62.214l.29-.435.269.448c.124.207,12.758,20.736,42.978,20.288,24.937-.348,40.482-21.179,40.636-21.39l.314-.429.245.472c.22.425,21.993,42.714,21.993,63.221a52.178,52.178,0,0,1-17.734,39.211C2364-679.5,2347.854-673.738,2330.205-673.738Zm-43.268-116.821a175.132,175.132,0,0,0-11.273,20.769c-5.087,11.129-10.825,27.2-9.278,40.579,1.667,14.407,9.429,28.142,21.857,38.675,12.1,10.255,27.393,16.138,41.96,16.138,17.487,0,33.472-5.7,45.01-16.055a51.526,51.526,0,0,0,17.515-38.72c0-19.2-19.314-57.794-21.683-62.455-2.369,2.987-17.553,20.916-40.836,21.241-15.973.226-26.978-5.384-33.377-10.128A43.037,43.037,0,0,1,2286.937-790.559Z" transform="translate(-2265.469 792.866)"/>
  </g>
  <g id="Grupo_184661" data-name="Grupo 184661" transform="translate(13.734 121.584)">
    <path id="Trazado_181763" data-name="Trazado 181763" d="M2290.625-725.386l-.245.37a21.731,21.731,0,0,0-.4,23.4l.641,1.043h0a41.725,41.725,0,0,0-.662,32.62l.662,1.653h29.059l1.9-5.086a34.27,34.27,0,0,0-1.744-27.9l-.158-.3.923-.969a17.351,17.351,0,0,0-.923-24.834h0" transform="translate(-2286.443 725.63)" fill="#7a4510"/>
    <path id="Trazado_181764" data-name="Trazado 181764" d="M2319.75-666.1h-29.511l-.746-1.861a42.271,42.271,0,0,1,.6-32.719l-.55-.895a22.131,22.131,0,0,1,.4-23.755l.245-.37.55.364-.246.371a21.468,21.468,0,0,0-.39,23.044l.734,1.192-.072.159a41.608,41.608,0,0,0-.657,32.363l.58,1.446h28.606l1.821-4.871a33.98,33.98,0,0,0-1.727-27.629l-.267-.51,1.086-1.14a16.89,16.89,0,0,0,4.684-12.371,16.889,16.889,0,0,0-5.59-11.99l.443-.489a17.541,17.541,0,0,1,5.806,12.454,17.541,17.541,0,0,1-4.865,12.851l-.76.8.048.091a34.641,34.641,0,0,1,1.76,28.166Z" transform="translate(-2286.28 725.756)"/>
  </g>
  <g id="Grupo_184662" data-name="Grupo 184662" transform="translate(76.708 77.76)">
    <path id="Trazado_181765" data-name="Trazado 181765" d="M2386.359-748.009l-.131.3a32.854,32.854,0,0,0-.7,24.213l.827,2.276-2.375,6.2a27.05,27.05,0,0,0-.24,18.7l2.615,7.389h29.059l2.858-10.131a27.643,27.643,0,0,0-.161-11.286l-2.7-9.887.981-2.255a29.457,29.457,0,0,0-.919-25.41l-.062-.118s17.27-3.41-4.628-43.912" transform="translate(-2381.866 792.078)" fill="#7a4510"/>
    <path id="Trazado_181766" data-name="Trazado 181766" d="M2415.5-688.673h-29.543l-2.692-7.609a27.4,27.4,0,0,1,.242-18.929l2.331-6.088-.784-2.159a33.065,33.065,0,0,1,.7-24.456l.131-.3.607.26-.131.306a32.411,32.411,0,0,0-.69,23.969l.87,2.391-2.419,6.318a26.748,26.748,0,0,0-.237,18.473l2.537,7.169H2415l2.789-9.891a27.2,27.2,0,0,0-.161-11.109l-2.728-10,1.027-2.361a29,29,0,0,0-.908-25.125l-.266-.508.431-.087a7.8,7.8,0,0,0,4.914-4.5c2.388-5.1,2.631-16-9.767-38.929l.581-.313c12.543,23.2,12.237,34.312,9.772,39.548a8.62,8.62,0,0,1-4.955,4.729,29.65,29.65,0,0,1,.8,25.451l-.934,2.148,2.666,9.775a28.006,28.006,0,0,1,.164,11.449Z" transform="translate(-2381.697 792.158)"/>
  </g>
  <g id="Grupo_184663" data-name="Grupo 184663" transform="translate(12.993 175.976)">
    <ellipse id="Elipse_3661" data-name="Elipse 3661" cx="18.888" cy="10.332" rx="18.888" ry="10.332" transform="translate(0.33 0.33)" fill="#7a4510"/>
    <path id="Trazado_181767" data-name="Trazado 181767" d="M2304.376-622.016c-10.6,0-19.219-4.783-19.219-10.663s8.621-10.662,19.219-10.662,19.219,4.783,19.219,10.662S2314.973-622.016,2304.376-622.016Zm0-20.665c-10.233,0-18.559,4.487-18.559,10s8.326,10,18.559,10,18.559-4.487,18.559-10S2314.609-642.681,2304.376-642.681Z" transform="translate(-2285.157 643.341)" fill="#e9f21a"/>
  </g>
  <g id="Grupo_184664" data-name="Grupo 184664" transform="translate(76.307 176.622)">
    <ellipse id="Elipse_3662" data-name="Elipse 3662" cx="18.888" cy="10.332" rx="18.888" ry="10.332" transform="translate(0.33 0.33)" fill="#7a4510"/>
    <path id="Trazado_181768" data-name="Trazado 181768" d="M2400.309-621.038c-10.6,0-19.219-4.783-19.219-10.662s8.621-10.662,19.219-10.662,19.219,4.783,19.219,10.662S2410.906-621.038,2400.309-621.038Zm0-20.664c-10.233,0-18.559,4.487-18.559,10s8.326,10,18.559,10,18.559-4.487,18.559-10S2410.542-641.7,2400.309-641.7Z" transform="translate(-2381.09 642.362)" fill="#e9f21a"/>
  </g>
  <g id="Grupo_184665" data-name="Grupo 184665" transform="translate(9.039 4.308)">
    <path id="Trazado_181769" data-name="Trazado 181769" d="M2286.4-874.548s5.2-15.579,17.463-23.117c0,0-7.979-8.039-24.7-5.168C2279.165-902.832,2279.713-885.316,2286.4-874.548Z" transform="translate(-2279.165 903.452)" fill="#a9690f"/>
  </g>
  <g id="Grupo_184666" data-name="Grupo 184666" transform="translate(47.811 133.762)">
    <path id="Trazado_181770" data-name="Trazado 181770" d="M2338.046-694.4s17.687,4.929,17.687-12.89c0,0-.452,16.238,14.789,12.574" transform="translate(-2337.958 707.298)" fill="#7a4510"/>
    <path id="Trazado_181771" data-name="Trazado 181771" d="M2343.14-693.436a21.173,21.173,0,0,1-5.228-.65l.177-.636c.079.022,7.926,2.143,12.971-1.69,2.8-2.125,4.24-5.686,4.295-10.589,0-.166,0-.271,0-.3l.66.009c0,.065,0,.13,0,.194.009,1.155.248,7.408,4.219,10.625,2.449,1.985,5.869,2.468,10.163,1.434l.154.642c-4.506,1.084-8.118.558-10.735-1.565a12.808,12.808,0,0,1-4.1-7.583,11.664,11.664,0,0,1-4.263,7.662A13.675,13.675,0,0,1,2343.14-693.436Z" transform="translate(-2337.912 707.303)"/>
  </g>
  <g id="Grupo_184667" data-name="Grupo 184667" transform="translate(63.81 133.761)">
    <line id="Línea_6" data-name="Línea 6" y1="49.169" x2="1.449" transform="translate(0.326 0.01)" fill="#7a4510"/>
    <rect id="Rectángulo_174675" data-name="Rectángulo 174675" width="49.19" height="0.66" transform="matrix(0.029, -1, 1, 0.029, 0, 49.169)"/>
  </g>
  <g id="Grupo_184668" data-name="Grupo 184668" transform="translate(50.427 156.011)">
    <path id="Trazado_181772" data-name="Trazado 181772" d="M2368.214-669.159c-6.768,3.3-11.777-3.63-11.777-3.63s-7.982,9.14-14.188,2.26" transform="translate(-2342.003 673.318)" fill="#7a4510"/>
    <path id="Trazado_181773" data-name="Trazado 181773" d="M2347.412-667.907a7.313,7.313,0,0,1-5.535-2.674l.49-.442a6.682,6.682,0,0,0,5.046,2.456h.052c4.462-.036,8.557-4.665,8.6-4.712l.272-.312.243.336a13.042,13.042,0,0,0,3.277,2.977,7.9,7.9,0,0,0,8.088.55l.29.593c-6.079,2.965-10.824-2.077-11.94-3.419-1.009,1.063-4.69,4.615-8.823,4.648Z" transform="translate(-2341.877 673.591)"/>
  </g>
  <g id="Grupo_184669" data-name="Grupo 184669" transform="translate(49.397 171.249)">
    <path id="Trazado_181774" data-name="Trazado 181774" d="M2369.615-647.986c-7.788,5.435-14.119-1.809-14.119-1.809s-8.39,7.456-14.856,1.915" transform="translate(-2340.426 650.262)" fill="#7a4510"/>
    <path id="Trazado_181775" data-name="Trazado 181775" d="M2345.969-645.757a8.453,8.453,0,0,1-5.653-2.113l.429-.5c6.175,5.292,14.34-1.838,14.422-1.911l.248-.22.219.25c.251.286,6.232,6.955,13.682,1.755l.378.542c-7.119,4.967-13.121-.409-14.334-1.629C2354.347-648.764,2350.334-645.757,2345.969-645.757Z" transform="translate(-2340.316 650.503)"/>
  </g>
  <g id="Grupo_184674" data-name="Grupo 184674" transform="translate(18.755 81.797)">
    <g id="Grupo_184670" data-name="Grupo 184670">
      <path id="Trazado_181776" data-name="Trazado 181776" d="M2299.389-772.284c-1.945,0-4.01-2.35-5-5.834-.72-2.527-.656-5.01.166-6.48a2.7,2.7,0,0,1,1.614-1.355c2.115-.59,4.54,1.878,5.641,5.747h0c.72,2.526.656,5.009-.166,6.479a2.7,2.7,0,0,1-1.615,1.355A2.363,2.363,0,0,1,2299.389-772.284Zm-2.56-11.779a.47.47,0,0,0-.128.016.83.83,0,0,0-.42.415,7.281,7.281,0,0,0,.01,4.97c.837,2.94,2.479,4.578,3.2,4.383a.84.84,0,0,0,.421-.416,7.285,7.285,0,0,0-.01-4.97h0C2299.113-782.441,2297.6-784.063,2296.828-784.063Z" transform="translate(-2293.888 786.04)" fill="#e5f11d"/>
    </g>
    <g id="Grupo_184671" data-name="Grupo 184671" transform="translate(4.845 11.751)">
      <path id="Trazado_181777" data-name="Trazado 181777" d="M2310.364-757.208a9.453,9.453,0,0,1-5.708-2.627c-2-1.736-3.309-3.857-3.419-5.537a2.678,2.678,0,0,1,.614-2c1.448-1.639,4.836-.879,7.881,1.766h0c2,1.736,3.309,3.858,3.42,5.537a2.679,2.679,0,0,1-.615,2A2.789,2.789,0,0,1,2310.364-757.208Zm-6.342-9.056a.924.924,0,0,0-.686.2.806.806,0,0,0-.123.56c.063.946.935,2.6,2.743,4.172,2.5,2.169,4.679,2.426,5.1,1.95a.807.807,0,0,0,.123-.56c-.063-.945-.935-2.6-2.742-4.172h0A7.6,7.6,0,0,0,2304.021-766.264Z" transform="translate(-2301.229 768.234)" fill="#e5f11d"/>
    </g>
    <g id="Grupo_184672" data-name="Grupo 184672" transform="translate(15.216 19.971)">
      <path id="Trazado_181778" data-name="Trazado 181778" d="M2326.511-746.963a11.958,11.958,0,0,1-4.136-.824c-2.487-.937-4.461-2.473-5.152-4.011a2.671,2.671,0,0,1-.124-2.08c.781-2.039,4.225-2.5,8.009-1.077,2.487.936,4.462,2.474,5.153,4.011a2.676,2.676,0,0,1,.125,2.08C2329.909-747.621,2328.441-746.963,2326.511-746.963Zm-5.556-6.843c-1.157,0-1.881.3-2.007.636a.8.8,0,0,0,.081.56c.39.867,1.791,2.121,4.045,2.969,3.1,1.169,5.237.657,5.463.068a.8.8,0,0,0-.082-.56c-.389-.867-1.791-2.121-4.044-2.969A9.975,9.975,0,0,0,2320.955-753.806Z" transform="translate(-2316.943 755.78)" fill="#e5f11d"/>
    </g>
    <g id="Grupo_184673" data-name="Grupo 184673" transform="translate(27.257 25.467)">
      <path id="Trazado_181779" data-name="Trazado 181779" d="M2344-739.423a13.4,13.4,0,0,1-2.531-.253c-2.612-.5-4.821-1.688-5.763-3.087a2.672,2.672,0,0,1-.476-2.027c.421-2.142,3.737-3.178,7.712-2.409h0c2.612.5,4.82,1.687,5.762,3.087a2.673,2.673,0,0,1,.477,2.027C2348.855-740.42,2346.777-739.423,2344-739.423Zm-3.61-6.053c-1.961,0-3.126.6-3.218,1.068a.811.811,0,0,0,.176.539c.533.79,2.129,1.792,4.5,2.25,3.26.63,5.272-.23,5.393-.849a.806.806,0,0,0-.175-.538c-.532-.79-2.129-1.792-4.5-2.25h0A11.536,11.536,0,0,0,2340.392-745.475Z" transform="translate(-2335.187 747.452)" fill="#e5f11d"/>
    </g>
  </g>
  <g id="Grupo_184679" data-name="Grupo 184679" transform="translate(68.301 80.733)">
    <g id="Grupo_184675" data-name="Grupo 184675" transform="translate(31.74)">
      <path id="Trazado_181780" data-name="Trazado 181780" d="M2420.087-773.777a2.34,2.34,0,0,1-.518-.057,2.7,2.7,0,0,1-1.682-1.27c-.9-1.426-1.087-3.9-.5-6.463h0c.9-3.92,3.2-6.507,5.339-6.028a2.7,2.7,0,0,1,1.682,1.27c.9,1.426,1.087,3.9.5,6.463C2424.078-776.257,2422.07-773.777,2420.087-773.777Zm2.1-11.9c-.764,0-2.218,1.7-2.873,4.551h0a7.276,7.276,0,0,0,.244,4.964.83.83,0,0,0,.441.393c.727.17,2.288-1.562,2.974-4.541a7.282,7.282,0,0,0-.245-4.964.833.833,0,0,0-.442-.393A.443.443,0,0,0,2422.192-785.674Z" transform="translate(-2417.051 787.652)" fill="#e5f11d"/>
    </g>
    <g id="Grupo_184676" data-name="Grupo 184676" transform="translate(23.962 11.975)">
      <path id="Trazado_181781" data-name="Trazado 181781" d="M2407.983-758.159a2.7,2.7,0,0,1-2-.754,2.677,2.677,0,0,1-.716-1.967c.025-1.683,1.225-3.868,3.132-5.7,2.906-2.8,6.25-3.73,7.78-2.167a2.678,2.678,0,0,1,.715,1.967c-.025,1.682-1.225,3.868-3.131,5.7C2411.806-759.2,2409.65-758.159,2407.983-758.159Zm6.191-9.378c-.9,0-2.587.63-4.4,2.379h0c-1.725,1.661-2.511,3.36-2.525,4.308a.809.809,0,0,0,.15.552c.444.454,2.61.086,4.993-2.209,1.725-1.66,2.511-3.359,2.525-4.307a.809.809,0,0,0-.151-.553A.834.834,0,0,0,2414.175-767.538Z" transform="translate(-2405.267 769.507)" fill="#e5f11d"/>
    </g>
    <g id="Grupo_184677" data-name="Grupo 184677" transform="translate(12.242 20.773)">
      <path id="Trazado_181782" data-name="Trazado 181782" d="M2391.263-747.067c-1.728,0-3.052-.582-3.552-1.711a2.673,2.673,0,0,1,.017-2.084c.612-1.571,2.5-3.207,4.941-4.269,3.707-1.618,7.17-1.331,8.054.665a2.674,2.674,0,0,1-.018,2.084c-.612,1.571-2.5,3.206-4.94,4.269A11.533,11.533,0,0,1,2391.263-747.067Zm5.928-7.138a9.561,9.561,0,0,0-3.73.888c-2.207.962-3.542,2.286-3.887,3.172a.8.8,0,0,0-.052.564c.255.578,2.411.979,5.452-.348,2.206-.962,3.542-2.287,3.887-3.172a.811.811,0,0,0,.052-.564C2398.783-753.957,2398.165-754.2,2397.191-754.2Z" transform="translate(-2387.508 756.177)" fill="#e5f11d"/>
    </g>
    <g id="Grupo_184678" data-name="Grupo 184678" transform="translate(0 26.936)">
      <path id="Trazado_181783" data-name="Trazado 181783" d="M2373.771-738.606c-2.491,0-4.358-.877-4.742-2.41a2.677,2.677,0,0,1,.372-2.049c.87-1.445,3.015-2.74,5.6-3.377h0c3.93-.972,7.295-.107,7.825,2.012a2.673,2.673,0,0,1-.371,2.048c-.87,1.446-3.014,2.74-5.6,3.378A12.994,12.994,0,0,1,2373.771-738.606Zm4.329-6.257a11.019,11.019,0,0,0-2.627.344h0c-2.342.578-3.885,1.661-4.376,2.476a.805.805,0,0,0-.147.547c.154.611,2.208,1.367,5.429.571,2.342-.579,3.885-1.661,4.376-2.477a.8.8,0,0,0,.148-.547C2380.8-744.372,2379.781-744.864,2378.1-744.864Z" transform="translate(-2368.959 746.839)" fill="#e5f11d"/>
    </g>
  </g>
  <g id="Grupo_184680" data-name="Grupo 184680" transform="translate(55.88 104.402)">
    <circle id="Elipse_3663" data-name="Elipse 3663" cx="8.91" cy="8.91" r="8.91" transform="translate(0.33 0.33)" fill="#e5f11d"/>
    <path id="Trazado_181784" data-name="Trazado 181784" d="M2359.379-733.31a9.25,9.25,0,0,1-9.24-9.24,9.25,9.25,0,0,1,9.24-9.24,9.25,9.25,0,0,1,9.24,9.24A9.25,9.25,0,0,1,2359.379-733.31Zm0-17.819a8.589,8.589,0,0,0-8.58,8.58,8.59,8.59,0,0,0,8.58,8.58,8.589,8.589,0,0,0,8.58-8.58A8.589,8.589,0,0,0,2359.379-751.129Z" transform="translate(-2350.139 751.789)"/>
  </g>
  <g id="Grupo_184681" data-name="Grupo 184681" transform="translate(10.749 87.174)">
    <path id="Trazado_181785" data-name="Trazado 181785" d="M2288.83-742.776s-14.062-15.261-1.223-34.843" transform="translate(-2281.908 777.8)" fill="#7a4510"/>
    <path id="Trazado_181786" data-name="Trazado 181786" d="M2288.437-742.645c-.143-.154-14.088-15.677-1.257-35.248l.552.362c-12.552,19.145,1.051,34.288,1.19,34.438Z" transform="translate(-2281.757 777.893)"/>
  </g>
  <g id="Grupo_184682" data-name="Grupo 184682" transform="translate(26.648 25.707)">
    <path id="Trazado_181787" data-name="Trazado 181787" d="M2336.742-857.6c-1.737,6.15-9.875,9.234-18.177,6.888s-13.622-9.233-11.885-15.382,8.62-4.787,16.921-2.442S2338.479-863.748,2336.742-857.6Z" transform="translate(-2306.018 870.853)" fill="#fff"/>
    <path id="Trazado_181788" data-name="Trazado 181788" d="M2323.963-849.767a20.838,20.838,0,0,1-5.659-.8,18.952,18.952,0,0,1-9.879-6.38c-2.31-2.99-3.1-6.332-2.234-9.409,1.832-6.481,8.933-5.043,17.329-2.67s15.2,4.864,13.368,11.343h0c-.869,3.078-3.294,5.51-6.827,6.849A17.223,17.223,0,0,1,2323.963-849.767Zm-10.825-20.588c-3.146,0-5.437,1.082-6.312,4.177-.811,2.872-.058,6.006,2.122,8.827a18.282,18.282,0,0,0,9.535,6.148,18.282,18.282,0,0,0,11.344-.249,9.931,9.931,0,0,0,6.427-6.41l.317.09-.317-.09c1.665-5.892-4.864-8.255-12.913-10.529C2319.52-869.472,2315.98-870.355,2313.138-870.355Z" transform="translate(-2305.847 871.029)"/>
  </g>
  <g id="Grupo_184683" data-name="Grupo 184683" transform="translate(35.852 29.876)">
    <circle id="Elipse_3664" data-name="Elipse 3664" cx="6.132" cy="6.132" r="6.132" transform="translate(0.333 0.333)"/>
    <path id="Trazado_181789" data-name="Trazado 181789" d="M2326.268-851.781a6.483,6.483,0,0,1-1.767-.247,6.418,6.418,0,0,1-3.883-3.063,6.422,6.422,0,0,1-.579-4.912,6.419,6.419,0,0,1,3.064-3.882,6.414,6.414,0,0,1,4.911-.58,6.469,6.469,0,0,1,4.461,7.975h0a6.418,6.418,0,0,1-3.063,3.883A6.428,6.428,0,0,1,2326.268-851.781Zm-.019-12.27a5.771,5.771,0,0,0-2.824.741,5.77,5.77,0,0,0-2.751,3.486,5.764,5.764,0,0,0,.52,4.41,5.761,5.761,0,0,0,3.485,2.751,5.766,5.766,0,0,0,4.41-.519,5.764,5.764,0,0,0,2.751-3.486h0a5.809,5.809,0,0,0-4.005-7.161A5.831,5.831,0,0,0,2326.249-864.05Z" transform="translate(-2319.793 864.711)" fill="#fff"/>
  </g>
  <g id="Grupo_184684" data-name="Grupo 184684" transform="translate(69.209 25.867)">
    <path id="Trazado_181790" data-name="Trazado 181790" d="M2401.362-865.677c1.565,6.2-3.947,12.931-12.311,15.044s-16.413-1.2-17.978-7.394,5.079-8.452,13.442-10.564S2399.8-871.873,2401.362-865.677Z" transform="translate(-2370.508 870.616)" fill="#fff"/>
    <path id="Trazado_181791" data-name="Trazado 181791" d="M2383.861-849.839c-6.5,0-12-3.2-13.279-8.278-1.649-6.529,5.22-8.828,13.681-10.965,4.568-1.154,8.2-1.879,11.078-1.667,3.394.25,5.413,1.826,6.169,4.821h0c.783,3.1-.1,6.418-2.5,9.343a18.944,18.944,0,0,1-10.053,6.1A20.915,20.915,0,0,1,2383.861-849.839Zm10.439-20.287a43.347,43.347,0,0,0-9.875,1.684c-8.11,2.049-14.7,4.226-13.2,10.163,1.517,6.009,9.4,9.219,17.577,7.156a18.285,18.285,0,0,0,9.7-5.879c2.257-2.759,3.1-5.87,2.367-8.763h0c-.687-2.721-2.459-4.1-5.577-4.325Q2394.812-870.126,2394.3-870.126Z" transform="translate(-2370.335 870.786)"/>
  </g>
  <g id="Grupo_184685" data-name="Grupo 184685" transform="translate(78.473 29.877)">
    <circle id="Elipse_3665" data-name="Elipse 3665" cx="6.132" cy="6.132" r="6.132" transform="translate(0.333 0.333)"/>
    <path id="Trazado_181792" data-name="Trazado 181792" d="M2390.824-851.781a6.423,6.423,0,0,1-3.3-.915,6.421,6.421,0,0,1-2.954-3.967,6.42,6.42,0,0,1,.716-4.894,6.421,6.421,0,0,1,3.967-2.953,6.419,6.419,0,0,1,4.893.716,6.419,6.419,0,0,1,2.954,3.967,6.469,6.469,0,0,1-4.683,7.847A6.475,6.475,0,0,1,2390.824-851.781Zm.022-12.268a5.863,5.863,0,0,0-1.431.179,5.764,5.764,0,0,0-3.562,2.652,5.764,5.764,0,0,0-.643,4.394,5.76,5.76,0,0,0,2.652,3.561,5.758,5.758,0,0,0,4.394.644,5.809,5.809,0,0,0,4.205-7.046,5.767,5.767,0,0,0-2.652-3.562A5.768,5.768,0,0,0,2390.846-864.049Z" transform="translate(-2384.371 864.709)" fill="#fff"/>
  </g>
  <g id="Grupo_184686" data-name="Grupo 184686" transform="translate(51.599 1.749)">
    <path id="Trazado_181793" data-name="Trazado 181793" d="M2344.3-906.829h21.344l-4.484,13.556h-13.337Z" transform="translate(-2343.873 907.159)"/>
    <path id="Trazado_181794" data-name="Trazado 181794" d="M2361.178-893.113h-13.832l-3.693-14.216h22.227Zm-13.321-.66H2360.7l4.266-12.9h-20.459Z" transform="translate(-2343.653 907.329)" fill="#7a4510"/>
  </g>
  <g id="Grupo_184687" data-name="Grupo 184687" transform="translate(14.143 33.592)">
    <path id="Trazado_181795" data-name="Trazado 181795" d="M2288.811-857.7l5.334,3.1-2.667,22.849,37.628,11.823h15.5l32.29-11.823-1.594-19.834,4.935-7.5s5.124,12.344,3.676,21.313-1.431,22.1-22.9,36.041-50.782,4.172-59.347-6.494S2282.509-830.108,2288.811-857.7Z" transform="translate(-2286.9 859.08)"/>
  </g>
  <g id="Grupo_184688" data-name="Grupo 184688" transform="translate(55.956 67.838)">
    <path id="Trazado_181796" data-name="Trazado 181796" d="M2350.85-802.112s3.369,5.451,8.142,5.128,7.356-5.128,7.356-5.128a8.9,8.9,0,0,0-7.1-4.558C2354.206-807.029,2350.85-802.112,2350.85-802.112Z" transform="translate(-2350.457 807.02)"/>
    <path id="Trazado_181797" data-name="Trazado 181797" d="M2358.375-796.811c-4.678,0-7.871-5.076-8.008-5.3l-.113-.183.121-.177c.141-.207,3.517-5.071,8.691-4.7a9.148,9.148,0,0,1,7.376,4.742l.075.152-.08.15c-.11.2-2.726,4.969-7.625,5.3C2358.665-796.815,2358.519-796.811,2358.375-796.811Zm-7.326-5.462c.634.931,3.693,5.068,7.719,4.788,4.06-.275,6.515-4,7-4.8a8.632,8.632,0,0,0-6.749-4.225C2354.776-806.807,2351.7-803.131,2351.049-802.273Z" transform="translate(-2350.254 807.19)" fill="#7a4510"/>
  </g>
  <g id="Grupo_184689" data-name="Grupo 184689" transform="translate(39.614 48.485)">
    <path id="Trazado_181798" data-name="Trazado 181798" d="M2374.292-823.46a12.836,12.836,0,0,0-.5-4.193c-.528-1.734-2.334-3.124-4.737-4.236-5.552-3.074-18.375-4.121-18.375-4.121s-.19.013-.532.042c-.342-.028-.532-.042-.532-.042s-12.823,1.047-18.375,4.121c-2.4,1.111-4.208,2.5-4.736,4.236a12.823,12.823,0,0,0-.5,4.193c-.029,1.241.019,2.684.033,4.462.049,5.74,6.865,7.76,11.64,7.068,2.072-.3,9.663-7.359,11.226-8.5,2.761-1.455-1.523-9.436,1.244-9.6,2.767.162-1.517,8.143,1.244,9.6,1.563,1.137,9.154,8.2,11.226,8.5,4.775.692,11.591-1.327,11.639-7.068C2374.272-820.776,2374.321-822.219,2374.292-823.46Z" transform="translate(-2325.663 836.343)"/>
    <path id="Trazado_181799" data-name="Trazado 181799" d="M2364.286-811.645a13.241,13.241,0,0,1-1.885-.13c-1.482-.215-5.116-3.243-9.027-6.6-1.08-.927-1.934-1.659-2.346-1.959a2.143,2.143,0,0,1-1.054-1.716,2.194,2.194,0,0,1-1.086,1.741c-.372.275-1.225,1.007-2.305,1.932-3.911,3.355-7.545,6.383-9.027,6.6-2.938.426-7.068-.146-9.675-2.382a6.514,6.514,0,0,1-2.343-5.01c0-.6-.014-1.169-.022-1.7-.016-1.045-.03-1.948-.011-2.773a13.029,13.029,0,0,1,.515-4.282c.509-1.673,2.163-3.167,4.913-4.439,5.53-3.063,17.96-4.108,18.487-4.151a4.378,4.378,0,0,1,.586.042c.291-.029.483-.042.483-.042.576.044,13.006,1.088,18.557,4.162,2.729,1.261,4.382,2.755,4.892,4.429a13.067,13.067,0,0,1,.514,4.292c.019.822.005,1.722-.011,2.763-.008.531-.017,1.1-.023,1.7a6.508,6.508,0,0,1-2.343,5.01A12.262,12.262,0,0,1,2364.286-811.645Zm-14.328-18.88a1.23,1.23,0,0,1,.96.451c.611.77.342,2.325.03,4.126-.36,2.076-.768,4.43.427,5.059.474.341,1.336,1.08,2.428,2.017,2.721,2.334,7.276,6.24,8.692,6.445,2.791.4,6.7-.127,9.149-2.229a5.793,5.793,0,0,0,2.113-4.514c.005-.605.014-1.172.022-1.7.016-1.038.03-1.934.011-2.747v-.02a12.428,12.428,0,0,0-.487-4.085c-.452-1.486-1.986-2.842-4.559-4.032-5.394-2.986-17.889-4.06-18.256-4.091,0,0-.186.016-.485.041l-.581-.041c-.078.01-12.767,1.076-18.192,4.081-2.595,1.2-4.129,2.557-4.581,4.043a12.434,12.434,0,0,0-.487,4.085c-.019.832,0,1.728.012,2.767.009.533.017,1.1.022,1.7a5.79,5.79,0,0,0,2.113,4.514c2.448,2.1,6.36,2.634,9.149,2.229,1.416-.205,5.971-4.112,8.692-6.446,1.091-.935,1.953-1.674,2.387-1.99,1.234-.655.827-3.008.467-5.084-.312-1.8-.581-3.355.03-4.126A1.212,1.212,0,0,1,2349.958-830.525Zm0,.659a.528.528,0,0,0-.4.2c-.428.539-.157,2.1.1,3.6.121.7.248,1.437.319,2.14.072-.7.2-1.436.321-2.14.261-1.507.531-3.065.1-3.6A.551.551,0,0,0,2349.958-829.866Z" transform="translate(-2325.492 836.515)" fill="#7a4510"/>
  </g>
  <g id="Grupo_184690" data-name="Grupo 184690" transform="translate(56.208 41.089)">
    <path id="Trazado_181800" data-name="Trazado 181800" d="M2350.636-843.143s3.369,5.451,8.142,5.128,7.356-5.128,7.356-5.128a8.9,8.9,0,0,0-7.1-4.558C2353.992-848.06,2350.636-843.143,2350.636-843.143Z" transform="translate(-2350.636 847.72)" fill="#e97ebd"/>
  </g>
  <g id="Grupo_184691" data-name="Grupo 184691" transform="translate(32.143 20.592)">
    <path id="Trazado_181801" data-name="Trazado 181801" d="M2314.277-878.289s24.134,5.114,27.1,15.426" transform="translate(-2314.208 878.612)"/>
    <path id="Trazado_181802" data-name="Trazado 181802" d="M2341.028-862.938c-2.881-10-26.615-15.144-26.855-15.195l.136-.645a86.15,86.15,0,0,1,12.493,3.863c8.6,3.447,13.6,7.416,14.859,11.8Z" transform="translate(-2314.173 878.778)" fill="#7a4510"/>
  </g>
  <g id="Grupo_184692" data-name="Grupo 184692" transform="translate(68.225 21.575)">
    <path id="Trazado_181803" data-name="Trazado 181803" d="M2368.844-863.843S2379-874.1,2396.8-877.289" transform="translate(-2368.844 877.289)"/>
  </g>
</svg>
