<svg id="Grupo_184720" data-name="Grupo 184720" xmlns="http://www.w3.org/2000/svg" width="154.022" height="203.407" viewBox="0 0 154.022 203.407">
  <g id="Grupo_184694" data-name="Grupo 184694" transform="translate(97.818 141.116)">
    <ellipse id="Elipse_3666" data-name="Elipse 3666" cx="27.283" cy="7.749" rx="27.283" ry="7.749" transform="translate(0 21.868) rotate(-23.625)" fill="#f79610"/>
  </g>
  <g id="Grupo_184695" data-name="Grupo 184695" transform="translate(6.62 5.791)">
    <path id="Trazado_181804" data-name="Trazado 181804" d="M2692.682-889.662c4.95-9.9,3.659-23.463,3.659-23.463a54.538,54.538,0,0,0-28.352,6.149,44.617,44.617,0,0,0-24.384-7.656,46.854,46.854,0,0,0-26.643,8.557v0s-9.09-8.34-28.678-5.972c0,0-2.434,11.387,9.222,32.062l.006-.008a47.948,47.948,0,0,0-2.34,14.764c0,26.926,22.753,48.109,48.432,48.109s49.078-18.6,49.078-45.526a49.859,49.859,0,0,0-3.627-18.417h0c-.04-.1-.081-.2-.122-.3C2689.1-882.079,2689.9-884.105,2692.682-889.662Z" transform="translate(-2588.073 914.632)" fill="#f6e67f"/>
  </g>
  <g id="Grupo_184696" data-name="Grupo 184696" transform="translate(0 82.754)">
    <path id="Trazado_181805" data-name="Trazado 181805" d="M2705.8-734c0-20.665-21.956-63.069-21.956-63.069s-15.5,21.17-40.9,21.525c-30.781.43-43.266-20.449-43.266-20.449S2575.786-760.049,2578.8-734c3.5,30.232,33.711,55.1,64.145,55.1C2679.752-678.9,2705.8-703.571,2705.8-734Z" transform="translate(-2578.21 797.697)" fill="#f7270d"/>
    <path id="Trazado_181806" data-name="Trazado 181806" d="M2642.779-678.891h0c-14.72,0-30.17-5.939-42.387-16.294-12.556-10.642-20.4-24.529-22.086-39.1-2.992-25.866,20.693-61.853,20.933-62.213l.29-.436.268.449c.123.2,12.5,20.295,42.058,20.295.306,0,.61,0,.919-.006,24.949-.349,40.483-21.18,40.637-21.39l.314-.43.245.473c.22.425,21.992,42.713,21.992,63.221a52.178,52.178,0,0,1-17.733,39.211C2676.568-684.654,2660.427-678.891,2642.779-678.891ZM2599.51-795.712a175.2,175.2,0,0,0-11.272,20.77c-5.087,11.129-10.826,27.2-9.278,40.579,1.667,14.407,9.429,28.141,21.857,38.676,12.1,10.255,27.393,16.136,41.96,16.137,17.487,0,33.472-5.7,45.01-16.055a51.527,51.527,0,0,0,17.514-38.72c0-19.2-19.313-57.794-21.682-62.456-2.369,2.988-17.553,20.917-40.837,21.242-15.988.217-26.978-5.384-33.376-10.128A43.031,43.031,0,0,1,2599.51-795.712Z" transform="translate(-2578.042 798.019)" fill="#fff"/>
  </g>
  <g id="Grupo_184697" data-name="Grupo 184697" transform="translate(17.587 127.289)">
    <path id="Trazado_181807" data-name="Trazado 181807" d="M2605.19-730.539v59.087h29.059v-59.087" transform="translate(-2604.86 730.539)" fill="#f7270d"/>
    <path id="Trazado_181808" data-name="Trazado 181808" d="M2634.409-671.122H2604.69v-59.417h.66v58.757h28.4v-58.757h.66Z" transform="translate(-2604.69 730.539)" fill="#fff"/>
  </g>
  <g id="Grupo_184698" data-name="Grupo 184698" transform="translate(80.871 127.289)">
    <path id="Trazado_181809" data-name="Trazado 181809" d="M2701.078-730.539v59.087h29.059v-59.087" transform="translate(-2700.748 730.539)" fill="#f7270d"/>
    <path id="Trazado_181810" data-name="Trazado 181810" d="M2730.3-671.122h-29.719v-59.417h.66v58.757h28.4v-58.757h.66Z" transform="translate(-2700.578 730.539)" fill="#fff"/>
  </g>
  <g id="Grupo_184699" data-name="Grupo 184699" transform="translate(12.994 181.438)">
    <ellipse id="Elipse_3667" data-name="Elipse 3667" cx="18.888" cy="10.332" rx="18.888" ry="10.332" transform="translate(0.33 0.33)" fill="#f8c328"/>
    <path id="Trazado_181811" data-name="Trazado 181811" d="M2616.948-627.169c-10.6,0-19.218-4.783-19.218-10.662s8.621-10.662,19.218-10.662,19.219,4.783,19.219,10.662S2627.545-627.169,2616.948-627.169Zm0-20.664c-10.233,0-18.558,4.486-18.558,10s8.325,10,18.558,10,18.559-4.487,18.559-10S2627.182-647.833,2616.948-647.833Z" transform="translate(-2597.73 648.493)" fill="#f5c07f"/>
  </g>
  <g id="Grupo_184700" data-name="Grupo 184700" transform="translate(76.308 182.083)">
    <ellipse id="Elipse_3668" data-name="Elipse 3668" cx="18.888" cy="10.332" rx="18.888" ry="10.332" transform="translate(0.33 0.33)" fill="#f8c328"/>
    <path id="Trazado_181812" data-name="Trazado 181812" d="M2712.882-626.191c-10.6,0-19.219-4.783-19.219-10.662s8.621-10.662,19.219-10.662,19.219,4.783,19.219,10.662S2723.479-626.191,2712.882-626.191Zm0-20.664c-10.233,0-18.559,4.486-18.559,10s8.326,10,18.559,10,18.559-4.487,18.559-10S2723.115-646.855,2712.882-646.855Z" transform="translate(-2693.663 647.515)" fill="#f5c07f"/>
  </g>
  <g id="Grupo_184701" data-name="Grupo 184701" transform="translate(9.039 13.729)">
    <path id="Trazado_181813" data-name="Trazado 181813" d="M2598.974-873.7s5.2-15.58,17.463-23.117c0,0-7.979-8.039-24.7-5.168C2591.738-901.984,2592.286-884.468,2598.974-873.7Z" transform="translate(-2591.738 902.604)" fill="#a9690f"/>
  </g>
  <g id="Grupo_184702" data-name="Grupo 184702" transform="translate(89.051 13.48)">
    <path id="Trazado_181814" data-name="Trazado 181814" d="M2731.189-876.138s-5.9-15.721-18.217-22.243c0,0,7.509-6.119,23.944-4.243C2736.916-902.624,2737.177-886.678,2731.189-876.138Z" transform="translate(-2712.972 902.982)" fill="#a9690f"/>
  </g>
  <g id="Grupo_184703" data-name="Grupo 184703" transform="translate(32.58 32.956)">
    <path id="Trazado_181815" data-name="Trazado 181815" d="M2654.17-861.025c0,5.373-5.879,6.953-13.131,6.953s-13.132-1.581-13.132-6.953,5.879-11.947,13.132-11.947S2654.17-866.4,2654.17-861.025Z" transform="translate(-2627.577 873.302)" fill="#fff"/>
    <path id="Trazado_181816" data-name="Trazado 181816" d="M2640.868-853.911c-8.933,0-13.461-2.45-13.461-7.283,0-5.561,6-12.277,13.461-12.277s13.462,6.717,13.462,12.277C2654.33-856.362,2649.8-853.911,2640.868-853.911Zm0-18.9c-7.092,0-12.8,6.355-12.8,11.618,0,4.395,4.307,6.623,12.8,6.623s12.8-2.228,12.8-6.623C2653.67-866.457,2647.96-872.812,2640.868-872.812Z" transform="translate(-2627.407 873.472)"/>
  </g>
  <g id="Grupo_184704" data-name="Grupo 184704" transform="translate(40.556 39.749)">
    <circle id="Elipse_3669" data-name="Elipse 3669" cx="5.155" cy="5.155" r="5.155" transform="translate(0.33 0.33)"/>
    <path id="Trazado_181817" data-name="Trazado 181817" d="M2644.978-852.21a5.491,5.491,0,0,1-5.485-5.484,5.491,5.491,0,0,1,5.485-5.485,5.491,5.491,0,0,1,5.485,5.485A5.491,5.491,0,0,1,2644.978-852.21Zm0-10.31a4.831,4.831,0,0,0-4.825,4.825,4.83,4.83,0,0,0,4.825,4.824,4.83,4.83,0,0,0,4.825-4.824A4.83,4.83,0,0,0,2644.978-862.52Z" transform="translate(-2639.493 863.18)" fill="#fff"/>
  </g>
  <g id="Grupo_184705" data-name="Grupo 184705" transform="translate(68.412 32.956)">
    <path id="Trazado_181818" data-name="Trazado 181818" d="M2708.462-861.025c0,5.373-5.879,7.509-13.131,7.509s-13.132-2.136-13.132-7.509,5.879-11.947,13.132-11.947S2708.462-866.4,2708.462-861.025Z" transform="translate(-2681.869 873.302)" fill="#fff"/>
    <path id="Trazado_181819" data-name="Trazado 181819" d="M2695.16-853.356c-8.555,0-13.461-2.857-13.461-7.838,0-5.561,6-12.277,13.461-12.277s13.462,6.717,13.462,12.277C2708.622-856.214,2703.715-853.356,2695.16-853.356Zm0-19.456c-7.091,0-12.8,6.355-12.8,11.618,0,6.479,8.952,7.178,12.8,7.178s12.8-.7,12.8-7.178C2707.962-866.457,2702.251-872.812,2695.16-872.812Z" transform="translate(-2681.699 873.472)"/>
  </g>
  <g id="Grupo_184706" data-name="Grupo 184706" transform="translate(76.388 39.749)">
    <circle id="Elipse_3670" data-name="Elipse 3670" cx="5.155" cy="5.155" r="5.155" transform="translate(0.33 0.33)"/>
    <path id="Trazado_181820" data-name="Trazado 181820" d="M2699.27-852.21a5.491,5.491,0,0,1-5.485-5.484,5.491,5.491,0,0,1,5.485-5.485,5.492,5.492,0,0,1,5.485,5.485A5.492,5.492,0,0,1,2699.27-852.21Zm0-10.31a4.83,4.83,0,0,0-4.825,4.825,4.83,4.83,0,0,0,4.825,4.824,4.83,4.83,0,0,0,4.825-4.824A4.83,4.83,0,0,0,2699.27-862.52Z" transform="translate(-2693.785 863.18)" fill="#fff"/>
  </g>
  <g id="Grupo_184707" data-name="Grupo 184707" transform="translate(57.135 115.708)">
    <path id="Trazado_181821" data-name="Trazado 181821" d="M2667.007-740.446a4.92,4.92,0,0,0-.688.754,5.454,5.454,0,0,0,.032,6.2c-.1.112-.2.224-.285.346a5.533,5.533,0,0,0,.343,6.635c-.059.071-.121.138-.176.214a5.368,5.368,0,0,0-.263,5.688,6.009,6.009,0,0,0,2.342,6.843c2.724,1.992,6.367,1.646,8.137-.774a5.367,5.367,0,0,0,.263-5.687,5.741,5.741,0,0,0-.958-5.489c.059-.071.121-.139.176-.214a5.454,5.454,0,0,0-.031-6.2c.1-.111.2-.224.285-.346a5.265,5.265,0,0,0,.538-5.077,4.873,4.873,0,0,0,.688-.753c1.77-2.42,1-6-1.727-7.99s-6.367-1.646-8.138.774A5.265,5.265,0,0,0,2667.007-740.446Z" transform="translate(-2664.783 747.918)" fill="#fff"/>
    <path id="Trazado_181822" data-name="Trazado 181822" d="M2672-712.317a6.889,6.889,0,0,1-4.054-1.356,6.346,6.346,0,0,1-2.506-7.088,5.681,5.681,0,0,1,.357-5.9l.023-.032a5.809,5.809,0,0,1-.189-6.818c.046-.063.094-.124.144-.183a5.741,5.741,0,0,1,.11-6.359,5.14,5.14,0,0,1,.568-.65,5.583,5.583,0,0,1,.658-5.18c1.875-2.562,5.732-2.942,8.6-.845a6.808,6.808,0,0,1,2.676,4.031,5.434,5.434,0,0,1-.878,4.42,5.122,5.122,0,0,1-.568.65,5.583,5.583,0,0,1-.658,5.18c-.046.063-.094.124-.143.183a5.742,5.742,0,0,1-.11,6.359l-.023.031a6.1,6.1,0,0,1,.9,5.455,5.68,5.68,0,0,1-.357,5.9A5.544,5.544,0,0,1,2672-712.317Zm-.348-35.111a4.884,4.884,0,0,0-4.011,1.932,4.958,4.958,0,0,0-.5,4.762l.084.213-.171.153a4.566,4.566,0,0,0-.642.7,5.124,5.124,0,0,0,.043,5.822l.135.211-.166.187c-.092.1-.183.209-.266.323a5.192,5.192,0,0,0,.338,6.239l.159.208-.229.277c-.035.041-.07.081-.1.125a5.047,5.047,0,0,0-.237,5.341l.069.131-.053.139a5.666,5.666,0,0,0,2.228,6.46c2.573,1.882,6.017,1.566,7.677-.7a5.046,5.046,0,0,0,.237-5.34l-.069-.132.053-.138a5.441,5.441,0,0,0-.911-5.171l-.159-.208.23-.277c.035-.041.07-.081.1-.124a5.124,5.124,0,0,0-.043-5.822l-.135-.211.165-.187c.092-.1.182-.209.265-.323a4.956,4.956,0,0,0,.5-4.761l-.083-.214.171-.153a4.535,4.535,0,0,0,.641-.7,4.784,4.784,0,0,0,.767-3.891,6.149,6.149,0,0,0-2.421-3.638A6.24,6.24,0,0,0,2671.65-747.428Z" transform="translate(-2664.612 748.086)"/>
  </g>
  <g id="Grupo_184708" data-name="Grupo 184708" transform="translate(57.134 138.948)">
    <path id="Trazado_181823" data-name="Trazado 181823" d="M2667.007-705.232a4.887,4.887,0,0,0-.688.753,5.454,5.454,0,0,0,.032,6.2c-.1.112-.2.224-.285.346a5.532,5.532,0,0,0,.343,6.635c-.059.071-.121.139-.176.214a5.368,5.368,0,0,0-.263,5.688,6.009,6.009,0,0,0,2.342,6.843c2.724,1.993,6.367,1.647,8.137-.773a5.368,5.368,0,0,0,.263-5.688,5.739,5.739,0,0,0-.958-5.488c.059-.071.121-.139.176-.214a5.453,5.453,0,0,0-.031-6.2c.1-.112.2-.224.285-.346a5.264,5.264,0,0,0,.538-5.077,4.883,4.883,0,0,0,.688-.754c1.77-2.42,1-6-1.727-7.99s-6.367-1.646-8.138.774A5.266,5.266,0,0,0,2667.007-705.232Z" transform="translate(-2664.783 712.704)" fill="#fff"/>
    <path id="Trazado_181824" data-name="Trazado 181824" d="M2672-677.1a6.889,6.889,0,0,1-4.054-1.355,6.348,6.348,0,0,1-2.506-7.088,5.681,5.681,0,0,1,.357-5.9l.023-.031a5.809,5.809,0,0,1-.189-6.818c.046-.063.094-.123.143-.183a5.74,5.74,0,0,1,.11-6.358,5.081,5.081,0,0,1,.568-.65,5.582,5.582,0,0,1,.658-5.18c1.875-2.563,5.732-2.942,8.6-.845a6.812,6.812,0,0,1,2.676,4.031,5.437,5.437,0,0,1-.879,4.421,5.167,5.167,0,0,1-.568.649,5.584,5.584,0,0,1-.658,5.181c-.046.063-.094.123-.143.183a5.742,5.742,0,0,1-.11,6.359l-.023.031a6.1,6.1,0,0,1,.9,5.455,5.68,5.68,0,0,1-.357,5.9A5.539,5.539,0,0,1,2672-677.1Zm-.348-35.11a4.883,4.883,0,0,0-4.011,1.932,4.956,4.956,0,0,0-.5,4.761l.083.214-.171.152a4.576,4.576,0,0,0-.642.7,5.124,5.124,0,0,0,.042,5.823l.135.21-.166.187c-.092.1-.183.208-.266.322a5.191,5.191,0,0,0,.338,6.24l.159.208-.229.277c-.035.04-.07.08-.1.125a5.046,5.046,0,0,0-.237,5.34l.068.131-.053.139a5.667,5.667,0,0,0,2.228,6.46c2.572,1.882,6.017,1.567,7.677-.7a5.046,5.046,0,0,0,.237-5.34l-.069-.131.053-.139a5.44,5.44,0,0,0-.912-5.17l-.159-.208.229-.277a1.609,1.609,0,0,0,.1-.125,5.122,5.122,0,0,0-.042-5.822l-.135-.21.165-.187c.092-.1.182-.209.265-.323a4.957,4.957,0,0,0,.5-4.762l-.083-.213.171-.153a4.5,4.5,0,0,0,.641-.7,4.783,4.783,0,0,0,.767-3.891,6.15,6.15,0,0,0-2.421-3.638A6.235,6.235,0,0,0,2671.65-712.214Z" transform="translate(-2664.612 712.873)"/>
  </g>
  <g id="Grupo_184709" data-name="Grupo 184709" transform="translate(56.475 153.542)">
    <path id="Trazado_181825" data-name="Trazado 181825" d="M2666.007-683.119a4.859,4.859,0,0,0-.688.753,5.454,5.454,0,0,0,.032,6.2c-.1.112-.2.224-.285.346a5.532,5.532,0,0,0,.343,6.635c-.059.071-.121.138-.176.214a5.367,5.367,0,0,0-.264,5.687,6.009,6.009,0,0,0,2.342,6.843c2.724,1.993,6.367,1.647,8.137-.773a5.367,5.367,0,0,0,.263-5.688,5.74,5.74,0,0,0-.958-5.488c.059-.071.121-.139.176-.214a5.455,5.455,0,0,0-.031-6.2c.1-.112.2-.224.285-.346a5.265,5.265,0,0,0,.538-5.077,4.878,4.878,0,0,0,.688-.754c1.77-2.42,1-6-1.727-7.99s-6.367-1.647-8.138.773A5.266,5.266,0,0,0,2666.007-683.119Z" transform="translate(-2663.783 690.592)" fill="#fff"/>
    <path id="Trazado_181826" data-name="Trazado 181826" d="M2670.994-654.987a6.876,6.876,0,0,1-4.05-1.359,6.348,6.348,0,0,1-2.506-7.088,5.681,5.681,0,0,1,.356-5.9l.023-.031a5.809,5.809,0,0,1-.189-6.818c.046-.063.094-.124.144-.183a5.743,5.743,0,0,1,.11-6.359,5.1,5.1,0,0,1,.568-.65,5.584,5.584,0,0,1,.658-5.18c1.875-2.563,5.733-2.942,8.6-.845s3.672,5.888,1.8,8.452a5.1,5.1,0,0,1-.568.65,5.581,5.581,0,0,1-.658,5.18c-.046.063-.094.123-.143.183a5.744,5.744,0,0,1-.11,6.359l-.023.031a6.1,6.1,0,0,1,.9,5.455,5.682,5.682,0,0,1-.356,5.9,5.434,5.434,0,0,1-3.947,2.175C2671.4-655,2671.195-654.987,2670.994-654.987Zm-.344-35.114a4.882,4.882,0,0,0-4.01,1.932,4.958,4.958,0,0,0-.5,4.762l.084.213-.172.153a4.6,4.6,0,0,0-.642.7,5.124,5.124,0,0,0,.043,5.822l.135.21-.166.187c-.092.1-.182.209-.266.323a5.192,5.192,0,0,0,.338,6.24l.159.208-.23.277c-.035.04-.07.081-.1.124a5.046,5.046,0,0,0-.237,5.34l.069.131-.053.139a5.668,5.668,0,0,0,2.228,6.46,6.152,6.152,0,0,0,4.2,1.206,4.785,4.785,0,0,0,3.477-1.909,5.047,5.047,0,0,0,.237-5.34l-.069-.131.053-.139a5.439,5.439,0,0,0-.911-5.17l-.159-.208.229-.277c.035-.041.07-.081.1-.125a5.124,5.124,0,0,0-.042-5.823l-.135-.209.165-.187c.092-.1.182-.209.266-.323a4.956,4.956,0,0,0,.5-4.762l-.083-.213.171-.153a4.53,4.53,0,0,0,.642-.7c1.661-2.27.918-5.647-1.655-7.53A6.236,6.236,0,0,0,2670.65-690.1Z" transform="translate(-2663.612 690.76)"/>
  </g>
  <g id="Grupo_184710" data-name="Grupo 184710" transform="translate(57.028 165.847)">
    <path id="Trazado_181827" data-name="Trazado 181827" d="M2667.386-664.67a4.892,4.892,0,0,0-.719.725,5.457,5.457,0,0,0-.226,6.192c-.1.107-.2.216-.3.334a5.532,5.532,0,0,0,.066,6.643c-.062.069-.126.134-.185.207a5.37,5.37,0,0,0-.5,5.672,6.01,6.01,0,0,0,2.056,6.934c2.639,2.1,6.294,1.909,8.163-.436a5.365,5.365,0,0,0,.5-5.672,5.737,5.737,0,0,0-.729-5.523c.062-.069.126-.134.185-.207a5.454,5.454,0,0,0,.226-6.192c.1-.107.2-.216.3-.334a5.263,5.263,0,0,0,.748-5.05,4.834,4.834,0,0,0,.719-.725c1.87-2.344,1.246-5.95-1.394-8.054s-6.293-1.909-8.163.436A5.264,5.264,0,0,0,2667.386-664.67Z" transform="translate(-2664.62 671.945)" fill="#fff"/>
    <path id="Trazado_181828" data-name="Trazado 181828" d="M2671.464-636.348a6.862,6.862,0,0,1-4.258-1.527,6.347,6.347,0,0,1-2.21-7.186,5.68,5.68,0,0,1,.6-5.884l.025-.031a5.807,5.807,0,0,1,.093-6.819c.048-.061.1-.12.15-.177a5.744,5.744,0,0,1,.374-6.349,5.123,5.123,0,0,1,.595-.626,5.58,5.58,0,0,1,.873-5.148,5.436,5.436,0,0,1,4.033-2.01,6.783,6.783,0,0,1,4.593,1.522,6.807,6.807,0,0,1,2.507,4.139,5.434,5.434,0,0,1-1.061,4.38,5.156,5.156,0,0,1-.595.626,5.585,5.585,0,0,1-.872,5.149c-.049.061-.1.119-.151.177a5.74,5.74,0,0,1-.374,6.348l-.025.031a6.093,6.093,0,0,1,.671,5.487,5.679,5.679,0,0,1-.6,5.884A5.507,5.507,0,0,1,2671.464-636.348Zm.614-35.106c-.1,0-.2,0-.3.008a4.782,4.782,0,0,0-3.553,1.762,4.957,4.957,0,0,0-.694,4.737l.074.216-.177.146a4.527,4.527,0,0,0-.67.675,5.124,5.124,0,0,0-.2,5.82l.126.215-.173.18c-.1.1-.191.2-.279.312a5.193,5.193,0,0,0,.079,6.249l.151.214-.242.269c-.036.038-.072.077-.1.118a5.045,5.045,0,0,0-.459,5.327l.063.134-.058.136a5.665,5.665,0,0,0,1.958,6.546c2.493,1.987,5.947,1.815,7.7-.383a5.046,5.046,0,0,0,.458-5.326l-.063-.134.058-.136a5.44,5.44,0,0,0-.7-5.2l-.151-.214.242-.269c.036-.038.072-.077.1-.119a5.123,5.123,0,0,0,.2-5.819l-.126-.216.174-.18c.1-.1.191-.2.279-.312a4.957,4.957,0,0,0,.694-4.737l-.075-.217.177-.146a4.526,4.526,0,0,0,.67-.674,4.782,4.782,0,0,0,.927-3.856,6.143,6.143,0,0,0-2.268-3.735A6.185,6.185,0,0,0,2672.078-671.455Z" transform="translate(-2664.45 672.116)"/>
  </g>
  <g id="Grupo_184711" data-name="Grupo 184711" transform="translate(55.174)">
    <path id="Trazado_181829" data-name="Trazado 181829" d="M2662.906-919.093a1.946,1.946,0,0,0-.377.384c-.692.946-.427,2.388.542,3.64a1.811,1.811,0,0,0-.153.179c-.746,1.02-.381,2.612.778,3.924-.032.037-.066.071-.095.111a2.928,2.928,0,0,0,.31,3.316c-.368,1.278.447,3.023,2.075,4.214,1.912,1.4,4.217,1.5,5.147.231a2.929,2.929,0,0,0-.31-3.317,3.719,3.719,0,0,0-1.075-3.3c.031-.037.065-.071.094-.11.692-.947.427-2.388-.541-3.64a2.015,2.015,0,0,0,.153-.18,2.743,2.743,0,0,0-.083-2.935,1.936,1.936,0,0,0,.377-.384c.93-1.272.134-3.437-1.778-4.836s-4.217-1.5-5.147-.23A2.744,2.744,0,0,0,2662.906-919.093Z" transform="translate(-2661.811 923.241)" fill="#fff"/>
    <path id="Trazado_181830" data-name="Trazado 181830" d="M2668.927-902.048a5.754,5.754,0,0,1-3.306-1.176c-1.65-1.207-2.55-3-2.236-4.422a3.234,3.234,0,0,1-.285-3.478c-1.148-1.423-1.4-3.056-.621-4.125-.952-1.356-1.109-2.833-.386-3.82a2.212,2.212,0,0,1,.234-.269,2.964,2.964,0,0,1,.061-3.05c1.036-1.417,3.552-1.345,5.608.159a5.859,5.859,0,0,1,2.07,2.618,2.792,2.792,0,0,1-.22,2.679,2.134,2.134,0,0,1-.234.269,2.966,2.966,0,0,1-.06,3.049,3.351,3.351,0,0,1,.451,3.728,3.982,3.982,0,0,1,1.006,3.253,3.181,3.181,0,0,1,.22,3.569A2.748,2.748,0,0,1,2668.927-902.048Zm-5.5-8.973.267.195a2.614,2.614,0,0,0,.319,2.94l.084.127-.042.146c-.334,1.162.487,2.784,1.953,3.857,1.762,1.289,3.864,1.425,4.686.3a2.616,2.616,0,0,0-.319-2.94l-.084-.127.042-.147a3.415,3.415,0,0,0-1.006-2.993l-.189-.214.185-.218.346.1-.266-.2c.582-.8.372-2.069-.537-3.242l-.173-.224.194-.205a1.572,1.572,0,0,0,.127-.148,2.434,2.434,0,0,0-.107-2.583l-.133-.246L2669-917a1.613,1.613,0,0,0,.315-.319,2.162,2.162,0,0,0,.133-2.061,5.2,5.2,0,0,0-1.841-2.313c-1.761-1.289-3.863-1.425-4.686-.3a2.433,2.433,0,0,0,.107,2.583l.133.245-.22.172a1.62,1.62,0,0,0-.314.319c-.583.8-.372,2.069.536,3.243l.172.222-.193.205a1.618,1.618,0,0,0-.128.148c-.634.866-.329,2.277.759,3.51l.188.213-.183.218Z" transform="translate(-2661.642 923.407)"/>
  </g>
  <g id="Grupo_184712" data-name="Grupo 184712" transform="translate(14.587 174.919)">
    <path id="Trazado_181831" data-name="Trazado 181831" d="M2628.308-656.423a4.878,4.878,0,0,0-.789-.647,5.455,5.455,0,0,0-6.186.357c-.116-.092-.234-.184-.36-.266a5.532,5.532,0,0,0-6.608.69c-.074-.055-.145-.113-.222-.164a5.366,5.366,0,0,0-5.694.036,6.009,6.009,0,0,0-6.711,2.7c-1.848,2.825-1.309,6.445,1.2,8.086a5.367,5.367,0,0,0,5.694-.036,5.741,5.741,0,0,0,5.43-1.245c.075.055.146.113.223.164a5.454,5.454,0,0,0,6.185-.357c.117.092.234.183.361.266a5.263,5.263,0,0,0,5.1.271,4.924,4.924,0,0,0,.789.647c2.51,1.641,6.042.681,7.888-2.144s1.309-6.445-1.2-8.085A5.263,5.263,0,0,0,2628.308-656.423Z" transform="translate(-2600.313 658.201)" fill="#fff"/>
    <path id="Trazado_181832" data-name="Trazado 181832" d="M2605.5-644.675a5.291,5.291,0,0,1-2.912-.852c-2.658-1.738-3.24-5.57-1.3-8.543a6.347,6.347,0,0,1,6.947-2.875,5.677,5.677,0,0,1,5.914.046l.033.022a5.806,5.806,0,0,1,6.8-.548c.066.043.128.088.191.134a5.741,5.741,0,0,1,6.356-.224,5.128,5.128,0,0,1,.679.533,5.584,5.584,0,0,1,5.207.384c2.658,1.738,3.24,5.57,1.3,8.543s-5.687,3.977-8.345,2.24a5.158,5.158,0,0,1-.679-.534,5.583,5.583,0,0,1-5.208-.384c-.065-.043-.128-.088-.19-.134a5.742,5.742,0,0,1-6.355.224l-.033-.022a6.091,6.091,0,0,1-5.4,1.183A6.153,6.153,0,0,1,2605.5-644.675Zm1.206-11.827a5.934,5.934,0,0,0-4.862,2.793c-1.744,2.668-1.249,6.091,1.1,7.629a5.044,5.044,0,0,0,5.346-.044l.127-.075.141.045a5.438,5.438,0,0,0,5.115-1.182l.2-.17.289.214c.042.032.084.065.129.094a5.125,5.125,0,0,0,5.813-.348l.2-.146.2.155c.109.086.218.172.336.249a4.951,4.951,0,0,0,4.781.245l.209-.094.162.162a4.559,4.559,0,0,0,.735.6c2.353,1.539,5.688.619,7.431-2.049s1.248-6.09-1.1-7.629a4.957,4.957,0,0,0-4.781-.245l-.208.094-.162-.162a4.5,4.5,0,0,0-.735-.6,5.121,5.121,0,0,0-5.812.349l-.2.146-.2-.155c-.109-.086-.219-.172-.337-.249a5.194,5.194,0,0,0-6.213.666l-.2.17-.292-.216c-.042-.032-.082-.063-.127-.092a5.047,5.047,0,0,0-5.345.044l-.127.076-.141-.046A4.8,4.8,0,0,0,2606.708-656.5Z" transform="translate(-2600.144 658.371)"/>
  </g>
  <g id="Grupo_184713" data-name="Grupo 184713" transform="translate(9.005 83.409)">
    <path id="Trazado_181833" data-name="Trazado 181833" d="M2595.138-773.221l5.017-5.767-3.437,6.931a63.107,63.107,0,0,0,12.826,6.868l2.6-6.026-.906,6.682a86.345,86.345,0,0,0,15.616,4.185l1.456-5.14v5.378a111.1,111.1,0,0,0,15.9,1.316l.719-5.148.719,5.154c.479,0,.943.012,1.428.007a86.9,86.9,0,0,0,14.475-1.348v-4.939l1.326,4.683a86.737,86.737,0,0,0,15.629-4.6l-.788-5.812,2.249,5.217a84.244,84.244,0,0,0,12.836-6.742l-3.1-6.247,4.58,5.265a57.523,57.523,0,0,0,4.812-3.6c-5.281-10.783-10.376-19.265-10.376-19.265s-15.5,18.247-40.9,18.553c-30.781.371-43.266-17.625-43.266-17.625a143.178,143.178,0,0,0-12.258,19.618A36.141,36.141,0,0,0,2595.138-773.221Z" transform="translate(-2591.896 796.734)" fill="#fff"/>
    <path id="Trazado_181834" data-name="Trazado 181834" d="M2646.624-758.74c-.207,0-.412,0-.616,0l-.853,0-.434-3.1-.431,3.1-.292,0a111.88,111.88,0,0,1-15.951-1.321l-.279-.044V-763.4l-.89,3.141-.293-.051a87.151,87.151,0,0,1-15.675-4.2l-.246-.092.617-4.556-1.772,4.11-.3-.121a63.494,63.494,0,0,1-12.893-6.9l-.231-.163,2.422-4.884-3.536,4.064-.246-.189a36.373,36.373,0,0,1-2.862-2.425l-.179-.17.113-.22a144.783,144.783,0,0,1,12.291-19.668l.275-.357.257.37c.124.178,12.75,17.869,42.991,17.484,24.951-.3,40.5-18.256,40.65-18.437l.3-.35.237.395c.051.084,5.162,8.617,10.389,19.289l.113.23-.2.166a57.236,57.236,0,0,1-4.839,3.625l-.242.164-3.087-3.549,2.088,4.211-.248.16a84.432,84.432,0,0,1-12.886,6.769l-.3.127-1.425-3.306.5,3.681-.24.1a87.217,87.217,0,0,1-15.687,4.615l-.3.058-.762-2.689v2.839l-.271.048a87.6,87.6,0,0,1-14.53,1.353Zm-.9-.667.285,0c.282,0,.564.006.852,0a86.956,86.956,0,0,0,14.149-1.294v-7.038l1.891,6.676a86.557,86.557,0,0,0,15.032-4.427l-1.076-7.942,3.073,7.126a83.824,83.824,0,0,0,12.235-6.429l-4.107-8.283,6.073,6.981c2.113-1.445,3.567-2.6,4.345-3.252-4.546-9.261-8.979-16.861-10.019-18.623-2.31,2.516-17.512,18.046-40.84,18.328-.31,0-.622.005-.929.005-27.541,0-40.368-14.891-42.341-17.413a145.975,145.975,0,0,0-11.852,19c.519.483,1.307,1.178,2.385,2.02l6.5-7.469-4.451,8.978a62.8,62.8,0,0,0,12.229,6.548l3.423-7.94-1.193,8.806a86.457,86.457,0,0,0,15.017,4.026l2.022-7.139v7.47a111.373,111.373,0,0,0,15.287,1.264l1-7.2Z" transform="translate(-2591.686 797.025)"/>
  </g>
  <g id="Grupo_184714" data-name="Grupo 184714" transform="translate(77.871 175.564)">
    <path id="Trazado_181835" data-name="Trazado 181835" d="M2724.2-655.445a4.89,4.89,0,0,0-.788-.647,5.456,5.456,0,0,0-6.187.358c-.116-.092-.234-.184-.36-.267a5.534,5.534,0,0,0-6.608.691c-.074-.055-.145-.113-.222-.164a5.368,5.368,0,0,0-5.694.036,6.011,6.011,0,0,0-6.711,2.7c-1.847,2.825-1.309,6.445,1.2,8.086a5.367,5.367,0,0,0,5.694-.036,5.737,5.737,0,0,0,5.43-1.245c.075.055.145.114.223.164a5.453,5.453,0,0,0,6.185-.357c.117.092.234.183.361.266a5.263,5.263,0,0,0,5.1.271,4.828,4.828,0,0,0,.789.647c2.51,1.641,6.042.681,7.889-2.144s1.309-6.445-1.2-8.086A5.267,5.267,0,0,0,2724.2-655.445Z" transform="translate(-2696.201 657.222)" fill="#fff"/>
    <path id="Trazado_181836" data-name="Trazado 181836" d="M2701.39-643.7a5.294,5.294,0,0,1-2.912-.852c-2.658-1.738-3.24-5.57-1.3-8.543a6.346,6.346,0,0,1,6.947-2.875,5.679,5.679,0,0,1,5.915.045l.032.022a5.809,5.809,0,0,1,6.8-.548c.065.042.129.087.191.133a5.741,5.741,0,0,1,6.355-.224,5.122,5.122,0,0,1,.679.533,5.583,5.583,0,0,1,5.208.385,5.434,5.434,0,0,1,2.38,3.827,6.807,6.807,0,0,1-1.083,4.716,6.807,6.807,0,0,1-3.885,2.885,5.433,5.433,0,0,1-4.459-.645,5.054,5.054,0,0,1-.679-.533,5.586,5.586,0,0,1-5.208-.385c-.065-.043-.129-.088-.191-.134a5.742,5.742,0,0,1-6.355.225l-.033-.022a6.091,6.091,0,0,1-5.4,1.183A6.151,6.151,0,0,1,2701.39-643.7Zm1.206-11.827a5.932,5.932,0,0,0-4.862,2.793c-1.745,2.668-1.249,6.09,1.1,7.629a5.045,5.045,0,0,0,5.345-.044l.127-.075.141.045a5.439,5.439,0,0,0,5.116-1.181l.2-.17.29.215c.041.032.083.064.127.093a5.122,5.122,0,0,0,5.813-.349l.2-.145.2.154c.109.086.219.172.336.249a4.956,4.956,0,0,0,4.781.246l.209-.1.162.163a4.571,4.571,0,0,0,.734.6,4.785,4.785,0,0,0,3.926.56,6.149,6.149,0,0,0,3.506-2.609,6.149,6.149,0,0,0,.984-4.258,4.784,4.784,0,0,0-2.088-3.371,4.956,4.956,0,0,0-4.781-.246l-.208.094-.162-.162a4.574,4.574,0,0,0-.735-.6,5.121,5.121,0,0,0-5.812.349l-.2.146-.2-.156c-.108-.086-.218-.172-.336-.248a5.193,5.193,0,0,0-6.213.666l-.2.17-.286-.213c-.043-.034-.086-.067-.132-.1a5.045,5.045,0,0,0-5.345.044l-.128.075-.141-.046A4.812,4.812,0,0,0,2702.6-655.523Z" transform="translate(-2696.032 657.392)"/>
  </g>
  <g id="Grupo_184715" data-name="Grupo 184715" transform="translate(13.654 45.033)">
    <path id="Trazado_181837" data-name="Trazado 181837" d="M2696.071-844.051c-.751-6.325-5.506-10.984-10.621-10.408-3.483.393-6.23,3.115-7.394,6.807-3,1.287-5.146,4.434-5.7,8.264-.159.008-.316.006-.475.024-3.807.429-6.736,3.64-7.678,7.86-.256,0-.511.009-.769.038a8.857,8.857,0,0,0-6.96,5.652,7.646,7.646,0,0,0-1.755-.012,7.627,7.627,0,0,0-2.332.664,10.129,10.129,0,0,0-8.2.421,7.757,7.757,0,0,0-3.52-1.323,7.348,7.348,0,0,0-.922-.042,8.31,8.31,0,0,0-.959-.219,8.781,8.781,0,0,0-6.834-5.38c-.257-.029-.513-.035-.769-.038-.941-4.221-3.871-7.431-7.677-7.86-.159-.018-.317-.016-.475-.024-.552-3.831-2.7-6.977-5.7-8.264-1.164-3.693-3.912-6.414-7.395-6.807-5.115-.576-9.87,4.083-10.621,10.408-.64,5.386,1.837,10.23,5.743,11.909,1.164,3.692,3.912,6.414,7.4,6.806.159.018.316.016.475.024a11.92,11.92,0,0,0,2.167,5.42c-1.625,4.024-1.017,8.285,1.909,10.7,2.386,1.971,5.762,2.252,8.992,1.087a7.282,7.282,0,0,0,1.191,1.256,8.308,8.308,0,0,0,6.167,1.73,7.927,7.927,0,0,0,4.591,2.2,8.191,8.191,0,0,0,5.661-1.556,11.619,11.619,0,0,0,6.2-1.562,8.8,8.8,0,0,0,7.636,3.357,8.062,8.062,0,0,0,5.1-2.718c3.768.932,8.432-.683,11.689-4.426a13.183,13.183,0,0,0,3.276-7.336,10.644,10.644,0,0,0,4.957-7.91c.159-.008.316-.005.475-.024,3.483-.393,6.231-3.114,7.395-6.806C2694.234-833.82,2696.71-838.665,2696.071-844.051Z" transform="translate(-2598.896 855.028)" fill="#fff"/>
    <path id="Trazado_181838" data-name="Trazado 181838" d="M2656.42-802.737a9.245,9.245,0,0,1-6.859-3.312,11.864,11.864,0,0,1-6.014,1.475,8.5,8.5,0,0,1-5.806,1.548,8.262,8.262,0,0,1-4.677-2.181,8.662,8.662,0,0,1-6.261-1.819,7.538,7.538,0,0,1-1.092-1.116,9.4,9.4,0,0,1-9.09-1.227c-2.9-2.4-3.7-6.651-2.046-10.87a12.164,12.164,0,0,1-2.094-5.184c-.078,0-.156-.008-.234-.017-3.452-.389-6.363-3.025-7.625-6.89-4.049-1.822-6.427-6.787-5.791-12.136a12.943,12.943,0,0,1,5.116-9.082,8.5,8.5,0,0,1,5.865-1.576c3.452.389,6.364,3.025,7.624,6.89a10.671,10.671,0,0,1,5.709,8.188c.078,0,.156.008.234.016,3.767.425,6.848,3.5,7.9,7.864.173,0,.358.014.547.036a8.992,8.992,0,0,1,7.024,5.413c.256.048.516.109.777.183a7.157,7.157,0,0,1,.914.045,8.034,8.034,0,0,1,3.512,1.271,10.5,10.5,0,0,1,8.164-.4,7.971,7.971,0,0,1,2.3-.629,7.945,7.945,0,0,1,1.587-.014,9.143,9.143,0,0,1,7.129-5.626c.187-.021.373-.031.547-.035,1.052-4.363,4.132-7.439,7.9-7.864.078-.009.156-.013.233-.017a10.674,10.674,0,0,1,5.71-8.188c1.261-3.866,4.173-6.5,7.624-6.89a8.51,8.51,0,0,1,5.865,1.576,12.946,12.946,0,0,1,5.116,9.082h0c.635,5.349-1.742,10.313-5.792,12.136-1.261,3.865-4.173,6.5-7.625,6.89-.078.009-.156.013-.233.016a10.941,10.941,0,0,1-4.933,7.8,13.543,13.543,0,0,1-3.327,7.346c-3.208,3.687-7.826,5.467-11.825,4.575a8.332,8.332,0,0,1-5.174,2.677A8.017,8.017,0,0,1,2656.42-802.737Zm-6.7-4.066.178.209a8.452,8.452,0,0,0,7.338,3.246,7.722,7.722,0,0,0,4.886-2.613l.133-.147.205.051c3.732.924,8.292-.814,11.347-4.325a12.972,12.972,0,0,0,3.211-7.188l.013-.139.135-.076a10.391,10.391,0,0,0,4.811-7.707l.033-.232.434-.02c.095,0,.19-.005.285-.016,3.227-.364,5.957-2.893,7.126-6.6l.039-.122.13-.056c3.891-1.672,6.179-6.453,5.564-11.626a12.389,12.389,0,0,0-4.876-8.7,7.8,7.8,0,0,0-5.385-1.459c-3.226.364-5.957,2.893-7.126,6.6l-.039.123-.13.056c-2.867,1.232-4.982,4.316-5.52,8.046l-.034.234-.429.018c-.1,0-.193.005-.289.016-3.553.4-6.459,3.4-7.4,7.634l-.05.225-.26,0c-.223,0-.482.008-.733.036a8.579,8.579,0,0,0-6.7,5.472l-.09.209-.253-.03a7.276,7.276,0,0,0-1.671-.012,7.288,7.288,0,0,0-2.224.634l-.144.066-.146-.063a9.792,9.792,0,0,0-7.911.418l-.183.084-.163-.112a7.384,7.384,0,0,0-3.363-1.266,6.6,6.6,0,0,0-.876-.04h-.054l-.051-.015a8.27,8.27,0,0,0-.918-.21l-.172-.028-.067-.143a8.419,8.419,0,0,0-6.577-5.205,7.233,7.233,0,0,0-.733-.036l-.261,0-.05-.225c-.945-4.238-3.852-7.235-7.4-7.635-.1-.011-.193-.014-.29-.017l-.43-.019-.033-.233c-.537-3.731-2.652-6.814-5.52-8.046l-.13-.056-.038-.122c-1.169-3.709-3.9-6.239-7.126-6.6a7.811,7.811,0,0,0-5.385,1.459,12.391,12.391,0,0,0-4.876,8.7c-.614,5.174,1.674,9.954,5.564,11.626l.13.055.039.123c1.169,3.709,3.9,6.239,7.126,6.6.1.011.193.013.29.016l.43.019.033.233a11.655,11.655,0,0,0,2.117,5.3l.087.118-.053.132c-1.636,4.051-.918,8.133,1.827,10.4,2.191,1.809,5.425,2.2,8.651,1.032l.244-.088.145.193a7.1,7.1,0,0,0,1.143,1.206,7.9,7.9,0,0,0,5.913,1.655l.16-.015.109.1a7.618,7.618,0,0,0,4.4,2.107,7.826,7.826,0,0,0,5.42-1.5l.1-.067.123.006a11.217,11.217,0,0,0,6.005-1.519Z" transform="translate(-2598.73 855.173)"/>
  </g>
  <g id="Grupo_184716" data-name="Grupo 184716" transform="translate(36.982 50.449)">
    <path id="Trazado_181839" data-name="Trazado 181839" d="M2686.828-832.889a13.888,13.888,0,0,0-.542-4.537c-.571-1.876-2.525-3.38-5.124-4.582-6.006-3.326-19.878-4.458-19.878-4.458s-.206.014-.575.044c-.37-.03-.575-.044-.575-.044s-13.872,1.133-19.878,4.458c-2.6,1.2-4.553,2.706-5.124,4.582a13.908,13.908,0,0,0-.542,4.537c-.031,1.342.021,2.9.037,4.826.053,6.211,7.426,8.395,12.593,7.646,2.241-.325,10.453-7.961,12.144-9.192,2.988-1.573-1.647-10.207,1.346-10.383,2.993.176-1.641,8.809,1.346,10.383,1.691,1.23,9.9,8.866,12.145,9.192,5.166.748,12.54-1.435,12.592-7.646C2686.807-829.986,2686.858-831.547,2686.828-832.889Z" transform="translate(-2634.247 846.797)" fill="#fff"/>
    <path id="Trazado_181840" data-name="Trazado 181840" d="M2645.059-820.119a13.24,13.24,0,0,1-8.408-2.711,6.928,6.928,0,0,1-2.525-5.4c-.006-.656-.015-1.27-.024-1.847-.018-1.127-.033-2.1-.012-2.99a14.056,14.056,0,0,1,.556-4.625c.548-1.8,2.333-3.413,5.3-4.786,5.978-3.311,19.421-4.441,19.99-4.488.03-.007.256.014.63.045.318-.031.526-.046.526-.046.618.047,14.061,1.177,20.06,4.5,2.948,1.363,4.731,2.973,5.28,4.776a14.1,14.1,0,0,1,.556,4.635c.02.889.005,1.862-.012,2.988-.009.576-.019,1.187-.025,1.839a6.926,6.926,0,0,1-2.525,5.4c-2.813,2.414-7.272,3.03-10.444,2.57-1.6-.231-5.525-3.506-9.754-7.133-1.168-1-2.09-1.792-2.537-2.117a2.4,2.4,0,0,1-1.156-2.047,2.456,2.456,0,0,1-1.189,2.072c-.406.3-1.33,1.092-2.5,2.094-4.229,3.627-8.156,6.9-9.752,7.132A14.229,14.229,0,0,1,2645.059-820.119Zm14.882-26.189c-.089.011-13.821,1.166-19.7,4.418-2.812,1.3-4.476,2.775-4.967,4.39a13.428,13.428,0,0,0-.528,4.428c-.021.9-.005,1.864.012,2.984.009.579.018,1.195.024,1.852a6.293,6.293,0,0,0,2.295,4.9c2.656,2.279,6.9,2.855,9.92,2.418,1.54-.223,6.471-4.453,9.418-6.98,1.18-1.012,2.111-1.811,2.58-2.151,1.35-.715.907-3.271.517-5.527-.336-1.941-.626-3.618.027-4.442a1.283,1.283,0,0,1,.977-.477,1.305,1.305,0,0,1,1.016.477c.653.824.363,2.5.027,4.442-.391,2.255-.833,4.812.476,5.5.509.366,1.44,1.164,2.619,2.175,2.947,2.528,7.88,6.758,9.419,6.981,3.025.438,7.265-.139,9.92-2.418a6.291,6.291,0,0,0,2.294-4.9c.006-.654.015-1.267.025-1.843.018-1.123.033-2.094.012-2.973v-.02a13.445,13.445,0,0,0-.528-4.428c-.491-1.615-2.156-3.088-4.947-4.38-5.845-3.234-19.384-4.4-19.759-4.428,0,0-.2.017-.529.045Zm.579,6.476a.618.618,0,0,0-.46.228c-.47.593-.177,2.284.106,3.92.149.86.3,1.761.372,2.608.069-.847.225-1.748.374-2.609.283-1.635.576-3.326.106-3.919A.637.637,0,0,0,2660.519-839.831Z" transform="translate(-2634.077 846.967)"/>
  </g>
  <g id="Grupo_184717" data-name="Grupo 184717" transform="translate(56.209 46.551)">
    <path id="Trazado_181841" data-name="Trazado 181841" d="M2663.209-848.3s3.369,5.451,8.142,5.128,7.355-5.128,7.355-5.128a8.9,8.9,0,0,0-7.1-4.559C2666.565-853.212,2663.209-848.3,2663.209-848.3Z" transform="translate(-2663.209 852.873)" fill="#e97ebd"/>
  </g>
  <g id="Grupo_184718" data-name="Grupo 184718" transform="translate(22.28 5.034)">
    <path id="Trazado_181842" data-name="Trazado 181842" d="M2612.586-895.8a48.678,48.678,0,0,1,38.983-19.475,48.659,48.659,0,0,1,38.551,18.926C2688.444-895.666,2613.814-895.291,2612.586-895.8Z" transform="translate(-2612.067 915.609)" fill="#f7270d"/>
    <path id="Trazado_181843" data-name="Trazado 181843" d="M2630.131-895.411c-10.092,0-17.5-.076-17.939-.258l-.392-.164.255-.34a48.716,48.716,0,0,1,39.247-19.606,48.787,48.787,0,0,1,38.812,19.054l.266.343-.4.164C2688.946-895.795,2652.787-895.411,2630.131-895.411Zm-17.206-.816c6.618.49,69.885.046,76.321-.535a48.122,48.122,0,0,0-37.945-18.357A48.048,48.048,0,0,0,2612.925-896.227Z" transform="translate(-2611.8 915.779)" fill="#fff"/>
  </g>
  <g id="Grupo_184719" data-name="Grupo 184719" transform="translate(19.182 23.959)">
    <path id="Trazado_181844" data-name="Trazado 181844" d="M2610.954-886.054l-3.168,10.44,84.148-1.993-3.446-9Z" transform="translate(-2607.338 886.934)" fill="#fff"/>
    <path id="Trazado_181845" data-name="Trazado 181845" d="M2607.107-875.444l3.371-11.109.243,0,77.764-.55,3.7,9.646-.468.011Zm3.861-10.452L2608-876.125l83.225-1.971-3.2-8.345Z" transform="translate(-2607.107 887.105)" fill="#f7270d"/>
  </g>
</svg>
