<svg xmlns="http://www.w3.org/2000/svg" width="154.022" height="213.991" viewBox="0 0 154.022 213.991">
  <g id="Grupo_184869" data-name="Grupo 184869" transform="translate(-965.277 -1908.464)">
    <g id="Grupo_184722" data-name="Grupo 184722" transform="translate(1016.695 1937.074)">
      <g id="Grupo_184721" data-name="Grupo 184721">
        <path id="Trazado_181846" data-name="Trazado 181846" d="M3216.174-888.378a21.275,21.275,0,0,1,10.624-.576c.519.1.74-.693.22-.8a22.17,22.17,0,0,0-11.063.576c-.5.158-.289.955.219.8Z" transform="translate(-3215.667 890.192)"/>
      </g>
    </g>
    <g id="Grupo_184723" data-name="Grupo 184723" transform="translate(1063.095 2060.163)">
      <ellipse id="Elipse_3671" data-name="Elipse 3671" cx="27.283" cy="7.749" rx="27.283" ry="7.749" transform="translate(0 21.868) rotate(-23.625)"/>
      <path id="Trazado_181847" data-name="Trazado 181847" d="M3296.138-669.884c-3.27,0-5.368-.785-6.031-2.3-1.815-4.151,7.874-12.262,22.061-18.468s26.72-7.816,28.536-3.664h0c1.815,4.151-7.875,12.262-22.061,18.468a74.088,74.088,0,0,1-18.672,5.677A28.622,28.622,0,0,1,3296.138-669.884Zm38.637-26.073c-5.256,0-13.648,2.106-22.342,5.909-13.385,5.855-23.332,13.914-21.721,17.6.754,1.723,4.1,2.315,9.17,1.623a73.437,73.437,0,0,0,18.5-5.628c13.385-5.855,23.332-13.914,21.72-17.6C3339.536-695.344,3337.612-695.957,3334.775-695.957Z" transform="translate(-3287.304 701.284)" fill="#fff"/>
    </g>
    <g id="Grupo_184724" data-name="Grupo 184724" transform="translate(971.551 1924.509)">
      <path id="Trazado_181848" data-name="Trazado 181848" d="M3252.4-883.762c4.95-9.9,3.659-23.462,3.659-23.462a54.539,54.539,0,0,0-28.352,6.149,44.613,44.613,0,0,0-24.384-7.656,46.858,46.858,0,0,0-26.643,8.556h0s-9.09-8.34-28.678-5.972c0,0-2.434,11.386,9.223,32.061l.006-.007a47.955,47.955,0,0,0-2.34,14.763c0,26.927,22.753,48.109,48.432,48.109s49.078-18.6,49.078-45.526a49.854,49.854,0,0,0-3.627-18.417h0v0c-.04-.1-.08-.2-.121-.3C3248.818-876.177,3249.62-878.2,3252.4-883.762Z" transform="translate(-3147.443 909.061)" fill="#98d8df"/>
      <path id="Trazado_181849" data-name="Trazado 181849" d="M3203.143-811.062a49.368,49.368,0,0,1-34.075-14.051,47.7,47.7,0,0,1-14.686-34.388,48.273,48.273,0,0,1,2.308-14.716c-11.509-20.471-9.29-31.7-9.189-32.171l.049-.23.234-.028c10.185-1.231,17.5.472,21.841,2.117a24.761,24.761,0,0,1,6.9,3.767,46.983,46.983,0,0,1,26.62-8.469,44.89,44.89,0,0,1,24.4,7.6,55.854,55.854,0,0,1,28.357-6.092l.284.015.027.284c.013.137,1.244,13.769-3.692,23.641a63.222,63.222,0,0,0-3.7,8.122l.083.2a50.009,50.009,0,0,1,3.65,18.54,43.7,43.7,0,0,1-15.021,33.107A52.437,52.437,0,0,1,3203.143-811.062Zm-45.212-64.862-.566,1.761a47.636,47.636,0,0,0-2.324,14.661,47.044,47.044,0,0,0,14.487,33.916,48.7,48.7,0,0,0,33.615,13.864,51.774,51.774,0,0,0,33.949-12.583,43.048,43.048,0,0,0,14.8-32.614,49.325,49.325,0,0,0-3.6-18.295l-.162-.4.025-.1a62.5,62.5,0,0,1,3.774-8.364c4.461-8.922,3.8-21,3.649-23a54.61,54.61,0,0,0-27.878,6.117l-.177.1-.172-.113a44.278,44.278,0,0,0-24.2-7.6,46.36,46.36,0,0,0-26.456,8.5l-1.858,1.288,1.213-1.516a24.829,24.829,0,0,0-6.69-3.625c-4.232-1.6-11.342-3.25-21.245-2.093-.248,1.7-1.314,12.707,8.983,31.169Z" transform="translate(-3147.265 909.231)" fill="#96d8e8"/>
    </g>
    <g id="Grupo_184725" data-name="Grupo 184725" transform="translate(965.277 2001.801)">
      <path id="Trazado_181850" data-name="Trazado 181850" d="M3265.515-728.1c0-20.664-21.956-63.068-21.956-63.068s-15.5,21.17-40.9,21.525c-30.781.43-43.266-20.449-43.266-20.449s-23.893,35.947-20.879,61.993c3.5,30.232,33.712,55.1,64.145,55.1C3239.47-673,3265.515-697.67,3265.515-728.1Z" transform="translate(-3137.927 791.796)"/>
      <path id="Trazado_181851" data-name="Trazado 181851" d="M3202.5-672.991h0c-14.72,0-30.169-5.939-42.386-16.294-12.556-10.642-20.4-24.529-22.086-39.1-2.993-25.866,20.693-61.853,20.933-62.214l.289-.435.269.448c.123.205,12.5,20.3,42.059,20.3.306,0,.61,0,.919-.006,24.938-.349,40.483-21.18,40.636-21.391l.315-.429.244.473c.22.424,21.993,42.713,21.993,63.22a52.176,52.176,0,0,1-17.733,39.211C3236.285-678.753,3220.144-672.991,3202.5-672.991Zm-43.269-116.82a175.037,175.037,0,0,0-11.273,20.769c-5.086,11.129-10.825,27.2-9.277,40.579,1.667,14.406,9.429,28.141,21.857,38.675,12.1,10.255,27.393,16.137,41.959,16.137,17.488,0,33.473-5.7,45.01-16.055a51.525,51.525,0,0,0,17.514-38.72c0-19.2-19.313-57.794-21.683-62.455-2.368,2.988-17.552,20.916-40.836,21.242-15.981.217-26.977-5.385-33.377-10.128A43.029,43.029,0,0,1,3159.227-789.811Z" transform="translate(-3137.759 792.118)" fill="#fff"/>
    </g>
    <g id="Grupo_184726" data-name="Grupo 184726" transform="translate(982.864 2046.337)">
      <path id="Trazado_181852" data-name="Trazado 181852" d="M3164.907-724.638v59.087h29.059v-59.087" transform="translate(-3164.577 724.638)"/>
      <path id="Trazado_181853" data-name="Trazado 181853" d="M3194.126-665.221h-29.719v-59.417h.66v58.757h28.4v-58.757h.66Z" transform="translate(-3164.407 724.638)" fill="#f79610"/>
    </g>
    <g id="Grupo_184727" data-name="Grupo 184727" transform="translate(1046.148 2046.337)">
      <path id="Trazado_181854" data-name="Trazado 181854" d="M3260.795-724.638v59.087h29.059v-59.087" transform="translate(-3260.465 724.638)"/>
      <path id="Trazado_181855" data-name="Trazado 181855" d="M3290.014-665.221H3260.3v-59.417h.66v58.757h28.4v-58.757h.66Z" transform="translate(-3260.295 724.638)" fill="#f79610"/>
    </g>
    <g id="Grupo_184728" data-name="Grupo 184728" transform="translate(974.317 1928.817)">
      <path id="Trazado_181856" data-name="Trazado 181856" d="M3158.691-873.8s5.2-15.58,17.463-23.117c0,0-7.979-8.04-24.7-5.168C3151.455-902.084,3152-884.568,3158.691-873.8Z" transform="translate(-3151.455 902.704)" fill="#a9690f"/>
    </g>
    <g id="Grupo_184729" data-name="Grupo 184729" transform="translate(1054.328 1928.568)">
      <path id="Trazado_181857" data-name="Trazado 181857" d="M3290.906-876.237s-5.9-15.721-18.217-22.243c0,0,7.509-6.119,23.944-4.243C3296.633-902.723,3296.894-886.777,3290.906-876.237Z" transform="translate(-3272.689 903.081)" fill="#a9690f"/>
    </g>
    <g id="Grupo_184730" data-name="Grupo 184730" transform="translate(1053.049 1939.246)">
      <circle id="Elipse_3672" data-name="Elipse 3672" cx="2.713" cy="2.713" r="2.713" transform="translate(0.33 0.33)" fill="#afda26"/>
      <path id="Trazado_181858" data-name="Trazado 181858" d="M3273.793-880.815a3.046,3.046,0,0,1-3.043-3.042,3.046,3.046,0,0,1,3.043-3.043,3.046,3.046,0,0,1,3.043,3.043A3.046,3.046,0,0,1,3273.793-880.815Zm0-5.426a2.386,2.386,0,0,0-2.383,2.383,2.386,2.386,0,0,0,2.383,2.382,2.385,2.385,0,0,0,2.383-2.382A2.385,2.385,0,0,0,3273.793-886.241Z" transform="translate(-3270.75 886.901)" fill="#f79610"/>
    </g>
    <g id="Grupo_184731" data-name="Grupo 184731" transform="translate(1018.886 1932.596)">
      <ellipse id="Elipse_3673" data-name="Elipse 3673" cx="3.496" cy="2.64" rx="3.496" ry="2.64" transform="matrix(0.706, -0.709, 0.709, 0.706, 0, 4.955)" fill="#afda26"/>
      <path id="Trazado_181859" data-name="Trazado 181859" d="M3222.938-888.738a2.556,2.556,0,0,1-1.844-.719,2.672,2.672,0,0,1-.693-2.321,4.44,4.44,0,0,1,1.289-2.485,4.438,4.438,0,0,1,2.48-1.3,2.667,2.667,0,0,1,2.324.684,2.672,2.672,0,0,1,.694,2.322,4.438,4.438,0,0,1-1.29,2.485,4.444,4.444,0,0,1-2.479,1.3A3.441,3.441,0,0,1,3222.938-888.738Zm1.709-6.2a2.671,2.671,0,0,0-.385.028,3.779,3.779,0,0,0-2.1,1.113,3.776,3.776,0,0,0-1.1,2.109,2.027,2.027,0,0,0,.506,1.763,2.027,2.027,0,0,0,1.766.5,3.783,3.783,0,0,0,2.1-1.113,3.782,3.782,0,0,0,1.1-2.109,2.032,2.032,0,0,0-.506-1.764h0A1.908,1.908,0,0,0,3224.647-894.939Z" transform="translate(-3219.456 896.509)" fill="#f79610"/>
    </g>
    <g id="Grupo_184732" data-name="Grupo 184732" transform="translate(1013.215 1929.495)">
      <circle id="Elipse_3674" data-name="Elipse 3674" cx="1.774" cy="1.774" r="1.774" transform="translate(0.33 0.33)" fill="#afda26"/>
      <path id="Trazado_181860" data-name="Trazado 181860" d="M3212.5-897.469a2.106,2.106,0,0,1-2.1-2.1,2.106,2.106,0,0,1,2.1-2.1,2.106,2.106,0,0,1,2.1,2.1A2.106,2.106,0,0,1,3212.5-897.469Zm0-3.547a1.446,1.446,0,0,0-1.444,1.443,1.446,1.446,0,0,0,1.444,1.444,1.446,1.446,0,0,0,1.443-1.444A1.445,1.445,0,0,0,3212.5-901.016Z" transform="translate(-3210.394 901.676)" fill="#f79610"/>
    </g>
    <g id="Grupo_184733" data-name="Grupo 184733" transform="translate(1035.213 1931.269)">
      <circle id="Elipse_3675" data-name="Elipse 3675" cx="3.186" cy="3.186" r="3.186" transform="translate(0.33 0.33)" fill="#afda26"/>
      <path id="Trazado_181861" data-name="Trazado 181861" d="M3247.242-891.957a3.52,3.52,0,0,1-3.517-3.516,3.521,3.521,0,0,1,3.517-3.516,3.52,3.52,0,0,1,3.515,3.516A3.52,3.52,0,0,1,3247.242-891.957Zm0-6.372a2.86,2.86,0,0,0-2.857,2.856,2.86,2.86,0,0,0,2.857,2.856,2.859,2.859,0,0,0,2.855-2.856A2.859,2.859,0,0,0,3247.242-898.329Z" transform="translate(-3243.725 898.989)" fill="#f79610"/>
    </g>
    <g id="Grupo_184734" data-name="Grupo 184734" transform="translate(1028.376 1964.302)">
      <circle id="Elipse_3676" data-name="Elipse 3676" cx="1.789" cy="1.789" r="1.789" transform="translate(0.33 0.33)" fill="#afda26"/>
      <path id="Trazado_181862" data-name="Trazado 181862" d="M3235.485-844.7a2.122,2.122,0,0,1-2.12-2.119,2.122,2.122,0,0,1,2.12-2.119,2.122,2.122,0,0,1,2.12,2.119A2.122,2.122,0,0,1,3235.485-844.7Zm0-3.578a1.461,1.461,0,0,0-1.459,1.459,1.461,1.461,0,0,0,1.459,1.459,1.462,1.462,0,0,0,1.46-1.459A1.461,1.461,0,0,0,3235.485-848.276Z" transform="translate(-3233.366 848.936)" fill="#f79610"/>
    </g>
    <g id="Grupo_184735" data-name="Grupo 184735" transform="translate(997.394 1938.161)">
      <circle id="Elipse_3677" data-name="Elipse 3677" cx="2.193" cy="2.193" r="2.193" transform="translate(0.33 0.33)" fill="#afda26"/>
      <path id="Trazado_181863" data-name="Trazado 181863" d="M3188.946-883.5a2.526,2.526,0,0,1-2.523-2.522,2.526,2.526,0,0,1,2.523-2.523,2.525,2.525,0,0,1,2.522,2.523A2.525,2.525,0,0,1,3188.946-883.5Zm0-4.385a1.865,1.865,0,0,0-1.863,1.863,1.865,1.865,0,0,0,1.863,1.862,1.865,1.865,0,0,0,1.862-1.862A1.865,1.865,0,0,0,3188.946-887.886Z" transform="translate(-3186.422 888.546)" fill="#f79610"/>
    </g>
    <g id="Grupo_184736" data-name="Grupo 184736" transform="translate(1049.414 1969.359)">
      <path id="Trazado_181864" data-name="Trazado 181864" d="M3265.243-841.274" transform="translate(-3265.243 841.274)" fill="#afda26" stroke="#f79610" stroke-miterlimit="10" stroke-width="1"/>
    </g>
    <g id="Grupo_184737" data-name="Grupo 184737" transform="translate(978.271 2100.485)">
      <ellipse id="Elipse_3678" data-name="Elipse 3678" cx="18.888" cy="10.332" rx="18.888" ry="10.332" transform="translate(0.33 0.33)" fill="#f8c328"/>
      <path id="Trazado_181865" data-name="Trazado 181865" d="M3176.666-621.269c-10.6,0-19.218-4.783-19.218-10.661s8.621-10.663,19.218-10.663,19.218,4.783,19.218,10.663S3187.263-621.269,3176.666-621.269Zm0-20.664c-10.233,0-18.559,4.487-18.559,10s8.325,10,18.559,10,18.558-4.487,18.558-10S3186.9-641.933,3176.666-641.933Z" transform="translate(-3157.447 642.593)" fill="#f5c07f"/>
    </g>
    <g id="Grupo_184738" data-name="Grupo 184738" transform="translate(1041.585 2101.131)">
      <ellipse id="Elipse_3679" data-name="Elipse 3679" cx="18.888" cy="10.332" rx="18.888" ry="10.332" transform="translate(0.33 0.33)" fill="#f8c328"/>
      <path id="Trazado_181866" data-name="Trazado 181866" d="M3272.6-620.29c-10.6,0-19.219-4.783-19.219-10.662s8.622-10.662,19.219-10.662,19.218,4.783,19.218,10.662S3283.2-620.29,3272.6-620.29Zm0-20.664c-10.234,0-18.559,4.487-18.559,10s8.325,10,18.559,10,18.558-4.487,18.558-10S3282.832-640.954,3272.6-640.954Z" transform="translate(-3253.38 641.614)" fill="#f5c07f"/>
    </g>
    <g id="Grupo_184739" data-name="Grupo 184739" transform="translate(1004.248 1986.105)">
      <path id="Trazado_181867" data-name="Trazado 181867" d="M3197.4-815.4s2.69,15.979,22.583,16.23,25.554-16.23,25.554-16.23Z" transform="translate(-3197.008 815.731)" fill="#f37cbc"/>
      <path id="Trazado_181868" data-name="Trazado 181868" d="M3220.221-799.008c-.149,0-.3,0-.446,0-10.406-.131-16.079-4.6-19.005-8.335a19.876,19.876,0,0,1-3.9-8.17l-.065-.385H3245.8l-.151.437C3245.589-815.3,3239.762-799.008,3220.221-799.008Zm-22.615-16.233c.582,2.416,4.526,15.348,22.177,15.57,10.125.137,16.461-4.224,19.974-7.9a25.858,25.858,0,0,0,5.093-7.672Z" transform="translate(-3196.807 815.901)" fill="#2d9d2e"/>
    </g>
    <g id="Grupo_184740" data-name="Grupo 184740" transform="translate(1001.004 1964.853)">
      <path id="Trazado_181869" data-name="Trazado 181869" d="M3247.124-834.352a14.63,14.63,0,0,1-.568,4.768c-.6,1.971-2.645,3.553-5.367,4.816-6.292,3.495-20.822,4.685-20.822,4.685s-.215-.014-.6-.047c-.387.032-.6.047-.6.047s-14.531-1.191-20.822-4.685c-2.722-1.263-4.769-2.844-5.367-4.816a14.63,14.63,0,0,1-.567-4.768c-.033-1.41.021-3.05.038-5.073.055-6.526,7.779-8.823,13.19-8.035,2.348.341,10.949,8.367,12.721,9.659,3.129,1.653-1.725,10.727,1.41,10.911,3.135-.184-1.719-9.258,1.41-10.911,1.771-1.293,10.374-9.318,12.721-9.659,5.412-.787,13.135,1.509,13.19,8.035C3247.1-837.4,3247.157-835.761,3247.124-834.352Z" transform="translate(-3192.063 847.934)" fill="#f8c328"/>
      <path id="Trazado_181870" data-name="Trazado 181870" d="M3219.014-819.921c-.646-.05-14.724-1.237-21.006-4.726-3.084-1.431-4.949-3.119-5.522-5.009a14.855,14.855,0,0,1-.582-4.876c-.022-.917-.006-1.941.012-3.127.01-.605.02-1.249.026-1.936a7.271,7.271,0,0,1,2.652-5.672c2.944-2.526,7.6-3.17,10.915-2.687,1.67.242,5.782,3.683,10.209,7.492,1.224,1.053,2.19,1.885,2.66,2.227a2.611,2.611,0,0,1,1.218,2.308,2.657,2.657,0,0,1,1.252-2.333c.429-.317,1.395-1.149,2.618-2.2,4.428-3.81,8.54-7.25,10.21-7.493,3.313-.482,7.972.162,10.915,2.687a7.277,7.277,0,0,1,2.652,5.673c.006.688.016,1.331.025,1.936.019,1.181.035,2.2.013,3.137a14.867,14.867,0,0,1-.581,4.866c-.573,1.89-2.439,3.578-5.545,5.019-6.26,3.479-20.337,4.666-20.934,4.715-.065-.015-.266-.015-.657-.047C3219.231-819.936,3219.014-819.921,3219.014-819.921Zm.552-.706.654.047c.1-.011,14.482-1.224,20.639-4.644,2.949-1.37,4.7-2.922,5.212-4.623a14.2,14.2,0,0,0,.553-4.66v-.02c.022-.923.005-1.942-.013-3.121-.01-.607-.019-1.251-.026-1.94a6.64,6.64,0,0,0-2.421-5.177c-2.786-2.39-7.226-2.994-10.391-2.535-1.617.236-6.787,4.682-9.875,7.34-1.235,1.063-2.21,1.9-2.7,2.259-1.423.756-.958,3.449-.548,5.826.352,2.037.655,3.8-.027,4.656a1.328,1.328,0,0,1-1.011.493,1.345,1.345,0,0,1-1.049-.493c-.682-.859-.379-2.619-.027-4.656.41-2.377.875-5.07-.508-5.8-.531-.383-1.506-1.223-2.741-2.286-3.088-2.657-8.256-7.1-9.874-7.34-3.166-.46-7.6.145-10.391,2.535a6.638,6.638,0,0,0-2.421,5.177c-.006.689-.016,1.334-.026,1.94-.018,1.179-.034,2.2-.013,3.121a14.265,14.265,0,0,0,.554,4.681c.516,1.7,2.262,3.253,5.189,4.612,6.127,3.4,20.322,4.623,20.7,4.655C3219.015-820.583,3219.222-820.6,3219.566-820.627Zm.029-14.1a28.867,28.867,0,0,1-.408,2.958c-.3,1.723-.6,3.506-.107,4.133a.677.677,0,0,0,.532.245.661.661,0,0,0,.495-.245c.5-.628.19-2.41-.107-4.133A28.337,28.337,0,0,1,3219.6-834.722Z" transform="translate(-3191.893 848.103)" fill="#e86410"/>
    </g>
    <g id="Grupo_184741" data-name="Grupo 184741" transform="translate(1021.037 1966.422)">
      <path id="Trazado_181871" data-name="Trazado 181871" d="M3222.246-841.2s3.334,5.395,8.058,5.075,7.28-5.075,7.28-5.075a8.808,8.808,0,0,0-7.03-4.511C3225.567-846.061,3222.246-841.2,3222.246-841.2Z" transform="translate(-3222.246 845.725)" fill="#e97ebd"/>
    </g>
    <g id="Grupo_184742" data-name="Grupo 184742" transform="translate(997.135 1951.489)">
      <path id="Trazado_181872" data-name="Trazado 181872" d="M3212.854-852.794c-1.506,5.328-8.556,8-15.749,5.968s-11.8-13.716-10.3-19.044,7.469,1.57,14.661,3.6S3214.359-858.122,3212.854-852.794Z" transform="translate(-3186.197 868.181)" fill="#fff"/>
      <path id="Trazado_181873" data-name="Trazado 181873" d="M3201.763-845.984a18.138,18.138,0,0,1-4.915-.7c-7.358-2.079-12.07-13.982-10.525-19.452a2.835,2.835,0,0,1,1.523-2.051c1.521-.628,3.678.587,6.406,2.126a33.456,33.456,0,0,0,7.138,3.3c3.932,1.111,6.976,2.139,9.05,3.546,2.458,1.668,3.3,3.74,2.563,6.336l-.317-.09.317.09a9.2,9.2,0,0,1-5.942,5.963A14.967,14.967,0,0,1,3201.763-845.984ZM3188.75-867.69a1.7,1.7,0,0,0-.653.118,2.24,2.24,0,0,0-1.14,1.62c-.724,2.563.008,6.694,1.866,10.525,2.07,4.267,5.061,7.225,8.2,8.113a15.807,15.807,0,0,0,9.8-.215,8.561,8.561,0,0,0,5.542-5.525h0c.655-2.319-.075-4.1-2.3-5.61-2-1.357-4.988-2.363-8.859-3.457a33.953,33.953,0,0,1-7.282-3.359C3191.852-866.653,3190.013-867.69,3188.75-867.69Z" transform="translate(-3186.03 868.351)"/>
    </g>
    <g id="Grupo_184743" data-name="Grupo 184743" transform="translate(1005.102 1958.96)">
      <circle id="Elipse_3680" data-name="Elipse 3680" cx="5.312" cy="5.312" r="5.312" transform="translate(0.333 0.333)"/>
      <path id="Trazado_181874" data-name="Trazado 181874" d="M3203.756-845.741a5.675,5.675,0,0,1-1.543-.215,5.6,5.6,0,0,1-3.39-2.676,5.6,5.6,0,0,1-.506-4.289,5.608,5.608,0,0,1,2.676-3.39,5.6,5.6,0,0,1,4.289-.5,5.6,5.6,0,0,1,3.39,2.675,5.6,5.6,0,0,1,.5,4.289h0a5.6,5.6,0,0,1-2.675,3.39A5.616,5.616,0,0,1,3203.756-845.741Zm-.016-10.63a4.959,4.959,0,0,0-2.425.636,4.952,4.952,0,0,0-2.363,2.994,4.951,4.951,0,0,0,.447,3.787,4.953,4.953,0,0,0,2.994,2.363,4.952,4.952,0,0,0,3.787-.447,4.949,4.949,0,0,0,2.363-2.993h0a4.95,4.95,0,0,0-.447-3.788,4.951,4.951,0,0,0-2.994-2.363A5.017,5.017,0,0,0,3203.74-856.37Z" transform="translate(-3198.102 857.031)" fill="#fff"/>
    </g>
    <g id="Grupo_184744" data-name="Grupo 184744" transform="translate(1034.001 1951.724)">
      <path id="Trazado_181875" data-name="Trazado 181875" d="M3268.839-865.458c1.355,5.368-3.419,16.921-10.666,18.751s-14.219-1.038-15.575-6.406,4.4-7.322,11.646-9.152S3267.484-870.826,3268.839-865.458Z" transform="translate(-3242.063 867.826)" fill="#fff"/>
      <path id="Trazado_181876" data-name="Trazado 181876" d="M3253.623-845.993a15.119,15.119,0,0,1-5.745-1.083,9.2,9.2,0,0,1-5.773-6.127c-1.438-5.7,4.532-7.7,11.885-9.553a32.679,32.679,0,0,0,7.225-3.122c2.7-1.443,4.831-2.582,6.308-1.929a2.837,2.837,0,0,1,1.463,2.1h0c1.4,5.526-3.566,17.3-10.9,19.152A18.259,18.259,0,0,1,3253.623-845.993Zm12.945-21.342c-1.229,0-3.021.958-5.042,2.038a33.172,33.172,0,0,1-7.374,3.181c-7,1.768-12.7,3.648-11.406,8.751a8.561,8.561,0,0,0,5.384,5.678,15.794,15.794,0,0,0,9.79.488c7.022-1.773,11.764-13.054,10.427-18.349h0a2.244,2.244,0,0,0-1.091-1.657A1.683,1.683,0,0,0,3266.568-867.335Z" transform="translate(-3241.89 867.996)"/>
    </g>
    <g id="Grupo_184745" data-name="Grupo 184745" transform="translate(1042.028 1958.962)">
      <circle id="Elipse_3681" data-name="Elipse 3681" cx="5.312" cy="5.312" r="5.312" transform="translate(0.332 0.331)"/>
      <path id="Trazado_181877" data-name="Trazado 181877" d="M3259.7-845.742a5.652,5.652,0,0,1-5.471-4.261,5.6,5.6,0,0,1,.625-4.273,5.606,5.606,0,0,1,3.464-2.579,5.649,5.649,0,0,1,6.853,4.089h0a5.65,5.65,0,0,1-4.089,6.853A5.625,5.625,0,0,1,3259.7-845.742Zm0-10.626a4.979,4.979,0,0,0-1.219.152,4.95,4.95,0,0,0-3.058,2.278,4.947,4.947,0,0,0-.553,3.773,4.988,4.988,0,0,0,6.051,3.611,4.988,4.988,0,0,0,3.611-6.051h0A4.992,4.992,0,0,0,3259.7-856.367Z" transform="translate(-3254.052 857.027)" fill="#fff"/>
    </g>
    <g id="Grupo_184746" data-name="Grupo 184746" transform="translate(972.21 1908.464)">
      <path id="Trazado_181878" data-name="Trazado 181878" d="M3150.62-899.628l19.048-2.414s7.006-8.877,20.732-12.523l7.492-6.616-5.718-5.61,12.617-5.61-4.712,7.26,11.114,8.362s17.839,3.066,29.805,17.151l14.131,3.368S3181.922-889.954,3150.62-899.628Z" transform="translate(-3149.064 933.155)"/>
      <path id="Trazado_181879" data-name="Trazado 181879" d="M3204.911-894.326c-20.048,0-41.626-1.183-55.189-5.375l-1.458-.451,20.432-2.589a42.507,42.507,0,0,1,20.743-12.511l7.168-6.33-5.811-5.7,14.078-6.259-5.151,7.935,10.806,8.13c1.321.249,18.354,3.7,29.85,17.165l16.016,3.818-2.038.176C3253.944-896.284,3230.693-894.326,3204.911-894.326Zm-53.487-5.561c28.6,8.042,88.839,3.984,100.794,3.076l-12.2-2.909-.07-.082c-11.747-13.827-29.432-17.009-29.609-17.039l-.079-.014-11.424-8.595,4.274-6.585-11.157,4.961,5.625,5.518-7.816,6.9-.075.02a41.537,41.537,0,0,0-20.558,12.409l-.084.106Z" transform="translate(-3148.263 933.543)"/>
    </g>
    <g id="Grupo_184747" data-name="Grupo 184747" transform="translate(1023.704 2032.303)">
      <ellipse id="Elipse_3682" data-name="Elipse 3682" cx="5.152" cy="10.23" rx="5.152" ry="10.23" transform="translate(0.33 0.33)" fill="#c4d316"/>
      <path id="Trazado_181880" data-name="Trazado 181880" d="M3231.769-724.782c-3.074,0-5.482-4.638-5.482-10.56s2.408-10.56,5.482-10.56,5.482,4.638,5.482,10.56S3234.843-724.782,3231.769-724.782Zm0-20.459c-2.659,0-4.822,4.441-4.822,9.9s2.163,9.9,4.822,9.9,4.822-4.441,4.822-9.9S3234.428-745.241,3231.769-745.241Z" transform="translate(-3226.287 745.901)" fill="#fff"/>
    </g>
    <g id="Grupo_184748" data-name="Grupo 184748" transform="translate(981.764 2011.127)">
      <path id="Trazado_181881" data-name="Trazado 181881" d="M3204.926-745.932c-24.848-6.555-42.016-31.433-42.186-31.684l.545-.371c.169.248,17.2,24.925,41.809,31.416Z" transform="translate(-3162.74 777.987)" fill="#c4d316"/>
    </g>
    <g id="Grupo_184749" data-name="Grupo 184749" transform="translate(1034.251 2011.115)">
      <path id="Trazado_181882" data-name="Trazado 181882" d="M3242.442-745.94l-.174-.637c21.392-5.841,40.555-31.174,40.746-31.43l.529.4C3283.351-777.353,3264.055-751.841,3242.442-745.94Z" transform="translate(-3242.268 778.006)" fill="#c4d316"/>
    </g>
    <g id="Grupo_184750" data-name="Grupo 184750" transform="translate(992.813 1933.395)">
      <path id="Trazado_181883" data-name="Trazado 181883" d="M3214.6-894.377l30.868,1.339,5.339,5.867s-59.92.556-71.33-2.414a19.99,19.99,0,0,1,7.973-6.181Z" transform="translate(-3179.481 895.767)"/>
    </g>
    <g id="Grupo_184751" data-name="Grupo 184751" transform="translate(1020.006 2012.733)">
      <circle id="Elipse_3683" data-name="Elipse 3683" cx="2.887" cy="2.887" r="2.887" transform="translate(0.33 0.33)" fill="#afda26"/>
      <path id="Trazado_181884" data-name="Trazado 181884" d="M3223.906-769.119a3.222,3.222,0,0,1-2.952-1.928,3.222,3.222,0,0,1,1.658-4.237,3.22,3.22,0,0,1,4.237,1.658,3.22,3.22,0,0,1-1.658,4.237A3.192,3.192,0,0,1,3223.906-769.119Zm-.005-5.776a2.548,2.548,0,0,0-1.024.216,2.56,2.56,0,0,0-1.318,3.368,2.561,2.561,0,0,0,3.368,1.318,2.54,2.54,0,0,0,1.357-1.411,2.539,2.539,0,0,0-.039-1.957,2.539,2.539,0,0,0-1.411-1.356A2.538,2.538,0,0,0,3223.9-774.9Z" transform="translate(-3220.685 775.554)" fill="#f79610"/>
    </g>
  </g>
</svg>
