<svg id="Grupo_184785" data-name="Grupo 184785" xmlns="http://www.w3.org/2000/svg" width="154.022" height="197.945" viewBox="0 0 154.022 197.945">
  <g id="Grupo_184753" data-name="Grupo 184753" transform="translate(51.418 12.565)">
    <g id="Grupo_184752" data-name="Grupo 184752">
      <path id="Trazado_181885" data-name="Trazado 181885" d="M3499.186-896a21.282,21.282,0,0,1,10.624-.577c.518.1.74-.692.219-.8a22.181,22.181,0,0,0-11.062.576c-.5.158-.29.955.219.8Z" transform="translate(-3498.679 897.81)"/>
    </g>
  </g>
  <g id="Grupo_184754" data-name="Grupo 184754" transform="translate(97.818 135.654)">
    <ellipse id="Elipse_3684" data-name="Elipse 3684" cx="27.283" cy="7.749" rx="27.283" ry="7.749" transform="translate(0 21.868) rotate(-23.625)"/>
    <path id="Trazado_181886" data-name="Trazado 181886" d="M3579.15-677.5c-3.271,0-5.368-.785-6.032-2.3-1.815-4.15,7.875-12.262,22.061-18.467s26.721-7.814,28.537-3.664h0c.894,2.043-.959,5.1-5.218,8.609a74.072,74.072,0,0,1-16.843,9.859,74.084,74.084,0,0,1-18.672,5.677A28.622,28.622,0,0,1,3579.15-677.5Zm38.637-26.073c-5.257,0-13.648,2.107-22.343,5.91-13.386,5.855-23.333,13.915-21.721,17.6.754,1.723,4.1,2.315,9.171,1.624a73.465,73.465,0,0,0,18.5-5.628,73.483,73.483,0,0,0,16.688-9.763c3.952-3.256,5.787-6.113,5.033-7.836h0C3622.547-702.961,3620.622-703.576,3617.787-703.576Z" transform="translate(-3570.315 708.903)" fill="#fff"/>
  </g>
  <g id="Grupo_184755" data-name="Grupo 184755" transform="translate(6.274)">
    <path id="Trazado_181887" data-name="Trazado 181887" d="M3535.41-891.38c4.951-9.9,3.66-23.462,3.66-23.462a54.532,54.532,0,0,0-28.352,6.148,44.622,44.622,0,0,0-24.385-7.655,46.856,46.856,0,0,0-26.643,8.556v0s-9.09-8.339-28.677-5.971c0,0-2.435,11.387,9.222,32.062l.005-.007a47.94,47.94,0,0,0-2.34,14.763c0,26.927,22.754,48.109,48.431,48.109s49.078-18.6,49.078-45.525a49.863,49.863,0,0,0-3.626-18.417h0v0c-.04-.1-.081-.2-.121-.3C3531.83-883.8,3532.631-885.822,3535.41-891.38Z" transform="translate(-3430.455 916.679)" fill="#d5ec7b"/>
    <path id="Trazado_181888" data-name="Trazado 181888" d="M3486.154-818.68a49.371,49.371,0,0,1-34.075-14.05,47.7,47.7,0,0,1-14.686-34.388,48.274,48.274,0,0,1,2.308-14.716c-11.506-20.469-9.289-31.7-9.189-32.17l.048-.23.235-.028c10.185-1.232,17.5.471,21.841,2.117a24.778,24.778,0,0,1,6.9,3.766,46.977,46.977,0,0,1,26.619-8.469,44.9,44.9,0,0,1,24.4,7.6,55.808,55.808,0,0,1,28.357-6.092l.284.014.027.284c.013.137,1.243,13.769-3.693,23.641h0a63.125,63.125,0,0,0-3.7,8.123l.083.2a50,50,0,0,1,3.65,18.54,43.7,43.7,0,0,1-15.021,33.107A52.442,52.442,0,0,1,3486.154-818.68Zm-45.162-65.015-.615,1.914a47.622,47.622,0,0,0-2.324,14.662,47.048,47.048,0,0,0,14.486,33.915,48.706,48.706,0,0,0,33.615,13.863,51.773,51.773,0,0,0,33.95-12.583,43.048,43.048,0,0,0,14.8-32.613,49.338,49.338,0,0,0-3.6-18.295l-.162-.4.024-.1a62.694,62.694,0,0,1,3.775-8.365h0c4.458-8.917,3.795-21,3.648-23a54.645,54.645,0,0,0-27.877,6.117l-.177.106-.173-.113a44.279,44.279,0,0,0-24.2-7.6,46.361,46.361,0,0,0-26.455,8.5l-1.858,1.288,1.213-1.515a24.811,24.811,0,0,0-6.69-3.625c-4.232-1.6-11.341-3.251-21.244-2.094-.249,1.7-1.313,12.7,8.976,31.156Z" transform="translate(-3430.277 916.849)" fill="#6fbc29"/>
  </g>
  <g id="Grupo_184756" data-name="Grupo 184756" transform="translate(0 77.292)">
    <path id="Trazado_181889" data-name="Trazado 181889" d="M3548.526-735.722c0-20.665-21.956-63.069-21.956-63.069s-15.5,21.17-40.9,21.525c-30.781.43-43.266-20.449-43.266-20.449s-23.893,35.947-20.88,61.993c3.5,30.232,33.711,55.1,64.146,55.1C3522.48-680.617,3548.526-705.289,3548.526-735.722Z" transform="translate(-3420.939 799.415)"/>
    <path id="Trazado_181890" data-name="Trazado 181890" d="M3485.507-680.609h0c-14.721,0-30.17-5.939-42.386-16.294-12.556-10.642-20.4-24.529-22.086-39.1-2.993-25.866,20.693-61.853,20.932-62.213l.29-.435.269.449c.124.207,12.736,20.731,42.978,20.288,24.948-.348,40.482-21.179,40.636-21.39l.315-.43.245.473c.22.425,21.992,42.713,21.992,63.221a52.177,52.177,0,0,1-17.733,39.211C3519.3-686.372,3503.156-680.609,3485.507-680.609ZM3442.239-797.43a175.058,175.058,0,0,0-11.273,20.77c-5.087,11.129-10.826,27.2-9.278,40.579,1.667,14.407,9.429,28.142,21.857,38.675,12.1,10.255,27.393,16.136,41.96,16.137,17.487,0,33.472-5.7,45.01-16.055a51.527,51.527,0,0,0,17.514-38.72c0-19.2-19.313-57.794-21.682-62.456-2.369,2.988-17.553,20.917-40.837,21.242-15.98.213-26.977-5.384-33.377-10.128A43.016,43.016,0,0,1,3442.239-797.43Z" transform="translate(-3420.771 799.737)" fill="#fff"/>
  </g>
  <g id="Grupo_184757" data-name="Grupo 184757" transform="translate(9.039 4.308)">
    <path id="Trazado_181891" data-name="Trazado 181891" d="M3441.7-881.418s5.2-15.579,17.462-23.117c0,0-7.979-8.039-24.7-5.168C3434.466-909.7,3435.014-892.186,3441.7-881.418Z" transform="translate(-3434.466 910.322)" fill="#a9690f"/>
  </g>
  <g id="Grupo_184758" data-name="Grupo 184758" transform="translate(89.051 4.059)">
    <path id="Trazado_181892" data-name="Trazado 181892" d="M3573.917-883.855s-5.9-15.721-18.217-22.243c0,0,7.509-6.119,23.944-4.244C3579.644-910.342,3579.906-894.4,3573.917-883.855Z" transform="translate(-3555.7 910.699)" fill="#a9690f"/>
  </g>
  <g id="Grupo_184759" data-name="Grupo 184759" transform="translate(47.938 4.986)">
    <circle id="Elipse_3685" data-name="Elipse 3685" cx="1.774" cy="1.774" r="1.774" transform="translate(0.33 0.33)" fill="#afda26"/>
    <path id="Trazado_181893" data-name="Trazado 181893" d="M3495.509-905.088a2.106,2.106,0,0,1-2.1-2.1,2.106,2.106,0,0,1,2.1-2.1,2.106,2.106,0,0,1,2.1,2.1A2.106,2.106,0,0,1,3495.509-905.088Zm0-3.547a1.445,1.445,0,0,0-1.443,1.444,1.445,1.445,0,0,0,1.443,1.443,1.445,1.445,0,0,0,1.444-1.443A1.446,1.446,0,0,0,3495.509-908.635Z" transform="translate(-3493.406 909.295)" fill="#f79610"/>
  </g>
  <g id="Grupo_184760" data-name="Grupo 184760" transform="translate(63.099 39.793)">
    <circle id="Elipse_3686" data-name="Elipse 3686" cx="1.789" cy="1.789" r="1.789" transform="translate(0.33 0.33)" fill="#afda26"/>
    <path id="Trazado_181894" data-name="Trazado 181894" d="M3518.5-852.317a2.121,2.121,0,0,1-2.119-2.119,2.121,2.121,0,0,1,2.119-2.119,2.121,2.121,0,0,1,2.119,2.119A2.121,2.121,0,0,1,3518.5-852.317Zm0-3.578a1.461,1.461,0,0,0-1.459,1.459,1.461,1.461,0,0,0,1.459,1.459,1.461,1.461,0,0,0,1.459-1.459A1.461,1.461,0,0,0,3518.5-855.9Z" transform="translate(-3516.378 856.555)" fill="#f79610"/>
  </g>
  <g id="Grupo_184761" data-name="Grupo 184761" transform="translate(32.116 13.651)">
    <circle id="Elipse_3687" data-name="Elipse 3687" cx="2.193" cy="2.193" r="2.193" transform="translate(0.33 0.33)" fill="#afda26"/>
    <path id="Trazado_181895" data-name="Trazado 181895" d="M3471.956-891.119a2.526,2.526,0,0,1-2.523-2.523,2.526,2.526,0,0,1,2.523-2.523,2.526,2.526,0,0,1,2.523,2.523A2.526,2.526,0,0,1,3471.956-891.119Zm0-4.386a1.865,1.865,0,0,0-1.863,1.863,1.865,1.865,0,0,0,1.863,1.863,1.865,1.865,0,0,0,1.863-1.863A1.865,1.865,0,0,0,3471.956-895.5Z" transform="translate(-3469.433 896.165)" fill="#f79610"/>
  </g>
  <g id="Grupo_184762" data-name="Grupo 184762" transform="translate(84.137 44.85)">
    <path id="Trazado_181896" data-name="Trazado 181896" d="M3548.255-848.892" transform="translate(-3548.255 848.892)" fill="#afda26" stroke="#f79610" stroke-miterlimit="10" stroke-width="1"/>
  </g>
  <g id="Grupo_184763" data-name="Grupo 184763" transform="translate(38.97 61.595)">
    <path id="Trazado_181897" data-name="Trazado 181897" d="M3480.41-823.02s2.69,15.98,22.582,16.23,25.554-16.23,25.554-16.23Z" transform="translate(-3480.02 823.35)" fill="#f37cbc"/>
    <path id="Trazado_181898" data-name="Trazado 181898" d="M3503.233-806.627l-.446,0c-10.406-.131-16.079-4.605-19.006-8.335a19.884,19.884,0,0,1-3.9-8.171l-.064-.385h48.989l-.15.438C3528.6-822.917,3522.773-806.627,3503.233-806.627Zm-22.615-16.233c.582,2.416,4.527,15.348,22.178,15.57,10.123.149,16.46-4.224,19.974-7.9a25.849,25.849,0,0,0,5.093-7.672Z" transform="translate(-3479.818 823.52)" fill="#2d9d2e"/>
  </g>
  <g id="Grupo_184764" data-name="Grupo 184764" transform="translate(35.727 40.343)">
    <path id="Trazado_181899" data-name="Trazado 181899" d="M3530.135-841.97a14.628,14.628,0,0,1-.568,4.768c-.6,1.972-2.645,3.553-5.367,4.816-6.291,3.495-20.821,4.685-20.821,4.685s-.216-.015-.6-.047c-.387.032-.6.047-.6.047s-14.531-1.191-20.822-4.685c-2.722-1.263-4.769-2.844-5.368-4.816a14.655,14.655,0,0,1-.567-4.768c-.032-1.41.022-3.05.038-5.073.055-6.527,7.779-8.823,13.19-8.036,2.348.341,10.951,8.367,12.721,9.659,3.129,1.653-1.725,10.728,1.41,10.912,3.136-.184-1.719-9.259,1.41-10.912,1.771-1.293,10.373-9.318,12.721-9.659,5.412-.787,13.135,1.509,13.19,8.036C3530.114-845.02,3530.168-843.38,3530.135-841.97Z" transform="translate(-3475.074 855.553)" fill="#f8c328"/>
    <path id="Trazado_181900" data-name="Trazado 181900" d="M3502.026-827.54c-.646-.049-14.723-1.237-21-4.726-3.084-1.43-4.949-3.119-5.523-5.009a14.85,14.85,0,0,1-.581-4.876c-.022-.917-.006-1.941.012-3.127.01-.605.02-1.249.026-1.936a7.275,7.275,0,0,1,2.652-5.673c2.943-2.524,7.6-3.168,10.916-2.687,1.669.243,5.782,3.683,10.209,7.493,1.224,1.053,2.19,1.885,2.659,2.227a2.612,2.612,0,0,1,1.218,2.307,2.654,2.654,0,0,1,1.253-2.332c.428-.317,1.4-1.149,2.619-2.2,4.428-3.81,8.54-7.25,10.209-7.493,3.313-.48,7.973.162,10.917,2.688a7.273,7.273,0,0,1,2.651,5.672c.005.693.016,1.34.025,1.949.019,1.177.035,2.194.014,3.124a14.881,14.881,0,0,1-.583,4.866c-.573,1.89-2.438,3.578-5.544,5.02-6.26,3.478-20.337,4.666-20.934,4.715-.059,0-.266-.015-.657-.047C3502.243-827.555,3502.026-827.54,3502.026-827.54Zm.553-.7.653.046c.1-.011,14.482-1.224,20.639-4.644,2.949-1.37,4.7-2.922,5.212-4.623a14.2,14.2,0,0,0,.554-4.66v-.02c.021-.92.005-1.934-.013-3.108-.009-.611-.02-1.26-.025-1.955a6.638,6.638,0,0,0-2.421-5.176c-2.787-2.39-7.227-2.994-10.392-2.536-1.618.236-6.786,4.683-9.874,7.34-1.235,1.063-2.211,1.9-2.7,2.26-1.423.756-.958,3.449-.548,5.825.351,2.037.654,3.8-.026,4.656a1.331,1.331,0,0,1-1.011.494,1.346,1.346,0,0,1-1.049-.494c-.682-.859-.378-2.619-.026-4.656.41-2.377.875-5.069-.508-5.8-.53-.383-1.506-1.222-2.741-2.285-3.088-2.657-8.256-7.1-9.874-7.34-3.166-.459-7.6.146-10.391,2.536a6.635,6.635,0,0,0-2.421,5.177c-.006.689-.017,1.334-.026,1.941-.019,1.179-.035,2.2-.013,3.121a14.248,14.248,0,0,0,.553,4.68c.516,1.7,2.262,3.254,5.19,4.612,6.126,3.4,20.322,4.623,20.7,4.656C3502.026-828.2,3502.233-828.216,3502.579-828.245Zm.028-14.1a28.685,28.685,0,0,1-.407,2.957c-.3,1.724-.6,3.506-.107,4.134a.681.681,0,0,0,.533.245.664.664,0,0,0,.494-.245c.5-.628.191-2.41-.107-4.133A28.257,28.257,0,0,1,3502.607-842.34Z" transform="translate(-3474.904 855.721)" fill="#e86410"/>
  </g>
  <g id="Grupo_184765" data-name="Grupo 184765" transform="translate(55.759 41.912)">
    <path id="Trazado_181901" data-name="Trazado 181901" d="M3505.257-848.814s3.335,5.394,8.058,5.074,7.281-5.074,7.281-5.074a8.809,8.809,0,0,0-7.031-4.512C3508.579-853.68,3505.257-848.814,3505.257-848.814Z" transform="translate(-3505.257 853.344)" fill="#e97ebd"/>
  </g>
  <g id="Grupo_184766" data-name="Grupo 184766" transform="translate(0.63 128.281)">
    <path id="Trazado_181902" data-name="Trazado 181902" d="M3422.479-718.859s8.258,4.625,15.544,7.925,30.385,13.86,64.442,10.254c25.911-2.743,40.007-15.1,44.059-20.762a34.073,34.073,0,0,1,1.668,14,78.181,78.181,0,0,1-35.941,19.607c-22.393,5.28-51.033,0-56.348-1.32s-25.827-9.186-33.39-19.607A49.175,49.175,0,0,1,3422.479-718.859Z" transform="translate(-3421.894 722.125)" fill="#de53a7"/>
    <path id="Trazado_181903" data-name="Trazado 181903" d="M3489.6-685.57a163.5,163.5,0,0,1-33.941-3.616c-5.181-1.287-25.906-9.164-33.578-19.735l-.051-.07-.009-.086a49.882,49.882,0,0,1-.034-10.178l.063-.483.425.238c.082.046,8.33,4.657,15.519,7.913l.112.05c7.51,3.4,30.365,13.753,64.16,10.176,24.822-2.628,39.227-14.2,43.825-20.626l.353-.492.223.563a34.774,34.774,0,0,1,1.69,14.147l-.01.116-.079.084a79.244,79.244,0,0,1-36.1,19.7A100.082,100.082,0,0,1,3489.6-685.57Zm-66.933-23.668c7.6,10.388,28.034,18.14,33.151,19.411,6.356,1.579,34.52,6.429,56.192,1.319a78.759,78.759,0,0,0,35.7-19.43,35.081,35.081,0,0,0-1.454-13.158c-5.035,6.6-19.5,17.808-43.919,20.393-33.973,3.6-56.951-6.811-64.5-10.231l-.112-.05c-6.275-2.842-13.345-6.708-15.138-7.7A50.064,50.064,0,0,0,3422.663-709.238Z" transform="translate(-3421.725 722.478)"/>
  </g>
  <g id="Grupo_184767" data-name="Grupo 184767" transform="translate(68.73 27.214)">
    <path id="Trazado_181904" data-name="Trazado 181904" d="M3551.851-873.077c1.356,5.368-3.42,16.921-10.666,18.751s-14.219-1.038-15.576-6.406,4.4-7.322,11.646-9.153S3550.5-878.445,3551.851-873.077Z" transform="translate(-3525.08 875.444)" fill="#fff"/>
    <path id="Trazado_181905" data-name="Trazado 181905" d="M3536.637-853.611a15.125,15.125,0,0,1-5.745-1.083,9.2,9.2,0,0,1-5.773-6.127c-.661-2.616.236-4.664,2.74-6.263,2.112-1.348,5.183-2.29,9.145-3.291a32.663,32.663,0,0,0,7.224-3.122c2.7-1.443,4.832-2.582,6.308-1.929a2.837,2.837,0,0,1,1.464,2.1h0c.692,2.741-.146,7.032-2.134,10.933-2.231,4.379-5.428,7.375-8.771,8.219A18.229,18.229,0,0,1,3536.637-853.611Zm12.945-21.342c-1.228,0-3.021.958-5.042,2.039a33.173,33.173,0,0,1-7.374,3.18c-3.9.985-6.915,1.907-8.952,3.208-2.265,1.445-3.045,3.207-2.455,5.544a8.563,8.563,0,0,0,5.384,5.679,15.8,15.8,0,0,0,9.79.489c3.159-.8,6.2-3.669,8.345-7.879,1.92-3.767,2.737-7.878,2.082-10.472h0a2.245,2.245,0,0,0-1.09-1.656A1.688,1.688,0,0,0,3549.583-874.954Z" transform="translate(-3524.91 875.615)"/>
  </g>
  <g id="Grupo_184768" data-name="Grupo 184768" transform="translate(76.752 34.452)">
    <circle id="Elipse_3688" data-name="Elipse 3688" cx="5.312" cy="5.312" r="5.312" transform="translate(0.33 0.331)"/>
    <path id="Trazado_181906" data-name="Trazado 181906" d="M3542.709-853.36a5.653,5.653,0,0,1-5.471-4.261,5.649,5.649,0,0,1,4.089-6.853,5.648,5.648,0,0,1,6.852,4.089h0a5.65,5.65,0,0,1-4.089,6.853A5.66,5.66,0,0,1,3542.709-853.36Zm0-10.626a4.938,4.938,0,0,0-1.219.153,4.988,4.988,0,0,0-3.611,6.051,4.95,4.95,0,0,0,2.277,3.058,4.946,4.946,0,0,0,3.774.552,4.988,4.988,0,0,0,3.611-6.051h0A4.993,4.993,0,0,0,3542.708-863.986Z" transform="translate(-3537.066 864.647)" fill="#fff"/>
  </g>
  <g id="Grupo_184769" data-name="Grupo 184769" transform="translate(58.427 107.794)">
    <ellipse id="Elipse_3689" data-name="Elipse 3689" cx="5.152" cy="10.23" rx="5.152" ry="10.23" transform="translate(0.33 0.33)" fill="#c4d316"/>
    <path id="Trazado_181907" data-name="Trazado 181907" d="M3514.781-732.4c-3.074,0-5.481-4.638-5.481-10.56s2.407-10.56,5.481-10.56,5.482,4.638,5.482,10.56S3517.854-732.4,3514.781-732.4Zm0-20.459c-2.659,0-4.822,4.441-4.822,9.9s2.163,9.9,4.822,9.9,4.822-4.441,4.822-9.9S3517.439-752.86,3514.781-752.86Z" transform="translate(-3509.299 753.52)" fill="#fff"/>
  </g>
  <g id="Grupo_184770" data-name="Grupo 184770" transform="translate(17.587 121.827)">
    <path id="Trazado_181908" data-name="Trazado 181908" d="M3447.919-732.256v59.087h29.059v-59.087" transform="translate(-3447.589 732.257)"/>
    <path id="Trazado_181909" data-name="Trazado 181909" d="M3477.137-672.84h-29.719v-59.417h.66V-673.5h28.4v-58.757h.66Z" transform="translate(-3447.418 732.257)" fill="#ca1788"/>
  </g>
  <g id="Grupo_184771" data-name="Grupo 184771" transform="translate(80.871 121.827)">
    <path id="Trazado_181910" data-name="Trazado 181910" d="M3543.806-732.256v59.087h29.059v-59.087" transform="translate(-3543.476 732.257)"/>
    <path id="Trazado_181911" data-name="Trazado 181911" d="M3573.026-672.84h-29.719v-59.417h.66V-673.5h28.4v-58.757h.66Z" transform="translate(-3543.307 732.257)" fill="#ca1788"/>
  </g>
  <g id="Grupo_184772" data-name="Grupo 184772" transform="translate(16.486 86.618)">
    <path id="Trazado_181912" data-name="Trazado 181912" d="M3487.937-753.551c-24.848-6.556-42.016-31.433-42.187-31.684l.546-.372c.169.249,17.2,24.925,41.81,31.417Z" transform="translate(-3445.75 785.606)" fill="#c4d316"/>
  </g>
  <g id="Grupo_184773" data-name="Grupo 184773" transform="translate(68.973 86.606)">
    <path id="Trazado_181913" data-name="Trazado 181913" d="M3525.454-753.558l-.174-.637c21.4-5.842,40.555-31.175,40.746-31.43l.529.4C3566.362-784.972,3547.066-759.459,3525.454-753.558Z" transform="translate(-3525.279 785.624)" fill="#c4d316"/>
  </g>
  <g id="Grupo_184774" data-name="Grupo 184774" transform="translate(54.729 88.222)">
    <circle id="Elipse_3690" data-name="Elipse 3690" cx="2.887" cy="2.887" r="2.887" transform="translate(0.33 0.332)" fill="#afda26"/>
    <path id="Trazado_181914" data-name="Trazado 181914" d="M3506.918-776.739a3.223,3.223,0,0,1-2.953-1.928,3.221,3.221,0,0,1,1.658-4.237,3.19,3.19,0,0,1,2.462-.048,3.193,3.193,0,0,1,1.776,1.707h0a3.2,3.2,0,0,1,.049,2.462,3.2,3.2,0,0,1-1.707,1.775A3.2,3.2,0,0,1,3506.918-776.739Zm-.005-5.776a2.547,2.547,0,0,0-1.024.216,2.561,2.561,0,0,0-1.319,3.369,2.562,2.562,0,0,0,3.369,1.318,2.541,2.541,0,0,0,1.356-1.412,2.541,2.541,0,0,0-.038-1.957h0a2.541,2.541,0,0,0-1.411-1.356A2.56,2.56,0,0,0,3506.913-782.515Z" transform="translate(-3503.696 783.176)" fill="#f79610"/>
  </g>
  <g id="Grupo_184775" data-name="Grupo 184775" transform="translate(12.993 175.976)">
    <ellipse id="Elipse_3691" data-name="Elipse 3691" cx="18.888" cy="10.332" rx="18.888" ry="10.332" transform="translate(0.33 0.33)" fill="#f8c328"/>
    <path id="Trazado_181915" data-name="Trazado 181915" d="M3459.677-628.887c-10.6,0-19.219-4.783-19.219-10.662s8.622-10.662,19.219-10.662,19.218,4.783,19.218,10.662S3470.273-628.887,3459.677-628.887Zm0-20.664c-10.234,0-18.559,4.487-18.559,10s8.325,10,18.559,10,18.558-4.487,18.558-10S3469.91-649.551,3459.677-649.551Z" transform="translate(-3440.458 650.211)" fill="#f5c07f"/>
  </g>
  <g id="Grupo_184776" data-name="Grupo 184776" transform="translate(76.308 176.621)">
    <ellipse id="Elipse_3692" data-name="Elipse 3692" cx="18.888" cy="10.332" rx="18.888" ry="10.332" transform="translate(0.33 0.33)" fill="#f8c328"/>
    <path id="Trazado_181916" data-name="Trazado 181916" d="M3555.61-627.909c-10.6,0-19.218-4.783-19.218-10.662s8.622-10.662,19.218-10.662,19.219,4.783,19.219,10.662S3566.207-627.909,3555.61-627.909Zm0-20.664c-10.233,0-18.558,4.487-18.558,10s8.325,10,18.558,10,18.558-4.487,18.558-10S3565.844-648.573,3555.61-648.573Z" transform="translate(-3536.392 649.233)" fill="#f5c07f"/>
  </g>
  <g id="Grupo_184777" data-name="Grupo 184777" transform="translate(12.994 6.424)">
    <path id="Trazado_181917" data-name="Trazado 181917" d="M3466.094-904.947s-23.448,11.435-25.044,38.745c-1.7,29.084,20.78,43.315,20.78,43.315s-15.742-24.3-15.742-34.952c0,0,12.922,21.352,17.021,18.382,0,0-17.021-19.618-13.39-29.113,0,0,.914,4.034,7.386,7.829,0,0-7.9-15.022-5.5-20.628s11.623-11.363,13.527-9.076C3465.133-890.445,3457.391-897.509,3466.094-904.947Z" transform="translate(-3440.629 906.379)" fill="#fff"/>
    <path id="Trazado_181918" data-name="Trazado 181918" d="M3462.756-822.541l-1.271-.805c-.227-.144-22.625-14.669-20.934-43.613,1.589-27.189,24.993-38.907,25.229-39.022l2.328-1.135-1.969,1.682c-2.624,2.243-3.976,4.666-4.018,7.2a9.952,9.952,0,0,0,2.886,6.629,1.643,1.643,0,0,1,.21.21l-.476.455c-.018-.015-.081-.074-.179-.172a2.074,2.074,0,0,0-1.481-.215c-3.417.5-9.531,5.121-11.342,9.348-2.311,5.4,5.409,20.2,5.486,20.345l.537,1.022-1-.584c-4.7-2.755-6.524-5.628-7.189-7.08-2.189,9.511,13.445,27.676,13.608,27.864l.236.272-.292.211a1.956,1.956,0,0,1-1.6.294c-4.423-.9-12.764-13.751-15.217-17.67,1.112,11,15.47,33.267,15.621,33.5Zm1.148-81.6c-5.817,3.631-21.416,15.352-22.694,37.222-1.423,24.37,14.438,38.368,19.262,42.039-3.394-5.416-14.883-24.436-14.883-33.7v-1.183l.612,1.012c.106.175,10.634,17.489,15.464,18.468a1.5,1.5,0,0,0,.754-.017,100.28,100.28,0,0,1-7.816-10.719c-5.1-8.176-6.907-14.37-5.363-18.41l.385-1.007.245,1.051c.008.036.878,3.531,6.241,7.007-1.759-3.549-7.064-14.986-4.976-19.862,1.936-4.523,8.241-9.215,11.853-9.741a4.185,4.185,0,0,1,.772-.046,10.012,10.012,0,0,1-2.3-6.218A9.25,9.25,0,0,1,3463.9-904.142Z" transform="translate(-3440.46 907.116)"/>
  </g>
  <g id="Grupo_184778" data-name="Grupo 184778" transform="translate(6.685 0.193)">
    <path id="Trazado_181919" data-name="Trazado 181919" d="M3431.046-913.837s-2.057,13.345,9.228,32.055c0,0-3.831,10.29-2.736,16.563,0,0,49.508-41.189,51.895-51.2,0,0-20.228-1.915-29.71,8.556C3459.723-907.864,3450.791-917.412,3431.046-913.837Z" transform="translate(-3430.899 916.557)"/>
  </g>
  <g id="Grupo_184779" data-name="Grupo 184779" transform="translate(11.624 3.924)">
    <path id="Trazado_181920" data-name="Trazado 181920" d="M3448.344-902.2l-9.382,14.884,4.054,7.656,19.448-26.081s-4.409-3.555-7.573-4.578Z" transform="translate(-3438.581 910.706)" fill="#de53a7"/>
    <path id="Trazado_181921" data-name="Trazado 181921" d="M3442.771-879.245l-4.387-8.286,9.507-15.077,6.689-8.3.216.07c3.187,1.03,7.5,4.489,7.679,4.636l.247.2Zm-3.625-8.257,3.72,7.026,18.944-25.4a31.2,31.2,0,0,0-7-4.253l-6.39,7.925Z" transform="translate(-3438.384 910.904)"/>
  </g>
  <g id="Grupo_184780" data-name="Grupo 184780" transform="translate(31.855 26.98)">
    <path id="Trazado_181922" data-name="Trazado 181922" d="M3495.865-860.412c-1.505,5.328-8.556,8-15.748,5.968s-11.8-13.716-10.3-19.044,7.468,1.569,14.66,3.6S3497.371-865.741,3495.865-860.412Z" transform="translate(-3469.206 875.799)" fill="#fff"/>
    <path id="Trazado_181923" data-name="Trazado 181923" d="M3484.774-853.6a18.112,18.112,0,0,1-4.916-.7c-3.324-.939-6.465-4.023-8.617-8.46-1.925-3.968-2.674-8.282-1.907-10.992a2.835,2.835,0,0,1,1.522-2.051c1.524-.627,3.678.588,6.407,2.127a33.43,33.43,0,0,0,7.138,3.3c3.932,1.111,6.976,2.139,9.05,3.546,2.458,1.668,3.3,3.74,2.563,6.336h0a9.2,9.2,0,0,1-5.942,5.963A14.958,14.958,0,0,1,3484.774-853.6Zm-13.013-21.706a1.7,1.7,0,0,0-.653.118,2.238,2.238,0,0,0-1.14,1.62c-.724,2.564.008,6.695,1.866,10.525,2.071,4.268,5.06,7.225,8.2,8.113a15.8,15.8,0,0,0,9.8-.215,8.56,8.56,0,0,0,5.541-5.525h0c.655-2.319-.074-4.1-2.3-5.611-2-1.357-4.988-2.363-8.858-3.457a33.982,33.982,0,0,1-7.282-3.359C3474.862-874.271,3473.022-875.308,3471.761-875.308Z" transform="translate(-3469.037 875.969)"/>
  </g>
  <g id="Grupo_184781" data-name="Grupo 184781" transform="translate(39.827 34.453)">
    <circle id="Elipse_3693" data-name="Elipse 3693" cx="5.312" cy="5.312" r="5.312" transform="translate(0.33 0.331)"/>
    <path id="Trazado_181924" data-name="Trazado 181924" d="M3486.758-853.361a5.623,5.623,0,0,1-1.532-.213,5.648,5.648,0,0,1-3.9-6.963,5.648,5.648,0,0,1,6.964-3.9,5.649,5.649,0,0,1,3.9,6.964h0A5.652,5.652,0,0,1,3486.758-853.361Zm0-10.626a4.992,4.992,0,0,0-4.8,3.628,4.988,4.988,0,0,0,3.44,6.15,4.989,4.989,0,0,0,6.15-3.44h0a4.988,4.988,0,0,0-3.44-6.15A4.981,4.981,0,0,0,3486.762-863.986Z" transform="translate(-3481.117 864.646)" fill="#fff"/>
  </g>
  <g id="Grupo_184782" data-name="Grupo 184782" transform="translate(44.944)">
    <path id="Trazado_181925" data-name="Trazado 181925" d="M3489.667-893.574s26.419,22.552,43.58-3.468c0,0,5.726-5.165-2.514-11.652a37.178,37.178,0,0,0-21.318-7.655S3499.956-901.39,3489.667-893.574Z" transform="translate(-3489.141 916.679)" fill="#fff"/>
    <path id="Trazado_181926" data-name="Trazado 181926" d="M3512.211-884.348c-12.163,0-22.913-9.046-23.03-9.146l-.312-.267.326-.247c10.125-7.69,19.574-22.539,19.669-22.687l.1-.152.179,0a37.99,37.99,0,0,1,21.526,7.726c2.952,2.324,4.49,4.753,4.573,7.221a6.763,6.763,0,0,1-2.009,4.9c-4.795,7.255-10.77,11.435-17.757,12.423A23.227,23.227,0,0,1,3512.211-884.348Zm-22.283-9.39c2.033,1.618,13.486,10.205,25.456,8.51,6.8-.964,12.628-5.057,17.317-12.166l.054-.063a6.2,6.2,0,0,0,1.824-4.432c-.08-2.261-1.534-4.52-4.321-6.715a37.215,37.215,0,0,0-20.935-7.583C3508.292-914.591,3499.459-901.131,3489.928-893.737Z" transform="translate(-3488.87 916.849)"/>
  </g>
  <g id="Grupo_184783" data-name="Grupo 184783" transform="translate(53.261 7.676)">
    <path id="Trazado_181927" data-name="Trazado 181927" d="M3517.405-898.744s-1.786-8.682,6.133-5.118,8.4,9.5,1.888,12.8-21.855-3.3-23.561-5.492" transform="translate(-3501.605 905.049)" fill="#fff"/>
    <path id="Trazado_181928" data-name="Trazado 181928" d="M3520.61-889.971c-7.53,0-17.791-4.815-19.139-6.546l.521-.405c1.579,2.03,16.709,8.666,23.152,5.4,2.835-1.437,4.369-3.4,4.32-5.531-.057-2.5-2.316-4.932-6.195-6.678-2.185-.983-3.777-1.094-4.73-.331-1.686,1.349-.953,5.045-.945,5.083l-.647.133c-.034-.168-.822-4.128,1.177-5.729,1.162-.932,2.984-.849,5.415.244,4.12,1.854,6.52,4.5,6.584,7.264.056,2.4-1.607,4.576-4.682,6.135A10.744,10.744,0,0,1,3520.61-889.971Z" transform="translate(-3501.471 905.219)"/>
  </g>
  <g id="Grupo_184784" data-name="Grupo 184784" transform="translate(84.353 5.893)">
    <path id="Trazado_181929" data-name="Trazado 181929" d="M3551.89-905.75s23.448,11.435,25.043,38.745c1.7,29.084-20.78,43.315-20.78,43.315s15.743-24.3,15.743-34.952c0,0-12.922,21.352-17.02,18.382,0,0,17.02-19.618,13.39-29.114,0,0-.914,4.034-7.387,7.829,0,0,7.9-15.022,5.5-20.628s-11.623-11.363-13.528-9.076C3552.85-891.248,3560.593-898.312,3551.89-905.75Z" transform="translate(-3549.707 907.182)" fill="#fff"/>
    <path id="Trazado_181930" data-name="Trazado 181930" d="M3553.933-823.344l.819-1.264c.15-.232,14.509-22.5,15.621-33.5-2.453,3.92-10.794,16.775-15.217,17.671a1.959,1.959,0,0,1-1.6-.294l-.292-.211.236-.272c.164-.189,15.8-18.355,13.609-27.865-.666,1.453-2.489,4.326-7.189,7.081l-1,.585.538-1.023c.078-.148,7.8-14.946,5.487-20.344-1.811-4.227-7.924-8.85-11.343-9.348a2.071,2.071,0,0,0-1.481.214c-.1.1-.161.158-.178.173l-.476-.455a1.557,1.557,0,0,1,.207-.207,9.976,9.976,0,0,0,2.888-6.637c-.043-2.533-1.395-4.954-4.017-7.2l-1.969-1.683,2.328,1.136c.236.115,23.64,11.833,25.229,39.022,1.692,28.943-20.707,43.469-20.933,43.613Zm17.169-37.219v1.183c0,9.258-11.487,28.274-14.883,33.693,4.825-3.675,20.684-17.682,19.261-42.037-1.279-21.884-16.882-33.6-22.7-37.224a9.251,9.251,0,0,1,2.443,5.9,10.01,10.01,0,0,1-2.3,6.218,4.14,4.14,0,0,1,.773.046c3.611.527,9.916,5.219,11.853,9.742,2.088,4.875-3.218,16.313-4.976,19.862,5.362-3.475,6.231-6.971,6.24-7.007l.245-1.051.385,1.006c1.545,4.04-.26,10.234-5.362,18.41a100.286,100.286,0,0,1-7.816,10.719,1.5,1.5,0,0,0,.754.016c4.831-.978,15.358-18.293,15.464-18.468Z" transform="translate(-3548.582 907.92)"/>
  </g>
</svg>
