<svg xmlns="http://www.w3.org/2000/svg" width="155.019" height="198.936" viewBox="0 0 155.019 198.936">
  <g id="Grupo_184861" data-name="Grupo 184861" transform="translate(0 0)">
    <g id="Grupo_184822" data-name="Grupo 184822" transform="translate(52.415 13.555)">
      <g id="Grupo_184821" data-name="Grupo 184821">
        <path id="Trazado_181982" data-name="Trazado 181982" d="M3771.027-891.663a21.282,21.282,0,0,1,10.624-.576c.518.1.74-.693.219-.8a22.176,22.176,0,0,0-11.063.576c-.505.158-.289.955.22.8Z" transform="translate(-3770.52 893.477)"/>
      </g>
    </g>
    <g id="Grupo_184824" data-name="Grupo 184824" transform="translate(51.554 10.306)">
      <g id="Grupo_184823" data-name="Grupo 184823">
        <path id="Trazado_181983" data-name="Trazado 181983" d="M3769.724-896.687a23.1,23.1,0,0,1,12.064-.177.413.413,0,0,0,.22-.8,24.037,24.037,0,0,0-12.5.178.413.413,0,0,0,.219.8Z" transform="translate(-3769.214 898.401)"/>
      </g>
    </g>
    <g id="Grupo_184826" data-name="Grupo 184826" transform="translate(51.551 10.237)">
      <g id="Grupo_184825" data-name="Grupo 184825">
        <path id="Trazado_181984" data-name="Trazado 181984" d="M3769.723-896.722a30.229,30.229,0,0,1,13.7-.338c.518.1.74-.69.219-.8a31.283,31.283,0,0,0-14.137.339.413.413,0,0,0,.219.8Z" transform="translate(-3769.21 898.505)"/>
      </g>
    </g>
    <g id="Grupo_184827" data-name="Grupo 184827" transform="translate(98.815 136.644)">
      <ellipse id="Elipse_3702" data-name="Elipse 3702" cx="27.283" cy="7.749" rx="27.283" ry="7.749" transform="translate(0 21.868) rotate(-23.625)" fill="#f79610"/>
    </g>
    <g id="Grupo_184828" data-name="Grupo 184828" transform="translate(6.291)">
      <path id="Trazado_181985" data-name="Trazado 181985" d="M3807.251-887.046c4.951-9.9,3.659-23.463,3.659-23.463a54.533,54.533,0,0,0-28.352,6.149,44.617,44.617,0,0,0-24.385-7.656,46.854,46.854,0,0,0-26.643,8.557v0s-9.09-8.34-28.678-5.971c0,0-2.435,11.387,9.223,32.062l.005-.008a47.948,47.948,0,0,0-2.34,14.764c0,26.926,22.753,48.109,48.432,48.109s49.077-18.6,49.077-45.526a49.864,49.864,0,0,0-3.626-18.417h0c-.04-.1-.081-.2-.121-.3C3803.67-879.463,3804.472-881.489,3807.251-887.046Z" transform="translate(-3701.315 913.336)" fill="#fff"/>
      <path id="Trazado_181986" data-name="Trazado 181986" d="M3757.49-813.867a50.366,50.366,0,0,1-34.766-14.331,48.681,48.681,0,0,1-14.986-35.1,49.249,49.249,0,0,1,2.226-14.605c-11.45-20.557-9.187-32.007-9.084-32.488l.2-.921.935-.113c16.887-2.041,26.2,3.629,28.9,5.642a47.878,47.878,0,0,1,26.576-8.235,45.738,45.738,0,0,1,24.435,7.437,56.32,56.32,0,0,1,28.37-5.929l1.138.059.108,1.134c.054.569,1.268,14.054-3.793,24.178a78.822,78.822,0,0,0-3.533,7.639,50.958,50.958,0,0,1,3.672,18.785,44.677,44.677,0,0,1-15.355,33.849A53.441,53.441,0,0,1,3757.49-813.867Zm-42.555-70.852-2.28,7.066a46.616,46.616,0,0,0-2.277,14.357,46.064,46.064,0,0,0,14.188,33.206,47.707,47.707,0,0,0,32.924,13.583,50.771,50.771,0,0,0,33.293-12.334,42.071,42.071,0,0,0,14.464-31.872,48.332,48.332,0,0,0-3.534-17.928l-.278-.686.1-.412a61.284,61.284,0,0,1,3.853-8.578c3.9-7.81,3.77-18.182,3.6-21.6a53.543,53.543,0,0,0-26.437,6.012l-.709.422-.69-.453a43.3,43.3,0,0,0-23.661-7.439,45.378,45.378,0,0,0-25.891,8.321l-7.432,5.152,4.807-6.008c-2.716-1.869-11.1-6.514-25.651-5-.456,4.347.781,14.578,8.262,28.476Z" transform="translate(-3700.632 914.016)"/>
    </g>
    <g id="Grupo_184829" data-name="Grupo 184829" transform="translate(0 76.409)">
      <path id="Trazado_181987" data-name="Trazado 181987" d="M3820.367-731.388c0-20.665-21.956-63.069-21.956-63.069s-15.5,21.169-40.9,21.525c-30.781.43-43.266-20.449-43.266-20.449s-23.893,35.946-20.88,61.993c3.5,30.232,33.712,55.1,64.146,55.1C3794.322-676.283,3820.367-700.955,3820.367-731.388Z" transform="translate(-3691.782 796.955)" fill="#fff"/>
      <path id="Trazado_181988" data-name="Trazado 181988" d="M3756.834-676.251h0c-14.952,0-30.634-6.025-43.028-16.529-12.749-10.805-20.714-24.92-22.429-39.743-1.278-11.045,1.892-24.995,9.42-41.465a174,174,0,0,1,11.671-21.41l1.158-1.743,1.074,1.8c.119.2,12.26,19.813,41.211,19.813.3,0,.6,0,.9-.007,24.459-.343,39.7-20.779,39.851-20.985l1.258-1.719.979,1.891c.9,1.743,22.1,42.929,22.1,63.676a53.156,53.156,0,0,1-18.063,39.947C3791.1-682.1,3774.728-676.251,3756.834-676.251Zm-43.222-116.031c-4.554,7.317-22.175,37.316-19.614,59.454,1.638,14.155,9.278,27.663,21.514,38.033,11.923,10.106,26.985,15.9,41.32,15.9,17.242,0,32.992-5.612,44.348-15.8a50.548,50.548,0,0,0,17.186-37.983c0-17.7-16.736-52.326-20.887-60.64-4.3,5.1-18.791,20.11-40.628,20.416-16.265.205-27.459-5.488-33.981-10.323A45.475,45.475,0,0,1,3713.612-792.281Z" transform="translate(-3691.1 798.242)"/>
    </g>
    <g id="Grupo_184830" data-name="Grupo 184830" transform="translate(18.584 122.818)">
      <path id="Trazado_181989" data-name="Trazado 181989" d="M3719.759-727.923v59.087h29.059v-59.087" transform="translate(-3719.429 727.923)" fill="#fff"/>
      <path id="Trazado_181990" data-name="Trazado 181990" d="M3748.979-668.506h-29.719v-59.417h.66v58.757h28.4v-58.757h.66Z" transform="translate(-3719.259 727.923)"/>
    </g>
    <g id="Grupo_184831" data-name="Grupo 184831" transform="translate(81.869 122.818)">
      <path id="Trazado_181991" data-name="Trazado 181991" d="M3815.647-727.923v59.087h29.059v-59.087" transform="translate(-3815.318 727.923)" fill="#fff"/>
      <path id="Trazado_181992" data-name="Trazado 181992" d="M3844.866-668.506h-29.719v-59.417h.66v58.757h28.4v-58.757h.66Z" transform="translate(-3815.147 727.923)"/>
    </g>
    <g id="Grupo_184832" data-name="Grupo 184832" transform="translate(13.991 176.966)">
      <ellipse id="Elipse_3703" data-name="Elipse 3703" cx="18.888" cy="10.332" rx="18.888" ry="10.332" transform="translate(0.33 0.33)" fill="#f8c328"/>
      <path id="Trazado_181993" data-name="Trazado 181993" d="M3731.518-624.553c-10.6,0-19.218-4.783-19.218-10.662s8.621-10.663,19.218-10.663,19.219,4.783,19.219,10.663S3742.115-624.553,3731.518-624.553Zm0-20.665c-10.233,0-18.559,4.487-18.559,10s8.325,10,18.559,10,18.559-4.487,18.559-10S3741.751-645.218,3731.518-645.218Z" transform="translate(-3712.3 645.878)" fill="#f5c07f"/>
    </g>
    <g id="Grupo_184833" data-name="Grupo 184833" transform="translate(77.305 177.612)">
      <ellipse id="Elipse_3704" data-name="Elipse 3704" cx="18.888" cy="10.332" rx="18.888" ry="10.332" transform="translate(0.33 0.33)" fill="#f8c328"/>
      <path id="Trazado_181994" data-name="Trazado 181994" d="M3827.451-623.575c-10.6,0-19.219-4.783-19.219-10.662s8.621-10.662,19.219-10.662,19.219,4.783,19.219,10.662S3838.048-623.575,3827.451-623.575Zm0-20.664c-10.233,0-18.559,4.487-18.559,10s8.326,10,18.559,10,18.559-4.487,18.559-10S3837.684-644.239,3827.451-644.239Z" transform="translate(-3808.232 644.899)" fill="#f5c07f"/>
    </g>
    <g id="Grupo_184834" data-name="Grupo 184834" transform="translate(57.206 42.079)">
      <path id="Trazado_181995" data-name="Trazado 181995" d="M3777.778-845.68s3.37,5.451,8.143,5.128,7.356-5.128,7.356-5.128a8.9,8.9,0,0,0-7.1-4.559C3781.134-850.6,3777.778-845.68,3777.778-845.68Z" transform="translate(-3777.778 850.257)" fill="#e97ebd"/>
    </g>
    <g id="Grupo_184835" data-name="Grupo 184835" transform="translate(90.271 7.233)">
      <path id="Trazado_181996" data-name="Trazado 181996" d="M3844.8-879.439s-5.174-13.53-16.009-19.134c0,0,6.614-5.276,21.075-3.677C3849.869-902.25,3850.083-888.52,3844.8-879.439Z" transform="translate(-3828.19 902.885)" fill="#bf0a0a"/>
      <path id="Trazado_181997" data-name="Trazado 181997" d="M3844.43-878.849l-.246-.644c-.051-.134-5.258-13.479-15.853-18.958l-.452-.234.4-.318c.274-.218,6.885-5.342,21.317-3.747l.289.032,0,.291c0,.139.155,13.926-5.111,22.982Zm-15.315-19.933c9.17,5.017,14.25,15.706,15.421,18.418,4.434-8.153,4.684-19.78,4.692-21.762C3837.264-903.382,3830.769-899.849,3829.115-898.781Z" transform="translate(-3827.879 903.057)" fill="#a9690f"/>
    </g>
    <g id="Grupo_184838" data-name="Grupo 184838" transform="translate(8.938 1.32)">
      <g id="Grupo_184836" data-name="Grupo 184836" transform="translate(5.779)">
        <path id="Trazado_181998" data-name="Trazado 181998" d="M3814.568-910.509a54.535,54.535,0,0,0-28.352,6.149,44.615,44.615,0,0,0-24.385-7.656,44.833,44.833,0,0,0-11.689,1.57,30.471,30.471,0,0,1,7.453,19.99,30.835,30.835,0,0,1-30.942,30.727,30.992,30.992,0,0,1-13.252-2.957c0,.024,0,.048,0,.071,0,26.927,22.753,48.109,48.432,48.109s49.078-18.6,49.078-45.526a49.864,49.864,0,0,0-3.627-18.417h0c-.04-.1-.081-.2-.121-.3.169-.709.971-2.736,3.749-8.293C3815.859-896.948,3814.568-910.509,3814.568-910.509Z" transform="translate(-3713.399 912.016)" fill="none"/>
      </g>
      <g id="Grupo_184837" data-name="Grupo 184837" transform="translate(0 2.23)">
        <path id="Trazado_181999" data-name="Trazado 181999" d="M3755.938-888.648a30.471,30.471,0,0,0-7.453-19.99,48.464,48.464,0,0,0-14.954,6.987v0s-9.09-8.339-28.677-5.971c0,0-2.435,11.387,9.223,32.062l.005-.008a47.932,47.932,0,0,0-2.338,14.692A30.993,30.993,0,0,0,3725-857.921,30.835,30.835,0,0,0,3755.938-888.648Z" transform="translate(-3704.643 908.637)" fill="#f79610"/>
      </g>
    </g>
    <g id="Grupo_184839" data-name="Grupo 184839" transform="translate(19.574 133.622)">
      <path id="Trazado_182000" data-name="Trazado 182000" d="M3720.759-711.552s9.686,3.63,9.356,17.159-9.356,16.17-9.356,16.17Z" transform="translate(-3720.759 711.552)" fill="#f79610"/>
    </g>
    <g id="Grupo_184840" data-name="Grupo 184840" transform="translate(100.752 132.302)">
      <path id="Trazado_182001" data-name="Trazado 182001" d="M3853.6-713.552s-9.959.99-9.844,15.84,9.844,15.18,9.844,15.18Z" transform="translate(-3843.76 713.552)" fill="#f79610"/>
    </g>
    <g id="Grupo_184841" data-name="Grupo 184841" transform="translate(11.73 6.98)">
      <path id="Trazado_182002" data-name="Trazado 182002" d="M3715.369-879.9s4.3-12.425,14.434-18.437c0,0-6.6-6.412-20.415-4.122C3709.388-902.454,3709.841-888.484,3715.369-879.9Z" transform="translate(-3709.048 903.273)" fill="#bf0a0a"/>
      <path id="Trazado_182003" data-name="Trazado 182003" d="M3715.283-879.314l-.367-.57c-5.513-8.566-6.029-22.586-6.034-22.726l-.01-.289.286-.047a29.334,29.334,0,0,1,15.563,1.22,16.241,16.241,0,0,1,5.135,2.99l.31.3-.371.221c-9.916,5.882-14.248,18.138-14.29,18.261Zm-5.728-23.029c.1,1.992.9,13.785,5.567,21.54,1.028-2.585,5.395-12.455,13.944-17.743C3727.589-899.735,3721.164-904.175,3709.555-902.343Z" transform="translate(-3708.873 903.44)" fill="#a9690f"/>
    </g>
    <g id="Grupo_184842" data-name="Grupo 184842" transform="translate(56.835 42.383)">
      <path id="Trazado_182004" data-name="Trazado 182004" d="M3777.216-845.22s3.369,5.451,8.143,5.127,7.355-5.127,7.355-5.127a8.9,8.9,0,0,0-7.1-4.558C3780.572-850.137,3777.216-845.22,3777.216-845.22Z" transform="translate(-3777.216 849.797)"/>
    </g>
    <g id="Grupo_184843" data-name="Grupo 184843" transform="translate(47.602 52.088)">
      <path id="Trazado_182005" data-name="Trazado 182005" d="M3780.6-835.093a11.184,11.184,0,0,1,.528,3.216,9.021,9.021,0,0,1-.535,3.343,5.5,5.5,0,0,1-2.265,2.856,6.344,6.344,0,0,1-3.555.867,11.134,11.134,0,0,1-3.364-.662,13.531,13.531,0,0,1-1.543-.618,14.647,14.647,0,0,1-1.461-.747,24.883,24.883,0,0,1-5.181-3.854c2,.809,3.908,1.7,5.838,2.456a29.565,29.565,0,0,0,2.9.968,11.668,11.668,0,0,0,2.864.479,5.037,5.037,0,0,0,2.556-.5,4.451,4.451,0,0,0,1.81-1.874A15.455,15.455,0,0,0,3780.6-835.093Z" transform="translate(-3763.227 835.093)"/>
    </g>
    <g id="Grupo_184844" data-name="Grupo 184844" transform="translate(64.745 52.088)">
      <path id="Trazado_182006" data-name="Trazado 182006" d="M3790.374-835.093a23.393,23.393,0,0,0-.069,3.3,9.063,9.063,0,0,0,.6,3.011,3.355,3.355,0,0,0,1.764,1.865,5.963,5.963,0,0,0,2.765.284,27.084,27.084,0,0,0,6.117-1.653c2.042-.768,4.071-1.643,6.195-2.41a30.206,30.206,0,0,1-5.561,3.819,18.4,18.4,0,0,1-6.562,2.214,7.09,7.09,0,0,1-3.755-.561,4.7,4.7,0,0,1-2.42-3.062,8.392,8.392,0,0,1-.11-3.563A11.852,11.852,0,0,1,3790.374-835.093Z" transform="translate(-3789.202 835.093)"/>
    </g>
    <g id="Grupo_184848" data-name="Grupo 184848" transform="translate(20.035 46.436)">
      <g id="Grupo_184845" data-name="Grupo 184845" transform="translate(1.919)">
        <path id="Trazado_182007" data-name="Trazado 182007" d="M3724.364-843.088a8.8,8.8,0,0,1,3.261-.568,14.684,14.684,0,0,1,3.293.359,15.8,15.8,0,0,1,3.122,1.074,12.535,12.535,0,0,1,2.8,1.741c-.554-.09-1.071-.244-1.6-.371l-1.55-.4c-1.024-.275-2.046-.51-3.064-.756A56.262,56.262,0,0,0,3724.364-843.088Z" transform="translate(-3724.364 843.657)"/>
      </g>
      <g id="Grupo_184846" data-name="Grupo 184846" transform="translate(0 7.331)">
        <path id="Trazado_182008" data-name="Trazado 182008" d="M3721.457-829.072a8.783,8.783,0,0,1,2.679-1.942,14.709,14.709,0,0,1,3.116-1.124,15.78,15.78,0,0,1,3.277-.406,12.5,12.5,0,0,1,3.277.337c-.537.162-1.069.251-1.6.368l-1.569.32c-1.041.2-2.062.44-3.085.666A56.3,56.3,0,0,0,3721.457-829.072Z" transform="translate(-3721.457 832.549)"/>
      </g>
      <g id="Grupo_184847" data-name="Grupo 184847" transform="translate(3.196 13.857)">
        <path id="Trazado_182009" data-name="Trazado 182009" d="M3726.3-814.663a8.807,8.807,0,0,1,1.626-2.882,14.672,14.672,0,0,1,2.364-2.32,15.775,15.775,0,0,1,2.81-1.734,12.511,12.511,0,0,1,3.118-1.061c-.421.372-.867.674-1.3,1l-1.293.946c-.862.618-1.692,1.26-2.527,1.891A56.409,56.409,0,0,0,3726.3-814.663Z" transform="translate(-3726.299 822.661)"/>
      </g>
    </g>
    <g id="Grupo_184852" data-name="Grupo 184852" transform="translate(94.455 46.436)">
      <g id="Grupo_184849" data-name="Grupo 184849">
        <path id="Trazado_182010" data-name="Trazado 182010" d="M3846.69-843.088a56.287,56.287,0,0,0-6.261,1.078c-1.018.246-2.04.481-3.064.756l-1.551.4c-.524.127-1.042.281-1.6.371a12.524,12.524,0,0,1,2.8-1.741,15.81,15.81,0,0,1,3.122-1.074,14.68,14.68,0,0,1,3.293-.359A8.806,8.806,0,0,1,3846.69-843.088Z" transform="translate(-3834.218 843.657)"/>
      </g>
      <g id="Grupo_184850" data-name="Grupo 184850" transform="translate(2.041 7.331)">
        <path id="Trazado_182011" data-name="Trazado 182011" d="M3849.661-829.072a56.38,56.38,0,0,0-6.1-1.782c-1.022-.226-2.045-.463-3.085-.666l-1.57-.32c-.527-.116-1.058-.206-1.6-.368a12.5,12.5,0,0,1,3.277-.337,15.773,15.773,0,0,1,3.276.406,14.687,14.687,0,0,1,3.116,1.124A8.8,8.8,0,0,1,3849.661-829.072Z" transform="translate(-3837.311 832.549)"/>
      </g>
      <g id="Grupo_184851" data-name="Grupo 184851" transform="translate(1.276 13.857)">
        <path id="Trazado_182012" data-name="Trazado 182012" d="M3846.071-814.663a56.369,56.369,0,0,0-4.8-4.162c-.836-.631-1.665-1.273-2.527-1.891l-1.293-.946c-.431-.325-.877-.628-1.3-1a12.525,12.525,0,0,1,3.119,1.061,15.775,15.775,0,0,1,2.81,1.734,14.692,14.692,0,0,1,2.364,2.32A8.8,8.8,0,0,1,3846.071-814.663Z" transform="translate(-3836.152 822.661)"/>
      </g>
    </g>
    <g id="Grupo_184853" data-name="Grupo 184853" transform="translate(109.259 89.866)">
      <path id="Trazado_182013" data-name="Trazado 182013" d="M3858.021-777.851s-4.766,11.258,3.46,32.952,13.173,19.158,13.173,19.158S3874.241-748.277,3858.021-777.851Z" transform="translate(-3856.648 777.851)" fill="#f8c328"/>
    </g>
    <g id="Grupo_184854" data-name="Grupo 184854" transform="translate(52.224 57.521)">
      <path id="Trazado_182014" data-name="Trazado 182014" d="M3771.247-824.669s-5.375,13.521,8.586,14.841,21.344-3.942,15.343-14.841c0,0-9.6,4.863-12.586-2.193C3782.589-826.861,3781-820.09,3771.247-824.669Z" transform="translate(-3770.23 826.861)"/>
    </g>
    <g id="Grupo_184855" data-name="Grupo 184855" transform="translate(53.468 62.651)">
      <path id="Trazado_182015" data-name="Trazado 182015" d="M3772.119-814.195s6.242-6.194,10.482-2.726c0,0,7.841-6.09,13.609,2.153S3771.726-805.044,3772.119-814.195Z" transform="translate(-3772.115 819.087)" fill="#bf0a0a"/>
    </g>
    <g id="Grupo_184856" data-name="Grupo 184856" transform="translate(3.057 89.731)">
      <path id="Trazado_182016" data-name="Trazado 182016" d="M3711.055-778.056s4.106,11.258-4.12,32.951-11.193,19.158-11.193,19.158S3694.835-748.482,3711.055-778.056Z" transform="translate(-3695.732 778.056)" fill="#f8c328"/>
    </g>
    <g id="Grupo_184857" data-name="Grupo 184857" transform="translate(26.978 20.261)">
      <ellipse id="Elipse_3705" data-name="Elipse 3705" cx="15.62" cy="13.551" rx="15.62" ry="13.551" transform="translate(0.33 0.33)" fill="#fff"/>
      <path id="Trazado_182017" data-name="Trazado 182017" d="M3747.927-855.554c-8.982,0-15.95-7.462-15.95-13.881s6.967-13.881,15.95-13.881,15.95,7.462,15.95,13.881S3756.909-855.554,3747.927-855.554Zm0-27.1c-8.61,0-15.29,7.107-15.29,13.221s6.68,13.221,15.29,13.221,15.29-7.107,15.29-13.221S3756.538-882.656,3747.927-882.656Z" transform="translate(-3731.977 883.316)"/>
    </g>
    <g id="Grupo_184858" data-name="Grupo 184858" transform="translate(36.466 29.99)">
      <circle id="Elipse_3706" data-name="Elipse 3706" cx="6.132" cy="6.132" r="6.132" transform="translate(0.33 0.33)"/>
      <path id="Trazado_182018" data-name="Trazado 182018" d="M3752.815-855.651a6.469,6.469,0,0,1-6.462-6.462,6.47,6.47,0,0,1,6.462-6.462,6.469,6.469,0,0,1,6.462,6.462A6.469,6.469,0,0,1,3752.815-855.651Zm0-12.264a5.809,5.809,0,0,0-5.8,5.8,5.809,5.809,0,0,0,5.8,5.8,5.808,5.808,0,0,0,5.8-5.8A5.808,5.808,0,0,0,3752.815-867.915Z" transform="translate(-3746.353 868.575)" fill="#fff"/>
    </g>
    <g id="Grupo_184859" data-name="Grupo 184859" transform="translate(69.599 20.261)">
      <ellipse id="Elipse_3707" data-name="Elipse 3707" cx="15.62" cy="13.551" rx="15.62" ry="13.551" transform="translate(0.33 0.33)" fill="#fff"/>
      <path id="Trazado_182019" data-name="Trazado 182019" d="M3812.506-855.554c-8.983,0-15.95-7.462-15.95-13.881s6.967-13.881,15.95-13.881,15.949,7.462,15.949,13.881S3821.487-855.554,3812.506-855.554Zm0-27.1c-8.61,0-15.29,7.107-15.29,13.221s6.679,13.221,15.29,13.221,15.289-7.107,15.289-13.221S3821.116-882.656,3812.506-882.656Z" transform="translate(-3796.556 883.316)"/>
    </g>
    <g id="Grupo_184860" data-name="Grupo 184860" transform="translate(79.087 29.99)">
      <circle id="Elipse_3708" data-name="Elipse 3708" cx="6.132" cy="6.132" r="6.132" transform="translate(0.33 0.33)"/>
      <path id="Trazado_182020" data-name="Trazado 182020" d="M3817.394-855.651a6.469,6.469,0,0,1-6.462-6.462,6.469,6.469,0,0,1,6.462-6.462,6.469,6.469,0,0,1,6.461,6.462A6.469,6.469,0,0,1,3817.394-855.651Zm0-12.264a5.809,5.809,0,0,0-5.8,5.8,5.809,5.809,0,0,0,5.8,5.8,5.808,5.808,0,0,0,5.8-5.8A5.808,5.808,0,0,0,3817.394-867.915Z" transform="translate(-3810.932 868.575)" fill="#fff"/>
    </g>
  </g>
</svg>
