<svg xmlns="http://www.w3.org/2000/svg" xmlns:xlink="http://www.w3.org/1999/xlink" width="154.03" height="198.371" viewBox="0 0 154.03 198.371">
  <defs>
    <linearGradient id="linear-gradient" x1="0.5" y1="1" x2="0.5" gradientUnits="objectBoundingBox">
      <stop offset="0.267" stop-color="#4fa0ca"/>
      <stop offset="0.296" stop-color="#51a1ca"/>
      <stop offset="0.312" stop-color="#59a5cd"/>
      <stop offset="0.324" stop-color="#66acd1"/>
      <stop offset="0.335" stop-color="#79b7d6"/>
      <stop offset="0.344" stop-color="#92c4de"/>
      <stop offset="0.353" stop-color="#b1d5e7"/>
      <stop offset="0.361" stop-color="#d4e8f2"/>
      <stop offset="0.369" stop-color="#fdfefe"/>
      <stop offset="0.369" stop-color="#fff"/>
      <stop offset="0.484" stop-color="#ff0001"/>
      <stop offset="0.573" stop-color="#fff"/>
      <stop offset="0.691" stop-color="#ff0001"/>
      <stop offset="0.794" stop-color="#fff"/>
      <stop offset="0.898" stop-color="#ff0001"/>
      <stop offset="0.967" stop-color="#fff"/>
    </linearGradient>
  </defs>
  <g id="Grupo_184820" data-name="Grupo 184820" transform="translate(0 0)">
    <g id="Grupo_184786" data-name="Grupo 184786" transform="translate(6.062 0.876)">
      <path id="Trazado_181931" data-name="Trazado 181931" d="M4092.547-889.76c4.95-9.9,3.659-23.462,3.659-23.462a54.535,54.535,0,0,0-28.353,6.148,44.617,44.617,0,0,0-24.384-7.655,46.853,46.853,0,0,0-26.643,8.556h0s-9.089-8.34-28.677-5.972c0,0-2.434,11.387,9.223,32.062l.006-.007a47.943,47.943,0,0,0-2.34,14.763c0,26.927,22.753,48.109,48.432,48.109s49.077-18.6,49.077-45.525a49.842,49.842,0,0,0-3.627-18.417h0v0q-.06-.152-.121-.3C4088.966-882.175,4089.768-884.2,4092.547-889.76Z" transform="translate(-3987.591 915.059)" fill="#f6f97f"/>
      <path id="Trazado_181932" data-name="Trazado 181932" d="M4043.291-817.06a49.367,49.367,0,0,1-34.075-14.05,47.7,47.7,0,0,1-14.686-34.388,48.264,48.264,0,0,1,2.308-14.716c-11.509-20.472-9.29-31.7-9.189-32.171l.049-.23.234-.028c10.184-1.23,17.5.471,21.841,2.117a24.764,24.764,0,0,1,6.9,3.767,46.977,46.977,0,0,1,26.62-8.469,44.886,44.886,0,0,1,24.4,7.6,55.768,55.768,0,0,1,28.357-6.092l.284.015.027.284c.013.137,1.244,13.769-3.693,23.641a63.256,63.256,0,0,0-3.7,8.123l.083.2a50.008,50.008,0,0,1,3.65,18.539,43.7,43.7,0,0,1-15.021,33.108A52.44,52.44,0,0,1,4043.291-817.06Zm-45.212-64.862-.566,1.761a47.628,47.628,0,0,0-2.324,14.661,47.048,47.048,0,0,0,14.486,33.916,48.706,48.706,0,0,0,33.615,13.863A51.775,51.775,0,0,0,4077.24-830.3a43.048,43.048,0,0,0,14.8-32.614,49.322,49.322,0,0,0-3.6-18.294l-.162-.4.025-.1a62.436,62.436,0,0,1,3.774-8.365c4.461-8.921,3.8-21,3.649-23a54.615,54.615,0,0,0-27.877,6.117l-.177.1-.172-.113a44.28,44.28,0,0,0-24.2-7.6,46.362,46.362,0,0,0-26.456,8.5l-1.858,1.288,1.213-1.516a24.832,24.832,0,0,0-6.69-3.625c-4.232-1.6-11.342-3.25-21.245-2.093-.248,1.7-1.314,12.707,8.984,31.169Z" transform="translate(-3987.412 915.229)" fill="#bf570c"/>
    </g>
    <g id="Grupo_184787" data-name="Grupo 184787" transform="translate(97.826 136.079)">
      <ellipse id="Elipse_3694" data-name="Elipse 3694" cx="27.283" cy="7.749" rx="27.283" ry="7.749" transform="translate(0 21.868) rotate(-23.625)" fill="#f6f97f"/>
      <path id="Trazado_181933" data-name="Trazado 181933" d="M4136.661-676.565c-3.211,0-5.393-.746-6.073-2.3-.894-2.043.958-5.1,5.218-8.609a74.082,74.082,0,0,1,16.843-9.858,74.1,74.1,0,0,1,18.672-5.677c5.47-.746,8.971-.031,9.865,2.013,1.815,4.15-7.875,12.262-22.062,18.468C4150.251-678.648,4142.022-676.565,4136.661-676.565Zm38.514-26.074a28.176,28.176,0,0,0-3.764.283,73.426,73.426,0,0,0-18.5,5.628,73.422,73.422,0,0,0-16.687,9.763c-3.953,3.256-5.787,6.112-5.033,7.836,1.612,3.683,14.281,1.85,27.668-4s23.332-13.914,21.72-17.6h0C4180.034-701.985,4178.121-702.639,4175.174-702.639Z" transform="translate(-4127.785 707.965)" fill="#bf570c"/>
    </g>
    <g id="Grupo_184788" data-name="Grupo 184788" transform="translate(0 77.717)">
      <path id="Trazado_181934" data-name="Trazado 181934" d="M4106-734.785c0-20.664-21.956-63.069-21.956-63.069s-15.5,21.17-40.9,21.525c-30.781.431-43.265-20.449-43.265-20.449s-2.892,4.35-6.535,11.119c-6.832,12.691-16.31,33.888-14.345,50.873,3.5,30.232,33.712,55.1,64.146,55.1C4079.951-679.679,4106-704.351,4106-734.785Z" transform="translate(-3978.4 798.478)" fill="#1d3092"/>
      <path id="Trazado_181935" data-name="Trazado 181935" d="M4042.973-679.672h0c-14.721,0-30.171-5.939-42.388-16.294-12.556-10.642-20.4-24.529-22.086-39.1-1.917-16.566,6.763-36.915,14.382-51.068,3.61-6.705,6.522-11.1,6.551-11.146l.29-.435.269.448c.124.207,12.741,20.737,42.978,20.289,24.948-.349,40.482-21.18,40.636-21.391l.314-.43.244.473c.22.425,21.993,42.714,21.993,63.221a52.178,52.178,0,0,1-17.734,39.211C4076.762-685.434,4060.621-679.672,4042.973-679.672ZM3999.7-796.493c-.807,1.25-3.29,5.181-6.243,10.669-14.445,26.835-15.165,43.271-14.307,50.679,1.667,14.406,9.43,28.142,21.858,38.675,12.1,10.255,27.393,16.137,41.96,16.137,17.486,0,33.471-5.7,45.009-16.055a51.525,51.525,0,0,0,17.514-38.72c0-19.2-19.313-57.794-21.683-62.455-2.369,2.987-17.553,20.916-40.836,21.242-15.984.214-26.978-5.385-33.377-10.128A43.039,43.039,0,0,1,3999.7-796.493Z" transform="translate(-3978.228 798.8)" fill="url(#linear-gradient)"/>
    </g>
    <g id="Grupo_184789" data-name="Grupo 184789" transform="translate(26.706 21.26)">
      <path id="Trazado_181936" data-name="Trazado 181936" d="M4050.431-863.693c0,6.391-6.993,8.271-15.62,8.271s-15.62-8.48-15.62-14.871,6.993-13.551,15.62-13.551S4050.431-863.693,4050.431-863.693Z" transform="translate(-4018.862 884.173)" fill="#fff"/>
      <path id="Trazado_181937" data-name="Trazado 181937" d="M4034.642-855.262c-8.59,0-15.95-8.359-15.95-15.2,0-6.419,6.968-13.881,15.95-13.881,3.706,0,7.519,3.446,11.333,10.244a71.709,71.709,0,0,1,4.6,10.129l.018.108C4050.591-858.156,4045.225-855.262,4034.642-855.262Zm0-28.421c-8.611,0-15.29,7.107-15.29,13.221,0,6.545,7.055,14.541,15.29,14.541,10.11,0,15.253-2.653,15.289-7.885C4049.527-864.943,4042.725-883.683,4034.642-883.683Z" transform="translate(-4018.692 884.343)"/>
    </g>
    <g id="Grupo_184790" data-name="Grupo 184790" transform="translate(69.326 21.26)">
      <path id="Trazado_181938" data-name="Trazado 181938" d="M4115.01-870.292c0,6.391-6.994,14.871-15.62,14.871s-15.619-1.88-15.619-8.271c0,0,6.992-20.151,15.619-20.151S4115.01-876.683,4115.01-870.292Z" transform="translate(-4083.441 884.173)" fill="#fff"/>
      <path id="Trazado_181939" data-name="Trazado 181939" d="M4099.22-855.262c-10.582,0-15.948-2.894-15.948-8.6l.018-.108a71.658,71.658,0,0,1,4.6-10.129c3.814-6.8,7.627-10.244,11.332-10.244,8.982,0,15.95,7.462,15.95,13.881C4115.17-863.62,4107.81-855.262,4099.22-855.262Zm-15.289-8.545c.036,5.232,5.179,7.885,15.289,7.885,8.235,0,15.29-8,15.29-14.541,0-6.114-6.679-13.221-15.29-13.221C4091.135-883.683,4084.335-864.943,4083.931-863.806Z" transform="translate(-4083.271 884.343)"/>
    </g>
    <g id="Grupo_184791" data-name="Grupo 184791" transform="translate(78.814 30.989)">
      <circle id="Elipse_3695" data-name="Elipse 3695" cx="6.132" cy="6.132" r="6.132" transform="translate(0.33 0.33)"/>
      <path id="Trazado_181940" data-name="Trazado 181940" d="M4104.108-856.678a6.469,6.469,0,0,1-6.462-6.462,6.469,6.469,0,0,1,6.462-6.462,6.468,6.468,0,0,1,6.461,6.462A6.468,6.468,0,0,1,4104.108-856.678Zm0-12.264a5.809,5.809,0,0,0-5.8,5.8,5.809,5.809,0,0,0,5.8,5.8,5.809,5.809,0,0,0,5.8-5.8A5.809,5.809,0,0,0,4104.108-868.942Z" transform="translate(-4097.646 869.602)" fill="#fff"/>
    </g>
    <g id="Grupo_184792" data-name="Grupo 184792" transform="translate(89.395 7.618)">
      <path id="Trazado_181941" data-name="Trazado 181941" d="M4128.81-885.679s-4.846-11.288-15.131-15.909c0,0,6.331-4.454,20.094-3.2C4133.773-904.792,4133.895-893.308,4128.81-885.679Z" transform="translate(-4113.679 905.013)" fill="#134a9e"/>
    </g>
    <g id="Grupo_184793" data-name="Grupo 184793" transform="translate(30.465 19.518)">
      <path id="Trazado_181942" data-name="Trazado 181942" d="M4024.389-883.053a18.365,18.365,0,0,1,5.838-2.909,22.246,22.246,0,0,1,6.513-1.012,23.934,23.934,0,0,1,3.31.2,20.466,20.466,0,0,1,3.226.751,18.162,18.162,0,0,1,5.812,2.973,54.8,54.8,0,0,0-6.171-1.47c-1.017-.2-2.054-.257-3.073-.387l-1.542-.069a13.981,13.981,0,0,0-1.542-.016,40.275,40.275,0,0,0-6.178.53A55.711,55.711,0,0,0,4024.389-883.053Z" transform="translate(-4024.389 886.983)"/>
    </g>
    <g id="Grupo_184794" data-name="Grupo 184794" transform="translate(72.765 17.194)">
      <path id="Trazado_181943" data-name="Trazado 181943" d="M4088.481-884.25a15.983,15.983,0,0,1,4.923-4.145,16.055,16.055,0,0,1,6.255-2.034,14.478,14.478,0,0,1,3.346.045,13.659,13.659,0,0,1,3.219.864,13.538,13.538,0,0,1,5.23,3.794,26.658,26.658,0,0,0-5.715-2.326,19.457,19.457,0,0,0-2.932-.463,17.359,17.359,0,0,0-2.946.056,22.5,22.5,0,0,0-5.8,1.456A39.268,39.268,0,0,0,4088.481-884.25Z" transform="translate(-4088.481 890.504)"/>
    </g>
    <g id="Grupo_184795" data-name="Grupo 184795" transform="translate(39.957 46.327)">
      <path id="Trazado_181944" data-name="Trazado 181944" d="M4062.489-818.388,4053.8-826.7l-4.677,2.464-6.013-7.392h-4.343s-.335-14.941,16.369-14.708,20.044-1.129,28.061,3.4,0,14.387,0,14.387l-6.681-3.823-4.01,9.059-6.013-4.62Z" transform="translate(-4038.771 846.361)" fill="#7f3008"/>
    </g>
    <g id="Grupo_184796" data-name="Grupo 184796" transform="translate(55.823 41.184)">
      <path id="Trazado_181945" data-name="Trazado 181945" d="M4063.407-849.076s3.369,5.451,8.142,5.128,7.355-5.128,7.355-5.128a8.9,8.9,0,0,0-7.1-4.559C4066.763-853.993,4063.407-849.076,4063.407-849.076Z" transform="translate(-4063.013 853.984)"/>
      <path id="Trazado_181946" data-name="Trazado 181946" d="M4070.931-843.775c-4.678,0-7.87-5.076-8.008-5.3l-.113-.183.121-.177c.141-.207,3.524-5.071,8.691-4.7a9.15,9.15,0,0,1,7.376,4.742l.074.152-.08.15c-.109.2-2.726,4.969-7.625,5.3Q4071.148-843.774,4070.931-843.775Zm-7.325-5.462c.635.931,3.687,5.057,7.718,4.789,4.06-.275,6.516-4,7-4.8a8.633,8.633,0,0,0-6.749-4.225C4067.333-853.769,4064.26-850.095,4063.606-849.237Z" transform="translate(-4062.811 854.154)" fill="#fff"/>
    </g>
    <g id="Grupo_184797" data-name="Grupo 184797" transform="translate(52.789)">
      <path id="Trazado_181947" data-name="Trazado 181947" d="M4069.87-916.556l3.363,5.528,2.179-1.368,2.241,4.85,1.9.162s-.648,9.365-7.952,8.6-8.84-.038-12.112-3.173.765-9,.765-9l2.724,2.641,2.237-5.521,2.389,3.116Z" transform="translate(-4058.213 916.556)" fill="#7f3008"/>
    </g>
    <g id="Grupo_184798" data-name="Grupo 184798" transform="translate(12.02 7.964)">
      <path id="Trazado_181948" data-name="Trazado 181948" d="M4004.064-884.935s3.2-11.861,12.721-17.9c0,0-6.9-3.51-20.345-.319C3996.44-903.149,3997.949-891.765,4004.064-884.935Z" transform="translate(-3996.44 904.489)" fill="#134a9e"/>
    </g>
    <g id="Grupo_184799" data-name="Grupo 184799" transform="translate(11.738 85.751)">
      <path id="Trazado_181949" data-name="Trazado 181949" d="M4047.727-763.4c8.788,1.106,35.515-7.215,46.817-21.162l4.154,9.166s-22.77,20.706-47.409,21.455-55.275-21.657-55.275-21.657l5.874-11.028S4015.565-767.448,4047.727-763.4Z" transform="translate(-3996.013 786.626)" fill="#fff"/>
    </g>
    <g id="Grupo_184800" data-name="Grupo 184800" transform="translate(2.981 107.093)">
      <path id="Trazado_181950" data-name="Trazado 181950" d="M3985.5-750.637s18.663,16.194,58.229,18.917,54.668-22.569,54.668-22.569l4.14,11.343s-12.19,24.369-58.52,24-61.273-23.16-61.273-23.16Z" transform="translate(-3982.744 754.289)" fill="#fff"/>
    </g>
    <g id="Grupo_184801" data-name="Grupo 184801" transform="translate(0.597 134.566)">
      <path id="Trazado_181951" data-name="Trazado 181951" d="M3979.133-705.818s21.453,17.337,62.854,17.8,63.518-24.64,63.518-24.64l.34,12.323s-21.977,28.87-63.356,25.443-59.023-15.237-59.023-15.237Z" transform="translate(-3979.133 712.662)" fill="#fff"/>
    </g>
    <g id="Grupo_184802" data-name="Grupo 184802" transform="translate(0.067 78.878)">
      <path id="Trazado_181952" data-name="Trazado 181952" d="M3999.908-796.223s-23.5,32.078-20.88,61.993l5.811-3.982,4.527,16.163,2.4-9.539,4.594,14.368v-23.854s11.789-14.437,29.059-3.284v30.24l4.124-7.41-2.161,16.492,7.269-11.868V-761.02l-13.561-17.841S4011.57-781.873,3999.908-796.223Z" transform="translate(-3978.498 796.763)"/>
      <path id="Trazado_181953" data-name="Trazado 181953" d="M4026.681-703.819l2.138-16.317-3.9,7.011v-31.331c-16.047-10.242-27.378,2.054-28.4,3.225v25.847l-4.885-15.28-2.417,9.621-4.738-16.915-5.9,4.041-.049-.563c-1.359-15.526,4.41-31.618,9.489-42.384a134.287,134.287,0,0,1,11.453-19.832l.253-.345.27.332c11.467,14.11,20.927,17.225,21.022,17.254l.1.032,13.692,18.013v44.32Zm3.242-19.656-2.184,16.667,6.41-10.467v-43.912l-13.434-17.673c-1.06-.378-10.131-3.9-20.958-17.1-2.492,3.537-22.723,33.225-20.615,60.855l5.721-3.921,4.317,15.409,2.375-9.456,4.3,13.455V-741.47l.075-.092c.12-.147,12.175-14.535,29.494-3.351l.151.1v29.149Z" transform="translate(-3978.33 797.041)" fill="#fff"/>
    </g>
    <g id="Grupo_184803" data-name="Grupo 184803" transform="translate(71.382 77.748)">
      <path id="Trazado_181954" data-name="Trazado 181954" d="M4120.815-797.854s-10.784,13.52-24.431,18.438l-9.495,16.8,1.051,45.3,1.367,8.163,5.012-7.829,2.065,5.861v-38.694s26.556-7.116,29.059,8.193v26.88l4.56-7.334,2.564,7.41,3.3-16.684,3.486,5.559,3.418-12.969S4143.713-756.2,4120.815-797.854Z" transform="translate(-4086.557 798.447)"/>
      <path id="Trazado_181955" data-name="Trazado 181955" d="M4088.951-708.566l-1.508-9.007-1.057-45.434,9.6-16.983.116-.041c13.4-4.83,24.178-18.2,24.284-18.334l.309-.387.238.434c22.681,41.258,22.006,59.088,22,59.263l-.011.067-3.613,13.705-3.449-5.5-3.375,17.065-2.736-7.908-4.8,7.727v-28.036a9.783,9.783,0,0,0-4.456-6.886c-7.528-4.863-21.893-1.558-23.944-1.051V-709.5l-2.482-7.043Zm-1.9-54.275,1.049,45.205,1.219,7.271,4.915-7.677,1.649,4.679v-37.018l.245-.065a57.922,57.922,0,0,1,9.173-1.5c6.808-.553,12.04.313,15.543,2.576a10.436,10.436,0,0,1,4.754,7.387l0,25.778,4.314-6.94,2.392,6.911,3.224-16.3,3.524,5.618,3.215-12.2c.024-.853.2-18.523-21.683-58.453-1.874,2.229-11.908,13.661-24.149,18.121Z" transform="translate(-4086.386 798.752)" fill="#fff"/>
    </g>
    <g id="Grupo_184804" data-name="Grupo 184804" transform="translate(17.266 124.759)">
      <path id="Trazado_181956" data-name="Trazado 181956" d="M4005.388-727.522v59.087h29.059v-59.087" transform="translate(-4004.729 727.522)" fill="#f6f97f"/>
      <path id="Trazado_181957" data-name="Trazado 181957" d="M4034.767-667.776h-30.379v-59.747h1.32V-669.1h27.739v-58.427h1.32Z" transform="translate(-4004.388 727.522)" fill="#bf570c"/>
    </g>
    <g id="Grupo_184805" data-name="Grupo 184805" transform="translate(80.549 124.759)">
      <path id="Trazado_181958" data-name="Trazado 181958" d="M4101.276-727.522v59.087h29.06v-59.087" transform="translate(-4100.616 727.522)" fill="#f6f97f"/>
      <path id="Trazado_181959" data-name="Trazado 181959" d="M4130.655-667.776h-30.379v-59.747h1.32V-669.1h27.739v-58.427h1.32Z" transform="translate(-4100.276 727.522)" fill="#bf570c"/>
    </g>
    <g id="Grupo_184806" data-name="Grupo 184806" transform="translate(13.002 176.401)">
      <ellipse id="Elipse_3696" data-name="Elipse 3696" cx="18.888" cy="10.332" rx="18.888" ry="10.332" transform="translate(0.33 0.33)" fill="#82d0e3"/>
      <path id="Trazado_181960" data-name="Trazado 181960" d="M4017.147-627.95c-10.6,0-19.219-4.783-19.219-10.662s8.622-10.662,19.219-10.662,19.218,4.783,19.218,10.662S4027.743-627.95,4017.147-627.95Zm0-20.664c-10.234,0-18.559,4.487-18.559,10s8.325,10,18.559,10,18.558-4.487,18.558-10S4027.38-648.614,4017.147-648.614Z" transform="translate(-3997.928 649.274)" fill="#f5c07f"/>
    </g>
    <g id="Grupo_184807" data-name="Grupo 184807" transform="translate(76.316 177.046)">
      <ellipse id="Elipse_3697" data-name="Elipse 3697" cx="18.888" cy="10.332" rx="18.888" ry="10.332" transform="translate(0.33 0.33)" fill="#82d0e3"/>
      <path id="Trazado_181961" data-name="Trazado 181961" d="M4113.08-626.971c-10.6,0-19.218-4.783-19.218-10.662s8.621-10.663,19.218-10.663,19.218,4.783,19.218,10.663S4123.677-626.971,4113.08-626.971Zm0-20.665c-10.233,0-18.558,4.487-18.558,10s8.325,10,18.558,10,18.559-4.487,18.559-10S4123.312-647.636,4113.08-647.636Z" transform="translate(-4093.861 648.296)" fill="#f5c07f"/>
    </g>
    <g id="Grupo_184808" data-name="Grupo 184808" transform="translate(36.354 32.276)">
      <circle id="Elipse_3698" data-name="Elipse 3698" cx="6.132" cy="6.132" r="6.132" transform="translate(0.33 0.33)"/>
      <path id="Trazado_181962" data-name="Trazado 181962" d="M4039.773-854.728a6.469,6.469,0,0,1-6.462-6.462,6.469,6.469,0,0,1,6.462-6.462,6.469,6.469,0,0,1,6.461,6.462A6.469,6.469,0,0,1,4039.773-854.728Zm0-12.264a5.809,5.809,0,0,0-5.8,5.8,5.809,5.809,0,0,0,5.8,5.8,5.809,5.809,0,0,0,5.8-5.8A5.809,5.809,0,0,0,4039.773-866.992Z" transform="translate(-4033.311 867.652)" fill="#fff"/>
    </g>
    <g id="Grupo_184809" data-name="Grupo 184809" transform="translate(88.109 127.801)">
      <path id="Trazado_181963" data-name="Trazado 181963" d="M4126.83-715.924c0-3.584-3.269-6.488-7.3-6.488s-7.3,2.9-7.3,6.488a6.258,6.258,0,0,0,2.875,5.152v5.234h8v-4.732A6.406,6.406,0,0,0,4126.83-715.924Z" transform="translate(-4111.9 722.742)" fill="#fff"/>
      <path id="Trazado_181964" data-name="Trazado 181964" d="M4123.266-705.378H4114.6v-5.391a6.525,6.525,0,0,1-2.874-5.324c0-3.76,3.423-6.818,7.629-6.818s7.63,3.058,7.63,6.818a6.721,6.721,0,0,1-3.724,5.854Zm-8-.66h7.341v-4.605l.182-.092a6.093,6.093,0,0,0,3.542-5.358c0-3.4-3.127-6.158-6.97-6.158s-6.97,2.763-6.97,6.158a5.9,5.9,0,0,0,2.73,4.879l.144.1Z" transform="translate(-4111.731 722.912)"/>
    </g>
    <g id="Grupo_184810" data-name="Grupo 184810" transform="translate(91.652 132.385)">
      <circle id="Elipse_3699" data-name="Elipse 3699" cx="1.402" cy="1.402" r="1.402" transform="translate(0.33 0.33)"/>
      <path id="Trazado_181965" data-name="Trazado 181965" d="M4118.832-712.5a1.735,1.735,0,0,1-1.732-1.732,1.735,1.735,0,0,1,1.732-1.732,1.735,1.735,0,0,1,1.733,1.732A1.735,1.735,0,0,1,4118.832-712.5Zm0-2.8a1.074,1.074,0,0,0-1.073,1.072,1.074,1.074,0,0,0,1.073,1.072,1.074,1.074,0,0,0,1.073-1.072A1.074,1.074,0,0,0,4118.832-715.306Z" transform="translate(-4117.099 715.966)" fill="#fff"/>
    </g>
    <g id="Grupo_184811" data-name="Grupo 184811" transform="translate(96.381 132.385)">
      <circle id="Elipse_3700" data-name="Elipse 3700" cx="1.926" cy="1.926" r="1.926" transform="translate(0.329 0.33)"/>
      <path id="Trazado_181966" data-name="Trazado 181966" d="M4126.521-711.455a2.253,2.253,0,0,1-1.736-.812h0a2.259,2.259,0,0,1,.292-3.178,2.241,2.241,0,0,1,1.648-.513,2.243,2.243,0,0,1,1.528.8,2.237,2.237,0,0,1,.513,1.649,2.24,2.24,0,0,1-.8,1.529A2.247,2.247,0,0,1,4126.521-711.455Zm-1.229-1.234a1.6,1.6,0,0,0,2.249.206,1.59,1.59,0,0,0,.569-1.082,1.59,1.59,0,0,0-.363-1.166,1.586,1.586,0,0,0-1.082-.569,1.584,1.584,0,0,0-1.167.363,1.6,1.6,0,0,0-.206,2.248Z" transform="translate(-4124.264 715.966)" fill="#fff"/>
    </g>
    <g id="Grupo_184812" data-name="Grupo 184812" transform="translate(80.218 173.139)">
      <path id="Trazado_181967" data-name="Trazado 181967" d="M4100.324-653.716h30.331v9.57h-30.379Z" transform="translate(-4099.945 654.046)"/>
      <path id="Trazado_181968" data-name="Trazado 181968" d="M4130.814-643.986h-31.04l.052-10.23h30.988Zm-30.378-.66h29.718v-8.91h-29.672Z" transform="translate(-4099.774 654.216)" fill="#fff"/>
    </g>
    <g id="Grupo_184813" data-name="Grupo 184813" transform="translate(16.935 173.132)">
      <path id="Trazado_181969" data-name="Trazado 181969" d="M4004.388-653.056l30.379-.66v10.376h-30.379Z" transform="translate(-4004.058 654.053)"/>
      <path id="Trazado_181970" data-name="Trazado 181970" d="M4034.927-643.184h-31.039v-10.369l31.039-.675Zm-30.379-.66h29.719v-9.709l-29.719.645Z" transform="translate(-4003.888 654.227)" fill="#fff"/>
    </g>
    <g id="Grupo_184814" data-name="Grupo 184814" transform="translate(30.439 177.962)">
      <path id="Trazado_181971" data-name="Trazado 181971" d="M4028.333-645.981c0,.962-.78,0-1.741,0s-1.742.962-1.742,0,.78,0,1.742,0S4028.333-646.943,4028.333-645.981Z" transform="translate(-4024.519 646.739)"/>
      <path id="Trazado_181972" data-name="Trazado 181972" d="M4027.93-645.393a1.7,1.7,0,0,1-.62-.182,2.335,2.335,0,0,0-.889-.246,2.332,2.332,0,0,0-.888.246c-.331.141-.643.275-.915.1a.762.762,0,0,1-.269-.672.761.761,0,0,1,.269-.671c.272-.179.584-.046.915.1a2.331,2.331,0,0,0,.888.246,2.334,2.334,0,0,0,.889-.246c.331-.141.643-.274.914-.1a.76.76,0,0,1,.269.671.761.761,0,0,1-.269.672A.519.519,0,0,1,4027.93-645.393Zm-.288-.758c.065.028.133.055.189.075,0-.02,0-.045,0-.075s0-.053,0-.074C4027.775-646.206,4027.706-646.178,4027.642-646.151Zm-2.63-.074c0,.02,0,.045,0,.074s0,.054,0,.075c.055-.019.124-.047.189-.075C4025.136-646.178,4025.067-646.206,4025.011-646.225Z" transform="translate(-4024.349 646.909)" fill="#fff"/>
    </g>
    <g id="Grupo_184815" data-name="Grupo 184815" transform="translate(40.009 177.962)">
      <path id="Trazado_181973" data-name="Trazado 181973" d="M4042.833-645.981c0,.962-.78,0-1.741,0s-1.742.962-1.742,0,.779,0,1.742,0S4042.833-646.943,4042.833-645.981Z" transform="translate(-4039.019 646.739)"/>
      <path id="Trazado_181974" data-name="Trazado 181974" d="M4042.43-645.393a1.7,1.7,0,0,1-.62-.182,2.335,2.335,0,0,0-.889-.246,2.334,2.334,0,0,0-.888.246c-.331.141-.643.275-.915.1a.762.762,0,0,1-.269-.672.761.761,0,0,1,.269-.671c.272-.179.584-.046.915.1a2.333,2.333,0,0,0,.888.246,2.334,2.334,0,0,0,.889-.246c.331-.141.643-.274.914-.1a.76.76,0,0,1,.269.671.761.761,0,0,1-.269.672A.52.52,0,0,1,4042.43-645.393Zm-.288-.758c.065.028.133.055.189.075,0-.02,0-.045,0-.075s0-.053,0-.074C4042.275-646.206,4042.207-646.178,4042.142-646.151Zm-2.63-.074c0,.02,0,.045,0,.074s0,.054,0,.075c.055-.019.124-.047.189-.075C4039.636-646.178,4039.567-646.206,4039.512-646.225Z" transform="translate(-4038.849 646.909)" fill="#fff"/>
    </g>
    <g id="Grupo_184816" data-name="Grupo 184816" transform="translate(85.712 177.999)">
      <path id="Trazado_181975" data-name="Trazado 181975" d="M4111.779-645.962c0,.878-.712,0-1.59,0s-1.589.878-1.589,0,.712,0,1.589,0S4111.779-646.84,4111.779-645.962Z" transform="translate(-4108.27 646.683)"/>
      <path id="Trazado_181976" data-name="Trazado 181976" d="M4108.642-645.411a.5.5,0,0,1-.285-.084.719.719,0,0,1-.258-.637.72.72,0,0,1,.258-.637c.261-.172.553-.047.861.084a2.116,2.116,0,0,0,.8.222,2.107,2.107,0,0,0,.8-.222c.309-.131.6-.256.861-.084a.719.719,0,0,1,.258.637.719.719,0,0,1-.258.637c-.261.173-.553.047-.861-.085a2.11,2.11,0,0,0-.8-.222,2.115,2.115,0,0,0-.8.222A1.569,1.569,0,0,1,4108.642-645.411Zm.118-.748v.055l.07-.028Zm2.449.027.07.028v-.055Z" transform="translate(-4108.099 646.853)" fill="#fff"/>
    </g>
    <g id="Grupo_184817" data-name="Grupo 184817" transform="translate(94.829 177.988)">
      <path id="Trazado_181977" data-name="Trazado 181977" d="M4125.673-645.967c0,.9-.729,0-1.63,0s-1.631.9-1.631,0,.73,0,1.631,0S4125.673-646.867,4125.673-645.967Z" transform="translate(-4122.082 646.699)"/>
      <path id="Trazado_181978" data-name="Trazado 181978" d="M4122.46-645.407a.506.506,0,0,1-.286-.084.73.73,0,0,1-.262-.647.728.728,0,0,1,.262-.646c.262-.175.56-.047.875.087a2.174,2.174,0,0,0,.825.229,2.162,2.162,0,0,0,.823-.229c.315-.134.612-.263.877-.087a.73.73,0,0,1,.26.646.732.732,0,0,1-.26.647c-.265.174-.562.046-.877-.088a2.16,2.16,0,0,0-.823-.229,2.172,2.172,0,0,0-.825.229A1.6,1.6,0,0,1,4122.46-645.407Zm2.61-.731c.036.015.072.029.1.04,0-.012,0-.025,0-.04s0-.028,0-.04Zm-2.5-.04c0,.013,0,.026,0,.04s0,.028,0,.04c.033-.011.067-.026.1-.04Z" transform="translate(-4121.912 646.869)" fill="#fff"/>
    </g>
    <g id="Grupo_184818" data-name="Grupo 184818" transform="translate(104.027 177.999)">
      <path id="Trazado_181979" data-name="Trazado 181979" d="M4139.529-645.962c0,.878-.712,0-1.59,0s-1.589.878-1.589,0,.711,0,1.589,0S4139.529-646.84,4139.529-645.962Z" transform="translate(-4136.02 646.683)"/>
      <path id="Trazado_181980" data-name="Trazado 181980" d="M4136.392-645.411a.5.5,0,0,1-.285-.084.719.719,0,0,1-.258-.637.72.72,0,0,1,.258-.637c.261-.172.553-.047.862.084a2.114,2.114,0,0,0,.8.222,2.107,2.107,0,0,0,.8-.222c.309-.131.6-.256.862-.084a.72.72,0,0,1,.258.637.72.72,0,0,1-.258.637c-.262.173-.553.047-.862-.085a2.11,2.11,0,0,0-.8-.222,2.113,2.113,0,0,0-.8.222A1.571,1.571,0,0,1,4136.392-645.411Zm.118-.748v.055l.07-.028Zm2.449.027.07.028v-.055Z" transform="translate(-4135.849 646.853)" fill="#fff"/>
    </g>
    <g id="Grupo_184819" data-name="Grupo 184819" transform="translate(59.478 110.111)">
      <ellipse id="Elipse_3701" data-name="Elipse 3701" cx="4.207" cy="6.517" rx="4.207" ry="6.517" transform="translate(0.33 0.33)" fill="#14807d"/>
      <path id="Trazado_181981" data-name="Trazado 181981" d="M4072.887-736.021c-2.5,0-4.538-3.072-4.538-6.847s2.036-6.847,4.538-6.847,4.537,3.072,4.537,6.847S4075.389-736.021,4072.887-736.021Zm0-13.035c-2.138,0-3.877,2.776-3.877,6.187s1.739,6.187,3.877,6.187,3.877-2.776,3.877-6.187S4075.025-749.056,4072.887-749.056Z" transform="translate(-4068.349 749.716)" fill="#fff"/>
    </g>
  </g>
</svg>
