<svg xmlns="http://www.w3.org/2000/svg" width="1123.341" height="402.672" viewBox="0 0 1123.341 402.672">
  <g id="Grupo_184865" data-name="Grupo 184865" transform="translate(-260.5 -2515.21)">
    <ellipse id="Elipse_3445" data-name="Elipse 3445" cx="52.381" cy="14.878" rx="52.381" ry="14.878" transform="translate(1275.934 2840.272) rotate(-23.625)" fill="#135ca7"/>
    <path id="Trazado_179925" data-name="Trazado 179925" d="M2407.158,497.711c-6.278,0-10.307-1.506-11.579-4.416-3.486-7.969,15.119-23.544,42.356-35.457,12.871-5.63,25.6-9.5,35.849-10.9,10.5-1.433,17.221-.06,18.938,3.863h0c1.717,3.924-1.841,9.795-10.018,16.529-7.981,6.576-19.467,13.3-32.338,18.928s-25.6,9.5-35.849,10.9A54.949,54.949,0,0,1,2407.158,497.711Zm74.023-50.059a53.943,53.943,0,0,0-7.227.544c-10.133,1.382-22.745,5.219-35.511,10.8-25.7,11.241-44.8,26.714-41.7,33.789,1.447,3.31,7.866,4.448,17.606,3.116,10.134-1.382,22.746-5.219,35.513-10.8S2474,472.858,2481.9,466.356c7.589-6.252,11.112-11.735,9.663-15.044h0C2490.51,448.909,2486.84,447.652,2481.181,447.652Z" transform="translate(-1114.263 2360.861)"/>
    <path id="Trazado_179926" data-name="Trazado 179926" d="M2453.9,282.211c9.5-19.01,7.025-45.046,7.025-45.046-31.821-1.654-54.434,11.8-54.434,11.8-14.071-9.23-30.195-14.7-46.815-14.7a89.959,89.959,0,0,0-51.154,16.427l0,0s-17.451-16.011-55.059-11.465c0,0-4.673,21.86,17.708,61.555l.01-.014a92.062,92.062,0,0,0-4.493,28.344c0,51.7,43.685,92.364,92.985,92.364s94.224-35.708,94.224-87.405a95.737,95.737,0,0,0-6.962-35.359h0l0,0q-.114-.291-.233-.579C2447.027,296.773,2448.565,292.882,2453.9,282.211Z" transform="translate(-1152.219 2304.204)" fill="#135ca7"/>
    <path id="Trazado_179927" data-name="Trazado 179927" d="M2359.816,422.249c-23.964,0-47.81-9.833-65.422-26.975a91.581,91.581,0,0,1-28.2-66.023A92.689,92.689,0,0,1,2270.63,301c-22.091-39.3-17.836-60.864-17.641-61.765l.094-.441.448-.054c19.555-2.367,33.6.9,41.934,4.064a47.6,47.6,0,0,1,13.245,7.231,90.2,90.2,0,0,1,51.107-16.26c15.974,0,32.162,5.043,46.84,14.589,2.989-1.666,24.906-13.235,54.443-11.7l.547.028.051.544c.025.262,2.387,26.436-7.09,45.389-5.109,10.219-6.7,14.136-7.1,15.6l.16.393a96,96,0,0,1,7.007,35.592,83.9,83.9,0,0,1-28.84,63.564C2408.255,413.328,2384.192,422.249,2359.816,422.249Zm-86.782-124.59-1.106,3.443a91.412,91.412,0,0,0-4.462,28.149,90.316,90.316,0,0,0,27.813,65.114c17.378,16.916,40.9,26.617,64.538,26.617,24.07,0,47.828-8.805,65.18-24.159a82.645,82.645,0,0,0,28.411-62.614,94.7,94.7,0,0,0-6.919-35.124l-.309-.768.047-.2c.471-1.981,2.909-7.385,7.246-16.061,8.561-17.121,7.287-40.321,7.006-44.156-30.947-1.45-53.3,11.61-53.522,11.744l-.34.2-.332-.218c-14.557-9.548-30.625-14.593-46.469-14.593a89.018,89.018,0,0,0-50.792,16.314l-.4-.479-.386.423c-.043-.039-4.424-3.991-13.3-7.34-8.126-3.068-21.778-6.237-40.788-4.019-.477,3.259-2.523,24.394,17.244,59.838Z" transform="translate(-1152.359 2304.071)"/>
    <path id="Trazado_179928" data-name="Trazado 179928" d="M2487.856,472.918c0-39.673-42.153-121.087-42.153-121.087s-29.753,40.645-78.521,41.327c-59.1.826-83.066-39.26-83.066-39.26s-45.874,69.015-40.088,119.021c6.716,58.042,64.724,105.794,123.154,105.8C2437.851,578.716,2487.856,531.348,2487.856,472.918Z" transform="translate(-1154.766 2335.605)" fill="#135ca7"/>
    <path id="Trazado_179929" data-name="Trazado 179929" d="M2367.32,579.6h-.006c-28.261,0-57.923-11.4-81.378-31.282-24.107-20.433-39.166-47.095-42.4-75.074-5.745-49.662,39.729-118.752,40.188-119.444l.557-.836.516.86c.236.394,24,38.965,80.75,38.965q.876,0,1.764-.011c47.9-.672,77.722-40.664,78.019-41.068l.6-.825.47.909c.423.815,42.224,82,42.224,121.377,0,28.844-12.091,55.579-34.046,75.281C2432.192,568.538,2401.2,579.6,2367.32,579.6Zm-83.074-224.285a336.058,336.058,0,0,0-21.642,39.875c-9.767,21.367-20.785,52.229-17.813,77.908,3.2,27.658,18.1,54.029,41.964,74.254,23.23,19.688,52.592,30.982,80.559,30.982,33.574,0,64.264-10.947,86.415-30.824,21.684-19.46,33.626-45.859,33.626-74.339,0-36.858-37.08-110.959-41.628-119.91-4.549,5.736-33.7,40.157-78.4,40.784-30.691.443-51.795-10.34-64.081-19.446A82.6,82.6,0,0,1,2284.247,355.315Z" transform="translate(-1154.898 2335.352)"/>
    <path id="Trazado_179930" data-name="Trazado 179930" d="M2264.693,299.264l37.989,18.819,42.587-13.262s3.681-9.535,16.116-8.752,13.638,8.752,13.638,8.752l37.527,13.262,35.77-22.059s16.16,40.591-21.258,80.09-106.229,34.634-134.641,2.766S2263.271,330.3,2264.693,299.264Z" transform="translate(-1149.223 2320.698)" fill="#d49515"/>
    <path id="Trazado_179931" data-name="Trazado 179931" d="M2357.634,405.1c-.555,0-1.109,0-1.667-.013-26.072-.394-49.953-9.959-63.885-25.585-28.68-32.172-29.287-49.578-27.889-80.065l.045-.971,38.631,19.137,42.07-13.1c.771-1.64,5.12-9.578,16.62-8.863,11.373.715,13.724,7.221,14.143,8.9l36.906,13.044,36.154-22.3.279.7c.164.409,15.879,41.422-21.386,80.76C2410.541,394.814,2385.1,405.1,2357.634,405.1ZM2265.415,300.46c-1.36,30.359-.5,46.66,27.613,78.194,13.7,15.367,37.235,24.773,62.958,25.162,27.736.451,53.532-9.763,70.749-27.941,19.172-20.241,23.9-40.748,24.485-54.387a69.056,69.056,0,0,0-3.1-24.318l-35.363,21.808-.287-.1-37.881-13.39-.059-.375c-.048-.3-1.32-7.477-13.052-8.215-11.837-.746-15.451,8.257-15.486,8.346l-.11.285-43.121,13.43Z" transform="translate(-1149.355 2320.501)"/>
    <path id="Trazado_179932" data-name="Trazado 179932" d="M2399.882,328.5a26.666,26.666,0,0,0-1.04-8.71c-1.1-3.6-4.849-6.49-9.839-8.8-11.53-6.385-38.164-8.559-38.164-8.559s-.4.027-1.1.086c-.711-.06-1.1-.086-1.1-.086S2322,304.612,2310.464,311c-4.988,2.307-8.74,5.2-9.836,8.8a26.667,26.667,0,0,0-1.042,8.71c-.06,2.576.039,5.573.07,9.268.1,11.923,14.258,16.117,24.177,14.679,4.3-.623,20.069-15.285,23.316-17.646,5.737-3.021-3.161-19.6,2.585-19.935,5.746.337-3.151,16.915,2.583,19.935,3.247,2.361,19.014,17.022,23.317,17.646,9.917,1.438,24.075-2.756,24.175-14.679C2399.843,334.078,2399.941,331.081,2399.882,328.5Z" transform="translate(-1139.798 2322.412)" fill="#d3d212"/>
    <path id="Trazado_179933" data-name="Trazado 179933" d="M2379.586,353.484a27.659,27.659,0,0,1-3.908-.27c-3.067-.446-10.606-6.731-18.721-13.691-2.246-1.926-4.018-3.447-4.878-4.071a4.613,4.613,0,0,1-2.217-3.929,4.717,4.717,0,0,1-2.283,3.977c-.781.577-2.555,2.1-4.8,4.023-8.115,6.96-15.655,13.245-18.72,13.691-6.09.878-14.653-.3-20.053-4.938a13.3,13.3,0,0,1-4.848-10.366c-.01-1.258-.029-2.437-.047-3.544-.034-2.164-.063-4.033-.023-5.743a26.97,26.97,0,0,1,1.067-8.879c1.054-3.462,4.478-6.552,10.177-9.189,11.477-6.356,37.286-8.526,38.38-8.615.045-.01.491.025,1.209.086.61-.061,1.009-.087,1.009-.087,1.188.09,27,2.26,38.514,8.637,5.66,2.617,9.084,5.707,10.137,9.169a27.094,27.094,0,0,1,1.068,8.9c.039,1.708.01,3.576-.024,5.737-.018,1.1-.036,2.276-.047,3.529a13.293,13.293,0,0,1-4.847,10.366C2391.412,351.983,2385.067,353.484,2379.586,353.484Zm-29.755-39.112a2.505,2.505,0,0,1,1.951.916c1.253,1.583.7,4.8.051,8.528-.75,4.33-1.6,9.238.915,10.563.977.7,2.768,2.239,5.034,4.183,5.656,4.85,15.123,12.969,18.08,13.4,5.81.84,13.947-.269,19.044-4.644a12.069,12.069,0,0,0,4.406-9.413c.011-1.258.029-2.433.047-3.539.034-2.157.063-4.019.024-5.708v-.038a25.859,25.859,0,0,0-1.015-8.5c-.943-3.1-4.138-5.929-9.5-8.407-11.221-6.211-37.216-8.441-37.936-8.5-.006.006-.386.033-1.014.085-.807-.058-1.2-.085-1.2-.085-.171.02-26.535,2.236-37.815,8.481-5.4,2.5-8.594,5.328-9.537,8.429a25.8,25.8,0,0,0-1.014,8.5c-.039,1.722-.01,3.579.024,5.73.018,1.111.037,2.292.047,3.555a12.076,12.076,0,0,0,4.406,9.413c5.1,4.375,13.241,5.483,19.046,4.644,2.956-.428,12.421-8.547,18.078-13.4,2.266-1.944,4.057-3.479,4.956-4.135,2.592-1.372,1.743-6.28.992-10.611-.644-3.727-1.2-6.945.052-8.528A2.468,2.468,0,0,1,2349.831,314.372Zm0,1.265a1.186,1.186,0,0,0-.883.438c-.9,1.139-.34,4.385.2,7.525.287,1.651.585,3.381.715,5.006.133-1.626.432-3.354.719-5.006.544-3.14,1.106-6.386.2-7.525A1.222,1.222,0,0,0,2349.831,315.637Z" transform="translate(-1139.932 2322.278)" fill="#444"/>
    <path id="Trazado_179934" data-name="Trazado 179934" d="M2327.417,340.061s6.469,10.465,15.632,9.845,14.123-9.845,14.123-9.845a17.087,17.087,0,0,0-13.637-8.752C2333.86,330.622,2327.417,340.061,2327.417,340.061Z" transform="translate(-1132.358 2330.114)" fill="#d3d212"/>
    <path id="Trazado_179935" data-name="Trazado 179935" d="M2342.413,350.7c-8.981,0-15.111-9.744-15.375-10.172l-.217-.35.232-.341c.271-.4,6.736-9.712,16.687-9.027a17.566,17.566,0,0,1,14.161,9.105l.143.291-.153.288c-.21.389-5.233,9.541-14.639,10.177C2342.97,350.691,2342.689,350.7,2342.413,350.7Zm-14.065-10.487c1.218,1.787,7.085,9.74,14.819,9.194,7.794-.527,12.509-7.68,13.438-9.222a16.566,16.566,0,0,0-12.955-8.111C2335.5,331.473,2329.6,338.567,2328.347,340.214Z" transform="translate(-1132.518 2329.98)" fill="#444"/>
    <path id="Trazado_179936" data-name="Trazado 179936" d="M2328.2,304.819s6.469,10.465,15.632,9.844,14.122-9.844,14.122-9.844a17.087,17.087,0,0,0-13.637-8.752C2334.64,295.38,2328.2,304.819,2328.2,304.819Z" transform="translate(-1132.15 2320.7)" fill="#e97ebd"/>
    <path id="Trazado_179937" data-name="Trazado 179937" d="M2272.922,289.105s8.792-24.85,31.732-37.781c0,0-15.912-11.831-47.757-5.783C2256.9,245.541,2259.28,272.886,2272.922,289.105Z" transform="translate(-1151.194 2306.754)" fill="#560553"/>
    <path id="Trazado_179938" data-name="Trazado 179938" d="M2410.217,289.681s-9.163-27.214-28.922-38.825c0,0,12.282-10.274,38.8-6.517C2420.1,244.339,2420.146,271.758,2410.217,289.681Z" transform="translate(-1117.967 2306.672)" fill="#560553"/>
    <path id="Trazado_179939" data-name="Trazado 179939" d="M2403.121,248.536a14.383,14.383,0,0,1-1.337,8.291c-.464.906.9,1.708,1.367.8a15.834,15.834,0,0,0,1.553-9.09c-.107-1-1.693-1.014-1.584,0Z" transform="translate(-1112.52 2307.813)"/>
    <path id="Trazado_179940" data-name="Trazado 179940" d="M2405.8,247.316c.856,5.623.055,11.147-3.177,15.906-.574.845.8,1.638,1.367.8,3.482-5.128,4.257-11.086,3.336-17.128-.153-1-1.679-.577-1.527.422Z" transform="translate(-1112.308 2307.423)"/>
    <path id="Trazado_179941" data-name="Trazado 179941" d="M2409.5,244.277c1.718,9.61.087,19.275-6.752,26.583l1.12,1.12.964-1.042c.693-.746-.425-1.869-1.12-1.12l-.964,1.042c-.692.746.42,1.866,1.12,1.12,7.226-7.722,8.981-17.935,7.16-28.123-.18-1-1.706-.578-1.528.421Z" transform="translate(-1112.296 2306.611)"/>
    <path id="Trazado_179942" data-name="Trazado 179942" d="M2412.516,242.233a44.11,44.11,0,0,1-2.647,25.462c-1.334,3.238-3.548,6.12-4.849,9.308-.423,1.038-.993,1.228-.606,2.33a.806.806,0,0,0,.975.553l.3-.1a.8.8,0,0,0,.474-1.163l-.142-.219c-.552-.853-1.923-.06-1.368.8.5.77,5.937-9.135,6.268-9.895a50.984,50.984,0,0,0,2.9-8.562,44.989,44.989,0,0,0,.229-18.937c-.19-1-1.717-.578-1.528.421Z" transform="translate(-1111.826 2306.065)"/>
    <path id="Trazado_179943" data-name="Trazado 179943" d="M2267.4,248.667a15.836,15.836,0,0,0,1.553,9.09c.465.907,1.832.108,1.367-.8a14.406,14.406,0,0,1-1.337-8.291c.11-1.012-1.475-1-1.584,0Z" transform="translate(-1148.418 2307.847)"/>
    <path id="Trazado_179944" data-name="Trazado 179944" d="M2265.218,247.024c-.921,6.043-.146,12,3.336,17.128.571.837,1.943.047,1.369-.8-3.235-4.763-4.034-10.281-3.177-15.906.152-1-1.375-1.427-1.528-.422Z" transform="translate(-1149.067 2307.457)"/>
    <path id="Trazado_179945" data-name="Trazado 179945" d="M2262.354,243.987c-1.821,10.186-.067,20.4,7.159,28.123.7.746,1.812-.374,1.12-1.12l-.964-1.042c-.695-.749-1.813.372-1.121,1.12l.964,1.042,1.12-1.12c-6.826-7.293-8.469-16.975-6.752-26.583.179-1-1.349-1.424-1.527-.421Z" transform="translate(-1149.915 2306.646)"/>
    <path id="Trazado_179946" data-name="Trazado 179946" d="M2259.647,241.943a45.34,45.34,0,0,0,.227,18.937,49.439,49.439,0,0,0,2.509,7.668c.425,1.023,6.149,11.573,6.655,10.788.555-.858-.815-1.654-1.368-.8l-.141.219a.8.8,0,0,0,.473,1.163l.3.1a.807.807,0,0,0,.974-.552c.263-.748,0-.82-.1-1.527-.157-1.12-2.378-3.9-2.932-4.932a55.185,55.185,0,0,1-2.425-5.18,44.169,44.169,0,0,1-2.648-25.462c.189-1-1.338-1.423-1.527-.421Z" transform="translate(-1150.697 2306.1)"/>
    <path id="Trazado_179947" data-name="Trazado 179947" d="M2325.968,418.366V531.807h-55.79V418.366" transform="translate(-1147.647 2353.376)" fill="#135ca7"/>
    <path id="Trazado_179948" data-name="Trazado 179948" d="M2326.736,532.441h-57.058V418.366h1.267V531.174h54.524V418.366h1.267Z" transform="translate(-1147.78 2353.376)"/>
    <path id="Trazado_179949" data-name="Trazado 179949" d="M2421.857,418.366V531.807h-55.791V418.366" transform="translate(-1122.035 2353.376)" fill="#135ca7"/>
    <path id="Trazado_179950" data-name="Trazado 179950" d="M2422.624,532.441h-57.059V418.366h1.267V531.174h54.524V418.366h1.268Z" transform="translate(-1122.168 2353.376)"/>
    <path id="Trazado_179951" data-name="Trazado 179951" d="M2316.813,307.636h-7.348a14.923,14.923,0,0,1-14.878-14.878V285.41c0-8.183,6.7-11.158,14.878-11.158l7.348,8.678a14.922,14.922,0,0,1,14.877,14.878v-5.051A14.922,14.922,0,0,1,2316.813,307.636Z" transform="translate(-1141.127 2314.883)" fill="#fff"/>
    <path id="Trazado_179952" data-name="Trazado 179952" d="M2370.1,307.671h-7.513a14.922,14.922,0,0,1-14.877-14.878v4.886a14.922,14.922,0,0,1,14.877-14.878l7.513-8.678c8.182,0,14.878,2.975,14.878,11.158v7.513A14.922,14.922,0,0,1,2370.1,307.671Z" transform="translate(-1126.938 2314.848)" fill="#fff"/>
    <circle id="Elipse_3446" data-name="Elipse 3446" cx="10.014" cy="10.014" r="10.014" transform="translate(1163.97 2599.934)"/>
    <path id="Trazado_179953" data-name="Trazado 179953" d="M2313.028,303.57a10.647,10.647,0,1,1,10.648-10.647A10.659,10.659,0,0,1,2313.028,303.57Zm0-20.028a9.38,9.38,0,1,0,9.382,9.38A9.391,9.391,0,0,0,2313.028,283.542Z" transform="translate(-1139.045 2317.026)" fill="#fff"/>
    <circle id="Elipse_3447" data-name="Elipse 3447" cx="10.014" cy="10.014" r="10.014" transform="translate(1228.281 2599.934)"/>
    <path id="Trazado_179954" data-name="Trazado 179954" d="M2363.785,303.57a10.647,10.647,0,1,1,10.647-10.647A10.66,10.66,0,0,1,2363.785,303.57Zm0-20.028a9.38,9.38,0,1,0,9.38,9.38A9.393,9.393,0,0,0,2363.785,283.542Z" transform="translate(-1125.488 2317.026)" fill="#fff"/>
    <path id="Trazado_179955" data-name="Trazado 179955" d="M2284.463,259.974l8.069,17.927-9.971,30.992-5.82-3.24,5.82-21.219L2272,277.9S2276.32,267.55,2284.463,259.974Z" transform="translate(-1147.16 2311.069)" fill="#fff"/>
    <path id="Trazado_179956" data-name="Trazado 179956" d="M2283.094,310.048l-6.928-3.858,5.825-21.242-10.614-6.566.208-.5c.044-.105,4.466-10.565,12.613-18.148l.647-.6,8.531,18.955-.075.233Zm-5.444-4.482,4.711,2.623,9.661-30.024-7.6-16.891a58.736,58.736,0,0,0-11.445,16.6l10.491,6.491Z" transform="translate(-1147.326 2310.844)"/>
    <path id="Trazado_179957" data-name="Trazado 179957" d="M2293.622,275.923l3.484-7.22-7.122-15.246-4.827,4.049Z" transform="translate(-1143.646 2309.328)" fill="#fff"/>
    <path id="Trazado_179958" data-name="Trazado 179958" d="M2293.771,277.623l-9.227-20.077,5.83-4.89,7.6,16.266Zm-7.672-19.729,7.7,16.755,2.767-5.737-6.643-14.224Z" transform="translate(-1143.809 2309.115)"/>
    <path id="Trazado_179959" data-name="Trazado 179959" d="M2392.874,258.207l-8.07,17.927,9.971,30.992,5.82-3.24-5.82-21.219,10.559-6.533S2401.015,265.783,2392.874,258.207Z" transform="translate(-1117.029 2310.597)" fill="#fff"/>
    <path id="Trazado_179960" data-name="Trazado 179960" d="M2394.552,308.279l-10.283-31.959,8.531-18.953.647.6c8.148,7.582,12.568,18.041,12.612,18.146l.208.5-10.614,6.569,5.826,21.241Zm-8.928-31.883,9.661,30.024L2400,303.8l-5.813-21.2,10.492-6.493a58.818,58.818,0,0,0-11.446-16.6Z" transform="translate(-1117.173 2310.373)"/>
    <path id="Trazado_179961" data-name="Trazado 179961" d="M2381.9,274.156l-3.484-7.22,7.122-15.246,4.827,4.049Z" transform="translate(-1118.734 2308.856)" fill="#fff"/>
    <path id="Trazado_179962" data-name="Trazado 179962" d="M2382.066,275.858l-4.2-8.7,7.6-16.267,5.83,4.89Zm-2.8-8.713,2.767,5.738,7.7-16.755-3.825-3.207Z" transform="translate(-1118.882 2308.642)"/>
    <rect id="Rect치ngulo_165204" data-name="Rect치ngulo 165204" width="19.296" height="113.441" transform="translate(1244.031 2771.742)" fill="#fff"/>
    <path id="Trazado_179963" data-name="Trazado 179963" d="M2386.13,532.575h-20.564V417.866h20.564Zm-19.3-1.267h18.03V419.133h-18.03Z" transform="translate(-1122.168 2353.243)"/>
    <rect id="Rect치ngulo_165205" data-name="Rect치ngulo 165205" width="18.554" height="110.523" transform="translate(1178.322 2883.807) rotate(180)" fill="#fff"/>
    <path id="Trazado_179964" data-name="Trazado 179964" d="M2318.886,530.872h-19.822V419.082h19.822Zm-18.555-1.267h17.287V420.349h-17.287Z" transform="translate(-1139.931 2353.568)"/>
    <ellipse id="Elipse_3448" data-name="Elipse 3448" cx="36.264" cy="19.837" rx="36.264" ry="19.837" transform="translate(1113.712 2876.336)" fill="#bf0a0a"/>
    <path id="Trazado_179965" data-name="Trazado 179965" d="M2299.616,541.351c-20.346,0-36.9-9.183-36.9-20.47s16.552-20.471,36.9-20.471,36.9,9.184,36.9,20.471S2319.961,541.351,2299.616,541.351Zm0-39.674c-19.648,0-35.631,8.615-35.631,19.2s15.983,19.2,35.631,19.2,35.63-8.615,35.63-19.2S2319.263,501.677,2299.616,501.677Z" transform="translate(-1149.64 2375.291)" fill="#444"/>
    <ellipse id="Elipse_3449" data-name="Elipse 3449" cx="36.264" cy="19.837" rx="36.264" ry="19.837" transform="translate(1235.27 2877.575)" fill="#bf0a0a"/>
    <path id="Trazado_179966" data-name="Trazado 179966" d="M2395.549,542.33c-20.345,0-36.9-9.184-36.9-20.471s16.552-20.47,36.9-20.47,36.9,9.183,36.9,20.47S2415.895,542.33,2395.549,542.33Zm0-39.674c-19.647,0-35.63,8.615-35.63,19.2s15.983,19.2,35.63,19.2,35.631-8.615,35.631-19.2S2415.2,502.656,2395.549,502.656Z" transform="translate(-1124.015 2375.552)" fill="#444"/>
    <path id="Trazado_179967" data-name="Trazado 179967" d="M2287.425,381.449c-4.71-.441-39.121,34.875-34.265,48.32h77.479S2298.65,382.5,2287.425,381.449Z" transform="translate(-1152.317 2343.515)" fill="#135ca7"/>
    <path id="Trazado_179968" data-name="Trazado 179968" d="M2331.965,430.536h-79.118l-.151-.418c-2.666-7.38,5.943-20.117,11.313-27.053,8.86-11.446,20.578-22.394,23.607-22.114h0c11.391,1.066,42.367,46.656,43.68,48.6Zm-78.212-1.267h75.817c-4.672-6.788-32.154-46.128-42.072-47.055a.514.514,0,0,0-.063,0c-2.219,0-13.225,9.744-22.425,21.63C2256.259,415.148,2252.282,424.142,2253.753,429.268Z" transform="translate(-1152.45 2343.382)"/>
    <path id="Trazado_179969" data-name="Trazado 179969" d="M2365.15,431.43s24.5-48.306,36.96-49.407c5.228-.462,43.426,36.6,38.035,50.707Z" transform="translate(-1122.279 2343.668)" fill="#135ca7"/>
    <path id="Trazado_179970" data-name="Trazado 179970" d="M2440.792,433.5l-76.45-1.325.459-.9c1.006-1.984,24.8-48.63,37.468-49.75,3.823-.369,19.3,13.989,29.055,26.9,5.773,7.641,12.129,18.121,9.627,24.669Zm-74.4-2.557,73.515,1.276c1.452-4.754-1.937-12.9-9.6-23.039-10.883-14.4-25.21-26.4-27.864-26.4a.636.636,0,0,0-.069,0c-4.889.432-12.729,9.016-22.671,24.823C2373.327,417.758,2367.965,427.922,2366.4,430.948Z" transform="translate(-1122.495 2343.534)"/>
    <path id="Trazado_179971" data-name="Trazado 179971" d="M2295.192,288.814c-1.183-7.353,3.563-15.181,11.544-13.493,4.767,1.009,5.118,3.738,8.276,6.73a8.155,8.155,0,0,0,4.152,2.353c1.083.21,2.326-.222,3.366.006,5.741,1.262,4.6,3.136,6.57,6.31,4.862,7.833,15.834,5.892,20.406-1.332l-1.447-.189c1.129,3.568,3.626,6.442,7.6,6.787,5.481.475,7.4-3.948,10.763-7.19,4.408-4.246,11.268-4.05,15.263-8.942,2.583-3.164,4.961-5.919,9.653-4.51a12.793,12.793,0,0,1,8.938,14.691c-.175,1,1.352,1.424,1.528.421.8-4.578-.068-8.846-3.276-12.347-2.454-2.674-8.765-6.74-12.525-5.459-1.489.507-2.434,1.836-3.372,2.987-1.124,1.38-1.869,3.141-3.181,4.377-2.041,1.921-4.674,2.585-7.208,3.524-2.247.832-4.567,1.581-6.411,3.188a24.092,24.092,0,0,0-2.484,3.064L2360,293.449q-7.913,2.956-10.417-4.671a.8.8,0,0,0-1.447-.19c-4.115,6.5-13.792,7.505-18.018.585-1.165-1.908-1.6-4-3.539-5.316-3.382-2.295-6.807.147-10.449-2.928-2.37-2-3.4-5.241-6.073-6.991-3.842-2.511-8.622-.974-11.916,1.8-4.216,3.544-5.33,8.216-4.479,13.5.163,1,1.689.578,1.528-.421Z" transform="translate(-1141.445 2314.39)"/>
    <path id="Trazado_179972" data-name="Trazado 179972" d="M2344.969,259.049h-9.422l-4.71,8.16,4.71,8.16h9.422l4.711-8.16Z" transform="translate(-1131.445 2310.822)" fill="#fff"/>
    <path id="Trazado_179973" data-name="Trazado 179973" d="M3018.425,442.627c3.293,7.528-15.525,23.03-42.029,34.622s-50.662,14.89-53.953,7.362,15.524-23.028,42.028-34.622,50.66-14.89,53.954-7.362" transform="translate(-2041.207 2352.092)" fill="#0d0c0d"/>
    <path id="Trazado_179974" data-name="Trazado 179974" d="M2933.573,489.414c-6.28,0-10.307-1.507-11.579-4.417-3.486-7.969,15.119-23.543,42.356-35.456,12.87-5.63,25.6-9.5,35.849-10.9,10.5-1.432,17.222-.058,18.938,3.865h0c1.717,3.923-1.841,9.793-10.018,16.529-7.983,6.576-19.466,13.3-32.337,18.928s-25.6,9.5-35.849,10.9A54.97,54.97,0,0,1,2933.573,489.414Zm74.022-50.06a53.9,53.9,0,0,0-7.225.544c-10.135,1.382-22.746,5.219-35.513,10.8-25.7,11.24-44.8,26.714-41.7,33.789,1.448,3.308,7.866,4.448,17.607,3.116,10.133-1.382,22.746-5.219,35.513-10.8s24.144-12.242,32.039-18.744c7.589-6.252,11.11-11.736,9.663-15.044h0C3016.926,440.611,3013.255,439.355,3007.594,439.355Z" transform="translate(-2041.338 2351.959)" fill="#fff"/>
    <path id="Trazado_179975" data-name="Trazado 179975" d="M2980.016,271.906c9.505-19.01,7.026-45.046,7.026-45.046-31.822-1.655-54.435,11.8-54.435,11.8-14.073-9.228-30.2-14.7-46.816-14.7a89.968,89.968,0,0,0-51.153,16.427l0,0s-17.452-16.01-55.059-11.465c0,0-4.674,21.861,17.706,61.556l.011-.015a92.032,92.032,0,0,0-4.492,28.344c0,51.7,43.685,92.366,92.985,92.366s94.225-35.71,94.225-87.406a95.716,95.716,0,0,0-6.963-35.357h0l0,0c-.077-.194-.154-.388-.233-.579.324-1.362,1.863-5.253,7.2-15.922" transform="translate(-2079.374 2294.766)" fill="#fff"/>
    <path id="Trazado_179976" data-name="Trazado 179976" d="M3018.125,442.627c3.294,7.528-15.524,23.03-42.029,34.622s-50.661,14.89-53.953,7.362,15.524-23.028,42.028-34.622,50.66-14.89,53.953-7.362" transform="translate(-2041.287 2352.092)" fill="#0d0c0d"/>
    <path id="Trazado_179977" data-name="Trazado 179977" d="M2939.716,502.694c0,40.219-27.311,48.027-61,48.027s-61-7.808-61-48.027,27.312-97.619,61-97.619,61,57.4,61,97.619" transform="translate(-2069.082 2343.141)" fill="#f5a156"/>
    <path id="Trazado_179978" data-name="Trazado 179978" d="M2878.846,551.488c-30.478,0-61.635-5.782-61.635-48.661,0-38.649,26.468-98.253,61.635-98.253s61.637,59.6,61.637,98.253C2940.482,545.706,2909.324,551.488,2878.846,551.488Zm0-145.646c-15.188,0-30.311,11.865-42.584,33.409-10.97,19.255-17.784,43.615-17.784,63.577,0,41.763,30.516,47.393,60.368,47.393,19.667,0,33.264-2.807,42.8-8.834,11.824-7.475,17.573-20.089,17.573-38.559,0-19.962-6.815-44.322-17.784-63.577C2909.158,417.707,2894.034,405.842,2878.846,405.842Z" transform="translate(-2069.215 2343.008)" fill="#f4c07f"/>
    <path id="Trazado_179979" data-name="Trazado 179979" d="M2796.094,409.478V522.919h55.791V409.478" transform="translate(-2074.855 2344.317)" fill="#a86c10"/>
    <path id="Trazado_179980" data-name="Trazado 179980" d="M2853.419,524.187h-58.325V409.478h2.534V521.652h53.258V409.478h2.533Z" transform="translate(-2075.123 2344.317)" fill="#fff"/>
    <path id="Trazado_179981" data-name="Trazado 179981" d="M2891.982,409.478V522.919h55.791V409.478" transform="translate(-2049.244 2344.317)" fill="#a86c10"/>
    <path id="Trazado_179982" data-name="Trazado 179982" d="M2949.307,524.187h-58.325V409.478h2.534V521.652h53.257V409.478h2.534Z" transform="translate(-2049.51 2344.317)" fill="#fff"/>
    <path id="Trazado_179983" data-name="Trazado 179983" d="M2861.861,511.86c0,10.957-16.237,19.836-36.264,19.836s-36.264-8.88-36.264-19.836,16.236-19.837,36.264-19.837,36.264,8.881,36.264,19.837" transform="translate(-2076.662 2366.365)" fill="#f5a156"/>
    <path id="Trazado_179984" data-name="Trazado 179984" d="M2825.731,532.463c-20.346,0-36.9-9.183-36.9-20.47s16.552-20.469,36.9-20.469,36.9,9.183,36.9,20.469S2846.076,532.463,2825.731,532.463Zm0-39.672c-19.648,0-35.631,8.613-35.631,19.2s15.983,19.2,35.631,19.2,35.63-8.615,35.63-19.2S2845.377,492.791,2825.731,492.791Z" transform="translate(-2076.795 2366.232)" fill="#f4c07f"/>
    <path id="Trazado_179985" data-name="Trazado 179985" d="M2957.8,512.839c0,10.955-16.237,19.837-36.265,19.837s-36.264-8.881-36.264-19.837S2901.5,493,2921.53,493s36.265,8.88,36.265,19.836" transform="translate(-2051.037 2366.626)" fill="#f5a156"/>
    <path id="Trazado_179986" data-name="Trazado 179986" d="M2921.664,533.443c-20.344,0-36.9-9.183-36.9-20.471s16.552-20.47,36.9-20.47,36.9,9.183,36.9,20.47S2942.01,533.443,2921.664,533.443Zm0-39.674c-19.646,0-35.63,8.615-35.63,19.2s15.983,19.2,35.63,19.2,35.631-8.615,35.631-19.2S2941.311,493.768,2921.664,493.768Z" transform="translate(-2051.17 2366.493)" fill="#f4c07f"/>
    <path id="Trazado_179987" data-name="Trazado 179987" d="M2926,319.617a26.628,26.628,0,0,0-1.04-8.709c-1.1-3.6-4.849-6.49-9.838-8.8-11.531-6.384-38.165-8.558-38.165-8.558s-.394.025-1.1.085c-.71-.06-1.1-.085-1.1-.085s-26.633,2.174-38.166,8.558c-4.989,2.309-8.741,5.2-9.837,8.8a26.628,26.628,0,0,0-1.041,8.709c-.059,2.577.041,5.574.072,9.268.1,11.923,14.256,16.118,24.176,14.679,4.3-.623,7.67-2.886,10.917-5.248,5.736-3.021,9.235-5.959,14.983-6.3,5.747.337,9.247,3.275,14.981,6.3,3.248,2.362,6.615,4.625,10.919,5.248,9.918,1.438,24.076-2.756,24.176-14.679.033-3.694.132-6.69.071-9.268" transform="translate(-2066.953 2313.352)" fill="#f5a2af"/>
    <path id="Trazado_179988" data-name="Trazado 179988" d="M2905.7,344.6a27.477,27.477,0,0,1-3.909-.27c-4.415-.64-7.818-2.9-11.2-5.365-1.287-.669-2.524-1.384-3.7-2.059-3.75-2.162-6.711-3.867-10.951-4.117-4.164.25-7.125,1.955-10.874,4.117-1.172.675-2.41,1.39-3.775,2.107-3.306,2.414-6.708,4.677-11.122,5.317-6.092.874-14.653-.3-20.054-4.937a13.3,13.3,0,0,1-4.848-10.365c-.01-1.265-.029-2.444-.047-3.555-.034-2.16-.063-4.027-.024-5.734a27.012,27.012,0,0,1,1.068-8.877c1.054-3.461,4.478-6.552,10.177-9.19,11.478-6.356,37.288-8.525,38.38-8.614.119.027.492.024,1.208.085.613-.061,1.011-.086,1.011-.086,1.187.09,26.995,2.259,38.513,8.635,5.662,2.619,9.085,5.711,10.137,9.17a27.043,27.043,0,0,1,1.068,8.9c.041,1.712.01,3.585-.024,5.751-.018,1.1-.036,2.268-.047,3.518a13.293,13.293,0,0,1-4.848,10.365C2917.526,343.1,2911.184,344.6,2905.7,344.6Zm-30.865-50.279c-.173.02-26.538,2.237-37.817,8.479-5.4,2.5-8.594,5.329-9.538,8.43a25.809,25.809,0,0,0-1.014,8.5c-.039,1.719-.01,3.574.024,5.721.018,1.114.037,2.3.047,3.566a12.076,12.076,0,0,0,4.406,9.413c5.1,4.377,13.238,5.488,19.045,4.643,4.128-.6,7.388-2.769,10.638-5.133,1.426-.759,2.65-1.465,3.81-2.133,3.739-2.157,6.97-4.018,11.506-4.284,4.613.266,7.842,2.127,11.583,4.284,1.16.668,2.383,1.374,3.731,2.084,3.327,2.413,6.587,4.584,10.714,5.181,5.807.844,13.947-.266,19.046-4.643a12.076,12.076,0,0,0,4.406-9.413c.012-1.253.029-2.424.047-3.526.034-2.164.064-4.031.023-5.722v-.038a25.834,25.834,0,0,0-1.015-8.5c-.941-3.1-4.138-5.929-9.5-8.408-11.221-6.21-37.228-8.441-37.937-8.5-.005.006-.384.032-1.014.084C2875.229,294.342,2874.84,294.317,2874.837,294.317Z" transform="translate(-2067.087 2313.219)" fill="#f4c07f"/>
    <path id="Trazado_179989" data-name="Trazado 179989" d="M2853.532,334.109s6.47,10.465,15.633,9.845,14.123-9.845,14.123-9.845a17.086,17.086,0,0,0-13.638-8.752c-9.674-.688-16.118,8.752-16.118,8.752" transform="translate(-2059.513 2321.838)" fill="#f5a2af"/>
    <path id="Trazado_179990" data-name="Trazado 179990" d="M2854.312,295.931s6.469,10.465,15.632,9.845,14.122-9.845,14.122-9.845a17.086,17.086,0,0,0-13.638-8.752c-9.673-.688-16.116,8.752-16.116,8.752" transform="translate(-2059.305 2311.641)" fill="#e565b0"/>
    <path id="Trazado_179991" data-name="Trazado 179991" d="M2925.878,282.893c-.6,4.3.058,15.521-21.7,19.217-14.514,2.466-26.655-6.661-26.655-14.877s.017-15.835,26.655-14.878c7.464.269,22.823,2.4,21.7,10.539" transform="translate(-2053.104 2307.669)" fill="#fff"/>
    <path id="Trazado_179992" data-name="Trazado 179992" d="M2814.475,282.893c.6,4.3-.058,15.521,21.7,19.217,14.514,2.466,26.657-6.661,26.657-14.877s-.018-15.835-26.657-14.878c-7.464.269-22.823,2.4-21.7,10.539" transform="translate(-2069.961 2307.669)" fill="#fff"/>
    <path id="Trazado_179993" data-name="Trazado 179993" d="M2835.6,274.451a12.378,12.378,0,1,1-11.837,12.9,12.378,12.378,0,0,1,11.837-12.9" transform="translate(-2067.468 2308.248)" fill="#14492c"/>
    <path id="Trazado_179994" data-name="Trazado 179994" d="M2836.255,299.962a13.011,13.011,0,0,1-.549-26.011h0a13.012,13.012,0,0,1,1.111,26C2836.63,299.958,2836.441,299.962,2836.255,299.962Zm-.494-24.744a11.741,11.741,0,1,0,8.443,3.08,11.758,11.758,0,0,0-8.443-3.08Z" transform="translate(-2067.602 2308.114)" fill="#fff"/>
    <path id="Trazado_179995" data-name="Trazado 179995" d="M2908.51,278.116a12.943,12.943,0,1,1-18.3,0,12.944,12.944,0,0,1,18.3,0" transform="translate(-2050.73 2308.217)" fill="#14492c"/>
    <path id="Trazado_179996" data-name="Trazado 179996" d="M2899.49,300.978a13.576,13.576,0,1,1,9.6-23.175h0a13.576,13.576,0,0,1-9.6,23.175Zm0-25.886a12.309,12.309,0,1,0,8.706,3.606h0A12.232,12.232,0,0,0,2899.49,275.092Z" transform="translate(-2050.864 2308.083)" fill="#fff"/>
    <path id="Trazado_179997" data-name="Trazado 179997" d="M2799.37,282.615s8.679-29.136,29.136-42.153c0,0-11.158-10.539-39.053-5.579,0,0-1.241,29.135,9.917,47.732" transform="translate(-2076.641 2297.327)" fill="#d39f15"/>
    <path id="Trazado_179998" data-name="Trazado 179998" d="M2936.425,280.2s-10.175-28.647-31.279-40.588c0,0,10.6-11.1,38.713-7.594,0,0,2.747,29.032-7.434,48.182" transform="translate(-2045.727 2296.733)" fill="#d39f15"/>
    <path id="Trazado_179999" data-name="Trazado 179999" d="M2885.932,410.571c-23.965,0-47.811-9.833-65.423-26.975a91.584,91.584,0,0,1-28.2-66.024,92.644,92.644,0,0,1,4.431-28.251c-22.1-39.3-17.835-60.865-17.643-61.766l.1-.441.448-.054c19.555-2.362,33.6.907,41.934,4.065a47.586,47.586,0,0,1,13.244,7.231,90.2,90.2,0,0,1,51.108-16.261c15.971,0,32.159,5.043,46.839,14.59,2.988-1.666,24.913-13.234,54.443-11.694l.548.028.051.544c.025.262,2.386,26.436-7.09,45.389h0c-5.107,10.214-6.7,14.133-7.1,15.6l.16.392a96.013,96.013,0,0,1,7.007,35.593,83.9,83.9,0,0,1-28.839,63.564C2934.37,401.65,2910.307,410.571,2885.932,410.571ZM2799.2,285.828l-1.155,3.595a91.414,91.414,0,0,0-4.463,28.149,90.323,90.323,0,0,0,27.813,65.115c17.378,16.916,40.9,26.617,64.539,26.617,24.07,0,47.828-8.805,65.18-24.157a82.653,82.653,0,0,0,28.411-62.615,94.7,94.7,0,0,0-6.919-35.124l-.309-.767.047-.2c.473-1.983,2.912-7.386,7.246-16.059,8.566-17.128,7.288-40.322,7.006-44.156-30.967-1.443-53.3,11.609-53.523,11.742l-.34.2-.331-.218c-14.557-9.548-30.626-14.593-46.467-14.593a89.022,89.022,0,0,0-50.794,16.315l-.4-.479-.386.423c-.043-.039-4.424-3.991-13.3-7.34-8.126-3.068-21.775-6.239-40.79-4.021-.477,3.259-2.52,24.391,17.238,59.825Z" transform="translate(-2079.515 2294.266)" fill="#a86c10"/>
    <path id="Trazado_180000" data-name="Trazado 180000" d="M2802,282.592c3.765-1.645,7.354-3.334,11.083-4.8,2.78-1.1,5.773-1.864,8.616-2.874,1.972-.7,3.755-1.8,5.789-2.319,11.14-2.838,22.278-3.578,33,1.036a67.325,67.325,0,0,1,9.315,5.02c8.986,5.688,16.2,4.729,24.49-.535,5.408-3.435,11-6.8,18.291-7.233a107.264,107.264,0,0,1,13.835-.028c6.283.445,11.969,2.505,17.511,4.813,5.123,2.132,10.366,4.086,15.537,6.149a9.992,9.992,0,0,1,1.682,1.218c-3.44,3.251-6.826,6.485-10.256,9.688a53.9,53.9,0,0,1-22.427,12.949,45.844,45.844,0,0,1-24.448.056c-4.3-1.109-8.444-2.579-12.753-3.659a41.476,41.476,0,0,0-23.917,1.063c-6.11,2.084-12.3,4.051-19.027,4.322a47.713,47.713,0,0,1-9.271-.7c-10.27-1.621-18.226-6.322-25.086-12.217-3.808-3.273-7.18-6.858-10.726-10.316a15.613,15.613,0,0,1-1.243-1.624m96.572,8.908a7.946,7.946,0,0,0,1.319.7c7.48,2.307,15.125,4.037,23.275,3.032,7.052-.869,11.567-4.47,14.965-9.089.908-1.237.6-2.221-1.3-2.751-2.846-.794-5.633-1.73-8.5-2.472-11.1-2.874-24.723.7-29.756,10.576m-33.59.247c-1.726-1.918-3.172-3.412-4.463-4.985-3.415-4.156-8.736-5.781-14.54-6.556-7.214-.966-13.761.915-20.136,3.336-1.7.646-1.574,1.5-.943,2.542,2.663,4.4,6.907,7.411,12.9,8.809,5.948,1.385,11.8.455,17.571-.7,3.057-.611,6.017-1.521,9.609-2.447" transform="translate(-2073.277 2307.146)"/>
    <path id="Trazado_180001" data-name="Trazado 180001" d="M2915.171,283.055c2.6-1.391,5.486-3.011,6.6-5.912a3.717,3.717,0,0,0,.023-.907c.008-.73.009-1.461.009-2.192s0-1.46-.009-2.192c0-.161-.005-.322-.006-.483,0-.142,0-.283-.017-.424-1.115,2.9-4,4.521-6.6,5.911a5.838,5.838,0,0,0-.022.908c-.008.73-.009,1.461-.009,2.192s0,1.461.009,2.191a6.733,6.733,0,0,1,.022.909" transform="translate(-2043.057 2307.314)" fill="#0d0c0d"/>
    <path id="Trazado_180002" data-name="Trazado 180002" d="M2917.509,288.173c5.41-1.86,7.931-7.388,10.025-12.262a3.691,3.691,0,0,0,.02-.909c.01-.73.01-1.461.01-2.191s0-1.461-.01-2.192a3.216,3.216,0,0,1-.02-.907c-2.094,4.872-4.615,10.4-10.025,12.262a7.518,7.518,0,0,0-.023.907c-.006.73-.008,1.462-.008,2.192s0,1.462.008,2.192c0,.094.047.9.023.907" transform="translate(-2042.433 2306.985)" fill="#0d0c0d"/>
    <path id="Trazado_180003" data-name="Trazado 180003" d="M2919.347,290.257a29.966,29.966,0,0,0,7.547-3.942,11.653,11.653,0,0,0,2.75-3.042,18.264,18.264,0,0,0,1.805-4.676,4.329,4.329,0,0,0,.021-.907c.008-.73.01-1.462.01-2.192s0-1.461-.01-2.191a3.936,3.936,0,0,1-.021-.908,18.622,18.622,0,0,1-1.759,4.6,11.61,11.61,0,0,1-2.8,3.12,29.966,29.966,0,0,1-7.547,3.942,6.705,6.705,0,0,0-.023.907c-.008.731-.009,1.462-.009,2.192s0,1.462.009,2.192c0,.1.053.9.023.907" transform="translate(-2041.942 2307.702)" fill="#0d0c0d"/>
    <path id="Trazado_180004" data-name="Trazado 180004" d="M2815.173,277.411c-2.6-1.39-5.485-3.009-6.6-5.911a2.6,2.6,0,0,0-.013.267c0,.214-.008.427-.009.64-.007.732-.008,1.462-.008,2.192s0,1.462.008,2.192a3.139,3.139,0,0,0,.022.907c1.116,2.9,4,4.521,6.6,5.912-.015-.009.024-1.038.023-.908.008-.73.009-1.461.009-2.192s0-1.461-.009-2.191a3.547,3.547,0,0,0-.023-.909" transform="translate(-2071.534 2307.462)" fill="#0d0c0d"/>
    <path id="Trazado_180005" data-name="Trazado 180005" d="M2813.56,282.531c-5.41-1.86-7.932-7.39-10.026-12.262a4.334,4.334,0,0,1-.021.907c-.009.73-.01,1.461-.01,2.192s0,1.461.01,2.191a2.944,2.944,0,0,0,.021.909c2.094,4.872,4.615,10.4,10.026,12.262-.005,0,.023-1.048.021-.907.008-.73.009-1.462.009-2.192s0-1.462-.009-2.192a4.655,4.655,0,0,0-.021-.907" transform="translate(-2072.881 2307.134)" fill="#0d0c0d"/>
    <path id="Trazado_180006" data-name="Trazado 180006" d="M2812.157,284.614a29.939,29.939,0,0,1-7.547-3.942,11.67,11.67,0,0,1-2.751-3.042,18.284,18.284,0,0,1-1.806-4.676,4.636,4.636,0,0,1-.021.909c-.008.73-.009,1.461-.009,2.191s0,1.461.009,2.192a3.812,3.812,0,0,0,.021.907,18.589,18.589,0,0,0,1.758,4.6,11.641,11.641,0,0,0,2.8,3.12,29.94,29.94,0,0,0,7.547,3.942c-.009,0,.023-1.045.022-.907.008-.73.009-1.461.009-2.192s0-1.461-.009-2.192a4.224,4.224,0,0,0-.022-.907" transform="translate(-2073.808 2307.851)" fill="#0d0c0d"/>
    <path id="Trazado_180007" data-name="Trazado 180007" d="M2801.686,308.922a118.709,118.709,0,0,1,3.272-27.666l81.479-11.926V222.764c-.216,0-.429-.013-.647-.013a89.969,89.969,0,0,0-51.153,16.427l0,0s-14.262-13.079-44.778-12.235c-3.244.09-6.667.333-10.28.769,0,0-4.035,18.937,13.431,53.547,1.306,2.586,2.719,5.25,4.275,8.009l.01-.014a92.049,92.049,0,0,0-4.493,28.344c0,51.7,43.685,92.364,92.984,92.364.217,0,.431-.013.647-.014-44.99-.312-84.751-44.673-84.751-101.024" transform="translate(-2079.373 2294.441)" fill="#0d0c0d"/>
    <path id="Trazado_180008" data-name="Trazado 180008" d="M2948.051,250.469a14.353,14.353,0,0,1-1.415-6.069q-.585-7.1-1.172-14.193a33.756,33.756,0,0,1-.121-4.133c-21.394,2.764-35.346,11.049-35.346,11.049-13.889-9.11-29.777-14.545-46.169-14.686V269l82.164,11.926a121.744,121.744,0,0,1,4.676,33.09c0,52.992-36.155,90.625-77.886,95.153,45.38-4.284,84.624-38.628,84.624-86.944a95.709,95.709,0,0,0-6.963-35.36h0l0,0c-.075-.193-.155-.385-.233-.579a36.673,36.673,0,0,1,2.116-5.356c1.1-2.437,2.716-5.831,5.082-10.566a58.94,58.94,0,0,0,3.87-10.131,81.3,81.3,0,0,0,1.891-8.324,14.7,14.7,0,0,1-5.5,2.38c-3.618.677-7.782-.631-9.619-3.819" transform="translate(-2056.763 2294.357)" fill="#e70606"/>
    <path id="Trazado_180009" data-name="Trazado 180009" d="M2947.252,224.738c-1.063-.056-2.115-.09-3.156-.114-1.4-.029-2.78-.024-4.142,0a106.8,106.8,0,0,0-11.791.872,33.99,33.99,0,0,0,.12,4.132q.59,7.1,1.173,14.193a14.356,14.356,0,0,0,1.414,6.069c1.837,3.188,6,4.5,9.619,3.819a14.707,14.707,0,0,0,5.5-2.38,111.984,111.984,0,0,0,1.264-26.591" transform="translate(-2039.584 2294.936)" fill="#fb390c"/>
    <path id="Trazado_180010" data-name="Trazado 180010" d="M2944.536,249.64a10.446,10.446,0,1,1-10.447-10.447,10.446,10.446,0,0,1,10.447,10.447" transform="translate(-2040.786 2298.833)" fill="#fff"/>
    <path id="Trazado_180011" data-name="Trazado 180011" d="M2780.123,226.966c1.06-.092,2.11-.165,3.15-.224,1.4-.079,2.777-.124,4.141-.147a106.9,106.9,0,0,1,11.813.456,33.869,33.869,0,0,1,.024,4.135q-.337,7.112-.673,14.226a14.333,14.333,0,0,1-1.2,6.114c-1.724,3.251-5.84,4.7-9.478,4.155a14.68,14.68,0,0,1-5.576-2.183,111.925,111.925,0,0,1-2.2-26.531" transform="translate(-2079.144 2295.464)" fill="#332f2f"/>
    <path id="Trazado_180012" data-name="Trazado 180012" d="M2784.943,252.228a10.538,10.538,0,1,0,10.161-10.9,10.537,10.537,0,0,0-10.161,10.9" transform="translate(-2077.835 2299.401)" fill="#fff"/>
    <path id="Trazado_180013" data-name="Trazado 180013" d="M2940.016,502.694c0,40.219-27.312,48.027-61,48.027s-61-7.808-61-48.027,27.311-97.619,61-97.619,61,57.4,61,97.619" transform="translate(-2069.001 2343.141)" fill="#f5a156"/>
    <path id="Trazado_180014" data-name="Trazado 180014" d="M2879.146,551.488c-30.478,0-61.635-5.782-61.635-48.661,0-38.649,26.466-98.253,61.635-98.253s61.636,59.6,61.636,98.253C2940.782,545.706,2909.625,551.488,2879.146,551.488Zm0-145.646c-15.187,0-30.312,11.865-42.584,33.409-10.969,19.255-17.784,43.615-17.784,63.577,0,41.763,30.516,47.393,60.368,47.393,19.666,0,33.265-2.807,42.8-8.834,11.825-7.475,17.573-20.089,17.573-38.559,0-19.962-6.815-44.322-17.784-63.577C2909.458,417.707,2894.334,405.842,2879.146,405.842Z" transform="translate(-2069.135 2343.008)" fill="#f4c07f"/>
    <path id="Trazado_180015" data-name="Trazado 180015" d="M2818.01,502.694c0,40.219,27.311,48.027,61,48.027V405.075c-33.691,0-61,57.4-61,97.619" transform="translate(-2069.001 2343.141)" fill="#e70606"/>
    <path id="Trazado_180016" data-name="Trazado 180016" d="M2879.78,551.488h-.633c-30.478,0-61.635-5.782-61.635-48.661,0-38.649,26.467-98.253,61.635-98.253h.633Zm-1.267-145.639c-14.975.324-29.85,12.157-41.952,33.4-10.969,19.255-17.784,43.615-17.784,63.577,0,41.467,30.086,47.311,59.736,47.392Z" transform="translate(-2069.135 2343.008)" fill="#0d0c0d"/>
    <path id="Trazado_180017" data-name="Trazado 180017" d="M2927.156,502.694c0-40.219-27.312-97.619-61-97.619V550.721c33.691,0,61-7.808,61-48.027" transform="translate(-2056.142 2343.141)" fill="#0d0c0d"/>
    <path id="Trazado_180018" data-name="Trazado 180018" d="M2866.22,551.1h-.316V404.825h.316c15.545,0,30.961,12.035,43.412,33.887,11.045,19.391,17.907,43.932,17.907,64.048C2927.54,545.36,2896.543,551.1,2866.22,551.1Zm.317-145.645V550.471c19.558-.031,33.116-2.855,42.648-8.882,11.924-7.538,17.72-20.239,17.72-38.828,0-20.013-6.83-44.435-17.826-63.735C2896.834,417.53,2881.738,405.623,2866.538,405.46Z" transform="translate(-2056.208 2343.074)" fill="#ba0505"/>
    <path id="Trazado_180019" data-name="Trazado 180019" d="M2795.541,409.478V522.919h55.791V409.478" transform="translate(-2075.003 2344.317)" fill="#e70606"/>
    <path id="Trazado_180020" data-name="Trazado 180020" d="M2852.1,523.553h-57.058V409.478h1.267V522.286h54.524V409.478h1.267Z" transform="translate(-2075.137 2344.317)" fill="#0d0c0d"/>
    <path id="Trazado_180021" data-name="Trazado 180021" d="M2891.782,409.478V522.919h55.791V409.478" transform="translate(-2049.297 2344.317)" fill="#0d0c0d"/>
    <path id="Trazado_180022" data-name="Trazado 180022" d="M2948.34,523.553h-57.058V409.478h1.267V522.286h54.524V409.478h1.267Z" transform="translate(-2049.43 2344.317)" fill="#de0c05"/>
    <path id="Trazado_180023" data-name="Trazado 180023" d="M2862.161,511.86c0,10.957-16.235,19.836-36.264,19.836s-36.265-8.88-36.265-19.836,16.237-19.837,36.265-19.837,36.264,8.881,36.264,19.837" transform="translate(-2076.581 2366.365)" fill="#0d0c0d"/>
    <path id="Trazado_180024" data-name="Trazado 180024" d="M2825.964,532.079c-20.171,0-36.581-9.041-36.581-20.153s16.41-20.152,36.581-20.152,36.582,9.039,36.582,20.152S2846.135,532.079,2825.964,532.079Zm0-39.672c-19.821,0-35.947,8.756-35.947,19.519s16.126,19.52,35.947,19.52,35.948-8.757,35.948-19.52S2845.785,492.408,2825.964,492.408Z" transform="translate(-2076.647 2366.299)" fill="#ba0505"/>
    <path id="Trazado_180025" data-name="Trazado 180025" d="M2957.595,512.839c0,10.955-16.236,19.837-36.264,19.837s-36.264-8.881-36.264-19.837S2901.3,493,2921.33,493s36.264,8.88,36.264,19.836" transform="translate(-2051.09 2366.626)" fill="#e70606"/>
    <path id="Trazado_180026" data-name="Trazado 180026" d="M2921.463,533.443c-20.345,0-36.9-9.183-36.9-20.471s16.552-20.47,36.9-20.47,36.9,9.183,36.9,20.47S2941.81,533.443,2921.463,533.443Zm0-39.674c-19.646,0-35.63,8.615-35.63,19.2s15.983,19.2,35.63,19.2,35.631-8.615,35.631-19.2S2941.111,493.768,2921.463,493.768Z" transform="translate(-2051.224 2366.493)" fill="#0d0c0d"/>
    <path id="Trazado_180027" data-name="Trazado 180027" d="M2812.578,460.823a3.931,3.931,0,0,1,.237-.636c.852-1.457,1.73-2.9,2.573-4.363,1-1.74,1.976-3.5,2.978-5.238a3.957,3.957,0,0,1,.552-.617,3.4,3.4,0,0,1,.565.591c1.8,3.093,3.581,6.2,5.39,9.287a1.591,1.591,0,0,1,.06,1.828c-1.3,2.162-2.556,4.355-3.82,6.541-.584,1.011-1.144,2.038-1.731,3.046-.1.174-.274.4-.428.417s-.348-.212-.446-.379q-1.748-2.98-3.471-5.976c-.732-1.271-1.452-2.549-2.169-3.831a6.633,6.633,0,0,1-.289-.67" transform="translate(-2070.452 2355.132)"/>
    <path id="Trazado_180028" data-name="Trazado 180028" d="M2818.917,469.584c.418.682.8,1.268,1.146,1.871,1.621,2.8,3.215,5.621,4.865,8.406a1.513,1.513,0,0,1-.067,1.749c-1.188,2-2.343,4.024-3.5,6.041-.7,1.21-1.385,2.428-2.087,3.638a3.473,3.473,0,0,1-.444.475c-.47-.8-.9-1.515-1.321-2.24-1.518-2.633-3.018-5.279-4.559-7.9a1.626,1.626,0,0,1,0-1.845c1.87-3.2,3.708-6.412,5.562-9.619.094-.163.219-.308.414-.577" transform="translate(-2070.432 2360.372)"/>
    <path id="Trazado_180029" data-name="Trazado 180029" d="M2813.307,459.777c1.313,2.269,2.518,4.347,3.719,6.427.676,1.169,1.272,2.391,2.036,3.5a2.117,2.117,0,0,1-.163,2.558c-1.409,2.385-2.83,4.762-4.243,7.144-.363.611-.731,1.221-1.068,1.846-.3.555-.542.457-.815-.015q-1.729-3-3.465-5.986c-.76-1.318-1.5-2.648-2.282-3.951a.941.941,0,0,1,.008-1.082q2.21-3.782,4.4-7.576c.332-.573.629-1.164.981-1.725.228-.361.527-.678.894-1.139" transform="translate(-2071.979 2357.752)"/>
    <path id="Trazado_180030" data-name="Trazado 180030" d="M2825.084,459.777c1.313,2.269,2.518,4.347,3.719,6.427.675,1.169,1.273,2.391,2.036,3.5a2.115,2.115,0,0,1-.164,2.558c-1.407,2.385-2.829,4.762-4.242,7.144-.364.611-.73,1.221-1.068,1.846-.3.555-.542.457-.813-.015q-1.73-3-3.467-5.986c-.76-1.318-1.5-2.648-2.281-3.951a.941.941,0,0,1,.007-1.082q2.21-3.782,4.4-7.576c.331-.573.628-1.164.981-1.725.228-.361.527-.678.893-1.139" transform="translate(-2068.834 2357.752)" fill="#e70606"/>
    <path id="Trazado_180031" data-name="Trazado 180031" d="M2825.1,482.5a1.213,1.213,0,0,1-.966-.713l-4.2-7.259c-.508-.893-1.016-1.787-1.545-2.666a1.574,1.574,0,0,1,0-1.728q2.112-3.617,4.2-7.239l.194-.336c.123-.21.239-.424.357-.639.2-.374.41-.746.636-1.1a7.491,7.491,0,0,1,.615-.8l.9-1.116,4.184,7.23c.215.374.424.753.633,1.133a26.586,26.586,0,0,0,1.377,2.32,2.77,2.77,0,0,1-.139,3.241q-1.345,2.279-2.7,4.552L2827,480.156c-.32.54-.641,1.079-.94,1.631a1.164,1.164,0,0,1-.941.712Zm.026-21.38a4.241,4.241,0,0,0-.267.37c-.213.338-.4.688-.6,1.04-.122.222-.244.443-.37.663l-.194.336q-2.1,3.624-4.207,7.243c-.123.21-.111.27-.011.437.535.888,1.048,1.789,1.561,2.69l4.051,7.012c.263-.473.541-.939.816-1.4l1.658-2.788q1.351-2.271,2.7-4.546c.483-.816.615-1.258.188-1.878a27.855,27.855,0,0,1-1.444-2.429c-.2-.373-.408-.744-.62-1.11Z" transform="translate(-2068.968 2357.516)" fill="#0d0c0d"/>
    <path id="Trazado_180032" data-name="Trazado 180032" d="M2908.556,459.4a4.056,4.056,0,0,1,.237-.636c.852-1.457,1.73-2.9,2.573-4.363,1-1.74,1.977-3.5,2.978-5.238a3.868,3.868,0,0,1,.554-.617,3.451,3.451,0,0,1,.563.59c1.8,3.093,3.582,6.2,5.391,9.287a1.59,1.59,0,0,1,.059,1.828c-1.3,2.162-2.554,4.355-3.819,6.541-.583,1.011-1.146,2.037-1.73,3.046-.1.174-.275.4-.43.418-.139.011-.349-.213-.446-.38q-1.748-2.98-3.47-5.976c-.733-1.271-1.453-2.549-2.17-3.83a6.741,6.741,0,0,1-.289-.67" transform="translate(-2044.816 2354.751)" fill="#e70606"/>
    <path id="Trazado_180033" data-name="Trazado 180033" d="M2914.894,468.158c.418.682.8,1.268,1.146,1.872,1.62,2.8,3.215,5.621,4.866,8.406a1.513,1.513,0,0,1-.069,1.749c-1.187,2-2.342,4.024-3.505,6.042-.7,1.21-1.385,2.428-2.086,3.638a3.425,3.425,0,0,1-.444.475c-.469-.8-.9-1.516-1.321-2.24-1.519-2.633-3.019-5.279-4.56-7.9a1.631,1.631,0,0,1,0-1.845c1.871-3.2,3.708-6.412,5.561-9.619.095-.163.22-.308.415-.577" transform="translate(-2044.795 2359.991)" fill="#e70606"/>
    <path id="Trazado_180034" data-name="Trazado 180034" d="M2909.285,458.351c1.313,2.269,2.519,4.347,3.719,6.428.675,1.168,1.273,2.39,2.036,3.5a2.115,2.115,0,0,1-.164,2.558c-1.408,2.385-2.83,4.762-4.242,7.144-.364.611-.73,1.221-1.069,1.846-.3.555-.542.457-.813-.015q-1.73-3-3.467-5.986c-.76-1.318-1.5-2.648-2.281-3.951a.942.942,0,0,1,.007-1.082q2.21-3.782,4.4-7.575c.331-.574.629-1.166.98-1.726.228-.361.527-.678.894-1.139" transform="translate(-2046.344 2357.371)" fill="#e70606"/>
    <path id="Trazado_180035" data-name="Trazado 180035" d="M2921.063,457.3c1.313,2.269,2.518,4.347,3.718,6.428.675,1.168,1.273,2.39,2.038,3.5a2.118,2.118,0,0,1-.165,2.558q-2.112,3.577-4.242,7.144c-.364.612-.73,1.221-1.067,1.846-.3.556-.543.457-.814-.015q-1.729-3-3.467-5.985c-.76-1.319-1.5-2.648-2.281-3.952a.939.939,0,0,1,.007-1.082q2.209-3.782,4.4-7.575c.331-.573.628-1.166.981-1.725a14.228,14.228,0,0,1,.895-1.14" transform="translate(-2043.198 2357.089)" fill="#0d0c0d"/>
    <path id="Trazado_180036" data-name="Trazado 180036" d="M2921.08,480.019a1.215,1.215,0,0,1-.966-.712l-4.2-7.272c-.505-.888-1.012-1.778-1.54-2.655a1.573,1.573,0,0,1,0-1.728q2.208-3.782,4.4-7.572c.123-.213.241-.428.359-.644.2-.373.408-.744.634-1.1a7.762,7.762,0,0,1,.609-.8l.9-1.124,4.184,7.231c.217.378.428.76.639,1.143a26.526,26.526,0,0,0,1.371,2.311,2.768,2.768,0,0,1-.139,3.24q-1.339,2.266-2.685,4.522l-1.672,2.813c-.322.541-.644,1.082-.941,1.635a1.171,1.171,0,0,1-.943.711Zm.025-21.379a3.893,3.893,0,0,0-.267.369c-.212.337-.4.687-.6,1.035-.123.224-.244.449-.372.669q-2.2,3.792-4.4,7.577c-.122.208-.109.272-.012.437.532.884,1.044,1.783,1.555,2.681l4.057,7.021c.264-.473.541-.939.817-1.4l1.673-2.814q1.343-2.258,2.682-4.517c.481-.817.614-1.26.188-1.879a27.593,27.593,0,0,1-1.44-2.42c-.205-.375-.41-.749-.623-1.119Z" transform="translate(-2043.331 2356.853)" fill="#ba0505"/>
    <path id="Trazado_180037" data-name="Trazado 180037" d="M2818.187,305.623c3.989,0,4-6.2,0-6.2s-4,6.2,0,6.2" transform="translate(-2069.754 2314.921)" fill="#0d0c0d"/>
    <path id="Trazado_180038" data-name="Trazado 180038" d="M2871.184,326.636a3.355,3.355,0,0,0-1.578-2.983,5.3,5.3,0,0,0-4.42-.223,15.424,15.424,0,0,0-3.7,2.1c-.185.124-.607.39-.684.431a2.739,2.739,0,0,0-.293.129c.311-.146-.024,0-.108.023-.133.032-.111.027.063-.014l-.172.018c.25.066-.124-.033-.022-.01a1.331,1.331,0,0,1-.443-.18,2.412,2.412,0,0,0-2.386-.063c-.337.156-1.627.978-.945,1.49,2.419,1.818,5.6.482,7.78-1.069a13.545,13.545,0,0,1,1.42-.945c-.173.092.165-.073.2-.087.174-.08-.149.023.16-.061.124-.034.257-.025.064-.015-.254.011.141.008.085,0a1.2,1.2,0,0,1,.489.214,2.118,2.118,0,0,1,.416.4,2.075,2.075,0,0,1,.481,1.273c-.01.794.931.907,1.563.819.54-.076,2.025-.469,2.035-1.248" transform="translate(-2058.774 2321.234)" fill="#980407"/>
    <path id="Trazado_180039" data-name="Trazado 180039" d="M2869.024,326.608a1.957,1.957,0,0,1,.628-1.1c-.186.155.208-.119.014-.009-.155.087.281-.09-.034.013-.3.1.1,0-.028,0-.2.008.262.024.058,0,.943.128,1.6,1.154,2.211,1.822a5.025,5.025,0,0,0,3.059,1.731,6.038,6.038,0,0,0,4.434-1.12c.494-.385,1.044-1.106.275-1.551a2.672,2.672,0,0,0-2.554.3,2.86,2.86,0,0,1-.4.275c.282-.153-.194.016.047-.042.132-.048.106-.047-.076.006.057-.014.113-.028.17-.039-.5-.02.308.086-.189,0,.208.038-.075-.018-.148-.038a.549.549,0,0,1-.191-.068,2.388,2.388,0,0,1-.6-.4,17.8,17.8,0,0,0-2.587-2.481c-2.707-1.619-6.983-.027-7.7,3.1-.337,1.475,3.3.95,3.607-.394" transform="translate(-2056.345 2321.287)" fill="#980407"/>
    <path id="Trazado_180040" data-name="Trazado 180040" d="M2870.207,326.831a5.478,5.478,0,0,0-1.984-2.037,5.311,5.311,0,0,0-4.288.257c-1.1.473-2.065,1.164-3.132,1.689.205-.1-.142.056-.176.074-.2.1.319,0-.072.024.17-.009.2-.027.012-.005.244-.028.008,0-.112,0-.244,0,.154.034-.083-.013a1.488,1.488,0,0,1-.215-.047,1.823,1.823,0,0,1-.6-.314c-.595-.449-1.722-.146-2.339.109-.258.1-1.611.749-1.026,1.187,2.065,1.552,5.2.555,7.228-.561.457-.251.9-.528,1.351-.786a7.935,7.935,0,0,1,.724-.388c-.31.138.539-.148-.141.038-.023.006-.527.141-.552.067a2.362,2.362,0,0,1,.416.162,2.831,2.831,0,0,1,.516.416,6.961,6.961,0,0,1,.878,1.09c.669.992,4-.354,3.592-.963" transform="translate(-2058.841 2321.603)" fill="#980407"/>
    <path id="Trazado_180041" data-name="Trazado 180041" d="M2862.246,328.03a3.786,3.786,0,0,1,1.477.09c.736.124,1.47.265,2.216.319a7.5,7.5,0,0,0,2.44-.215,5.711,5.711,0,0,0,2.376-1.11c.317-.333-.431.227-.486.075a1.731,1.731,0,0,0,.356.17c.315.165.609.37.908.565a8.948,8.948,0,0,0,1.993.991,9.9,9.9,0,0,0,4.845.388c.66-.108,1.9-.435,2.033-1.246.131-.8-1.042-.9-1.562-.816a5.811,5.811,0,0,1-4.008-.8,11.509,11.509,0,0,0-1.957-1.1,4.534,4.534,0,0,0-2.8-.042,6.94,6.94,0,0,0-1.341.569,4.854,4.854,0,0,1-.818.476,3.129,3.129,0,0,1-1.226-.085,11.779,11.779,0,0,0-4.947-.091c-.562.141-1.727.655-1.545,1.417s1.549.58,2.048.455" transform="translate(-2057.737 2321.776)" fill="#980407"/>
    <path id="Trazado_180042" data-name="Trazado 180042" d="M2867.084,329.172c-1.472.786-1.947.316-1.138.468a6.508,6.508,0,0,1,.656.172c.435.132.859.291,1.3.411a10.091,10.091,0,0,0,2.747.331,14.632,14.632,0,0,0,6.692-1.77c.118-.063.482-.305.427-.511s-.489-.225-.626-.231a5.212,5.212,0,0,0-2.541.68c.064-.033-.341.16-.422.194.382-.16-.591.189-.07.03-.109.032-.218.062-.328.09q.312-.063-.014,0c-.111.02-.223.041-.334.058q.243-.034-.063,0a7.078,7.078,0,0,1-1.143.009,7.524,7.524,0,0,1-1.116-.188,25.576,25.576,0,0,0-2.53-.7,7.094,7.094,0,0,0-4.233.887c-.118.063-.481.305-.426.512s.489.224.625.229a5.2,5.2,0,0,0,2.54-.68" transform="translate(-2056.741 2322.564)" fill="#980407"/>
    <path id="Trazado_180043" data-name="Trazado 180043" d="M2869.393,329.042l-5.881-1.818a10.279,10.279,0,0,0-2.576-.626,5.06,5.06,0,0,0-3.839,1.295c-.558.6.486.77.89.745a3.71,3.71,0,0,0,2.394-.9c-.4.432-1.029.362-1.533.494-.219.056.248.039.146.02.137.024.573.161.8.233q1.1.338,2.2.679l4.477,1.385a3.576,3.576,0,0,0,2.522-.418c.354-.2,1.2-.841.4-1.091" transform="translate(-2058.604 2322.178)" fill="#980407"/>
    <path id="Trazado_180044" data-name="Trazado 180044" d="M2866.455,329.014c-.062.011-.431.06-.176.042a1.883,1.883,0,0,0,.208-.016c-.382.082-.254,0-.091.008.069,0,.139.005.207.01s.14.013.209.022c.048.005.292.037.058.005-.261-.034.08.022.108.027.07.015.138.03.208.048.6.142,1.182.346,1.769.528a8.145,8.145,0,0,0,4.55.281,2.684,2.684,0,0,0,1.189-.644c.193-.2.438-.566.331-.87-.279-.787-1.443-.715-2.073-.552-.042.011-.165.065-.205.051.025.008.456-.062.179-.043-.044,0-.387.019-.079.016.283,0,.031,0-.029-.005-.137,0-.275-.015-.413-.03-.154-.019-.235-.113.047.009a1.25,1.25,0,0,0-.208-.041c-.6-.128-1.181-.324-1.763-.511a12.556,12.556,0,0,0-1.87-.47,7.81,7.81,0,0,0-2.708.071,2.543,2.543,0,0,0-1.191.644c-.192.2-.437.566-.329.87.288.817,1.428.672,2.073.551" transform="translate(-2056.623 2322.231)" fill="#980407"/>
    <path id="Trazado_180045" data-name="Trazado 180045" d="M2856.929,328.413c3.917.836,7.856,1.668,11.813,2.277,3.676.565,7.48.517,10.818-1.323.473-.26,1.075-.816.374-1.18a3.311,3.311,0,0,0-2.529.394c-2.414,1.332-5.586.546-8.144.089q-5.051-.9-10.069-1.979a3.43,3.43,0,0,0-2.541.68c-.574.483-.432.888.278,1.042" transform="translate(-2058.775 2322.193)" fill="#980407"/>
    <path id="Trazado_180046" data-name="Trazado 180046" d="M2868.218,329.133a8.363,8.363,0,0,0-2.462-.569c-.3-.028-.594-.049-.892-.079-.078-.008-.636-.042-.214-.018a3.135,3.135,0,0,1-.476-.091,8.816,8.816,0,0,1-.935-.256c-.031-.011-.4-.156-.121-.041-.15-.061-.3-.123-.446-.19a9.3,9.3,0,0,1-1.66-1,2.008,2.008,0,0,0-1.2-.174,3.057,3.057,0,0,0-1.357.473,1.408,1.408,0,0,0-.665.82c-.058.335.139.535.388.724a9.955,9.955,0,0,0,3.595,1.688,13.77,13.77,0,0,0,2.121.316c.17.015.339.028.51.046.074.006.626.046.225.018a2.909,2.909,0,0,1,.494.1c.054.014.523.184.259.075a2.766,2.766,0,0,0,2.555-.3,1.412,1.412,0,0,0,.665-.819.675.675,0,0,0-.388-.725" transform="translate(-2058.377 2322.206)" fill="#980407"/>
    <path id="Trazado_180047" data-name="Trazado 180047" d="M3018.274,441.719c3.294,7.528-15.524,23.03-42.028,34.622s-50.662,14.891-53.953,7.362,15.525-23.028,42.029-34.622,50.66-14.89,53.953-7.362" transform="translate(-2041.247 2351.85)" fill="#0d0c0d"/>
    <path id="Trazado_180048" data-name="Trazado 180048" d="M2980.166,269.626c9.506-19.01,7.026-45.046,7.026-45.046-31.821-1.654-54.435,11.8-54.435,11.8-14.071-9.23-30.2-14.7-46.816-14.7a89.959,89.959,0,0,0-51.153,16.428l0,0s-17.452-16.011-55.06-11.466c0,0-4.673,21.861,17.707,61.556l.011-.015a92.069,92.069,0,0,0-4.493,28.344c0,51.7,43.685,92.366,92.985,92.366s94.225-35.708,94.225-87.406a95.706,95.706,0,0,0-6.963-35.357h0l0,0c-.078-.194-.155-.386-.234-.579.325-1.361,1.864-5.253,7.2-15.922" transform="translate(-2079.334 2294.157)" fill="#bdaa83"/>
    <path id="Trazado_180049" data-name="Trazado 180049" d="M2886.082,409.663c-23.965,0-47.81-9.833-65.423-26.975a91.587,91.587,0,0,1-28.2-66.024,92.637,92.637,0,0,1,4.432-28.253c-22.095-39.3-17.836-60.864-17.643-61.765l.094-.441.45-.054c19.555-2.364,33.6.9,41.933,4.065a47.517,47.517,0,0,1,13.245,7.231,90.2,90.2,0,0,1,51.107-16.259c15.973,0,32.16,5.043,46.839,14.588,2.988-1.665,24.914-13.23,54.444-11.694l.548.028.051.544c.025.262,2.387,26.437-7.089,45.389-5.106,10.214-6.7,14.133-7.1,15.6l.16.392a95.974,95.974,0,0,1,7.007,35.593,83.9,83.9,0,0,1-28.838,63.563C2934.521,400.742,2910.458,409.663,2886.082,409.663Zm-86.733-124.744-1.157,3.595a91.471,91.471,0,0,0-4.461,28.15,90.32,90.32,0,0,0,27.813,65.115c17.378,16.915,40.9,26.617,64.539,26.617,24.072,0,47.828-8.805,65.18-24.159a82.648,82.648,0,0,0,28.411-62.614,94.714,94.714,0,0,0-6.917-35.123l-.312-.768.048-.2c.472-1.984,2.911-7.387,7.248-16.059h0c8.564-17.127,7.286-40.321,7-44.157-30.969-1.438-53.3,11.609-53.523,11.743l-.341.2-.331-.218c-14.557-9.546-30.625-14.592-46.468-14.592a89.013,89.013,0,0,0-50.792,16.314l-.4-.479-.386.423c-.042-.041-4.424-3.991-13.3-7.34-8.127-3.068-21.778-6.24-40.79-4.021-.477,3.259-2.52,24.391,17.238,59.825Z" transform="translate(-2079.475 2294.023)" fill="#4c1f07"/>
    <path id="Trazado_180050" data-name="Trazado 180050" d="M3014.894,461.23c0-39.674-42.153-121.087-42.153-121.087s-29.752,40.645-78.52,41.327c-59.1.826-83.067-39.26-83.067-39.26s-45.872,69.015-40.087,119.02c6.716,58.042,64.724,105.794,123.154,105.8,70.669,0,120.673-47.367,120.673-105.8" transform="translate(-2081.675 2325.797)" fill="#3e3a39"/>
    <path id="Trazado_180051" data-name="Trazado 180051" d="M2894.358,567.911h-.005c-28.262,0-57.925-11.4-81.38-31.282-24.107-20.432-39.166-47.093-42.4-75.074-5.746-49.66,39.73-118.752,40.189-119.444l.555-.836.516.862c.238.4,24.5,39.823,82.514,38.952,47.9-.669,77.722-40.664,78.018-41.067l.6-.826.47.908c.422.816,42.223,82.006,42.223,121.377,0,28.844-12.091,55.579-34.045,75.281C2959.23,556.849,2928.242,567.911,2894.358,567.911Zm-83.073-224.285a336.086,336.086,0,0,0-21.643,39.876c-9.765,21.367-20.785,52.228-17.814,77.908,3.2,27.66,18.1,54.029,41.965,74.252,23.23,19.69,52.593,30.982,80.56,30.982,33.573,0,64.263-10.945,86.414-30.824,21.684-19.459,33.625-45.859,33.625-74.339,0-36.856-37.079-110.959-41.628-119.91-4.549,5.737-33.7,40.16-78.4,40.784-30.678.413-51.8-10.336-64.081-19.445A82.6,82.6,0,0,1,2811.285,343.626Z" transform="translate(-2081.807 2325.544)" fill="#fff"/>
    <path id="Trazado_180052" data-name="Trazado 180052" d="M2940.064,501.786c0,40.219-27.311,48.027-61,48.027s-61-7.808-61-48.027,27.311-97.619,61-97.619,61,57.4,61,97.619" transform="translate(-2068.988 2342.898)" fill="#89847e"/>
    <path id="Trazado_180053" data-name="Trazado 180053" d="M2879.2,550.58c-30.479,0-61.635-5.781-61.635-48.661,0-38.649,26.468-98.253,61.635-98.253s61.636,59.6,61.636,98.253C2940.831,544.8,2909.674,550.58,2879.2,550.58Zm0-145.646c-15.188,0-30.311,11.864-42.585,33.407-10.969,19.256-17.784,43.616-17.784,63.578,0,41.764,30.517,47.394,60.368,47.394,19.666,0,33.266-2.805,42.8-8.833,11.825-7.476,17.572-20.089,17.572-38.561,0-19.962-6.814-44.322-17.784-63.578C2909.508,416.8,2894.383,404.934,2879.2,404.934Z" transform="translate(-2069.121 2342.765)" fill="#0d0c0d"/>
    <path id="Trazado_180054" data-name="Trazado 180054" d="M2796.443,408.57V522.011h55.791V408.57" transform="translate(-2074.763 2344.074)" fill="#a86c10"/>
    <path id="Trazado_180055" data-name="Trazado 180055" d="M2853.768,523.278h-58.325V408.57h2.534V520.744h53.256V408.57h2.534Z" transform="translate(-2075.029 2344.075)" fill="#fff"/>
    <path id="Trazado_180056" data-name="Trazado 180056" d="M2892.021,410.386V523.827h55.79V410.386" transform="translate(-2049.233 2344.56)" fill="#a86c10"/>
    <path id="Trazado_180057" data-name="Trazado 180057" d="M2949.346,525.095h-58.325V410.386h2.534V522.56h53.257V410.386h2.534Z" transform="translate(-2049.5 2344.56)" fill="#fff"/>
    <path id="Trazado_180058" data-name="Trazado 180058" d="M2862.011,510.952c0,10.957-16.236,19.838-36.264,19.838s-36.265-8.881-36.265-19.838,16.237-19.837,36.265-19.837,36.264,8.881,36.264,19.837" transform="translate(-2076.621 2366.123)" fill="#f5a156"/>
    <path id="Trazado_180059" data-name="Trazado 180059" d="M2825.881,531.556c-20.346,0-36.9-9.183-36.9-20.47s16.552-20.471,36.9-20.471,36.9,9.183,36.9,20.471S2846.226,531.556,2825.881,531.556Zm0-39.674c-19.648,0-35.631,8.615-35.631,19.2s15.983,19.2,35.631,19.2,35.63-8.615,35.63-19.2S2845.527,491.882,2825.881,491.882Z" transform="translate(-2076.755 2365.989)" fill="#f4c07f"/>
    <path id="Trazado_180060" data-name="Trazado 180060" d="M2957.945,513.747c0,10.956-16.237,19.837-36.265,19.837s-36.264-8.881-36.264-19.837,16.237-19.838,36.264-19.838,36.265,8.881,36.265,19.838" transform="translate(-2050.997 2366.869)" fill="#f5a156"/>
    <path id="Trazado_180061" data-name="Trazado 180061" d="M2921.814,534.35c-20.346,0-36.9-9.183-36.9-20.47s16.552-20.471,36.9-20.471,36.9,9.183,36.9,20.471S2942.16,534.35,2921.814,534.35Zm0-39.674c-19.646,0-35.631,8.615-35.631,19.2s15.985,19.2,35.631,19.2,35.631-8.615,35.631-19.2S2941.46,494.676,2921.814,494.676Z" transform="translate(-2051.131 2366.736)" fill="#f4c07f"/>
    <path id="Trazado_180062" data-name="Trazado 180062" d="M2926.146,318.71a26.631,26.631,0,0,0-1.04-8.71c-1.1-3.6-4.849-6.49-9.837-8.8-11.532-6.384-38.166-8.558-38.166-8.558s-.394.025-1.1.085c-.711-.06-1.105-.085-1.105-.085s-26.633,2.174-38.165,8.558c-4.988,2.309-8.741,5.2-9.838,8.8a26.684,26.684,0,0,0-1.04,8.71c-.059,2.576.04,5.573.071,9.268.1,11.922,14.257,16.116,24.176,14.678,4.3-.623,7.671-2.885,10.919-5.247,5.735-3.022,9.234-5.96,14.982-6.3,5.746.337,9.246,3.275,14.981,6.3,3.248,2.362,6.615,4.624,10.918,5.247,9.918,1.438,24.076-2.756,24.176-14.678.033-3.695.132-6.692.071-9.268" transform="translate(-2066.913 2313.11)" fill="#5f4c3a"/>
    <path id="Trazado_180063" data-name="Trazado 180063" d="M2846.413,343.688c-5.481,0-11.823-1.5-16.143-5.2a13.3,13.3,0,0,1-4.848-10.367c-.01-1.257-.029-2.434-.047-3.54-.034-2.166-.063-4.035-.024-5.746a26.988,26.988,0,0,1,1.068-8.88c1.053-3.459,4.479-6.551,10.178-9.19,11.478-6.353,37.286-8.524,38.379-8.613a7.479,7.479,0,0,1,1.209.085c.612-.061,1.011-.086,1.011-.086,1.187.09,26.995,2.261,38.513,8.635,5.66,2.618,9.085,5.711,10.137,9.169a27.046,27.046,0,0,1,1.068,8.9c.041,1.713.01,3.59-.024,5.762-.018,1.1-.035,2.26-.047,3.5a13.3,13.3,0,0,1-4.848,10.367c-5.4,4.634-13.96,5.82-20.053,4.934-4.416-.64-7.818-2.9-11.2-5.362-1.285-.669-2.523-1.382-3.692-2.058-3.752-2.162-6.715-3.87-10.955-4.119-4.165.25-7.127,1.958-10.878,4.119-1.172.675-2.409,1.389-3.771,2.106-3.3,2.413-6.707,4.674-11.123,5.314A27.333,27.333,0,0,1,2846.413,343.688Zm28.573-50.278c-.172.02-26.537,2.236-37.816,8.48-5.4,2.5-8.593,5.329-9.538,8.429a25.816,25.816,0,0,0-1.014,8.5c-.04,1.724-.01,3.583.024,5.736.018,1.109.037,2.288.047,3.55a12.074,12.074,0,0,0,4.405,9.413c5.1,4.377,13.239,5.488,19.046,4.643,4.131-.6,7.389-2.769,10.637-5.133,1.424-.758,2.647-1.462,3.806-2.13,3.741-2.157,6.973-4.019,11.511-4.287,4.613.267,7.845,2.13,11.587,4.287,1.158.667,2.38,1.372,3.728,2.082,3.326,2.413,6.583,4.584,10.714,5.181,5.8.848,13.947-.267,19.046-4.641a12.08,12.08,0,0,0,4.406-9.415c.011-1.249.029-2.418.046-3.517.035-2.165.065-4.034.024-5.73v-.039a25.816,25.816,0,0,0-1.013-8.5c-.941-3.1-4.137-5.928-9.5-8.407-11.224-6.211-37.229-8.441-37.937-8.5-.005.006-.384.032-1.014.084C2875.379,293.436,2874.989,293.411,2874.986,293.411Z" transform="translate(-2067.047 2312.974)" fill="#f4c07f"/>
    <path id="Trazado_180064" data-name="Trazado 180064" d="M2853.682,333.2s6.47,10.465,15.634,9.845,14.122-9.845,14.122-9.845a17.086,17.086,0,0,0-13.638-8.752c-9.675-.688-16.118,8.752-16.118,8.752" transform="translate(-2059.474 2321.596)" fill="#5f4c3a"/>
    <path id="Trazado_180065" data-name="Trazado 180065" d="M2886.741,409.82h-5.059c-.515-.1-1.028-.231-1.548-.291-2.951-.34-5.933-.5-8.852-1.017-20.985-3.711-39-13.187-53.288-28.974-23.279-25.717-30.065-55.533-20.775-88.971a3.507,3.507,0,0,0-.3-2.932,159.679,159.679,0,0,1-10.864-23.391c-3.622-9.949-6.366-20.091-6.424-30.783-.012-2,.136-4.005.208-6.012,10.657-1.276,20.968-1.3,31.225.763,8.382,1.687,16.321,4.494,23.314,9.554a1.665,1.665,0,0,0,2.294.038c15.532-10.589,32.931-15.163,51.511-15.717a58.811,58.811,0,0,1,9.764.759,86.779,86.779,0,0,1,34.472,13,1.76,1.76,0,0,0,2,.231c15.521-7.822,32.044-11.313,49.361-11.332,1.454,0,2.91,0,4.22,0,.23.967.363,1.524.5,2.082v11.9c-.3,2.739-.556,5.484-.9,8.217a73,73,0,0,1-6.882,24c-2.154,4.288-4.069,8.694-6.111,13.036a4.145,4.145,0,0,0-.044,3.526,93.81,93.81,0,0,1,6.523,31.1c.638,19.166-4.371,36.688-15.721,52.2-13.222,18.074-31.111,29.32-52.575,35.108-3.324.9-6.727,1.5-10.092,2.245.057-.338.176-.407.3-.433a77.524,77.524,0,0,0,19.626-6.7c23.264-11.789,38.283-30.55,46.252-55.147,4.489-13.858,5.61-28.114,4.4-42.582-.16-1.894-.44-3.779-.686-5.865-.623.407-.994.639-1.353.891q-39.663,27.845-79.3,55.722a2.039,2.039,0,0,1-2.8.051q-42.031-28.86-84.119-57.638c-.423-.289-.872-.533-1.411-.859-.076.422-.124.611-.143.8a114.389,114.389,0,0,0,2.058,37.084c5.247,23.292,16.35,43.141,34.959,58.419a75.4,75.4,0,0,0,36.56,16.771c3.213.506,6.466.764,9.7,1.137m19.972-108.472c1.483.674,2.532,1.235,3.638,1.637a44.915,44.915,0,0,0,21.638,2.272,27.052,27.052,0,0,0,12.764-4.878,11.768,11.768,0,0,0,5.205-8.931c.127-1.962-.85-2.753-2.733-2.193q-11.8,3.514-23.6,7.039c-5.5,1.64-10.987,3.283-16.909,5.054" transform="translate(-2079.253 2294.26)"/>
    <path id="Trazado_180066" data-name="Trazado 180066" d="M2876.968,287.085c7.918-2.367,15.261-4.565,22.608-6.759q15.777-4.708,31.556-9.409c2.518-.75,3.824.309,3.655,2.932-.329,5.142-2.956,8.961-6.96,11.94a36.177,36.177,0,0,1-17.065,6.523,60.048,60.048,0,0,1-28.931-3.037c-1.479-.537-2.879-1.289-4.863-2.19" transform="translate(-2053.253 2307.244)" fill="#fff"/>
    <path id="Trazado_180067" data-name="Trazado 180067" d="M2870.825,287.608c-7.918-2.367-15.262-4.565-22.607-6.759q-15.777-4.708-31.557-9.409c-2.518-.75-3.824.309-3.655,2.932.33,5.142,2.955,8.961,6.96,11.94a36.169,36.169,0,0,0,17.066,6.522,60.029,60.029,0,0,0,28.93-3.036c1.479-.537,2.879-1.289,4.863-2.19" transform="translate(-2070.342 2307.383)" fill="#fff"/>
    <path id="Trazado_180068" data-name="Trazado 180068" d="M2817.449,434.9,2812,456.972a128.479,128.479,0,0,0,51.049,19.8v-25.7a127.036,127.036,0,0,1-45.6-16.178" transform="translate(-2070.606 2351.107)" fill="#fae417"/>
    <path id="Trazado_180069" data-name="Trazado 180069" d="M2857.181,448.3v25.735c3.391.317,6.792.494,10.2.494,4.984,0,9.857-.257,14.626-.716V448q-7.4.738-15.151.746c-3.228,0-6.454-.162-9.672-.447" transform="translate(-2058.539 2354.607)" fill="#fae417"/>
    <path id="Trazado_180070" data-name="Trazado 180070" d="M2790.983,438.511a134.94,134.94,0,0,0,21.177,19.076l5.363-21.731a136.22,136.22,0,0,1-21.6-17.372Z" transform="translate(-2076.221 2346.722)" fill="#fae417"/>
    <path id="Trazado_180071" data-name="Trazado 180071" d="M2777.247,393.4c-1.624,4.976-3.069,10.032-4.259,15.1a118.189,118.189,0,0,0,17.861,30.862l4.808-19.489a123.633,123.633,0,0,1-18.411-26.471" transform="translate(-2081.027 2340.022)" fill="#fae417"/>
    <path id="Trazado_180072" data-name="Trazado 180072" d="M2920.187,437.734l2.944,24.283a109.831,109.831,0,0,0,22.663-19.318l-2.82-23.274a110.868,110.868,0,0,1-22.787,18.31" transform="translate(-2041.709 2346.974)" fill="#fae417"/>
    <path id="Trazado_180073" data-name="Trazado 180073" d="M2961.962,408.471c-1.367-4.563-2.893-9.206-4.52-13.851A100.237,100.237,0,0,1,2942.5,419.8l2.774,22.886a99.085,99.085,0,0,0,16.689-34.213" transform="translate(-2035.75 2340.348)" fill="#fae417"/>
    <path id="Trazado_180074" data-name="Trazado 180074" d="M2881.663,450.3v25.859a129.763,129.763,0,0,0,45.935-15.226l-2.961-24.432a130.441,130.441,0,0,1-42.974,13.8" transform="translate(-2051.999 2351.536)" fill="#fae417"/>
    <path id="Trazado_180075" data-name="Trazado 180075" d="M2876.771,448.163v25.812c2.087-.2,4.157-.436,6.2-.721V447.4c-2.047.291-4.107.559-6.2.767" transform="translate(-2053.306 2354.445)" fill="#fc4100"/>
    <path id="Trazado_180076" data-name="Trazado 180076" d="M2858.488,448.39q-3.108-.275-6.2-.724v25.7c2.06.308,4.127.566,6.2.76Z" transform="translate(-2059.846 2354.517)" fill="#fc4100"/>
    <path id="Trazado_180077" data-name="Trazado 180077" d="M2940.99,444.016q2.866-3.22,5.438-6.64l-2.775-22.887q-2.6,3.222-5.484,6.253Z" transform="translate(-2036.906 2345.656)" fill="#fc4100"/>
    <path id="Trazado_180078" data-name="Trazado 180078" d="M2921.418,433.874q-2.854,1.737-5.84,3.333l2.963,24.434c1.98-1.118,3.93-2.269,5.821-3.483Z" transform="translate(-2042.94 2350.833)" fill="#fc4100"/>
    <path id="Trazado_180079" data-name="Trazado 180079" d="M2796.968,419.6q-2.615-2.587-5.074-5.314l-4.811,19.488q2.379,3,4.941,5.853Z" transform="translate(-2077.262 2345.602)" fill="#fc4100"/>
    <path id="Trazado_180080" data-name="Trazado 180080" d="M2813.06,432.194l-5.365,21.732q2.683,1.946,5.456,3.767l5.448-22.073c-1.876-1.094-3.719-2.244-5.54-3.426" transform="translate(-2071.757 2350.385)" fill="#fc4100"/>
    <path id="Trazado_180081" data-name="Trazado 180081" d="M3008.225,409.211a99.241,99.241,0,0,1-16.048,32.013q-2.569,3.419-5.438,6.64a109.719,109.719,0,0,1-22.665,19.318c-1.887,1.214-3.838,2.366-5.821,3.483a129.766,129.766,0,0,1-45.934,15.226c-2.044.285-4.113.521-6.2.721-4.77.459-9.642.716-14.626.716-3.4,0-6.806-.177-10.2-.494-2.072-.194-4.137-.454-6.2-.76a128.458,128.458,0,0,1-51.049-19.8q-2.776-1.815-5.455-3.768a134.96,134.96,0,0,1-21.177-19.076q-2.561-2.859-4.942-5.852a118.207,118.207,0,0,1-17.86-30.863q.386-1.638.809-3.275c-3.833,14.15-5.877,28.58-4.358,41.7,6.716,58.042,64.724,105.794,123.153,105.8,70.669,0,120.674-47.366,120.674-105.8,0-9.985-2.672-22.617-6.669-35.926" transform="translate(-2081.675 2342.703)" fill="#0d0c0d"/>
    <path id="Trazado_180082" data-name="Trazado 180082" d="M2795.619,407.662V521.1h55.791V407.662" transform="translate(-2074.982 2343.832)" fill="#3e3a39"/>
    <path id="Trazado_180083" data-name="Trazado 180083" d="M2852.945,522.371H2794.62V407.662h2.534V519.837h53.257V407.662h2.534Z" transform="translate(-2075.25 2343.832)" fill="#0d0c0d"/>
    <path id="Trazado_180084" data-name="Trazado 180084" d="M2891.2,409.478V522.919h55.791V409.478" transform="translate(-2049.453 2344.317)" fill="#3e3a39"/>
    <path id="Trazado_180085" data-name="Trazado 180085" d="M2948.522,524.187H2890.2V409.478h2.534V521.652h53.257V409.478h2.534Z" transform="translate(-2049.72 2344.317)" fill="#0d0c0d"/>
    <path id="Trazado_180086" data-name="Trazado 180086" d="M2893.082,466.11l27.227,20.325,26.46-24.8v57.186l-54.749,4.781Z" transform="translate(-2049.233 2358.25)" fill="#0d0c0d"/>
    <path id="Trazado_180087" data-name="Trazado 180087" d="M2891.511,524.607l1.1-59.435,27.792,20.746,27.139-25.435v59.23Zm2.317-56.944-1.025,55.558,53.468-4.668V463.41l-25.779,24.159Z" transform="translate(-2049.369 2357.941)" fill="#fff"/>
    <path id="Trazado_180088" data-name="Trazado 180088" d="M2958.254,513.747c0,10.956-16.236,19.837-36.264,19.837s-36.264-8.881-36.264-19.837,16.236-19.838,36.264-19.838,36.264,8.881,36.264,19.838" transform="translate(-2050.915 2366.869)" fill="#0d0c0d"/>
    <path id="Trazado_180089" data-name="Trazado 180089" d="M2922.124,534.35c-20.345,0-36.9-9.183-36.9-20.47s16.552-20.471,36.9-20.471,36.9,9.183,36.9,20.471S2942.47,534.35,2922.124,534.35Zm0-39.674c-19.646,0-35.63,8.615-35.63,19.2s15.983,19.2,35.63,19.2,35.631-8.615,35.631-19.2S2941.771,494.676,2922.124,494.676Z" transform="translate(-2051.047 2366.736)" fill="#fff"/>
    <path id="Trazado_180090" data-name="Trazado 180090" d="M2796.215,463.8l27.227,20.325,26.46-24.8v57.186l-54.748,4.781Z" transform="translate(-2075.106 2357.631)" fill="#0d0c0d"/>
    <path id="Trazado_180091" data-name="Trazado 180091" d="M2794.644,522.291l1.1-59.434,27.792,20.745,27.14-25.431V517.4Zm2.319-56.941-1.025,55.556,53.469-4.668V461.1l-25.78,24.159Z" transform="translate(-2075.242 2357.323)" fill="#fff"/>
    <path id="Trazado_180092" data-name="Trazado 180092" d="M2861.388,511.432c0,10.957-16.236,19.838-36.264,19.838s-36.264-8.881-36.264-19.838,16.237-19.837,36.264-19.837,36.264,8.881,36.264,19.837" transform="translate(-2076.788 2366.251)" fill="#0d0c0d"/>
    <path id="Trazado_180093" data-name="Trazado 180093" d="M2825.258,532.035c-20.346,0-36.9-9.183-36.9-20.47s16.552-20.47,36.9-20.47,36.9,9.183,36.9,20.47S2845.6,532.035,2825.258,532.035Zm0-39.673c-19.646,0-35.631,8.615-35.631,19.2s15.985,19.2,35.631,19.2,35.63-8.614,35.63-19.2S2844.9,492.362,2825.258,492.362Z" transform="translate(-2076.921 2366.117)" fill="#fff"/>
    <ellipse id="Elipse_3450" data-name="Elipse 3450" cx="25.106" cy="11.031" rx="25.106" ry="11.031" transform="translate(784.601 2719.179)" fill="#fae417"/>
    <circle id="Elipse_3451" data-name="Elipse 3451" cx="5.007" cy="5.007" r="5.007" transform="translate(849.892 2586.063)"/>
    <circle id="Elipse_3452" data-name="Elipse 3452" cx="5.007" cy="5.007" r="5.007" transform="translate(761.718 2586.638)"/>
    <ellipse id="Elipse_3453" data-name="Elipse 3453" cx="52.381" cy="14.878" rx="52.381" ry="14.878" transform="translate(447.675 2823.476) rotate(-23.625)" fill="#fff"/>
    <path id="Trazado_180094" data-name="Trazado 180094" d="M2139.991,98.872c-6.278,0-10.307-1.505-11.579-4.416-3.486-7.969,15.118-23.544,42.355-35.457,12.87-5.63,25.6-9.5,35.849-10.9,10.5-1.433,17.221-.061,18.938,3.863h0c3.486,7.969-15.119,23.544-42.355,35.457-12.872,5.63-25.6,9.5-35.849,10.9A54.971,54.971,0,0,1,2139.991,98.872Zm74.023-50.06a54.111,54.111,0,0,0-7.226.542c-10.135,1.384-22.746,5.22-35.514,10.8-25.7,11.242-44.8,26.714-41.7,33.789,1.447,3.308,7.863,4.446,17.6,3.116,10.135-1.382,22.747-5.219,35.515-10.8,25.7-11.24,44.8-26.714,41.7-33.789C2223.344,50.07,2219.673,48.813,2214.014,48.813Z" transform="translate(-1675.355 2742.904)"/>
    <path id="Trazado_180095" data-name="Trazado 180095" d="M2186.733-116.627c9.5-19.01,7.026-45.046,7.026-45.046-31.821-1.654-54.434,11.8-54.434,11.8-14.072-9.23-30.195-14.7-46.816-14.7a89.953,89.953,0,0,0-51.153,16.428l0,0s-17.452-16.01-55.059-11.465c0,0-4.673,21.861,17.707,61.556l.011-.014a92.05,92.05,0,0,0-4.493,28.344c0,51.7,43.685,92.364,92.985,92.364s94.224-35.71,94.224-87.4a95.729,95.729,0,0,0-6.962-35.36h0l0,0c-.077-.194-.155-.386-.233-.579C2179.86-102.067,2181.4-105.957,2186.733-116.627Z" transform="translate(-1713.311 2686.247)" fill="#fff"/>
    <path id="Trazado_180096" data-name="Trazado 180096" d="M2092.65,23.41c-23.964,0-47.811-9.833-65.422-26.975a91.581,91.581,0,0,1-28.2-66.023,92.655,92.655,0,0,1,4.432-28.253c-22.1-39.3-17.836-60.865-17.644-61.765l.094-.443.45-.055c19.552-2.362,33.6.906,41.932,4.065a47.491,47.491,0,0,1,13.247,7.233,90.2,90.2,0,0,1,51.107-16.261c15.973,0,32.162,5.044,46.839,14.591,2.989-1.666,24.918-13.225,54.444-11.7l.546.029.052.544c.025.262,2.387,26.437-7.089,45.39h0c-5.108,10.215-6.7,14.132-7.1,15.594l.16.392a96.021,96.021,0,0,1,7.007,35.6,83.9,83.9,0,0,1-28.839,63.563C2141.088,14.489,2117.025,23.41,2092.65,23.41Zm-86.8-124.529-1.087,3.381a91.459,91.459,0,0,0-4.461,28.15,90.322,90.322,0,0,0,27.813,65.114c17.379,16.916,40.9,26.617,64.539,26.617,24.07,0,47.827-8.805,65.18-24.157a82.649,82.649,0,0,0,28.411-62.614,94.7,94.7,0,0,0-6.918-35.125l-.311-.767.048-.2c.471-1.982,2.909-7.385,7.247-16.059h0c8.564-17.127,7.287-40.322,7.006-44.156-30.979-1.444-53.3,11.611-53.522,11.744l-.341.2-.331-.217c-14.557-9.548-30.625-14.595-46.469-14.595a89.02,89.02,0,0,0-50.793,16.315l-3.567,2.472,2.329-2.909a47.666,47.666,0,0,0-12.845-6.959c-8.126-3.069-21.775-6.239-40.788-4.021-.476,3.26-2.523,24.4,17.248,59.843Z" transform="translate(-1713.451 2686.113)"/>
    <path id="Trazado_180097" data-name="Trazado 180097" d="M2220.689,74.079c0-39.674-42.153-121.087-42.153-121.087s-29.753,40.645-78.521,41.327c-59.1.826-83.067-39.26-83.067-39.26s-45.872,69.015-40.086,119.021c6.716,58.042,64.724,105.794,123.153,105.8C2170.684,179.876,2220.689,132.508,2220.689,74.079Z" transform="translate(-1715.857 2717.648)" fill="#940e48"/>
    <path id="Trazado_180098" data-name="Trazado 180098" d="M2003.011,19.526V132.968H2058.8V19.526" transform="translate(-1708.738 2735.42)" fill="#940e48"/>
    <path id="Trazado_180099" data-name="Trazado 180099" d="M2060.336,134.235h-58.325V19.526h2.534V131.7H2057.8V19.526h2.534Z" transform="translate(-1709.005 2735.419)" fill="#fff"/>
    <path id="Trazado_180100" data-name="Trazado 180100" d="M2098.9,19.526V132.968h55.791V19.526" transform="translate(-1683.126 2735.42)" fill="#940e48"/>
    <path id="Trazado_180101" data-name="Trazado 180101" d="M2156.224,134.235H2097.9V19.526h2.534V131.7h53.256V19.526h2.535Z" transform="translate(-1683.394 2735.419)" fill="#fff"/>
    <ellipse id="Elipse_3454" data-name="Elipse 3454" cx="36.264" cy="19.837" rx="36.264" ry="19.837" transform="translate(285.453 2859.539)" fill="#fff"/>
    <path id="Trazado_180102" data-name="Trazado 180102" d="M2032.449,142.512c-20.346,0-36.9-9.183-36.9-20.47s16.552-20.47,36.9-20.47,36.9,9.183,36.9,20.47S2052.794,142.512,2032.449,142.512Zm0-39.673c-19.648,0-35.631,8.614-35.631,19.2s15.983,19.2,35.631,19.2,35.63-8.615,35.63-19.2S2052.1,102.839,2032.449,102.839Z" transform="translate(-1710.731 2757.334)"/>
    <ellipse id="Elipse_3455" data-name="Elipse 3455" cx="36.264" cy="19.837" rx="36.264" ry="19.837" transform="translate(407.011 2860.779)" fill="#fff"/>
    <path id="Trazado_180103" data-name="Trazado 180103" d="M2128.382,143.49c-20.345,0-36.9-9.183-36.9-20.47s16.553-20.47,36.9-20.47,36.9,9.183,36.9,20.47S2148.727,143.49,2128.382,143.49Zm0-39.673c-19.647,0-35.631,8.615-35.631,19.2s15.983,19.2,35.631,19.2,35.63-8.614,35.63-19.2S2148.028,103.817,2128.382,103.817Z" transform="translate(-1685.107 2757.595)"/>
    <path id="Trazado_180104" data-name="Trazado 180104" d="M2127.38-72.624a24.3,24.3,0,0,0-.949-7.945c-1-3.286-4.422-5.92-8.973-8.026-10.519-5.824-34.812-7.807-34.812-7.807s-.361.024-1.008.079c-.648-.054-1.009-.079-1.009-.079s-24.293,1.983-34.812,7.807c-4.551,2.106-7.973,4.74-8.972,8.026a24.3,24.3,0,0,0-.949,7.945c-.056,2.349.036,5.084.064,8.453.093,10.876,13.005,14.7,22.053,13.391,3.926-.569,18.307-13.942,21.268-16.1,5.232-2.755-2.884-17.875,2.358-18.183,5.241.308-2.875,15.428,2.357,18.183,2.961,2.155,17.343,15.528,21.268,16.1,9.047,1.311,21.96-2.515,22.053-13.391C2127.344-67.54,2127.436-70.275,2127.38-72.624Z" transform="translate(-1699.96 2704.455)" fill="#d41609"/>
    <path id="Trazado_180105" data-name="Trazado 180105" d="M2054.664-49.773c-5.011,0-10.81-1.371-14.761-4.761a12.344,12.344,0,0,1-4.443-9.5c-.009-1.148-.027-2.222-.042-3.234-.032-1.974-.059-3.678-.022-5.239a24.72,24.72,0,0,1,.975-8.115c.966-3.172,4.1-6,9.313-8.415,10.476-5.8,34.03-7.783,35.027-7.865.1-.016.459.025,1.113.079.549-.053.913-.079.913-.079,1.091.082,24.644,2.063,35.161,7.885,5.174,2.391,8.306,5.222,9.273,8.395a24.784,24.784,0,0,1,.976,8.135c.037,1.555.01,3.254-.022,5.22-.015,1.011-.033,2.084-.042,3.232a12.342,12.342,0,0,1-4.443,9.5c-4.939,4.237-12.767,5.321-18.335,4.513-2.811-.407-9.7-6.147-17.11-12.5-2.045-1.754-3.659-3.139-4.44-3.706a4.041,4.041,0,0,1-1.993-3.2,4.143,4.143,0,0,1-2.054,3.251c-.7.52-2.318,1.9-4.363,3.658-7.412,6.357-14.3,12.1-17.11,12.5A25.129,25.129,0,0,1,2054.664-49.773Zm26.059-45.862c-.149.019-24.186,2.039-34.465,7.729-4.912,2.274-7.817,4.843-8.673,7.655a23.545,23.545,0,0,0-.923,7.738c-.035,1.572-.009,3.267.023,5.228.015,1.012.032,2.091.042,3.243a10.966,10.966,0,0,0,4,8.547c4.638,3.979,12.043,4.989,17.329,4.222,2.68-.389,11.311-7.79,16.466-12.212,2.065-1.771,3.7-3.172,4.521-3.77,2.334-1.237,1.562-5.693.882-9.624-.592-3.414-1.1-6.361.058-7.823a2.3,2.3,0,0,1,1.751-.857,2.34,2.34,0,0,1,1.826.857c1.159,1.462.65,4.41.058,7.823-.68,3.931-1.452,8.387.806,9.576.9.646,2.532,2.046,4.6,3.818,5.156,4.422,13.786,11.823,16.467,12.212,5.287.767,12.69-.243,17.328-4.222a10.965,10.965,0,0,0,4-8.547c.009-1.152.027-2.229.042-3.241.032-1.961.059-3.656.022-5.191v-.038a23.551,23.551,0,0,0-.923-7.738c-.857-2.812-3.761-5.38-8.633-7.634-10.218-5.655-33.885-7.691-34.584-7.75-.005.005-.35.029-.917.077C2081.08-95.611,2080.724-95.635,2080.722-95.635Zm1.012,11.341a1,1,0,0,0-.759.379c-.807,1.019-.3,3.967.2,6.82.226,1.308.461,2.667.6,3.975.138-1.306.374-2.666.6-3.975.494-2.852,1-5.8.2-6.82A1.041,1.041,0,0,0,2081.734-84.294Z" transform="translate(-1700.094 2704.321)" fill="#f8c328"/>
    <path id="Trazado_180106" data-name="Trazado 180106" d="M2061.029-94.021s6.47,10.465,15.632,9.845,14.123-9.845,14.123-9.845a17.086,17.086,0,0,0-13.638-8.752C2067.472-103.459,2061.029-94.021,2061.029-94.021Z" transform="translate(-1693.241 2702.743)" fill="#e97ebd"/>
    <path id="Trazado_180107" data-name="Trazado 180107" d="M2132.6-109.324c-.6,3.491.058,16.325-21.7,19.327-14.513,2-26.656-5.409-26.656-12.084,0-9.98.018-5.422,26.656-4.645C2118.365-106.509,2132.6-109.324,2132.6-109.324Z" transform="translate(-1687.041 2701.003)" fill="#fff"/>
    <path id="Trazado_180108" data-name="Trazado 180108" d="M2106.291-88.87c-7.274,0-14.276-2.214-18.714-6.081-2.472-2.154-3.833-4.626-3.833-6.961,0-3.359,0-5.209,1.111-6.208,1.224-1.1,3.419-.864,8.226-.348,3.842.412,9.646,1.035,17.972,1.277,7.328.223,21.413-2.558,21.555-2.586l.9-.179-.154.907c-.052.3-.093.673-.141,1.1-.536,4.769-1.787,15.941-22.094,18.744A35.366,35.366,0,0,1,2106.291-88.87Zm-18.533-18.765a3.152,3.152,0,0,0-2.055.457c-.692.62-.692,2.368-.692,5.265,0,1.964,1.207,4.1,3.4,6.006,3.912,3.411,12.166,6.882,22.538,5.451,19.33-2.667,20.506-13.153,21.008-17.631.01-.1.021-.19.031-.281-3.226.608-14.509,2.623-20.972,2.443-8.373-.245-14.208-.87-18.069-1.284C2090.684-107.451,2088.975-107.635,2087.758-107.635Z" transform="translate(-1687.174 2700.834)"/>
    <path id="Trazado_180109" data-name="Trazado 180109" d="M2021.181-108.234c.6,3.491-.06,15.086,21.7,18.088,14.514,2,26.563-5.411,26.655-12.084.145-10.456-.016-5.422-26.655-4.645C2035.412-106.657,2021.181-108.234,2021.181-108.234Z" transform="translate(-1703.885 2701.152)" fill="#fff"/>
    <path id="Trazado_180110" data-name="Trazado 180110" d="M2047.75-89.057a35.085,35.085,0,0,1-4.8-.327c-20.375-2.813-21.583-13.159-22.1-17.576-.045-.4-.086-.744-.135-1.034l-.142-.829.836.092c.142.016,14.283,1.581,21.608,1.355,8.615-.251,14.506-.955,18.4-1.422,4.572-.547,6.659-.8,7.854.28,1.125,1.01,1.1,2.935,1.048,6.429-.032,2.366-1.439,4.862-3.962,7.03C2061.925-91.241,2054.959-89.057,2047.75-89.057Zm-25.67-18.327.031.278c.483,4.126,1.611,13.79,21.014,16.467,10.275,1.419,18.5-2.012,22.415-5.38,2.243-1.927,3.493-4.089,3.52-6.085.042-3.022.067-4.845-.628-5.471-.769-.693-2.932-.433-6.856.037s-9.847,1.177-18.519,1.431C2036.662-105.927,2025.207-107.057,2022.08-107.384Z" transform="translate(-1704.046 2701.018)"/>
    <path id="Trazado_180111" data-name="Trazado 180111" d="M2003.452-103.045s9.987-29.911,33.527-44.383c0,0-15.32-15.435-47.42-9.921C1989.559-157.349,1990.612-123.719,2003.452-103.045Z" transform="translate(-1712.332 2687.857)" fill="#a9690f"/>
    <path id="Trazado_180112" data-name="Trazado 180112" d="M2145.768-107.378s-11.324-30.184-34.975-42.705c0,0,14.417-11.749,45.971-8.147C2156.764-158.23,2157.265-127.615,2145.768-107.378Z" transform="translate(-1679.949 2687.756)" fill="#a9690f"/>
    <path id="Trazado_180113" data-name="Trazado 180113" d="M2135.954-150.3a14.4,14.4,0,0,1-1.337,8.291c-.463.906.9,1.708,1.368.8a15.836,15.836,0,0,0,1.553-9.09c-.109-1-1.693-1.014-1.584,0Z" transform="translate(-1673.611 2689.855)"/>
    <path id="Trazado_180114" data-name="Trazado 180114" d="M2138.63-151.523c.856,5.623.054,11.147-3.177,15.906-.576.845.8,1.638,1.367.8,3.482-5.128,4.258-11.086,3.337-17.128-.154-1-1.68-.578-1.527.422Z" transform="translate(-1673.399 2689.465)"/>
    <path id="Trazado_180115" data-name="Trazado 180115" d="M2142.33-154.562c1.718,9.61.087,19.275-6.753,26.583l1.121,1.12.964-1.042c.692-.746-.426-1.87-1.12-1.12l-.965,1.042c-.691.746.421,1.866,1.121,1.12,7.226-7.722,8.981-17.936,7.16-28.125-.18-1-1.707-.577-1.528.422Z" transform="translate(-1673.387 2688.654)"/>
    <path id="Trazado_180116" data-name="Trazado 180116" d="M2145.349-156.606a44.1,44.1,0,0,1-2.648,25.462c-1.333,3.237-3.547,6.12-4.848,9.308-.423,1.038-.993,1.228-.605,2.329a.8.8,0,0,0,.974.554l.3-.1a.8.8,0,0,0,.474-1.163l-.142-.218c-.551-.853-1.922-.06-1.367.8.5.77,5.937-9.135,6.267-9.895a51.089,51.089,0,0,0,2.9-8.562,44.975,44.975,0,0,0,.227-18.938c-.189-1-1.716-.577-1.527.422Z" transform="translate(-1672.917 2688.108)"/>
    <path id="Trazado_180117" data-name="Trazado 180117" d="M2000.233-150.173a15.838,15.838,0,0,0,1.553,9.09c.465.907,1.832.106,1.367-.8a14.4,14.4,0,0,1-1.337-8.291c.109-1.012-1.475-1-1.584,0Z" transform="translate(-1709.51 2689.89)"/>
    <path id="Trazado_180118" data-name="Trazado 180118" d="M1998.051-151.815c-.921,6.043-.146,12,3.336,17.126.569.839,1.943.047,1.367-.8-3.235-4.764-4.033-10.281-3.177-15.906.152-1-1.374-1.428-1.527-.422Z" transform="translate(-1710.158 2689.5)"/>
    <path id="Trazado_180119" data-name="Trazado 180119" d="M1995.185-154.854c-1.821,10.188-.066,20.4,7.16,28.125.7.746,1.812-.374,1.12-1.12l-.964-1.042c-.695-.749-1.813.373-1.12,1.12l.964,1.042,1.12-1.12c-6.826-7.293-8.47-16.975-6.753-26.583.177-1-1.348-1.424-1.528-.422Z" transform="translate(-1711.007 2688.689)"/>
    <path id="Trazado_180120" data-name="Trazado 180120" d="M1992.48-156.9a45.317,45.317,0,0,0,.227,18.938,49.383,49.383,0,0,0,2.509,7.667c.424,1.024,6.147,11.572,6.655,10.789.555-.859-.816-1.654-1.367-.8l-.142.218a.8.8,0,0,0,.474,1.163l.3.1a.809.809,0,0,0,.975-.554c.262-.746,0-.819-.1-1.526-.158-1.12-2.379-3.9-2.933-4.932a55.676,55.676,0,0,1-2.426-5.18,44.176,44.176,0,0,1-2.646-25.462c.188-1-1.338-1.423-1.527-.422Z" transform="translate(-1711.788 2688.143)"/>
    <path id="Trazado_180121" data-name="Trazado 180121" d="M2087.337-15.842" transform="translate(-1686.215 2725.972)" fill="#f8f72b"/>
    <path id="Trazado_180122" data-name="Trazado 180122" d="M2059.389-14.174s2.384,93.7-11.133,126.349l19.466,29.793,11.145-27.344V58.712S2084.038,12.115,2059.389-14.174Z" transform="translate(-1696.653 2726.418)" fill="#f8f72b"/>
    <path id="Trazado_180123" data-name="Trazado 180123" d="M2068,143.674l-20.311-31.085.128-.31c13.311-32.153,11.109-125.153,11.085-126.09l-.042-1.662L2060-14.259c12.85,13.705,17.507,32.937,19.15,46.659a130.727,130.727,0,0,1,.495,26.73l0,55.967-.047.114Zm-18.885-31.219,18.623,28.5,10.642-26.113V59.059c.054-.525,4.7-45.227-18.176-71.208.109,5.873.382,26.256-.534,49.278C2058.23,73.431,2054.68,98.771,2049.119,112.455Z" transform="translate(-1696.804 2726.071)" fill="#fac611"/>
    <path id="Trazado_180124" data-name="Trazado 180124" d="M2092.754-15.842s-2.5,94.88,11.685,127.941l-20.43,30.17-11.7-27.69V57.962S2066.883,10.777,2092.754-15.842Z" transform="translate(-1690.354 2725.972)" fill="#f8f72b"/>
    <path id="Trazado_180125" data-name="Trazado 180125" d="M2084.005,143.929l-12.2-29.012V58.3c-.052-.4-5.161-47.719,20.623-74.247l1.13-1.163-.043,1.622c-.026.947-2.335,95.119,11.634,127.675l.136.318Zm-10.933-29.14,11.192,26.5,19.585-28.918c-12.906-30.67-11.877-113.5-11.636-126.24-12.392,13.535-16.975,32.024-18.627,45.332a126.244,126.244,0,0,0-.519,26.77Z" transform="translate(-1690.481 2725.634)" fill="#d47d11"/>
    <path id="Trazado_180126" data-name="Trazado 180126" d="M2008.392-45.377l33.617,63.848s10.535-30.8,30.957-25.731C2072.966-7.26,2033.326-10.869,2008.392-45.377Z" transform="translate(-1707.301 2718.083)" fill="#199a5f"/>
    <path id="Trazado_180127" data-name="Trazado 180127" d="M2087.337-7.517s35.658-8.7,61.556-39.491l-31.835,68.395S2102.374-15.346,2087.337-7.517Z" transform="translate(-1686.215 2717.648)" fill="#199a5f"/>
    <path id="Trazado_180128" data-name="Trazado 180128" d="M2052.312-16.674s26.835,20.494,25.946,73.805c0,0,4.676-69.795,23.084-73.952C2101.342-16.821,2066.812-10.555,2052.312-16.674Z" transform="translate(-1695.57 2725.711)" fill="#199a5f"/>
    <path id="Trazado_180129" data-name="Trazado 180129" d="M2104.862-127.522l-7.3,31.316,7.3,18.659,6.06-18.659Z" transform="translate(-1683.482 2696.142)" fill="#1aa9cb"/>
    <path id="Trazado_180130" data-name="Trazado 180130" d="M2105.056-75.025l-8.012-20.493,8.015-34.4,6.656,34.4Zm-6.689-20.588,6.579,16.826,5.461-16.818-5.464-28.239Z" transform="translate(-1683.621 2695.501)"/>
    <path id="Trazado_180131" data-name="Trazado 180131" d="M2041.771-127.522l-7.3,31.316,7.3,18.659,6.06-18.659Z" transform="translate(-1700.334 2696.142)" fill="#1aa9cb"/>
    <path id="Trazado_180132" data-name="Trazado 180132" d="M2041.964-75.025l-8.01-20.493,8.013-34.4,6.656,34.4Zm-6.688-20.588,6.579,16.826,5.461-16.818-5.464-28.239Z" transform="translate(-1700.474 2695.501)"/>
    <path id="Trazado_180133" data-name="Trazado 180133" d="M2106.075-107.677c7.148,0,12.944-.955,12.944,4.264a12.944,12.944,0,0,1-12.944,12.942,12.943,12.943,0,0,1-12.942-12.942C2093.133-110.561,2098.927-107.677,2106.075-107.677Z" transform="translate(-1684.666 2701.289)"/>
    <path id="Trazado_180134" data-name="Trazado 180134" d="M2041.995-107.653c6.962-.545,13.16-1.064,12.623,6.445-.489,6.818-6.952,11.645-13.741,10.845s-10.717-6.906-10.845-13.741C2029.946-108.718,2035.566-107.15,2041.995-107.653Z" transform="translate(-1701.521 2701.375)"/>
    <path id="Trazado_180135" data-name="Trazado 180135" d="M2032.124-147.793s-22.183,18.493-18.878,35.688c0,0,10.415-28.945,27.524-27.368,0,0,3.746,13.415,14.147,13.514s11.226,6.118,11.226,13.855c0,0,12.881-20.737,4.374-29.714,0,0,19.6-10.969,23.728,11.522s-6.727,28.862-6.727,28.862,39.09-25,25.8-38.038,32-7.248,25.884,6.622,21.858-2.03-8.336-18.964C2095.9-171.427,2061.6-167.1,2032.124-147.793Z" transform="translate(-1706.094 2686.247)" fill="#3da537"/>
    <path id="Trazado_180136" data-name="Trazado 180136" d="M2087.973-100.749l-.663-1.081.118-.076c1.058-.72,10.108-7.562,6.327-28.137-1.192-6.49-3.8-10.725-7.762-12.585-5.511-2.59-12.177.125-14.329,1.148,7.636,9.491-4.325,29.005-4.85,29.849l-1.172,1.887v-2.221c0-7.682-.76-13.128-10.6-13.221-9.807-.092-13.864-11.171-14.623-13.549-.285-.018-.572-.027-.854-.027-15.688,0-25.493,26.735-25.592,27.012l-.783,2.173-.436-2.268c-1.387-7.212,1.489-15.786,8.316-24.795a78.367,78.367,0,0,1,10.778-11.5l.058-.043c32.168-21.077,66.541-22.476,99.4-4.045,17.834,10,14.906,19.084,13.585,21.629-1.424,2.738-4.179,4.423-5.891,3.6-.715-.343-2.169-1.61-.247-5.969,1.782-4.045-1.43-7.021-4.438-8.806-7.6-4.508-20.2-5.432-22.376-2.608-.971,1.262.526,3.2,1.951,4.6a9.254,9.254,0,0,1,2.888,7.884c-1.346,12.961-25.7,29.132-28.553,30.988C2088.1-100.822,2088.006-100.769,2087.973-100.749ZM2080.737-145a13.517,13.517,0,0,1,5.8,1.221c4.349,2.044,7.2,6.588,8.47,13.5,2.415,13.142-.18,20.879-2.875,25.113,7.8-5.65,22.415-17.419,23.4-26.875a7.942,7.942,0,0,0-2.515-6.847c-3.246-3.187-2.917-5.17-2.069-6.273,2.99-3.885,16.873-1.953,24.027,2.291,4.875,2.893,6.634,6.589,4.952,10.407-1.206,2.737-.951,4.034-.364,4.316.839.4,2.952-.6,4.218-3.041,1.189-2.29,3.761-10.494-13.082-19.94-32.413-18.179-66.318-16.8-98.055,3.979-.834.706-19.791,16.987-18.929,32.658a74.469,74.469,0,0,1,6.492-12.108c6.341-9.415,13.522-14.037,20.76-13.37l.435.039.118.421c.037.129,3.747,12.959,13.543,13.051,9.862.094,11.574,5.378,11.818,12.164,2.9-5.337,9.889-20.022,3.319-26.954l-.56-.59.71-.4A23.728,23.728,0,0,1,2080.737-145Z" transform="translate(-1706.226 2686.107)"/>
  </g>
</svg>
